G04 #@! TF.FileFunction,Soldermask,Bot*
%FSLAX46Y46*%
G04 Gerber Fmt 4.6, Leading zero omitted, Abs format (unit mm)*
G04 Created by KiCad (PCBNEW 4.0.2-stable) date 24.08.2018 1:20:05*
%MOMM*%
G01*
G04 APERTURE LIST*
%ADD10C,0.100000*%
%ADD11R,2.300000X2.300000*%
%ADD12C,3.600000*%
%ADD13R,1.600000X1.150000*%
%ADD14R,1.150000X1.600000*%
%ADD15R,3.400000X1.900000*%
%ADD16R,1.500000X1.100000*%
%ADD17R,1.000000X1.900000*%
%ADD18R,1.000000X1.600000*%
%ADD19R,1.600000X1.000000*%
%ADD20R,1.000000X1.950000*%
%ADD21R,1.900000X1.900000*%
%ADD22R,1.600000X1.300000*%
%ADD23R,1.300000X1.600000*%
%ADD24C,2.300000*%
%ADD25R,1.620000X1.310000*%
%ADD26R,1.200000X1.200000*%
%ADD27C,2.900000*%
%ADD28R,2.900000X2.900000*%
%ADD29O,1.900000X1.900000*%
%ADD30C,1.900000*%
%ADD31O,1.500000X2.200000*%
%ADD32R,0.800000X3.100000*%
%ADD33C,0.950000*%
%ADD34C,1.700000*%
%ADD35C,1.500000*%
G04 APERTURE END LIST*
D10*
D11*
X124450000Y-98500000D03*
D12*
X100000000Y-74600000D03*
X150800000Y-100000000D03*
X150800000Y-49200000D03*
X100000000Y-49200000D03*
D13*
X103350000Y-55050000D03*
X105250000Y-55050000D03*
D14*
X121100000Y-66250000D03*
X121100000Y-64350000D03*
X113700000Y-92950000D03*
X113700000Y-91050000D03*
D13*
X107050000Y-92950000D03*
X105150000Y-92950000D03*
X107050000Y-91050000D03*
X105150000Y-91050000D03*
D14*
X112100000Y-72350000D03*
X112100000Y-70450000D03*
X122600000Y-66250000D03*
X122600000Y-64350000D03*
D13*
X131150000Y-79400000D03*
X133050000Y-79400000D03*
D15*
X111048980Y-87800000D03*
X107051020Y-87800000D03*
D14*
X110000000Y-72350000D03*
X110000000Y-70450000D03*
X117800000Y-88350000D03*
X117800000Y-86450000D03*
X148250000Y-57850000D03*
X148250000Y-55950000D03*
D16*
X111600000Y-91050000D03*
X111600000Y-92000000D03*
X111600000Y-92950000D03*
X109200000Y-92950000D03*
X109200000Y-91050000D03*
D17*
X102065000Y-57450000D03*
X103335000Y-57450000D03*
X104605000Y-57450000D03*
X105875000Y-57450000D03*
X107145000Y-57450000D03*
X108415000Y-57450000D03*
X109685000Y-57450000D03*
X110955000Y-57450000D03*
X110955000Y-66750000D03*
X109685000Y-66750000D03*
X108415000Y-66750000D03*
X107145000Y-66750000D03*
X105875000Y-66750000D03*
X104605000Y-66750000D03*
X103335000Y-66750000D03*
X102065000Y-66750000D03*
D18*
X118700000Y-70650000D03*
X119500000Y-70650000D03*
X120300000Y-70650000D03*
X121100000Y-70650000D03*
X121900000Y-70650000D03*
X122700000Y-70650000D03*
X123500000Y-70650000D03*
X124300000Y-70650000D03*
D19*
X125750000Y-72100000D03*
X125750000Y-72900000D03*
X125750000Y-73700000D03*
X125750000Y-74500000D03*
X125750000Y-75300000D03*
X125750000Y-76100000D03*
X125750000Y-76900000D03*
X125750000Y-77700000D03*
D18*
X124300000Y-79150000D03*
X123500000Y-79150000D03*
X122700000Y-79150000D03*
X121900000Y-79150000D03*
X121100000Y-79150000D03*
X120300000Y-79150000D03*
X119500000Y-79150000D03*
X118700000Y-79150000D03*
D19*
X117250000Y-77700000D03*
X117250000Y-76900000D03*
X117250000Y-76100000D03*
X117250000Y-75300000D03*
X117250000Y-74500000D03*
X117250000Y-73700000D03*
X117250000Y-72900000D03*
X117250000Y-72100000D03*
D20*
X110955000Y-80350000D03*
X109685000Y-80350000D03*
X108415000Y-80350000D03*
X107145000Y-80350000D03*
X107145000Y-74950000D03*
X108415000Y-74950000D03*
X109685000Y-74950000D03*
X110955000Y-74950000D03*
D21*
X142600000Y-89870000D03*
X142600000Y-87330000D03*
X133600000Y-89870000D03*
X133600000Y-87330000D03*
D22*
X139000000Y-84850000D03*
X136800000Y-84850000D03*
X140900000Y-92350000D03*
X143100000Y-92350000D03*
D23*
X119300000Y-66250000D03*
X119300000Y-64050000D03*
X106850000Y-72350000D03*
X106850000Y-70150000D03*
X105250000Y-72350000D03*
X105250000Y-70150000D03*
X105000000Y-78050000D03*
X105000000Y-75850000D03*
X105000000Y-80150000D03*
X105000000Y-82350000D03*
X117450000Y-59950000D03*
X117450000Y-62150000D03*
X124650000Y-59950000D03*
X124650000Y-62150000D03*
X131850000Y-59950000D03*
X131850000Y-62150000D03*
X139050000Y-59950000D03*
X139050000Y-62150000D03*
D22*
X110800000Y-82850000D03*
X108600000Y-82850000D03*
D23*
X108450000Y-70150000D03*
X108450000Y-72350000D03*
X126750000Y-66400000D03*
X126750000Y-64200000D03*
D22*
X131000000Y-67950000D03*
X133200000Y-67950000D03*
X131000000Y-71150000D03*
X133200000Y-71150000D03*
X131000000Y-74350000D03*
X133200000Y-74350000D03*
X131000000Y-82150000D03*
X133200000Y-82150000D03*
X131000000Y-69550000D03*
X133200000Y-69550000D03*
X131000000Y-72750000D03*
X133200000Y-72750000D03*
X131000000Y-75950000D03*
X133200000Y-75950000D03*
X131000000Y-83750000D03*
X133200000Y-83750000D03*
D23*
X121500000Y-82000000D03*
X121500000Y-84200000D03*
X119900000Y-82000000D03*
X119900000Y-84200000D03*
X128350000Y-66400000D03*
X128350000Y-64200000D03*
D24*
X148250000Y-53650000D03*
X148250000Y-60150000D03*
D18*
X121650000Y-89500000D03*
X120700000Y-89500000D03*
X119750000Y-89500000D03*
X121650000Y-87200000D03*
X120700000Y-87200000D03*
X119750000Y-87200000D03*
D25*
X124850000Y-87965000D03*
X124850000Y-91235000D03*
D26*
X115550000Y-62150000D03*
X113650000Y-62150000D03*
X114600000Y-60150000D03*
X122750000Y-62150000D03*
X120850000Y-62150000D03*
X121800000Y-60150000D03*
X129950000Y-62150000D03*
X128050000Y-62150000D03*
X129000000Y-60150000D03*
X137150000Y-62150000D03*
X135250000Y-62150000D03*
X136200000Y-60150000D03*
D24*
X148653301Y-69846699D03*
X143350000Y-75150000D03*
D27*
X133100000Y-95500000D03*
X138100000Y-95500000D03*
D28*
X143100000Y-95500000D03*
D21*
X128100000Y-92000000D03*
D29*
X128100000Y-94540000D03*
D21*
X148100000Y-89500000D03*
D30*
X148100000Y-92040000D03*
X148100000Y-94580000D03*
D21*
X112700000Y-96050000D03*
D29*
X110160000Y-96050000D03*
D21*
X101800000Y-80000000D03*
D29*
X101800000Y-82540000D03*
D21*
X101800000Y-94400000D03*
D29*
X101800000Y-91860000D03*
X101800000Y-89320000D03*
X101800000Y-86780000D03*
D31*
X116825000Y-95010000D03*
X123975000Y-95010000D03*
X116825000Y-98480000D03*
D32*
X121700000Y-95170000D03*
X121050000Y-95170000D03*
X119100000Y-95170000D03*
X119750000Y-95170000D03*
D33*
X118400000Y-96330000D03*
X122400000Y-96330000D03*
D32*
X120400000Y-95170000D03*
D31*
X123975000Y-98480000D03*
D12*
X100000000Y-100000000D03*
D34*
X142950000Y-71750000D03*
X142950000Y-79250000D03*
D11*
X116350000Y-98500000D03*
D35*
X122950000Y-91850000D03*
X121450000Y-91850000D03*
X119950000Y-91850000D03*
X118450000Y-91850000D03*
M02*
