G04 #@! TF.FileFunction,Copper,L1,Top,Signal*
%FSLAX46Y46*%
G04 Gerber Fmt 4.6, Leading zero omitted, Abs format (unit mm)*
G04 Created by KiCad (PCBNEW 4.0.2-stable) date 24.08.2018 1:20:05*
%MOMM*%
G01*
G04 APERTURE LIST*
%ADD10C,0.100000*%
%ADD11R,1.000000X2.000000*%
%ADD12R,0.900000X1.200000*%
%ADD13C,1.900000*%
%ADD14C,2.500000*%
%ADD15R,2.500000X2.500000*%
%ADD16R,1.500000X1.500000*%
%ADD17O,1.500000X1.500000*%
%ADD18C,1.500000*%
%ADD19O,1.100000X1.800000*%
%ADD20R,3.000000X6.000000*%
%ADD21C,1.100000*%
%ADD22C,0.700000*%
%ADD23C,0.750000*%
%ADD24C,0.500000*%
%ADD25C,0.300000*%
G04 APERTURE END LIST*
D10*
D11*
X133320000Y-61450000D03*
X134760000Y-61450000D03*
X136200000Y-61450000D03*
X137640000Y-61450000D03*
X139080000Y-61450000D03*
X139080000Y-52250000D03*
X137640000Y-52250000D03*
X136200000Y-52250000D03*
X134760000Y-52250000D03*
X133320000Y-52250000D03*
X111720000Y-61450000D03*
X113160000Y-61450000D03*
X114600000Y-61450000D03*
X116040000Y-61450000D03*
X117480000Y-61450000D03*
X117480000Y-52250000D03*
X116040000Y-52250000D03*
X114600000Y-52250000D03*
X113160000Y-52250000D03*
X111720000Y-52250000D03*
D12*
X106000000Y-55750000D03*
X106000000Y-57950000D03*
D11*
X118920000Y-61450000D03*
X120360000Y-61450000D03*
X121800000Y-61450000D03*
X123240000Y-61450000D03*
X124680000Y-61450000D03*
X124680000Y-52250000D03*
X123240000Y-52250000D03*
X121800000Y-52250000D03*
X120360000Y-52250000D03*
X118920000Y-52250000D03*
X126120000Y-61450000D03*
X127560000Y-61450000D03*
X129000000Y-61450000D03*
X130440000Y-61450000D03*
X131880000Y-61450000D03*
X131880000Y-52250000D03*
X130440000Y-52250000D03*
X129000000Y-52250000D03*
X127560000Y-52250000D03*
X126120000Y-52250000D03*
D13*
X148250000Y-53650000D03*
X148250000Y-60150000D03*
X148653301Y-69846699D03*
X143350000Y-75150000D03*
D14*
X133100000Y-95500000D03*
X138100000Y-95500000D03*
D15*
X143100000Y-95500000D03*
D16*
X128100000Y-92000000D03*
D17*
X128100000Y-94540000D03*
D16*
X148100000Y-89500000D03*
D18*
X148100000Y-92040000D03*
X148100000Y-94580000D03*
D16*
X112700000Y-96050000D03*
D17*
X110160000Y-96050000D03*
D16*
X101800000Y-80000000D03*
D17*
X101800000Y-82540000D03*
D16*
X101800000Y-94400000D03*
D17*
X101800000Y-91860000D03*
X101800000Y-89320000D03*
X101800000Y-86780000D03*
D19*
X116825000Y-95010000D03*
X123975000Y-95010000D03*
X116825000Y-98480000D03*
X123975000Y-98480000D03*
D20*
X142950000Y-66860000D03*
X142950000Y-84630000D03*
D21*
X122950000Y-91850000D03*
X121450000Y-91850000D03*
X119950000Y-91850000D03*
X118450000Y-91850000D03*
D22*
X139000000Y-83750000D03*
X135300000Y-78350000D03*
X136550000Y-81300000D03*
X123700000Y-66250000D03*
X119000000Y-75700000D03*
X123700000Y-75700000D03*
X131150000Y-80450000D03*
X111050000Y-72350000D03*
X102100000Y-55050000D03*
X105250000Y-73600000D03*
X107050000Y-82850000D03*
X107050000Y-86300000D03*
X140000000Y-82500000D03*
X140000000Y-78000000D03*
X140000000Y-74000000D03*
X137000000Y-74600000D03*
X133050000Y-78350000D03*
X135300000Y-76700000D03*
X137000000Y-80100000D03*
X146750000Y-50200000D03*
X143800000Y-50200000D03*
X146200000Y-53050000D03*
X149600000Y-55950000D03*
X141400000Y-52750000D03*
X143300000Y-54350000D03*
X144900000Y-55950000D03*
X108400000Y-65350000D03*
X142950000Y-80950000D03*
X145900000Y-71600000D03*
X148500000Y-74000000D03*
X148500000Y-79000000D03*
X148500000Y-84000000D03*
X145450000Y-84600000D03*
X123400000Y-89650000D03*
X124000000Y-85900000D03*
X124000000Y-83600000D03*
X126700000Y-83600000D03*
X128100000Y-85000000D03*
X128100000Y-88000000D03*
X106000000Y-96000000D03*
X105150000Y-94100000D03*
X104000000Y-98500000D03*
X108000000Y-98500000D03*
X112000000Y-98450000D03*
X113700000Y-89800000D03*
X114500000Y-87900000D03*
X113500000Y-85300000D03*
X115800000Y-83000000D03*
X117800000Y-83000000D03*
X117800000Y-85200000D03*
X111000000Y-86000000D03*
X101850000Y-84650000D03*
X115000000Y-72100000D03*
X110300000Y-76550000D03*
X109050000Y-78350000D03*
X107150000Y-78900000D03*
X148500000Y-66500000D03*
X148500000Y-63000000D03*
X136950000Y-66350000D03*
X135200000Y-66350000D03*
X140500000Y-59950000D03*
X130750000Y-66350000D03*
X105500000Y-53000000D03*
X102000000Y-53000000D03*
X111500000Y-55000000D03*
X108500000Y-55000000D03*
X108500000Y-50500000D03*
X104500000Y-50500000D03*
X114650000Y-63500000D03*
X116000000Y-66550000D03*
X109700000Y-65350000D03*
X102450000Y-63400000D03*
X103400000Y-60450000D03*
X107150000Y-62500000D03*
X109700000Y-62500000D03*
X112100000Y-68550000D03*
X116800000Y-69300000D03*
X110350000Y-59150000D03*
X108400000Y-59150000D03*
X127650000Y-78350000D03*
X135250000Y-63300000D03*
X119000000Y-77300000D03*
X121550000Y-77300000D03*
X119900000Y-72200000D03*
X121300000Y-72200000D03*
X108450000Y-68550000D03*
X107150000Y-65350000D03*
X120700000Y-90750000D03*
X116750000Y-88350000D03*
X126150000Y-87950000D03*
X127950000Y-68950000D03*
X129450000Y-66350000D03*
X122700000Y-72000000D03*
X116700000Y-65400000D03*
X104600000Y-65350000D03*
X133050000Y-65800000D03*
X131350000Y-77550000D03*
X131850000Y-65800000D03*
X128850000Y-77450000D03*
X108450000Y-76550000D03*
X114300000Y-77450000D03*
X124650000Y-63400000D03*
X123700000Y-74500000D03*
X123700000Y-73300000D03*
X117450000Y-63400000D03*
X112900000Y-74900000D03*
X106100000Y-78050000D03*
X113150000Y-55600000D03*
X133350000Y-55600000D03*
X126100000Y-55600000D03*
X118900000Y-55600000D03*
X113150000Y-58150000D03*
X134750000Y-58150000D03*
X127550000Y-58150000D03*
X120350000Y-58150000D03*
X114600000Y-59100000D03*
X137650000Y-57300000D03*
X130450000Y-57300000D03*
X116050000Y-57300000D03*
X123250000Y-57300000D03*
X131900000Y-56450000D03*
X139100000Y-56450000D03*
X117500000Y-56450000D03*
X124700000Y-56450000D03*
X117500000Y-54750000D03*
X124700000Y-54750000D03*
X131900000Y-54750000D03*
X139100000Y-54750000D03*
X123250000Y-53900000D03*
X116050000Y-53900000D03*
X130450000Y-53900000D03*
X137650000Y-53900000D03*
X134750000Y-50600000D03*
X127550000Y-50600000D03*
X113150000Y-50600000D03*
X120350000Y-50600000D03*
X142300000Y-50700000D03*
X103300000Y-70200000D03*
X121800000Y-59100000D03*
X129000000Y-59100000D03*
X136200000Y-59100000D03*
D23*
X133200000Y-80450000D02*
X135300000Y-78350000D01*
X133200000Y-80450000D02*
X131150000Y-80450000D01*
X139000000Y-83750000D02*
X136550000Y-81300000D01*
D24*
X123700000Y-75700000D02*
X124450000Y-75700000D01*
X123700000Y-67100000D02*
X123700000Y-66250000D01*
X123700000Y-67100000D02*
X125500000Y-68900000D01*
X125500000Y-68900000D02*
X125500000Y-74650000D01*
X124450000Y-75700000D02*
X125500000Y-74650000D01*
D23*
X123700000Y-75700000D02*
X123700000Y-77600000D01*
X111050000Y-73600000D02*
X113600000Y-73600000D01*
X113600000Y-73600000D02*
X115700000Y-75700000D01*
X119000000Y-75700000D02*
X115700000Y-75700000D01*
X126550000Y-80450000D02*
X131150000Y-80450000D01*
X123700000Y-77600000D02*
X126550000Y-80450000D01*
X111050000Y-72350000D02*
X111050000Y-73600000D01*
X105250000Y-73600000D02*
X111050000Y-73600000D01*
D25*
X105250000Y-73600000D02*
X100550000Y-68900000D01*
X100550000Y-56600000D02*
X102100000Y-55050000D01*
X100550000Y-68900000D02*
X100550000Y-56600000D01*
D23*
X105250000Y-73600000D02*
X104850000Y-74000000D01*
X107050000Y-81800000D02*
X107050000Y-82850000D01*
X104850000Y-79600000D02*
X107050000Y-81800000D01*
X104850000Y-74000000D02*
X104850000Y-79600000D01*
D25*
X107050000Y-82850000D02*
X102110000Y-82850000D01*
X102110000Y-82850000D02*
X101800000Y-82540000D01*
D23*
X107050000Y-86300000D02*
X107050000Y-82850000D01*
D25*
X101800000Y-94400000D02*
X107050000Y-89150000D01*
X107050000Y-89150000D02*
X107050000Y-86300000D01*
X143350000Y-75150000D02*
X141000000Y-75150000D01*
X140000000Y-78500000D02*
X140000000Y-82500000D01*
X140000000Y-78000000D02*
X140000000Y-78500000D01*
X140500000Y-74650000D02*
X140000000Y-74000000D01*
X141000000Y-75150000D02*
X140500000Y-74650000D01*
X143800000Y-50650000D02*
X143800000Y-50200000D01*
X146200000Y-53050000D02*
X143800000Y-50650000D01*
X148250000Y-53650000D02*
X147000000Y-54900000D01*
X141700000Y-52750000D02*
X141400000Y-52750000D01*
X143300000Y-54350000D02*
X141700000Y-52750000D01*
X146050000Y-54900000D02*
X144900000Y-55950000D01*
X147000000Y-54900000D02*
X146050000Y-54900000D01*
X142950000Y-84630000D02*
X142950000Y-80950000D01*
D24*
X142950000Y-84630000D02*
X142950000Y-80950000D01*
D25*
X145100000Y-75150000D02*
X145900000Y-74350000D01*
X145900000Y-74350000D02*
X145900000Y-71600000D01*
X148500000Y-74000000D02*
X148500000Y-79000000D01*
X143350000Y-75150000D02*
X145100000Y-75150000D01*
D24*
X142950000Y-84630000D02*
X142930000Y-84650000D01*
X142930000Y-84650000D02*
X141050000Y-84650000D01*
X141050000Y-84650000D02*
X140650000Y-84250000D01*
X142950000Y-84630000D02*
X142980000Y-84600000D01*
X142980000Y-84600000D02*
X145450000Y-84600000D01*
X145450000Y-84600000D02*
X145800000Y-84600000D01*
D25*
X128100000Y-92000000D02*
X128100000Y-88000000D01*
X124000000Y-85050000D02*
X124000000Y-85900000D01*
X124000000Y-83600000D02*
X124000000Y-85050000D01*
X128100000Y-85000000D02*
X126700000Y-83600000D01*
X105150000Y-95150000D02*
X106000000Y-96000000D01*
X105150000Y-94100000D02*
X105150000Y-95150000D01*
X116825000Y-98480000D02*
X112030000Y-98480000D01*
X108000000Y-98500000D02*
X104000000Y-98500000D01*
X112030000Y-98480000D02*
X112000000Y-98450000D01*
X115800000Y-83000000D02*
X113500000Y-85300000D01*
X117800000Y-85200000D02*
X117800000Y-83000000D01*
X107700000Y-78350000D02*
X109050000Y-78350000D01*
X107150000Y-78900000D02*
X107700000Y-78350000D01*
X148250000Y-53650000D02*
X150050000Y-55450000D01*
X150050000Y-61450000D02*
X148500000Y-63000000D01*
X150050000Y-55450000D02*
X150050000Y-61450000D01*
X136950000Y-66350000D02*
X135200000Y-66350000D01*
X102000000Y-53000000D02*
X105500000Y-53000000D01*
X102000000Y-53000000D02*
X104500000Y-50500000D01*
X108500000Y-50500000D02*
X108500000Y-55000000D01*
X114650000Y-63500000D02*
X114650000Y-65900000D01*
X115300000Y-66550000D02*
X116000000Y-66550000D01*
X114650000Y-65900000D02*
X115300000Y-66550000D01*
X109700000Y-65350000D02*
X109700000Y-62500000D01*
X105450000Y-62500000D02*
X103400000Y-60450000D01*
X107150000Y-62500000D02*
X105450000Y-62500000D01*
X112100000Y-68550000D02*
X112600000Y-69050000D01*
X116550000Y-69050000D02*
X116800000Y-69300000D01*
X112600000Y-69050000D02*
X116550000Y-69050000D01*
X121450000Y-77400000D02*
X119000000Y-77300000D01*
X121550000Y-77300000D02*
X121450000Y-77400000D01*
X121300000Y-72200000D02*
X119900000Y-72200000D01*
D24*
X126150000Y-87950000D02*
X123750000Y-87950000D01*
X123350000Y-88350000D02*
X116750000Y-88350000D01*
X123750000Y-87950000D02*
X123350000Y-88350000D01*
D25*
X130650000Y-64250000D02*
X139450000Y-64250000D01*
X142000000Y-61700000D02*
X146700000Y-61700000D01*
X139450000Y-64250000D02*
X142000000Y-61700000D01*
X148250000Y-60150000D02*
X146700000Y-61700000D01*
X129450000Y-65450000D02*
X130650000Y-64250000D01*
X129450000Y-65450000D02*
X129450000Y-66350000D01*
X129450000Y-66350000D02*
X129450000Y-66350000D01*
X127950000Y-68950000D02*
X129450000Y-67450000D01*
X129450000Y-67450000D02*
X129450000Y-66350000D01*
X116700000Y-65400000D02*
X118300000Y-65400000D01*
X122700000Y-69800000D02*
X122700000Y-72000000D01*
X118300000Y-65400000D02*
X122700000Y-69800000D01*
X116700000Y-65400000D02*
X116725000Y-65425000D01*
X136500000Y-78750000D02*
X136500000Y-76300000D01*
X122750000Y-73950000D02*
X122750000Y-78000000D01*
X122000000Y-73200000D02*
X122750000Y-73950000D01*
X111500000Y-69900000D02*
X115850000Y-69900000D01*
X104600000Y-65350000D02*
X105400000Y-65350000D01*
X106750000Y-66700000D02*
X105400000Y-65350000D01*
X108300000Y-66700000D02*
X106750000Y-66700000D01*
X111500000Y-69900000D02*
X108300000Y-66700000D01*
X126150000Y-81400000D02*
X133850000Y-81400000D01*
X115850000Y-69900000D02*
X119150000Y-73200000D01*
X122750000Y-78000000D02*
X126150000Y-81400000D01*
X119150000Y-73200000D02*
X122000000Y-73200000D01*
X136500000Y-78750000D02*
X133850000Y-81400000D01*
X138190000Y-66860000D02*
X142950000Y-66860000D01*
X134700000Y-70350000D02*
X138190000Y-66860000D01*
X134700000Y-74500000D02*
X134700000Y-70350000D01*
X136500000Y-76300000D02*
X134700000Y-74500000D01*
X148653301Y-69846699D02*
X145666602Y-66860000D01*
X145666602Y-66860000D02*
X142950000Y-66860000D01*
X131350000Y-77550000D02*
X133050000Y-75850000D01*
X133050000Y-75850000D02*
X133050000Y-65800000D01*
X131350000Y-77550000D02*
X131350000Y-77550000D01*
X128850000Y-77450000D02*
X130000000Y-77450000D01*
X131850000Y-75600000D02*
X131850000Y-65800000D01*
X130000000Y-77450000D02*
X131850000Y-75600000D01*
X108400000Y-76500000D02*
X108450000Y-76550000D01*
X109350000Y-77450000D02*
X114300000Y-77450000D01*
X108450000Y-76550000D02*
X109350000Y-77450000D01*
X123700000Y-74500000D02*
X124300000Y-74500000D01*
X124600000Y-74200000D02*
X124600000Y-73600000D01*
X124300000Y-74500000D02*
X124600000Y-74200000D01*
X122800000Y-65250000D02*
X124650000Y-63400000D01*
X122800000Y-67700000D02*
X122800000Y-65250000D01*
X124600000Y-73600000D02*
X124600000Y-69500000D01*
X124600000Y-69500000D02*
X122800000Y-67700000D01*
X117450000Y-63400000D02*
X123700000Y-69650000D01*
X123700000Y-73300000D02*
X123700000Y-69650000D01*
X106700000Y-77450000D02*
X106700000Y-76800000D01*
X106700000Y-76800000D02*
X107950000Y-75550000D01*
X112900000Y-74900000D02*
X112250000Y-75550000D01*
X112250000Y-75550000D02*
X107950000Y-75550000D01*
X106100000Y-78050000D02*
X106700000Y-77450000D01*
X111720000Y-61450000D02*
X111720000Y-57030000D01*
X111720000Y-57030000D02*
X113150000Y-55600000D01*
X133320000Y-61450000D02*
X133320000Y-55630000D01*
X133320000Y-55630000D02*
X133350000Y-55600000D01*
X118920000Y-55620000D02*
X118900000Y-55600000D01*
X118920000Y-55620000D02*
X118920000Y-61450000D01*
X126120000Y-61450000D02*
X126100000Y-55600000D01*
X113160000Y-58160000D02*
X113160000Y-61450000D01*
X113160000Y-58160000D02*
X113150000Y-58150000D01*
X134760000Y-61450000D02*
X134760000Y-58160000D01*
X134760000Y-58160000D02*
X134750000Y-58150000D01*
X127560000Y-61450000D02*
X127560000Y-58160000D01*
X127560000Y-58160000D02*
X127550000Y-58150000D01*
X120360000Y-58160000D02*
X120350000Y-58150000D01*
X120360000Y-58160000D02*
X120360000Y-61450000D01*
X114600000Y-59200000D02*
X114600000Y-61450000D01*
D23*
X114600000Y-59100000D02*
X114600000Y-59200000D01*
X114600000Y-52250000D02*
X114600000Y-58950000D01*
X114600000Y-58950000D02*
X114600000Y-61450000D01*
D25*
X137640000Y-61450000D02*
X137640000Y-57310000D01*
X137640000Y-57310000D02*
X137650000Y-57300000D01*
X130440000Y-61450000D02*
X130440000Y-57310000D01*
X130440000Y-57310000D02*
X130450000Y-57300000D01*
X116040000Y-61450000D02*
X116040000Y-57310000D01*
X116040000Y-57310000D02*
X116050000Y-57300000D01*
X123240000Y-57310000D02*
X123250000Y-57300000D01*
X123240000Y-57310000D02*
X123240000Y-61450000D01*
X131880000Y-61450000D02*
X131880000Y-56470000D01*
X131880000Y-56470000D02*
X131900000Y-56450000D01*
X139080000Y-61450000D02*
X139080000Y-56470000D01*
X139080000Y-56470000D02*
X139100000Y-56450000D01*
X117480000Y-56470000D02*
X117500000Y-56450000D01*
X117480000Y-61450000D02*
X117480000Y-56470000D01*
X124680000Y-56470000D02*
X124700000Y-56450000D01*
X124680000Y-56470000D02*
X124680000Y-61450000D01*
X117480000Y-54730000D02*
X117480000Y-52250000D01*
X117480000Y-54730000D02*
X117500000Y-54750000D01*
X124680000Y-54730000D02*
X124680000Y-52250000D01*
X124680000Y-54730000D02*
X124700000Y-54750000D01*
X131880000Y-54730000D02*
X131880000Y-52250000D01*
X131880000Y-54730000D02*
X131900000Y-54750000D01*
X139080000Y-54730000D02*
X139100000Y-54750000D01*
X139080000Y-52250000D02*
X139080000Y-54730000D01*
X123240000Y-52250000D02*
X123240000Y-53890000D01*
X123240000Y-53890000D02*
X123250000Y-53900000D01*
X116040000Y-53890000D02*
X116040000Y-52250000D01*
X116040000Y-53890000D02*
X116050000Y-53900000D01*
X130440000Y-53890000D02*
X130440000Y-52250000D01*
X130440000Y-53890000D02*
X130450000Y-53900000D01*
X137640000Y-53890000D02*
X137650000Y-53900000D01*
X137640000Y-53890000D02*
X137640000Y-52250000D01*
X134760000Y-50590000D02*
X134750000Y-50600000D01*
X134760000Y-50590000D02*
X134760000Y-52250000D01*
X127560000Y-50590000D02*
X127550000Y-50600000D01*
X127560000Y-50590000D02*
X127560000Y-52250000D01*
X113160000Y-50590000D02*
X113150000Y-50600000D01*
X113160000Y-52250000D02*
X113160000Y-50590000D01*
X120360000Y-50590000D02*
X120350000Y-50600000D01*
X120360000Y-50590000D02*
X120360000Y-52250000D01*
X141350000Y-49750000D02*
X142300000Y-50700000D01*
X141350000Y-49750000D02*
X133320000Y-49750000D01*
X133320000Y-52250000D02*
X133320000Y-49750000D01*
X126120000Y-52250000D02*
X126120000Y-49750000D01*
X118920000Y-52250000D02*
X118920000Y-49750000D01*
X112400000Y-49750000D02*
X118920000Y-49750000D01*
X118920000Y-49750000D02*
X126120000Y-49750000D01*
X126120000Y-49750000D02*
X133320000Y-49750000D01*
X111720000Y-50430000D02*
X112400000Y-49750000D01*
X111720000Y-52250000D02*
X111720000Y-50430000D01*
X101250000Y-68150000D02*
X101250000Y-59550000D01*
X101250000Y-59550000D02*
X102850000Y-57950000D01*
X102850000Y-57950000D02*
X106000000Y-57950000D01*
X103300000Y-70200000D02*
X101250000Y-68150000D01*
D23*
X121800000Y-52250000D02*
X121800000Y-59100000D01*
X121800000Y-59100000D02*
X121800000Y-61450000D01*
X129000000Y-52250000D02*
X129000000Y-59100000D01*
X129000000Y-59100000D02*
X129000000Y-61450000D01*
X136200000Y-52250000D02*
X136200000Y-59100000D01*
X136200000Y-59100000D02*
X136200000Y-61450000D01*
D25*
G36*
X111295736Y-50005736D02*
X111165672Y-50200390D01*
X111120000Y-50430000D01*
X111120000Y-50810000D01*
X111053240Y-50822562D01*
X110900081Y-50921117D01*
X110797332Y-51071495D01*
X110761184Y-51250000D01*
X110761184Y-53250000D01*
X110792562Y-53416760D01*
X110891117Y-53569919D01*
X111041495Y-53672668D01*
X111220000Y-53708816D01*
X112220000Y-53708816D01*
X112386760Y-53677438D01*
X112439143Y-53643730D01*
X112481495Y-53672668D01*
X112660000Y-53708816D01*
X113660000Y-53708816D01*
X113775000Y-53687177D01*
X113775000Y-55093732D01*
X113603755Y-54922188D01*
X113309828Y-54800139D01*
X112991568Y-54799861D01*
X112697428Y-54921397D01*
X112472188Y-55146245D01*
X112350139Y-55440172D01*
X112350042Y-55551430D01*
X111295736Y-56605736D01*
X111165672Y-56800390D01*
X111120000Y-57030000D01*
X111120000Y-60010000D01*
X111053240Y-60022562D01*
X110900081Y-60121117D01*
X110797332Y-60271495D01*
X110761184Y-60450000D01*
X110761184Y-62450000D01*
X110792562Y-62616760D01*
X110891117Y-62769919D01*
X111041495Y-62872668D01*
X111220000Y-62908816D01*
X112220000Y-62908816D01*
X112386760Y-62877438D01*
X112439143Y-62843730D01*
X112481495Y-62872668D01*
X112660000Y-62908816D01*
X113660000Y-62908816D01*
X113826760Y-62877438D01*
X113879143Y-62843730D01*
X113921495Y-62872668D01*
X114100000Y-62908816D01*
X115100000Y-62908816D01*
X115266760Y-62877438D01*
X115319143Y-62843730D01*
X115361495Y-62872668D01*
X115540000Y-62908816D01*
X116540000Y-62908816D01*
X116706760Y-62877438D01*
X116759143Y-62843730D01*
X116801495Y-62872668D01*
X116838406Y-62880143D01*
X116772188Y-62946245D01*
X116650139Y-63240172D01*
X116649861Y-63558432D01*
X116771397Y-63852572D01*
X116996245Y-64077812D01*
X117290172Y-64199861D01*
X117401430Y-64199958D01*
X118001472Y-64800000D01*
X117231432Y-64800000D01*
X117153755Y-64722188D01*
X116859828Y-64600139D01*
X116541568Y-64599861D01*
X116247428Y-64721397D01*
X116022188Y-64946245D01*
X115900139Y-65240172D01*
X115899861Y-65558432D01*
X116021397Y-65852572D01*
X116246245Y-66077812D01*
X116540172Y-66199861D01*
X116858432Y-66200139D01*
X117152572Y-66078603D01*
X117231312Y-66000000D01*
X118051472Y-66000000D01*
X122100000Y-70048528D01*
X122100000Y-71468568D01*
X122022188Y-71546245D01*
X121900139Y-71840172D01*
X121899861Y-72158432D01*
X122021397Y-72452572D01*
X122210333Y-72641838D01*
X122000000Y-72600000D01*
X119398528Y-72600000D01*
X116274264Y-69475736D01*
X116079610Y-69345672D01*
X115850000Y-69300000D01*
X111748528Y-69300000D01*
X108724264Y-66275736D01*
X108529610Y-66145672D01*
X108300000Y-66100000D01*
X106998528Y-66100000D01*
X105824264Y-64925736D01*
X105629610Y-64795672D01*
X105400000Y-64750000D01*
X105131432Y-64750000D01*
X105053755Y-64672188D01*
X104759828Y-64550139D01*
X104441568Y-64549861D01*
X104147428Y-64671397D01*
X103922188Y-64896245D01*
X103800139Y-65190172D01*
X103799861Y-65508432D01*
X103921397Y-65802572D01*
X104146245Y-66027812D01*
X104440172Y-66149861D01*
X104758432Y-66150139D01*
X105052572Y-66028603D01*
X105131312Y-65950000D01*
X105151472Y-65950000D01*
X106325736Y-67124264D01*
X106520389Y-67254328D01*
X106750000Y-67300000D01*
X108051472Y-67300000D01*
X111075736Y-70324264D01*
X111270389Y-70454328D01*
X111500000Y-70500000D01*
X115601472Y-70500000D01*
X118725736Y-73624264D01*
X118920390Y-73754328D01*
X119150000Y-73800000D01*
X121751472Y-73800000D01*
X122150000Y-74198528D01*
X122150000Y-78000000D01*
X122195672Y-78229610D01*
X122325736Y-78424264D01*
X125725736Y-81824264D01*
X125920390Y-81954328D01*
X126150000Y-82000000D01*
X133850000Y-82000000D01*
X134079610Y-81954328D01*
X134274264Y-81824264D01*
X134798528Y-81300000D01*
X135725000Y-81300000D01*
X135749890Y-81425132D01*
X135749861Y-81458432D01*
X135762690Y-81489480D01*
X135787799Y-81615714D01*
X135858680Y-81721795D01*
X135871397Y-81752572D01*
X135895132Y-81776348D01*
X135966637Y-81883363D01*
X138416637Y-84333363D01*
X138522719Y-84404245D01*
X138546245Y-84427812D01*
X138577269Y-84440694D01*
X138684286Y-84512201D01*
X138809419Y-84537091D01*
X138840172Y-84549861D01*
X138873764Y-84549890D01*
X139000000Y-84575000D01*
X139125132Y-84550110D01*
X139158432Y-84550139D01*
X139189480Y-84537310D01*
X139315714Y-84512201D01*
X139421795Y-84441320D01*
X139452572Y-84428603D01*
X139476348Y-84404868D01*
X139583363Y-84333363D01*
X139654245Y-84227281D01*
X139677812Y-84203755D01*
X139690694Y-84172731D01*
X139762201Y-84065714D01*
X139787091Y-83940581D01*
X139799861Y-83909828D01*
X139799890Y-83876236D01*
X139825000Y-83750000D01*
X139800110Y-83624868D01*
X139800139Y-83591568D01*
X139787310Y-83560520D01*
X139762201Y-83434286D01*
X139691320Y-83328205D01*
X139678603Y-83297428D01*
X139654868Y-83273652D01*
X139583363Y-83166637D01*
X137957215Y-81540489D01*
X141000000Y-81540489D01*
X141000000Y-84492500D01*
X141112500Y-84605000D01*
X142925000Y-84605000D01*
X142925000Y-81292500D01*
X142975000Y-81292500D01*
X142975000Y-84605000D01*
X144787500Y-84605000D01*
X144900000Y-84492500D01*
X144900000Y-81540489D01*
X144831491Y-81375095D01*
X144704904Y-81248508D01*
X144539510Y-81180000D01*
X143087500Y-81180000D01*
X142975000Y-81292500D01*
X142925000Y-81292500D01*
X142812500Y-81180000D01*
X141360490Y-81180000D01*
X141195096Y-81248508D01*
X141068509Y-81375095D01*
X141000000Y-81540489D01*
X137957215Y-81540489D01*
X137133363Y-80716637D01*
X137027281Y-80645755D01*
X137003755Y-80622188D01*
X136972731Y-80609306D01*
X136865714Y-80537799D01*
X136740581Y-80512909D01*
X136709828Y-80500139D01*
X136676236Y-80500110D01*
X136550000Y-80475000D01*
X136424868Y-80499890D01*
X136391568Y-80499861D01*
X136360520Y-80512690D01*
X136234286Y-80537799D01*
X136128205Y-80608680D01*
X136097428Y-80621397D01*
X136073652Y-80645132D01*
X135966637Y-80716637D01*
X135895755Y-80822719D01*
X135872188Y-80846245D01*
X135859306Y-80877269D01*
X135787799Y-80984286D01*
X135762909Y-81109419D01*
X135750139Y-81140172D01*
X135750110Y-81173764D01*
X135725000Y-81300000D01*
X134798528Y-81300000D01*
X136630684Y-79467844D01*
X141849810Y-79467844D01*
X142016922Y-79872286D01*
X142326087Y-80181991D01*
X142730237Y-80349808D01*
X143167844Y-80350190D01*
X143572286Y-80183078D01*
X143881991Y-79873913D01*
X144049808Y-79469763D01*
X144050190Y-79032156D01*
X143883078Y-78627714D01*
X143573913Y-78318009D01*
X143169763Y-78150192D01*
X142732156Y-78149810D01*
X142327714Y-78316922D01*
X142018009Y-78626087D01*
X141850192Y-79030237D01*
X141849810Y-79467844D01*
X136630684Y-79467844D01*
X136924264Y-79174264D01*
X137054328Y-78979610D01*
X137100000Y-78750000D01*
X137100000Y-76300000D01*
X137065337Y-76125736D01*
X137054328Y-76070389D01*
X136924264Y-75875736D01*
X136446485Y-75397957D01*
X141944273Y-75397957D01*
X142146167Y-75917031D01*
X142531333Y-76319331D01*
X143041134Y-76543611D01*
X143102043Y-76555727D01*
X143325000Y-76464690D01*
X143325000Y-75175000D01*
X143375000Y-75175000D01*
X143375000Y-76464690D01*
X143597957Y-76555727D01*
X144117031Y-76353833D01*
X144519331Y-75968667D01*
X144743611Y-75458866D01*
X144755727Y-75397957D01*
X144664690Y-75175000D01*
X143375000Y-75175000D01*
X143325000Y-75175000D01*
X142035310Y-75175000D01*
X141944273Y-75397957D01*
X136446485Y-75397957D01*
X135950571Y-74902043D01*
X141944273Y-74902043D01*
X142035310Y-75125000D01*
X143325000Y-75125000D01*
X143325000Y-73835310D01*
X143375000Y-73835310D01*
X143375000Y-75125000D01*
X144664690Y-75125000D01*
X144755727Y-74902043D01*
X144553833Y-74382969D01*
X144168667Y-73980669D01*
X143658866Y-73756389D01*
X143597957Y-73744273D01*
X143375000Y-73835310D01*
X143325000Y-73835310D01*
X143102043Y-73744273D01*
X142582969Y-73946167D01*
X142180669Y-74331333D01*
X141956389Y-74841134D01*
X141944273Y-74902043D01*
X135950571Y-74902043D01*
X135300000Y-74251472D01*
X135300000Y-71967844D01*
X141849810Y-71967844D01*
X142016922Y-72372286D01*
X142326087Y-72681991D01*
X142730237Y-72849808D01*
X143167844Y-72850190D01*
X143572286Y-72683078D01*
X143881991Y-72373913D01*
X144049808Y-71969763D01*
X144050190Y-71532156D01*
X143883078Y-71127714D01*
X143573913Y-70818009D01*
X143169763Y-70650192D01*
X142732156Y-70649810D01*
X142327714Y-70816922D01*
X142018009Y-71126087D01*
X141850192Y-71530237D01*
X141849810Y-71967844D01*
X135300000Y-71967844D01*
X135300000Y-70598528D01*
X138438528Y-67460000D01*
X140991184Y-67460000D01*
X140991184Y-69860000D01*
X141022562Y-70026760D01*
X141121117Y-70179919D01*
X141271495Y-70282668D01*
X141450000Y-70318816D01*
X144450000Y-70318816D01*
X144616760Y-70287438D01*
X144769919Y-70188883D01*
X144872668Y-70038505D01*
X144908816Y-69860000D01*
X144908816Y-67460000D01*
X145418074Y-67460000D01*
X147333212Y-69375138D01*
X147253544Y-69567000D01*
X147253058Y-70123955D01*
X147465746Y-70638699D01*
X147859229Y-71032869D01*
X148373602Y-71246456D01*
X148930557Y-71246942D01*
X149445301Y-71034254D01*
X149839471Y-70640771D01*
X150053058Y-70126398D01*
X150053544Y-69569443D01*
X149840856Y-69054699D01*
X149447373Y-68660529D01*
X148933000Y-68446942D01*
X148376045Y-68446456D01*
X148181833Y-68526703D01*
X146090866Y-66435736D01*
X145896212Y-66305672D01*
X145666602Y-66260000D01*
X144908816Y-66260000D01*
X144908816Y-63860000D01*
X144877438Y-63693240D01*
X144778883Y-63540081D01*
X144628505Y-63437332D01*
X144450000Y-63401184D01*
X141450000Y-63401184D01*
X141283240Y-63432562D01*
X141130081Y-63531117D01*
X141027332Y-63681495D01*
X140991184Y-63860000D01*
X140991184Y-66260000D01*
X138190000Y-66260000D01*
X137960389Y-66305672D01*
X137765736Y-66435736D01*
X134275736Y-69925736D01*
X134145672Y-70120390D01*
X134100000Y-70350000D01*
X134100000Y-74500000D01*
X134145672Y-74729610D01*
X134275736Y-74924264D01*
X135900000Y-76548528D01*
X135900000Y-77791536D01*
X135883363Y-77766637D01*
X135777281Y-77695755D01*
X135753755Y-77672188D01*
X135722731Y-77659306D01*
X135615714Y-77587799D01*
X135490581Y-77562909D01*
X135459828Y-77550139D01*
X135426236Y-77550110D01*
X135300000Y-77525000D01*
X135174868Y-77549890D01*
X135141568Y-77549861D01*
X135110520Y-77562690D01*
X134984286Y-77587799D01*
X134878205Y-77658680D01*
X134847428Y-77671397D01*
X134823652Y-77695132D01*
X134716637Y-77766637D01*
X132858274Y-79625000D01*
X126891726Y-79625000D01*
X124875158Y-77608432D01*
X128049861Y-77608432D01*
X128171397Y-77902572D01*
X128396245Y-78127812D01*
X128690172Y-78249861D01*
X129008432Y-78250139D01*
X129302572Y-78128603D01*
X129381312Y-78050000D01*
X130000000Y-78050000D01*
X130229610Y-78004328D01*
X130424264Y-77874264D01*
X130561625Y-77736903D01*
X130671397Y-78002572D01*
X130896245Y-78227812D01*
X131190172Y-78349861D01*
X131508432Y-78350139D01*
X131802572Y-78228603D01*
X132027812Y-78003755D01*
X132149861Y-77709828D01*
X132149958Y-77598570D01*
X133474264Y-76274264D01*
X133604328Y-76079610D01*
X133650000Y-75850000D01*
X133650000Y-66331432D01*
X133727812Y-66253755D01*
X133849861Y-65959828D01*
X133850139Y-65641568D01*
X133728603Y-65347428D01*
X133503755Y-65122188D01*
X133209828Y-65000139D01*
X132891568Y-64999861D01*
X132597428Y-65121397D01*
X132449940Y-65268628D01*
X132303755Y-65122188D01*
X132009828Y-65000139D01*
X131691568Y-64999861D01*
X131397428Y-65121397D01*
X131172188Y-65346245D01*
X131050139Y-65640172D01*
X131049861Y-65958432D01*
X131171397Y-66252572D01*
X131250000Y-66331312D01*
X131250000Y-75351472D01*
X129751472Y-76850000D01*
X129381432Y-76850000D01*
X129303755Y-76772188D01*
X129009828Y-76650139D01*
X128691568Y-76649861D01*
X128397428Y-76771397D01*
X128172188Y-76996245D01*
X128050139Y-77290172D01*
X128049861Y-77608432D01*
X124875158Y-77608432D01*
X124525000Y-77258274D01*
X124525000Y-76385082D01*
X124717879Y-76346716D01*
X124944975Y-76194975D01*
X125994975Y-75144975D01*
X126085457Y-75009559D01*
X126146716Y-74917878D01*
X126200000Y-74650000D01*
X126200000Y-69108432D01*
X127149861Y-69108432D01*
X127271397Y-69402572D01*
X127496245Y-69627812D01*
X127790172Y-69749861D01*
X128108432Y-69750139D01*
X128402572Y-69628603D01*
X128627812Y-69403755D01*
X128749861Y-69109828D01*
X128749958Y-68998570D01*
X129874264Y-67874264D01*
X130004328Y-67679611D01*
X130050000Y-67450000D01*
X130050000Y-66881432D01*
X130127812Y-66803755D01*
X130249861Y-66509828D01*
X130250139Y-66191568D01*
X130128603Y-65897428D01*
X130050000Y-65818688D01*
X130050000Y-65698528D01*
X130898528Y-64850000D01*
X139450000Y-64850000D01*
X139679610Y-64804328D01*
X139874264Y-64674264D01*
X142248528Y-62300000D01*
X146700000Y-62300000D01*
X146929610Y-62254328D01*
X147124264Y-62124264D01*
X147778439Y-61470089D01*
X147970301Y-61549757D01*
X148527256Y-61550243D01*
X149042000Y-61337555D01*
X149436170Y-60944072D01*
X149649757Y-60429699D01*
X149650243Y-59872744D01*
X149437555Y-59358000D01*
X149044072Y-58963830D01*
X148529699Y-58750243D01*
X147972744Y-58749757D01*
X147458000Y-58962445D01*
X147063830Y-59355928D01*
X146850243Y-59870301D01*
X146849757Y-60427256D01*
X146930004Y-60621468D01*
X146451472Y-61100000D01*
X142000000Y-61100000D01*
X141770390Y-61145672D01*
X141575736Y-61275736D01*
X139201472Y-63650000D01*
X130650000Y-63650000D01*
X130420390Y-63695672D01*
X130225736Y-63825736D01*
X129025736Y-65025736D01*
X128895672Y-65220390D01*
X128850000Y-65450000D01*
X128850000Y-65818568D01*
X128772188Y-65896245D01*
X128650139Y-66190172D01*
X128649861Y-66508432D01*
X128771397Y-66802572D01*
X128850000Y-66881312D01*
X128850000Y-67201472D01*
X127901515Y-68149957D01*
X127791568Y-68149861D01*
X127497428Y-68271397D01*
X127272188Y-68496245D01*
X127150139Y-68790172D01*
X127149861Y-69108432D01*
X126200000Y-69108432D01*
X126200000Y-68900000D01*
X126146716Y-68632122D01*
X125994975Y-68405025D01*
X125994972Y-68405023D01*
X124400000Y-66810050D01*
X124400000Y-66650320D01*
X124499861Y-66409828D01*
X124500139Y-66091568D01*
X124378603Y-65797428D01*
X124153755Y-65572188D01*
X123859828Y-65450139D01*
X123541568Y-65449861D01*
X123400000Y-65508356D01*
X123400000Y-65498528D01*
X124698485Y-64200043D01*
X124808432Y-64200139D01*
X125102572Y-64078603D01*
X125327812Y-63853755D01*
X125449861Y-63559828D01*
X125450139Y-63241568D01*
X125328603Y-62947428D01*
X125272654Y-62891382D01*
X125346760Y-62877438D01*
X125399143Y-62843730D01*
X125441495Y-62872668D01*
X125620000Y-62908816D01*
X126620000Y-62908816D01*
X126786760Y-62877438D01*
X126839143Y-62843730D01*
X126881495Y-62872668D01*
X127060000Y-62908816D01*
X128060000Y-62908816D01*
X128226760Y-62877438D01*
X128279143Y-62843730D01*
X128321495Y-62872668D01*
X128500000Y-62908816D01*
X129500000Y-62908816D01*
X129666760Y-62877438D01*
X129719143Y-62843730D01*
X129761495Y-62872668D01*
X129940000Y-62908816D01*
X130940000Y-62908816D01*
X131106760Y-62877438D01*
X131159143Y-62843730D01*
X131201495Y-62872668D01*
X131380000Y-62908816D01*
X132380000Y-62908816D01*
X132546760Y-62877438D01*
X132599143Y-62843730D01*
X132641495Y-62872668D01*
X132820000Y-62908816D01*
X133820000Y-62908816D01*
X133986760Y-62877438D01*
X134039143Y-62843730D01*
X134081495Y-62872668D01*
X134260000Y-62908816D01*
X135260000Y-62908816D01*
X135426760Y-62877438D01*
X135479143Y-62843730D01*
X135521495Y-62872668D01*
X135700000Y-62908816D01*
X136700000Y-62908816D01*
X136866760Y-62877438D01*
X136919143Y-62843730D01*
X136961495Y-62872668D01*
X137140000Y-62908816D01*
X138140000Y-62908816D01*
X138306760Y-62877438D01*
X138359143Y-62843730D01*
X138401495Y-62872668D01*
X138580000Y-62908816D01*
X139580000Y-62908816D01*
X139746760Y-62877438D01*
X139899919Y-62778883D01*
X140002668Y-62628505D01*
X140038816Y-62450000D01*
X140038816Y-60450000D01*
X140025124Y-60377235D01*
X140039742Y-60354519D01*
X140050000Y-60300000D01*
X140050000Y-54597304D01*
X147338051Y-54597304D01*
X147431333Y-54819331D01*
X147941134Y-55043611D01*
X148497957Y-55055727D01*
X149017031Y-54853833D01*
X149068667Y-54819331D01*
X149161949Y-54597304D01*
X148250000Y-53685355D01*
X147338051Y-54597304D01*
X140050000Y-54597304D01*
X140050000Y-53897957D01*
X146844273Y-53897957D01*
X147046167Y-54417031D01*
X147080669Y-54468667D01*
X147302696Y-54561949D01*
X148214645Y-53650000D01*
X148285355Y-53650000D01*
X149197304Y-54561949D01*
X149419331Y-54468667D01*
X149643611Y-53958866D01*
X149655727Y-53402043D01*
X149453833Y-52882969D01*
X149419331Y-52831333D01*
X149197304Y-52738051D01*
X148285355Y-53650000D01*
X148214645Y-53650000D01*
X147302696Y-52738051D01*
X147080669Y-52831333D01*
X146856389Y-53341134D01*
X146844273Y-53897957D01*
X140050000Y-53897957D01*
X140050000Y-52702696D01*
X147338051Y-52702696D01*
X148250000Y-53614645D01*
X149161949Y-52702696D01*
X149068667Y-52480669D01*
X148558866Y-52256389D01*
X148002043Y-52244273D01*
X147482969Y-52446167D01*
X147431333Y-52480669D01*
X147338051Y-52702696D01*
X140050000Y-52702696D01*
X140050000Y-50350000D01*
X141101472Y-50350000D01*
X141499957Y-50748485D01*
X141499861Y-50858432D01*
X141621397Y-51152572D01*
X141846245Y-51377812D01*
X142140172Y-51499861D01*
X142458432Y-51500139D01*
X142752572Y-51378603D01*
X142977812Y-51153755D01*
X143099861Y-50859828D01*
X143100139Y-50541568D01*
X142978603Y-50247428D01*
X142753755Y-50022188D01*
X142459828Y-49900139D01*
X142348570Y-49900042D01*
X142173528Y-49725000D01*
X147149541Y-49725000D01*
X147149368Y-49922845D01*
X147703876Y-51264858D01*
X148729741Y-52292515D01*
X150070785Y-52849365D01*
X150275000Y-52849543D01*
X150275000Y-84850000D01*
X144900000Y-84850000D01*
X144900000Y-84767500D01*
X144787500Y-84655000D01*
X142975000Y-84655000D01*
X142975000Y-84675000D01*
X142925000Y-84675000D01*
X142925000Y-84655000D01*
X141112500Y-84655000D01*
X141000000Y-84767500D01*
X141000000Y-84850000D01*
X129800000Y-84850000D01*
X129741642Y-84861818D01*
X129692479Y-84895409D01*
X129660258Y-84945481D01*
X129650000Y-85000000D01*
X129650000Y-93250000D01*
X126300000Y-93250000D01*
X126241642Y-93261818D01*
X126192479Y-93295409D01*
X126160258Y-93345481D01*
X126150000Y-93400000D01*
X126150000Y-99475000D01*
X124720673Y-99475000D01*
X124889312Y-99235780D01*
X124975000Y-98855000D01*
X124975000Y-98505000D01*
X124000000Y-98505000D01*
X124000000Y-98525000D01*
X123950000Y-98525000D01*
X123950000Y-98505000D01*
X122975000Y-98505000D01*
X122975000Y-98855000D01*
X123060688Y-99235780D01*
X123229327Y-99475000D01*
X117570673Y-99475000D01*
X117739312Y-99235780D01*
X117825000Y-98855000D01*
X117825000Y-98505000D01*
X116850000Y-98505000D01*
X116850000Y-98525000D01*
X116800000Y-98525000D01*
X116800000Y-98505000D01*
X115825000Y-98505000D01*
X115825000Y-98855000D01*
X115910688Y-99235780D01*
X116079327Y-99475000D01*
X103650459Y-99475000D01*
X103650632Y-99277155D01*
X103166308Y-98105000D01*
X115825000Y-98105000D01*
X115825000Y-98455000D01*
X116800000Y-98455000D01*
X116800000Y-97242852D01*
X116850000Y-97242852D01*
X116850000Y-98455000D01*
X117825000Y-98455000D01*
X117825000Y-98105000D01*
X122975000Y-98105000D01*
X122975000Y-98455000D01*
X123950000Y-98455000D01*
X123950000Y-97242852D01*
X124000000Y-97242852D01*
X124000000Y-98455000D01*
X124975000Y-98455000D01*
X124975000Y-98105000D01*
X124889312Y-97724220D01*
X124664429Y-97405216D01*
X124334587Y-97196554D01*
X124156078Y-97146532D01*
X124000000Y-97242852D01*
X123950000Y-97242852D01*
X123793922Y-97146532D01*
X123615413Y-97196554D01*
X123285571Y-97405216D01*
X123060688Y-97724220D01*
X122975000Y-98105000D01*
X117825000Y-98105000D01*
X117739312Y-97724220D01*
X117514429Y-97405216D01*
X117184587Y-97196554D01*
X117006078Y-97146532D01*
X116850000Y-97242852D01*
X116800000Y-97242852D01*
X116643922Y-97146532D01*
X116465413Y-97196554D01*
X116135571Y-97405216D01*
X115910688Y-97724220D01*
X115825000Y-98105000D01*
X103166308Y-98105000D01*
X103096124Y-97935142D01*
X102070259Y-96907485D01*
X100729215Y-96350635D01*
X100525000Y-96350457D01*
X100525000Y-96262373D01*
X108978940Y-96262373D01*
X109150114Y-96698179D01*
X109475034Y-97035306D01*
X109904234Y-97222429D01*
X109947627Y-97231058D01*
X110135000Y-97137213D01*
X110135000Y-96075000D01*
X110185000Y-96075000D01*
X110185000Y-97137213D01*
X110372373Y-97231058D01*
X110415766Y-97222429D01*
X110844966Y-97035306D01*
X111169886Y-96698179D01*
X111341060Y-96262373D01*
X111247242Y-96075000D01*
X110185000Y-96075000D01*
X110135000Y-96075000D01*
X109072758Y-96075000D01*
X108978940Y-96262373D01*
X100525000Y-96262373D01*
X100525000Y-95837627D01*
X108978940Y-95837627D01*
X109072758Y-96025000D01*
X110135000Y-96025000D01*
X110135000Y-94962787D01*
X110185000Y-94962787D01*
X110185000Y-96025000D01*
X111247242Y-96025000D01*
X111341060Y-95837627D01*
X111169886Y-95401821D01*
X111071752Y-95300000D01*
X111491184Y-95300000D01*
X111491184Y-96800000D01*
X111522562Y-96966760D01*
X111621117Y-97119919D01*
X111771495Y-97222668D01*
X111950000Y-97258816D01*
X113450000Y-97258816D01*
X113616760Y-97227438D01*
X113769919Y-97128883D01*
X113872668Y-96978505D01*
X113908816Y-96800000D01*
X113908816Y-96473579D01*
X117674874Y-96473579D01*
X117785016Y-96740143D01*
X117988784Y-96944267D01*
X118255156Y-97054874D01*
X118543579Y-97055126D01*
X118810143Y-96944984D01*
X119014267Y-96741216D01*
X119124874Y-96474844D01*
X119124875Y-96473579D01*
X121674874Y-96473579D01*
X121785016Y-96740143D01*
X121988784Y-96944267D01*
X122255156Y-97054874D01*
X122543579Y-97055126D01*
X122810143Y-96944984D01*
X123014267Y-96741216D01*
X123124874Y-96474844D01*
X123125126Y-96186421D01*
X123014984Y-95919857D01*
X122811216Y-95715733D01*
X122544844Y-95605126D01*
X122256421Y-95604874D01*
X121989857Y-95715016D01*
X121785733Y-95918784D01*
X121675126Y-96185156D01*
X121674874Y-96473579D01*
X119124875Y-96473579D01*
X119125126Y-96186421D01*
X119014984Y-95919857D01*
X118811216Y-95715733D01*
X118544844Y-95605126D01*
X118256421Y-95604874D01*
X117989857Y-95715016D01*
X117785733Y-95918784D01*
X117675126Y-96185156D01*
X117674874Y-96473579D01*
X113908816Y-96473579D01*
X113908816Y-95300000D01*
X113877438Y-95133240D01*
X113814223Y-95035000D01*
X115825000Y-95035000D01*
X115825000Y-95385000D01*
X115910688Y-95765780D01*
X116135571Y-96084784D01*
X116465413Y-96293446D01*
X116643922Y-96343468D01*
X116800000Y-96247148D01*
X116800000Y-95035000D01*
X116850000Y-95035000D01*
X116850000Y-96247148D01*
X117006078Y-96343468D01*
X117184587Y-96293446D01*
X117514429Y-96084784D01*
X117739312Y-95765780D01*
X117825000Y-95385000D01*
X117825000Y-95035000D01*
X122975000Y-95035000D01*
X122975000Y-95385000D01*
X123060688Y-95765780D01*
X123285571Y-96084784D01*
X123615413Y-96293446D01*
X123793922Y-96343468D01*
X123950000Y-96247148D01*
X123950000Y-95035000D01*
X124000000Y-95035000D01*
X124000000Y-96247148D01*
X124156078Y-96343468D01*
X124334587Y-96293446D01*
X124664429Y-96084784D01*
X124889312Y-95765780D01*
X124975000Y-95385000D01*
X124975000Y-95035000D01*
X124000000Y-95035000D01*
X123950000Y-95035000D01*
X122975000Y-95035000D01*
X117825000Y-95035000D01*
X116850000Y-95035000D01*
X116800000Y-95035000D01*
X115825000Y-95035000D01*
X113814223Y-95035000D01*
X113778883Y-94980081D01*
X113628505Y-94877332D01*
X113450000Y-94841184D01*
X111950000Y-94841184D01*
X111783240Y-94872562D01*
X111630081Y-94971117D01*
X111527332Y-95121495D01*
X111491184Y-95300000D01*
X111071752Y-95300000D01*
X110844966Y-95064694D01*
X110415766Y-94877571D01*
X110372373Y-94868942D01*
X110185000Y-94962787D01*
X110135000Y-94962787D01*
X109947627Y-94868942D01*
X109904234Y-94877571D01*
X109475034Y-95064694D01*
X109150114Y-95401821D01*
X108978940Y-95837627D01*
X100525000Y-95837627D01*
X100525000Y-89532373D01*
X100618942Y-89532373D01*
X100627571Y-89575766D01*
X100814694Y-90004966D01*
X101151821Y-90329886D01*
X101587627Y-90501060D01*
X101775000Y-90407242D01*
X101775000Y-89345000D01*
X101825000Y-89345000D01*
X101825000Y-90407242D01*
X102012373Y-90501060D01*
X102448179Y-90329886D01*
X102785306Y-90004966D01*
X102972429Y-89575766D01*
X102981058Y-89532373D01*
X102887213Y-89345000D01*
X101825000Y-89345000D01*
X101775000Y-89345000D01*
X100712787Y-89345000D01*
X100618942Y-89532373D01*
X100525000Y-89532373D01*
X100525000Y-89107627D01*
X100618942Y-89107627D01*
X100712787Y-89295000D01*
X101775000Y-89295000D01*
X101775000Y-88232758D01*
X101825000Y-88232758D01*
X101825000Y-89295000D01*
X102887213Y-89295000D01*
X102981058Y-89107627D01*
X102972429Y-89064234D01*
X102785306Y-88635034D01*
X102448179Y-88310114D01*
X102012373Y-88138940D01*
X101825000Y-88232758D01*
X101775000Y-88232758D01*
X101587627Y-88138940D01*
X101151821Y-88310114D01*
X100814694Y-88635034D01*
X100627571Y-89064234D01*
X100618942Y-89107627D01*
X100525000Y-89107627D01*
X100525000Y-86780000D01*
X100576491Y-86780000D01*
X100667836Y-87239220D01*
X100927963Y-87628528D01*
X101317271Y-87888655D01*
X101776491Y-87980000D01*
X101823509Y-87980000D01*
X102282729Y-87888655D01*
X102672037Y-87628528D01*
X102932164Y-87239220D01*
X103023509Y-86780000D01*
X102932164Y-86320780D01*
X102672037Y-85931472D01*
X102282729Y-85671345D01*
X101823509Y-85580000D01*
X101776491Y-85580000D01*
X101317271Y-85671345D01*
X100927963Y-85931472D01*
X100667836Y-86320780D01*
X100576491Y-86780000D01*
X100525000Y-86780000D01*
X100525000Y-83750000D01*
X104400000Y-83750000D01*
X104458358Y-83738182D01*
X104507521Y-83704591D01*
X104539742Y-83654519D01*
X104550000Y-83600000D01*
X104550000Y-83450000D01*
X106225000Y-83450000D01*
X106225000Y-86300000D01*
X106249890Y-86425132D01*
X106249861Y-86458432D01*
X106262690Y-86489480D01*
X106287799Y-86615714D01*
X106358680Y-86721795D01*
X106371397Y-86752572D01*
X106395132Y-86776348D01*
X106450000Y-86858464D01*
X106450000Y-88901472D01*
X102730620Y-92620852D01*
X102932164Y-92319220D01*
X103023509Y-91860000D01*
X102932164Y-91400780D01*
X102672037Y-91011472D01*
X102282729Y-90751345D01*
X101823509Y-90660000D01*
X101776491Y-90660000D01*
X101317271Y-90751345D01*
X100927963Y-91011472D01*
X100667836Y-91400780D01*
X100576491Y-91860000D01*
X100667836Y-92319220D01*
X100927963Y-92708528D01*
X101317271Y-92968655D01*
X101776491Y-93060000D01*
X101823509Y-93060000D01*
X102282729Y-92968655D01*
X102584361Y-92767111D01*
X102160288Y-93191184D01*
X101050000Y-93191184D01*
X100883240Y-93222562D01*
X100730081Y-93321117D01*
X100627332Y-93471495D01*
X100591184Y-93650000D01*
X100591184Y-95150000D01*
X100622562Y-95316760D01*
X100721117Y-95469919D01*
X100871495Y-95572668D01*
X101050000Y-95608816D01*
X102550000Y-95608816D01*
X102716760Y-95577438D01*
X102869919Y-95478883D01*
X102972668Y-95328505D01*
X103008816Y-95150000D01*
X103008816Y-94635000D01*
X115825000Y-94635000D01*
X115825000Y-94985000D01*
X116800000Y-94985000D01*
X116800000Y-93772852D01*
X116850000Y-93772852D01*
X116850000Y-94985000D01*
X117825000Y-94985000D01*
X117825000Y-94635000D01*
X122975000Y-94635000D01*
X122975000Y-94985000D01*
X123950000Y-94985000D01*
X123950000Y-93772852D01*
X124000000Y-93772852D01*
X124000000Y-94985000D01*
X124975000Y-94985000D01*
X124975000Y-94635000D01*
X124889312Y-94254220D01*
X124664429Y-93935216D01*
X124334587Y-93726554D01*
X124156078Y-93676532D01*
X124000000Y-93772852D01*
X123950000Y-93772852D01*
X123793922Y-93676532D01*
X123615413Y-93726554D01*
X123285571Y-93935216D01*
X123060688Y-94254220D01*
X122975000Y-94635000D01*
X117825000Y-94635000D01*
X117739312Y-94254220D01*
X117514429Y-93935216D01*
X117184587Y-93726554D01*
X117006078Y-93676532D01*
X116850000Y-93772852D01*
X116800000Y-93772852D01*
X116643922Y-93676532D01*
X116465413Y-93726554D01*
X116135571Y-93935216D01*
X115910688Y-94254220D01*
X115825000Y-94635000D01*
X103008816Y-94635000D01*
X103008816Y-94039712D01*
X104539684Y-92508844D01*
X117826511Y-92508844D01*
X117871105Y-92689312D01*
X118236362Y-92846957D01*
X118634143Y-92852824D01*
X119003890Y-92706020D01*
X119028895Y-92689312D01*
X119073489Y-92508844D01*
X118450000Y-91885355D01*
X117826511Y-92508844D01*
X104539684Y-92508844D01*
X105014385Y-92034143D01*
X117447176Y-92034143D01*
X117593980Y-92403890D01*
X117610688Y-92428895D01*
X117791156Y-92473489D01*
X118414645Y-91850000D01*
X118485355Y-91850000D01*
X119108844Y-92473489D01*
X119149414Y-92463464D01*
X119382806Y-92697264D01*
X119750215Y-92849826D01*
X120148040Y-92850173D01*
X120515714Y-92698253D01*
X120700075Y-92514214D01*
X120882806Y-92697264D01*
X121250215Y-92849826D01*
X121648040Y-92850173D01*
X122015714Y-92698253D01*
X122200075Y-92514214D01*
X122382806Y-92697264D01*
X122750215Y-92849826D01*
X123148040Y-92850173D01*
X123515714Y-92698253D01*
X123797264Y-92417194D01*
X123913403Y-92137500D01*
X126900000Y-92137500D01*
X126900000Y-92839510D01*
X126968508Y-93004904D01*
X127095095Y-93131491D01*
X127260489Y-93200000D01*
X127962500Y-93200000D01*
X128075000Y-93087500D01*
X128075000Y-92025000D01*
X128125000Y-92025000D01*
X128125000Y-93087500D01*
X128237500Y-93200000D01*
X128939511Y-93200000D01*
X129104905Y-93131491D01*
X129231492Y-93004904D01*
X129300000Y-92839510D01*
X129300000Y-92137500D01*
X129187500Y-92025000D01*
X128125000Y-92025000D01*
X128075000Y-92025000D01*
X127012500Y-92025000D01*
X126900000Y-92137500D01*
X123913403Y-92137500D01*
X123949826Y-92049785D01*
X123950173Y-91651960D01*
X123798253Y-91284286D01*
X123674673Y-91160490D01*
X126900000Y-91160490D01*
X126900000Y-91862500D01*
X127012500Y-91975000D01*
X128075000Y-91975000D01*
X128075000Y-90912500D01*
X128125000Y-90912500D01*
X128125000Y-91975000D01*
X129187500Y-91975000D01*
X129300000Y-91862500D01*
X129300000Y-91160490D01*
X129231492Y-90995096D01*
X129104905Y-90868509D01*
X128939511Y-90800000D01*
X128237500Y-90800000D01*
X128125000Y-90912500D01*
X128075000Y-90912500D01*
X127962500Y-90800000D01*
X127260489Y-90800000D01*
X127095095Y-90868509D01*
X126968508Y-90995096D01*
X126900000Y-91160490D01*
X123674673Y-91160490D01*
X123517194Y-91002736D01*
X123149785Y-90850174D01*
X122751960Y-90849827D01*
X122384286Y-91001747D01*
X122199925Y-91185786D01*
X122017194Y-91002736D01*
X121649785Y-90850174D01*
X121251960Y-90849827D01*
X120884286Y-91001747D01*
X120699925Y-91185786D01*
X120517194Y-91002736D01*
X120149785Y-90850174D01*
X119751960Y-90849827D01*
X119384286Y-91001747D01*
X119149152Y-91236471D01*
X119108844Y-91226511D01*
X118485355Y-91850000D01*
X118414645Y-91850000D01*
X117791156Y-91226511D01*
X117610688Y-91271105D01*
X117453043Y-91636362D01*
X117447176Y-92034143D01*
X105014385Y-92034143D01*
X105857372Y-91191156D01*
X117826511Y-91191156D01*
X118450000Y-91814645D01*
X119073489Y-91191156D01*
X119028895Y-91010688D01*
X118663638Y-90853043D01*
X118265857Y-90847176D01*
X117896110Y-90993980D01*
X117871105Y-91010688D01*
X117826511Y-91191156D01*
X105857372Y-91191156D01*
X107474264Y-89574264D01*
X107604328Y-89379610D01*
X107650000Y-89150000D01*
X107650000Y-88508432D01*
X115949861Y-88508432D01*
X116071397Y-88802572D01*
X116296245Y-89027812D01*
X116590172Y-89149861D01*
X116908432Y-89150139D01*
X117150787Y-89050000D01*
X123350000Y-89050000D01*
X123617879Y-88996716D01*
X123844975Y-88844975D01*
X124039950Y-88650000D01*
X125749680Y-88650000D01*
X125990172Y-88749861D01*
X126308432Y-88750139D01*
X126602572Y-88628603D01*
X126827812Y-88403755D01*
X126949861Y-88109828D01*
X126950139Y-87791568D01*
X126828603Y-87497428D01*
X126603755Y-87272188D01*
X126309828Y-87150139D01*
X125991568Y-87149861D01*
X125749213Y-87250000D01*
X123750000Y-87250000D01*
X123482122Y-87303284D01*
X123255025Y-87455025D01*
X123255023Y-87455028D01*
X123060051Y-87650000D01*
X117150320Y-87650000D01*
X116909828Y-87550139D01*
X116591568Y-87549861D01*
X116297428Y-87671397D01*
X116072188Y-87896245D01*
X115950139Y-88190172D01*
X115949861Y-88508432D01*
X107650000Y-88508432D01*
X107650000Y-86858464D01*
X107704245Y-86777281D01*
X107727812Y-86753755D01*
X107740694Y-86722731D01*
X107812201Y-86615714D01*
X107837091Y-86490581D01*
X107849861Y-86459828D01*
X107849890Y-86426236D01*
X107875000Y-86300000D01*
X107875000Y-81800000D01*
X107812201Y-81484286D01*
X107633363Y-81216637D01*
X105675000Y-79258274D01*
X105675000Y-78739752D01*
X105940172Y-78849861D01*
X106258432Y-78850139D01*
X106552572Y-78728603D01*
X106777812Y-78503755D01*
X106899861Y-78209828D01*
X106899958Y-78098570D01*
X107124264Y-77874264D01*
X107254328Y-77679610D01*
X107300000Y-77450000D01*
X107300000Y-77048528D01*
X107649870Y-76698658D01*
X107649861Y-76708432D01*
X107771397Y-77002572D01*
X107996245Y-77227812D01*
X108290172Y-77349861D01*
X108401430Y-77349958D01*
X108925736Y-77874264D01*
X109120390Y-78004328D01*
X109350000Y-78050000D01*
X113768568Y-78050000D01*
X113846245Y-78127812D01*
X114140172Y-78249861D01*
X114458432Y-78250139D01*
X114752572Y-78128603D01*
X114977812Y-77903755D01*
X115099861Y-77609828D01*
X115100139Y-77291568D01*
X114978603Y-76997428D01*
X114753755Y-76772188D01*
X114459828Y-76650139D01*
X114141568Y-76649861D01*
X113847428Y-76771397D01*
X113768688Y-76850000D01*
X109598528Y-76850000D01*
X109250043Y-76501515D01*
X109250139Y-76391568D01*
X109150325Y-76150000D01*
X112250000Y-76150000D01*
X112479610Y-76104328D01*
X112674264Y-75974264D01*
X112948485Y-75700043D01*
X113058432Y-75700139D01*
X113352572Y-75578603D01*
X113577812Y-75353755D01*
X113699861Y-75059828D01*
X113700030Y-74866756D01*
X115116637Y-76283363D01*
X115384286Y-76462201D01*
X115700000Y-76525000D01*
X119000000Y-76525000D01*
X119125132Y-76500110D01*
X119158432Y-76500139D01*
X119189480Y-76487310D01*
X119315714Y-76462201D01*
X119421795Y-76391320D01*
X119452572Y-76378603D01*
X119476348Y-76354868D01*
X119583363Y-76283363D01*
X119654245Y-76177281D01*
X119677812Y-76153755D01*
X119690694Y-76122731D01*
X119762201Y-76015714D01*
X119787091Y-75890581D01*
X119799861Y-75859828D01*
X119799890Y-75826236D01*
X119825000Y-75700000D01*
X119800110Y-75574868D01*
X119800139Y-75541568D01*
X119787310Y-75510520D01*
X119762201Y-75384286D01*
X119691320Y-75278205D01*
X119678603Y-75247428D01*
X119654868Y-75223652D01*
X119583363Y-75116637D01*
X119477281Y-75045755D01*
X119453755Y-75022188D01*
X119422731Y-75009306D01*
X119315714Y-74937799D01*
X119190581Y-74912909D01*
X119159828Y-74900139D01*
X119126236Y-74900110D01*
X119000000Y-74875000D01*
X116041726Y-74875000D01*
X114183363Y-73016637D01*
X113915714Y-72837799D01*
X113600000Y-72775000D01*
X111875000Y-72775000D01*
X111875000Y-72350000D01*
X111850110Y-72224868D01*
X111850139Y-72191568D01*
X111837310Y-72160520D01*
X111812201Y-72034286D01*
X111741320Y-71928205D01*
X111728603Y-71897428D01*
X111704868Y-71873652D01*
X111633363Y-71766637D01*
X111527281Y-71695755D01*
X111503755Y-71672188D01*
X111472731Y-71659306D01*
X111365714Y-71587799D01*
X111240581Y-71562909D01*
X111209828Y-71550139D01*
X111176236Y-71550110D01*
X111050000Y-71525000D01*
X110924868Y-71549890D01*
X110891568Y-71549861D01*
X110860520Y-71562690D01*
X110734286Y-71587799D01*
X110628205Y-71658680D01*
X110597428Y-71671397D01*
X110573652Y-71695132D01*
X110466637Y-71766637D01*
X110395755Y-71872719D01*
X110372188Y-71896245D01*
X110359306Y-71927269D01*
X110287799Y-72034286D01*
X110262909Y-72159419D01*
X110250139Y-72190172D01*
X110250110Y-72223764D01*
X110225000Y-72350000D01*
X110225000Y-72775000D01*
X105273528Y-72775000D01*
X103486903Y-70988375D01*
X103752572Y-70878603D01*
X103977812Y-70653755D01*
X104099861Y-70359828D01*
X104100139Y-70041568D01*
X103978603Y-69747428D01*
X103753755Y-69522188D01*
X103459828Y-69400139D01*
X103348570Y-69400042D01*
X101850000Y-67901472D01*
X101850000Y-59798528D01*
X103098528Y-58550000D01*
X105091184Y-58550000D01*
X105122562Y-58716760D01*
X105221117Y-58869919D01*
X105371495Y-58972668D01*
X105550000Y-59008816D01*
X106450000Y-59008816D01*
X106616760Y-58977438D01*
X106769919Y-58878883D01*
X106872668Y-58728505D01*
X106908816Y-58550000D01*
X106908816Y-57350000D01*
X106877438Y-57183240D01*
X106778883Y-57030081D01*
X106628505Y-56927332D01*
X106450000Y-56891184D01*
X105550000Y-56891184D01*
X105383240Y-56922562D01*
X105230081Y-57021117D01*
X105127332Y-57171495D01*
X105091184Y-57350000D01*
X102850000Y-57350000D01*
X102620390Y-57395672D01*
X102425736Y-57525736D01*
X101150000Y-58801472D01*
X101150000Y-56848528D01*
X102111028Y-55887500D01*
X105100000Y-55887500D01*
X105100000Y-56439511D01*
X105168509Y-56604905D01*
X105295096Y-56731492D01*
X105460490Y-56800000D01*
X105862500Y-56800000D01*
X105975000Y-56687500D01*
X105975000Y-55775000D01*
X106025000Y-55775000D01*
X106025000Y-56687500D01*
X106137500Y-56800000D01*
X106539510Y-56800000D01*
X106704904Y-56731492D01*
X106831491Y-56604905D01*
X106900000Y-56439511D01*
X106900000Y-55887500D01*
X106787500Y-55775000D01*
X106025000Y-55775000D01*
X105975000Y-55775000D01*
X105212500Y-55775000D01*
X105100000Y-55887500D01*
X102111028Y-55887500D01*
X102148485Y-55850043D01*
X102258432Y-55850139D01*
X102552572Y-55728603D01*
X102777812Y-55503755D01*
X102899861Y-55209828D01*
X102899991Y-55060489D01*
X105100000Y-55060489D01*
X105100000Y-55612500D01*
X105212500Y-55725000D01*
X105975000Y-55725000D01*
X105975000Y-54812500D01*
X106025000Y-54812500D01*
X106025000Y-55725000D01*
X106787500Y-55725000D01*
X106900000Y-55612500D01*
X106900000Y-55060489D01*
X106831491Y-54895095D01*
X106704904Y-54768508D01*
X106539510Y-54700000D01*
X106137500Y-54700000D01*
X106025000Y-54812500D01*
X105975000Y-54812500D01*
X105862500Y-54700000D01*
X105460490Y-54700000D01*
X105295096Y-54768508D01*
X105168509Y-54895095D01*
X105100000Y-55060489D01*
X102899991Y-55060489D01*
X102900139Y-54891568D01*
X102778603Y-54597428D01*
X102553755Y-54372188D01*
X102259828Y-54250139D01*
X101941568Y-54249861D01*
X101647428Y-54371397D01*
X101422188Y-54596245D01*
X101300139Y-54890172D01*
X101300042Y-55001430D01*
X100525000Y-55776472D01*
X100525000Y-52850459D01*
X100722845Y-52850632D01*
X102064858Y-52296124D01*
X103092515Y-51270259D01*
X103649365Y-49929215D01*
X103649543Y-49725000D01*
X111576472Y-49725000D01*
X111295736Y-50005736D01*
X111295736Y-50005736D01*
G37*
X111295736Y-50005736D02*
X111165672Y-50200390D01*
X111120000Y-50430000D01*
X111120000Y-50810000D01*
X111053240Y-50822562D01*
X110900081Y-50921117D01*
X110797332Y-51071495D01*
X110761184Y-51250000D01*
X110761184Y-53250000D01*
X110792562Y-53416760D01*
X110891117Y-53569919D01*
X111041495Y-53672668D01*
X111220000Y-53708816D01*
X112220000Y-53708816D01*
X112386760Y-53677438D01*
X112439143Y-53643730D01*
X112481495Y-53672668D01*
X112660000Y-53708816D01*
X113660000Y-53708816D01*
X113775000Y-53687177D01*
X113775000Y-55093732D01*
X113603755Y-54922188D01*
X113309828Y-54800139D01*
X112991568Y-54799861D01*
X112697428Y-54921397D01*
X112472188Y-55146245D01*
X112350139Y-55440172D01*
X112350042Y-55551430D01*
X111295736Y-56605736D01*
X111165672Y-56800390D01*
X111120000Y-57030000D01*
X111120000Y-60010000D01*
X111053240Y-60022562D01*
X110900081Y-60121117D01*
X110797332Y-60271495D01*
X110761184Y-60450000D01*
X110761184Y-62450000D01*
X110792562Y-62616760D01*
X110891117Y-62769919D01*
X111041495Y-62872668D01*
X111220000Y-62908816D01*
X112220000Y-62908816D01*
X112386760Y-62877438D01*
X112439143Y-62843730D01*
X112481495Y-62872668D01*
X112660000Y-62908816D01*
X113660000Y-62908816D01*
X113826760Y-62877438D01*
X113879143Y-62843730D01*
X113921495Y-62872668D01*
X114100000Y-62908816D01*
X115100000Y-62908816D01*
X115266760Y-62877438D01*
X115319143Y-62843730D01*
X115361495Y-62872668D01*
X115540000Y-62908816D01*
X116540000Y-62908816D01*
X116706760Y-62877438D01*
X116759143Y-62843730D01*
X116801495Y-62872668D01*
X116838406Y-62880143D01*
X116772188Y-62946245D01*
X116650139Y-63240172D01*
X116649861Y-63558432D01*
X116771397Y-63852572D01*
X116996245Y-64077812D01*
X117290172Y-64199861D01*
X117401430Y-64199958D01*
X118001472Y-64800000D01*
X117231432Y-64800000D01*
X117153755Y-64722188D01*
X116859828Y-64600139D01*
X116541568Y-64599861D01*
X116247428Y-64721397D01*
X116022188Y-64946245D01*
X115900139Y-65240172D01*
X115899861Y-65558432D01*
X116021397Y-65852572D01*
X116246245Y-66077812D01*
X116540172Y-66199861D01*
X116858432Y-66200139D01*
X117152572Y-66078603D01*
X117231312Y-66000000D01*
X118051472Y-66000000D01*
X122100000Y-70048528D01*
X122100000Y-71468568D01*
X122022188Y-71546245D01*
X121900139Y-71840172D01*
X121899861Y-72158432D01*
X122021397Y-72452572D01*
X122210333Y-72641838D01*
X122000000Y-72600000D01*
X119398528Y-72600000D01*
X116274264Y-69475736D01*
X116079610Y-69345672D01*
X115850000Y-69300000D01*
X111748528Y-69300000D01*
X108724264Y-66275736D01*
X108529610Y-66145672D01*
X108300000Y-66100000D01*
X106998528Y-66100000D01*
X105824264Y-64925736D01*
X105629610Y-64795672D01*
X105400000Y-64750000D01*
X105131432Y-64750000D01*
X105053755Y-64672188D01*
X104759828Y-64550139D01*
X104441568Y-64549861D01*
X104147428Y-64671397D01*
X103922188Y-64896245D01*
X103800139Y-65190172D01*
X103799861Y-65508432D01*
X103921397Y-65802572D01*
X104146245Y-66027812D01*
X104440172Y-66149861D01*
X104758432Y-66150139D01*
X105052572Y-66028603D01*
X105131312Y-65950000D01*
X105151472Y-65950000D01*
X106325736Y-67124264D01*
X106520389Y-67254328D01*
X106750000Y-67300000D01*
X108051472Y-67300000D01*
X111075736Y-70324264D01*
X111270389Y-70454328D01*
X111500000Y-70500000D01*
X115601472Y-70500000D01*
X118725736Y-73624264D01*
X118920390Y-73754328D01*
X119150000Y-73800000D01*
X121751472Y-73800000D01*
X122150000Y-74198528D01*
X122150000Y-78000000D01*
X122195672Y-78229610D01*
X122325736Y-78424264D01*
X125725736Y-81824264D01*
X125920390Y-81954328D01*
X126150000Y-82000000D01*
X133850000Y-82000000D01*
X134079610Y-81954328D01*
X134274264Y-81824264D01*
X134798528Y-81300000D01*
X135725000Y-81300000D01*
X135749890Y-81425132D01*
X135749861Y-81458432D01*
X135762690Y-81489480D01*
X135787799Y-81615714D01*
X135858680Y-81721795D01*
X135871397Y-81752572D01*
X135895132Y-81776348D01*
X135966637Y-81883363D01*
X138416637Y-84333363D01*
X138522719Y-84404245D01*
X138546245Y-84427812D01*
X138577269Y-84440694D01*
X138684286Y-84512201D01*
X138809419Y-84537091D01*
X138840172Y-84549861D01*
X138873764Y-84549890D01*
X139000000Y-84575000D01*
X139125132Y-84550110D01*
X139158432Y-84550139D01*
X139189480Y-84537310D01*
X139315714Y-84512201D01*
X139421795Y-84441320D01*
X139452572Y-84428603D01*
X139476348Y-84404868D01*
X139583363Y-84333363D01*
X139654245Y-84227281D01*
X139677812Y-84203755D01*
X139690694Y-84172731D01*
X139762201Y-84065714D01*
X139787091Y-83940581D01*
X139799861Y-83909828D01*
X139799890Y-83876236D01*
X139825000Y-83750000D01*
X139800110Y-83624868D01*
X139800139Y-83591568D01*
X139787310Y-83560520D01*
X139762201Y-83434286D01*
X139691320Y-83328205D01*
X139678603Y-83297428D01*
X139654868Y-83273652D01*
X139583363Y-83166637D01*
X137957215Y-81540489D01*
X141000000Y-81540489D01*
X141000000Y-84492500D01*
X141112500Y-84605000D01*
X142925000Y-84605000D01*
X142925000Y-81292500D01*
X142975000Y-81292500D01*
X142975000Y-84605000D01*
X144787500Y-84605000D01*
X144900000Y-84492500D01*
X144900000Y-81540489D01*
X144831491Y-81375095D01*
X144704904Y-81248508D01*
X144539510Y-81180000D01*
X143087500Y-81180000D01*
X142975000Y-81292500D01*
X142925000Y-81292500D01*
X142812500Y-81180000D01*
X141360490Y-81180000D01*
X141195096Y-81248508D01*
X141068509Y-81375095D01*
X141000000Y-81540489D01*
X137957215Y-81540489D01*
X137133363Y-80716637D01*
X137027281Y-80645755D01*
X137003755Y-80622188D01*
X136972731Y-80609306D01*
X136865714Y-80537799D01*
X136740581Y-80512909D01*
X136709828Y-80500139D01*
X136676236Y-80500110D01*
X136550000Y-80475000D01*
X136424868Y-80499890D01*
X136391568Y-80499861D01*
X136360520Y-80512690D01*
X136234286Y-80537799D01*
X136128205Y-80608680D01*
X136097428Y-80621397D01*
X136073652Y-80645132D01*
X135966637Y-80716637D01*
X135895755Y-80822719D01*
X135872188Y-80846245D01*
X135859306Y-80877269D01*
X135787799Y-80984286D01*
X135762909Y-81109419D01*
X135750139Y-81140172D01*
X135750110Y-81173764D01*
X135725000Y-81300000D01*
X134798528Y-81300000D01*
X136630684Y-79467844D01*
X141849810Y-79467844D01*
X142016922Y-79872286D01*
X142326087Y-80181991D01*
X142730237Y-80349808D01*
X143167844Y-80350190D01*
X143572286Y-80183078D01*
X143881991Y-79873913D01*
X144049808Y-79469763D01*
X144050190Y-79032156D01*
X143883078Y-78627714D01*
X143573913Y-78318009D01*
X143169763Y-78150192D01*
X142732156Y-78149810D01*
X142327714Y-78316922D01*
X142018009Y-78626087D01*
X141850192Y-79030237D01*
X141849810Y-79467844D01*
X136630684Y-79467844D01*
X136924264Y-79174264D01*
X137054328Y-78979610D01*
X137100000Y-78750000D01*
X137100000Y-76300000D01*
X137065337Y-76125736D01*
X137054328Y-76070389D01*
X136924264Y-75875736D01*
X136446485Y-75397957D01*
X141944273Y-75397957D01*
X142146167Y-75917031D01*
X142531333Y-76319331D01*
X143041134Y-76543611D01*
X143102043Y-76555727D01*
X143325000Y-76464690D01*
X143325000Y-75175000D01*
X143375000Y-75175000D01*
X143375000Y-76464690D01*
X143597957Y-76555727D01*
X144117031Y-76353833D01*
X144519331Y-75968667D01*
X144743611Y-75458866D01*
X144755727Y-75397957D01*
X144664690Y-75175000D01*
X143375000Y-75175000D01*
X143325000Y-75175000D01*
X142035310Y-75175000D01*
X141944273Y-75397957D01*
X136446485Y-75397957D01*
X135950571Y-74902043D01*
X141944273Y-74902043D01*
X142035310Y-75125000D01*
X143325000Y-75125000D01*
X143325000Y-73835310D01*
X143375000Y-73835310D01*
X143375000Y-75125000D01*
X144664690Y-75125000D01*
X144755727Y-74902043D01*
X144553833Y-74382969D01*
X144168667Y-73980669D01*
X143658866Y-73756389D01*
X143597957Y-73744273D01*
X143375000Y-73835310D01*
X143325000Y-73835310D01*
X143102043Y-73744273D01*
X142582969Y-73946167D01*
X142180669Y-74331333D01*
X141956389Y-74841134D01*
X141944273Y-74902043D01*
X135950571Y-74902043D01*
X135300000Y-74251472D01*
X135300000Y-71967844D01*
X141849810Y-71967844D01*
X142016922Y-72372286D01*
X142326087Y-72681991D01*
X142730237Y-72849808D01*
X143167844Y-72850190D01*
X143572286Y-72683078D01*
X143881991Y-72373913D01*
X144049808Y-71969763D01*
X144050190Y-71532156D01*
X143883078Y-71127714D01*
X143573913Y-70818009D01*
X143169763Y-70650192D01*
X142732156Y-70649810D01*
X142327714Y-70816922D01*
X142018009Y-71126087D01*
X141850192Y-71530237D01*
X141849810Y-71967844D01*
X135300000Y-71967844D01*
X135300000Y-70598528D01*
X138438528Y-67460000D01*
X140991184Y-67460000D01*
X140991184Y-69860000D01*
X141022562Y-70026760D01*
X141121117Y-70179919D01*
X141271495Y-70282668D01*
X141450000Y-70318816D01*
X144450000Y-70318816D01*
X144616760Y-70287438D01*
X144769919Y-70188883D01*
X144872668Y-70038505D01*
X144908816Y-69860000D01*
X144908816Y-67460000D01*
X145418074Y-67460000D01*
X147333212Y-69375138D01*
X147253544Y-69567000D01*
X147253058Y-70123955D01*
X147465746Y-70638699D01*
X147859229Y-71032869D01*
X148373602Y-71246456D01*
X148930557Y-71246942D01*
X149445301Y-71034254D01*
X149839471Y-70640771D01*
X150053058Y-70126398D01*
X150053544Y-69569443D01*
X149840856Y-69054699D01*
X149447373Y-68660529D01*
X148933000Y-68446942D01*
X148376045Y-68446456D01*
X148181833Y-68526703D01*
X146090866Y-66435736D01*
X145896212Y-66305672D01*
X145666602Y-66260000D01*
X144908816Y-66260000D01*
X144908816Y-63860000D01*
X144877438Y-63693240D01*
X144778883Y-63540081D01*
X144628505Y-63437332D01*
X144450000Y-63401184D01*
X141450000Y-63401184D01*
X141283240Y-63432562D01*
X141130081Y-63531117D01*
X141027332Y-63681495D01*
X140991184Y-63860000D01*
X140991184Y-66260000D01*
X138190000Y-66260000D01*
X137960389Y-66305672D01*
X137765736Y-66435736D01*
X134275736Y-69925736D01*
X134145672Y-70120390D01*
X134100000Y-70350000D01*
X134100000Y-74500000D01*
X134145672Y-74729610D01*
X134275736Y-74924264D01*
X135900000Y-76548528D01*
X135900000Y-77791536D01*
X135883363Y-77766637D01*
X135777281Y-77695755D01*
X135753755Y-77672188D01*
X135722731Y-77659306D01*
X135615714Y-77587799D01*
X135490581Y-77562909D01*
X135459828Y-77550139D01*
X135426236Y-77550110D01*
X135300000Y-77525000D01*
X135174868Y-77549890D01*
X135141568Y-77549861D01*
X135110520Y-77562690D01*
X134984286Y-77587799D01*
X134878205Y-77658680D01*
X134847428Y-77671397D01*
X134823652Y-77695132D01*
X134716637Y-77766637D01*
X132858274Y-79625000D01*
X126891726Y-79625000D01*
X124875158Y-77608432D01*
X128049861Y-77608432D01*
X128171397Y-77902572D01*
X128396245Y-78127812D01*
X128690172Y-78249861D01*
X129008432Y-78250139D01*
X129302572Y-78128603D01*
X129381312Y-78050000D01*
X130000000Y-78050000D01*
X130229610Y-78004328D01*
X130424264Y-77874264D01*
X130561625Y-77736903D01*
X130671397Y-78002572D01*
X130896245Y-78227812D01*
X131190172Y-78349861D01*
X131508432Y-78350139D01*
X131802572Y-78228603D01*
X132027812Y-78003755D01*
X132149861Y-77709828D01*
X132149958Y-77598570D01*
X133474264Y-76274264D01*
X133604328Y-76079610D01*
X133650000Y-75850000D01*
X133650000Y-66331432D01*
X133727812Y-66253755D01*
X133849861Y-65959828D01*
X133850139Y-65641568D01*
X133728603Y-65347428D01*
X133503755Y-65122188D01*
X133209828Y-65000139D01*
X132891568Y-64999861D01*
X132597428Y-65121397D01*
X132449940Y-65268628D01*
X132303755Y-65122188D01*
X132009828Y-65000139D01*
X131691568Y-64999861D01*
X131397428Y-65121397D01*
X131172188Y-65346245D01*
X131050139Y-65640172D01*
X131049861Y-65958432D01*
X131171397Y-66252572D01*
X131250000Y-66331312D01*
X131250000Y-75351472D01*
X129751472Y-76850000D01*
X129381432Y-76850000D01*
X129303755Y-76772188D01*
X129009828Y-76650139D01*
X128691568Y-76649861D01*
X128397428Y-76771397D01*
X128172188Y-76996245D01*
X128050139Y-77290172D01*
X128049861Y-77608432D01*
X124875158Y-77608432D01*
X124525000Y-77258274D01*
X124525000Y-76385082D01*
X124717879Y-76346716D01*
X124944975Y-76194975D01*
X125994975Y-75144975D01*
X126085457Y-75009559D01*
X126146716Y-74917878D01*
X126200000Y-74650000D01*
X126200000Y-69108432D01*
X127149861Y-69108432D01*
X127271397Y-69402572D01*
X127496245Y-69627812D01*
X127790172Y-69749861D01*
X128108432Y-69750139D01*
X128402572Y-69628603D01*
X128627812Y-69403755D01*
X128749861Y-69109828D01*
X128749958Y-68998570D01*
X129874264Y-67874264D01*
X130004328Y-67679611D01*
X130050000Y-67450000D01*
X130050000Y-66881432D01*
X130127812Y-66803755D01*
X130249861Y-66509828D01*
X130250139Y-66191568D01*
X130128603Y-65897428D01*
X130050000Y-65818688D01*
X130050000Y-65698528D01*
X130898528Y-64850000D01*
X139450000Y-64850000D01*
X139679610Y-64804328D01*
X139874264Y-64674264D01*
X142248528Y-62300000D01*
X146700000Y-62300000D01*
X146929610Y-62254328D01*
X147124264Y-62124264D01*
X147778439Y-61470089D01*
X147970301Y-61549757D01*
X148527256Y-61550243D01*
X149042000Y-61337555D01*
X149436170Y-60944072D01*
X149649757Y-60429699D01*
X149650243Y-59872744D01*
X149437555Y-59358000D01*
X149044072Y-58963830D01*
X148529699Y-58750243D01*
X147972744Y-58749757D01*
X147458000Y-58962445D01*
X147063830Y-59355928D01*
X146850243Y-59870301D01*
X146849757Y-60427256D01*
X146930004Y-60621468D01*
X146451472Y-61100000D01*
X142000000Y-61100000D01*
X141770390Y-61145672D01*
X141575736Y-61275736D01*
X139201472Y-63650000D01*
X130650000Y-63650000D01*
X130420390Y-63695672D01*
X130225736Y-63825736D01*
X129025736Y-65025736D01*
X128895672Y-65220390D01*
X128850000Y-65450000D01*
X128850000Y-65818568D01*
X128772188Y-65896245D01*
X128650139Y-66190172D01*
X128649861Y-66508432D01*
X128771397Y-66802572D01*
X128850000Y-66881312D01*
X128850000Y-67201472D01*
X127901515Y-68149957D01*
X127791568Y-68149861D01*
X127497428Y-68271397D01*
X127272188Y-68496245D01*
X127150139Y-68790172D01*
X127149861Y-69108432D01*
X126200000Y-69108432D01*
X126200000Y-68900000D01*
X126146716Y-68632122D01*
X125994975Y-68405025D01*
X125994972Y-68405023D01*
X124400000Y-66810050D01*
X124400000Y-66650320D01*
X124499861Y-66409828D01*
X124500139Y-66091568D01*
X124378603Y-65797428D01*
X124153755Y-65572188D01*
X123859828Y-65450139D01*
X123541568Y-65449861D01*
X123400000Y-65508356D01*
X123400000Y-65498528D01*
X124698485Y-64200043D01*
X124808432Y-64200139D01*
X125102572Y-64078603D01*
X125327812Y-63853755D01*
X125449861Y-63559828D01*
X125450139Y-63241568D01*
X125328603Y-62947428D01*
X125272654Y-62891382D01*
X125346760Y-62877438D01*
X125399143Y-62843730D01*
X125441495Y-62872668D01*
X125620000Y-62908816D01*
X126620000Y-62908816D01*
X126786760Y-62877438D01*
X126839143Y-62843730D01*
X126881495Y-62872668D01*
X127060000Y-62908816D01*
X128060000Y-62908816D01*
X128226760Y-62877438D01*
X128279143Y-62843730D01*
X128321495Y-62872668D01*
X128500000Y-62908816D01*
X129500000Y-62908816D01*
X129666760Y-62877438D01*
X129719143Y-62843730D01*
X129761495Y-62872668D01*
X129940000Y-62908816D01*
X130940000Y-62908816D01*
X131106760Y-62877438D01*
X131159143Y-62843730D01*
X131201495Y-62872668D01*
X131380000Y-62908816D01*
X132380000Y-62908816D01*
X132546760Y-62877438D01*
X132599143Y-62843730D01*
X132641495Y-62872668D01*
X132820000Y-62908816D01*
X133820000Y-62908816D01*
X133986760Y-62877438D01*
X134039143Y-62843730D01*
X134081495Y-62872668D01*
X134260000Y-62908816D01*
X135260000Y-62908816D01*
X135426760Y-62877438D01*
X135479143Y-62843730D01*
X135521495Y-62872668D01*
X135700000Y-62908816D01*
X136700000Y-62908816D01*
X136866760Y-62877438D01*
X136919143Y-62843730D01*
X136961495Y-62872668D01*
X137140000Y-62908816D01*
X138140000Y-62908816D01*
X138306760Y-62877438D01*
X138359143Y-62843730D01*
X138401495Y-62872668D01*
X138580000Y-62908816D01*
X139580000Y-62908816D01*
X139746760Y-62877438D01*
X139899919Y-62778883D01*
X140002668Y-62628505D01*
X140038816Y-62450000D01*
X140038816Y-60450000D01*
X140025124Y-60377235D01*
X140039742Y-60354519D01*
X140050000Y-60300000D01*
X140050000Y-54597304D01*
X147338051Y-54597304D01*
X147431333Y-54819331D01*
X147941134Y-55043611D01*
X148497957Y-55055727D01*
X149017031Y-54853833D01*
X149068667Y-54819331D01*
X149161949Y-54597304D01*
X148250000Y-53685355D01*
X147338051Y-54597304D01*
X140050000Y-54597304D01*
X140050000Y-53897957D01*
X146844273Y-53897957D01*
X147046167Y-54417031D01*
X147080669Y-54468667D01*
X147302696Y-54561949D01*
X148214645Y-53650000D01*
X148285355Y-53650000D01*
X149197304Y-54561949D01*
X149419331Y-54468667D01*
X149643611Y-53958866D01*
X149655727Y-53402043D01*
X149453833Y-52882969D01*
X149419331Y-52831333D01*
X149197304Y-52738051D01*
X148285355Y-53650000D01*
X148214645Y-53650000D01*
X147302696Y-52738051D01*
X147080669Y-52831333D01*
X146856389Y-53341134D01*
X146844273Y-53897957D01*
X140050000Y-53897957D01*
X140050000Y-52702696D01*
X147338051Y-52702696D01*
X148250000Y-53614645D01*
X149161949Y-52702696D01*
X149068667Y-52480669D01*
X148558866Y-52256389D01*
X148002043Y-52244273D01*
X147482969Y-52446167D01*
X147431333Y-52480669D01*
X147338051Y-52702696D01*
X140050000Y-52702696D01*
X140050000Y-50350000D01*
X141101472Y-50350000D01*
X141499957Y-50748485D01*
X141499861Y-50858432D01*
X141621397Y-51152572D01*
X141846245Y-51377812D01*
X142140172Y-51499861D01*
X142458432Y-51500139D01*
X142752572Y-51378603D01*
X142977812Y-51153755D01*
X143099861Y-50859828D01*
X143100139Y-50541568D01*
X142978603Y-50247428D01*
X142753755Y-50022188D01*
X142459828Y-49900139D01*
X142348570Y-49900042D01*
X142173528Y-49725000D01*
X147149541Y-49725000D01*
X147149368Y-49922845D01*
X147703876Y-51264858D01*
X148729741Y-52292515D01*
X150070785Y-52849365D01*
X150275000Y-52849543D01*
X150275000Y-84850000D01*
X144900000Y-84850000D01*
X144900000Y-84767500D01*
X144787500Y-84655000D01*
X142975000Y-84655000D01*
X142975000Y-84675000D01*
X142925000Y-84675000D01*
X142925000Y-84655000D01*
X141112500Y-84655000D01*
X141000000Y-84767500D01*
X141000000Y-84850000D01*
X129800000Y-84850000D01*
X129741642Y-84861818D01*
X129692479Y-84895409D01*
X129660258Y-84945481D01*
X129650000Y-85000000D01*
X129650000Y-93250000D01*
X126300000Y-93250000D01*
X126241642Y-93261818D01*
X126192479Y-93295409D01*
X126160258Y-93345481D01*
X126150000Y-93400000D01*
X126150000Y-99475000D01*
X124720673Y-99475000D01*
X124889312Y-99235780D01*
X124975000Y-98855000D01*
X124975000Y-98505000D01*
X124000000Y-98505000D01*
X124000000Y-98525000D01*
X123950000Y-98525000D01*
X123950000Y-98505000D01*
X122975000Y-98505000D01*
X122975000Y-98855000D01*
X123060688Y-99235780D01*
X123229327Y-99475000D01*
X117570673Y-99475000D01*
X117739312Y-99235780D01*
X117825000Y-98855000D01*
X117825000Y-98505000D01*
X116850000Y-98505000D01*
X116850000Y-98525000D01*
X116800000Y-98525000D01*
X116800000Y-98505000D01*
X115825000Y-98505000D01*
X115825000Y-98855000D01*
X115910688Y-99235780D01*
X116079327Y-99475000D01*
X103650459Y-99475000D01*
X103650632Y-99277155D01*
X103166308Y-98105000D01*
X115825000Y-98105000D01*
X115825000Y-98455000D01*
X116800000Y-98455000D01*
X116800000Y-97242852D01*
X116850000Y-97242852D01*
X116850000Y-98455000D01*
X117825000Y-98455000D01*
X117825000Y-98105000D01*
X122975000Y-98105000D01*
X122975000Y-98455000D01*
X123950000Y-98455000D01*
X123950000Y-97242852D01*
X124000000Y-97242852D01*
X124000000Y-98455000D01*
X124975000Y-98455000D01*
X124975000Y-98105000D01*
X124889312Y-97724220D01*
X124664429Y-97405216D01*
X124334587Y-97196554D01*
X124156078Y-97146532D01*
X124000000Y-97242852D01*
X123950000Y-97242852D01*
X123793922Y-97146532D01*
X123615413Y-97196554D01*
X123285571Y-97405216D01*
X123060688Y-97724220D01*
X122975000Y-98105000D01*
X117825000Y-98105000D01*
X117739312Y-97724220D01*
X117514429Y-97405216D01*
X117184587Y-97196554D01*
X117006078Y-97146532D01*
X116850000Y-97242852D01*
X116800000Y-97242852D01*
X116643922Y-97146532D01*
X116465413Y-97196554D01*
X116135571Y-97405216D01*
X115910688Y-97724220D01*
X115825000Y-98105000D01*
X103166308Y-98105000D01*
X103096124Y-97935142D01*
X102070259Y-96907485D01*
X100729215Y-96350635D01*
X100525000Y-96350457D01*
X100525000Y-96262373D01*
X108978940Y-96262373D01*
X109150114Y-96698179D01*
X109475034Y-97035306D01*
X109904234Y-97222429D01*
X109947627Y-97231058D01*
X110135000Y-97137213D01*
X110135000Y-96075000D01*
X110185000Y-96075000D01*
X110185000Y-97137213D01*
X110372373Y-97231058D01*
X110415766Y-97222429D01*
X110844966Y-97035306D01*
X111169886Y-96698179D01*
X111341060Y-96262373D01*
X111247242Y-96075000D01*
X110185000Y-96075000D01*
X110135000Y-96075000D01*
X109072758Y-96075000D01*
X108978940Y-96262373D01*
X100525000Y-96262373D01*
X100525000Y-95837627D01*
X108978940Y-95837627D01*
X109072758Y-96025000D01*
X110135000Y-96025000D01*
X110135000Y-94962787D01*
X110185000Y-94962787D01*
X110185000Y-96025000D01*
X111247242Y-96025000D01*
X111341060Y-95837627D01*
X111169886Y-95401821D01*
X111071752Y-95300000D01*
X111491184Y-95300000D01*
X111491184Y-96800000D01*
X111522562Y-96966760D01*
X111621117Y-97119919D01*
X111771495Y-97222668D01*
X111950000Y-97258816D01*
X113450000Y-97258816D01*
X113616760Y-97227438D01*
X113769919Y-97128883D01*
X113872668Y-96978505D01*
X113908816Y-96800000D01*
X113908816Y-96473579D01*
X117674874Y-96473579D01*
X117785016Y-96740143D01*
X117988784Y-96944267D01*
X118255156Y-97054874D01*
X118543579Y-97055126D01*
X118810143Y-96944984D01*
X119014267Y-96741216D01*
X119124874Y-96474844D01*
X119124875Y-96473579D01*
X121674874Y-96473579D01*
X121785016Y-96740143D01*
X121988784Y-96944267D01*
X122255156Y-97054874D01*
X122543579Y-97055126D01*
X122810143Y-96944984D01*
X123014267Y-96741216D01*
X123124874Y-96474844D01*
X123125126Y-96186421D01*
X123014984Y-95919857D01*
X122811216Y-95715733D01*
X122544844Y-95605126D01*
X122256421Y-95604874D01*
X121989857Y-95715016D01*
X121785733Y-95918784D01*
X121675126Y-96185156D01*
X121674874Y-96473579D01*
X119124875Y-96473579D01*
X119125126Y-96186421D01*
X119014984Y-95919857D01*
X118811216Y-95715733D01*
X118544844Y-95605126D01*
X118256421Y-95604874D01*
X117989857Y-95715016D01*
X117785733Y-95918784D01*
X117675126Y-96185156D01*
X117674874Y-96473579D01*
X113908816Y-96473579D01*
X113908816Y-95300000D01*
X113877438Y-95133240D01*
X113814223Y-95035000D01*
X115825000Y-95035000D01*
X115825000Y-95385000D01*
X115910688Y-95765780D01*
X116135571Y-96084784D01*
X116465413Y-96293446D01*
X116643922Y-96343468D01*
X116800000Y-96247148D01*
X116800000Y-95035000D01*
X116850000Y-95035000D01*
X116850000Y-96247148D01*
X117006078Y-96343468D01*
X117184587Y-96293446D01*
X117514429Y-96084784D01*
X117739312Y-95765780D01*
X117825000Y-95385000D01*
X117825000Y-95035000D01*
X122975000Y-95035000D01*
X122975000Y-95385000D01*
X123060688Y-95765780D01*
X123285571Y-96084784D01*
X123615413Y-96293446D01*
X123793922Y-96343468D01*
X123950000Y-96247148D01*
X123950000Y-95035000D01*
X124000000Y-95035000D01*
X124000000Y-96247148D01*
X124156078Y-96343468D01*
X124334587Y-96293446D01*
X124664429Y-96084784D01*
X124889312Y-95765780D01*
X124975000Y-95385000D01*
X124975000Y-95035000D01*
X124000000Y-95035000D01*
X123950000Y-95035000D01*
X122975000Y-95035000D01*
X117825000Y-95035000D01*
X116850000Y-95035000D01*
X116800000Y-95035000D01*
X115825000Y-95035000D01*
X113814223Y-95035000D01*
X113778883Y-94980081D01*
X113628505Y-94877332D01*
X113450000Y-94841184D01*
X111950000Y-94841184D01*
X111783240Y-94872562D01*
X111630081Y-94971117D01*
X111527332Y-95121495D01*
X111491184Y-95300000D01*
X111071752Y-95300000D01*
X110844966Y-95064694D01*
X110415766Y-94877571D01*
X110372373Y-94868942D01*
X110185000Y-94962787D01*
X110135000Y-94962787D01*
X109947627Y-94868942D01*
X109904234Y-94877571D01*
X109475034Y-95064694D01*
X109150114Y-95401821D01*
X108978940Y-95837627D01*
X100525000Y-95837627D01*
X100525000Y-89532373D01*
X100618942Y-89532373D01*
X100627571Y-89575766D01*
X100814694Y-90004966D01*
X101151821Y-90329886D01*
X101587627Y-90501060D01*
X101775000Y-90407242D01*
X101775000Y-89345000D01*
X101825000Y-89345000D01*
X101825000Y-90407242D01*
X102012373Y-90501060D01*
X102448179Y-90329886D01*
X102785306Y-90004966D01*
X102972429Y-89575766D01*
X102981058Y-89532373D01*
X102887213Y-89345000D01*
X101825000Y-89345000D01*
X101775000Y-89345000D01*
X100712787Y-89345000D01*
X100618942Y-89532373D01*
X100525000Y-89532373D01*
X100525000Y-89107627D01*
X100618942Y-89107627D01*
X100712787Y-89295000D01*
X101775000Y-89295000D01*
X101775000Y-88232758D01*
X101825000Y-88232758D01*
X101825000Y-89295000D01*
X102887213Y-89295000D01*
X102981058Y-89107627D01*
X102972429Y-89064234D01*
X102785306Y-88635034D01*
X102448179Y-88310114D01*
X102012373Y-88138940D01*
X101825000Y-88232758D01*
X101775000Y-88232758D01*
X101587627Y-88138940D01*
X101151821Y-88310114D01*
X100814694Y-88635034D01*
X100627571Y-89064234D01*
X100618942Y-89107627D01*
X100525000Y-89107627D01*
X100525000Y-86780000D01*
X100576491Y-86780000D01*
X100667836Y-87239220D01*
X100927963Y-87628528D01*
X101317271Y-87888655D01*
X101776491Y-87980000D01*
X101823509Y-87980000D01*
X102282729Y-87888655D01*
X102672037Y-87628528D01*
X102932164Y-87239220D01*
X103023509Y-86780000D01*
X102932164Y-86320780D01*
X102672037Y-85931472D01*
X102282729Y-85671345D01*
X101823509Y-85580000D01*
X101776491Y-85580000D01*
X101317271Y-85671345D01*
X100927963Y-85931472D01*
X100667836Y-86320780D01*
X100576491Y-86780000D01*
X100525000Y-86780000D01*
X100525000Y-83750000D01*
X104400000Y-83750000D01*
X104458358Y-83738182D01*
X104507521Y-83704591D01*
X104539742Y-83654519D01*
X104550000Y-83600000D01*
X104550000Y-83450000D01*
X106225000Y-83450000D01*
X106225000Y-86300000D01*
X106249890Y-86425132D01*
X106249861Y-86458432D01*
X106262690Y-86489480D01*
X106287799Y-86615714D01*
X106358680Y-86721795D01*
X106371397Y-86752572D01*
X106395132Y-86776348D01*
X106450000Y-86858464D01*
X106450000Y-88901472D01*
X102730620Y-92620852D01*
X102932164Y-92319220D01*
X103023509Y-91860000D01*
X102932164Y-91400780D01*
X102672037Y-91011472D01*
X102282729Y-90751345D01*
X101823509Y-90660000D01*
X101776491Y-90660000D01*
X101317271Y-90751345D01*
X100927963Y-91011472D01*
X100667836Y-91400780D01*
X100576491Y-91860000D01*
X100667836Y-92319220D01*
X100927963Y-92708528D01*
X101317271Y-92968655D01*
X101776491Y-93060000D01*
X101823509Y-93060000D01*
X102282729Y-92968655D01*
X102584361Y-92767111D01*
X102160288Y-93191184D01*
X101050000Y-93191184D01*
X100883240Y-93222562D01*
X100730081Y-93321117D01*
X100627332Y-93471495D01*
X100591184Y-93650000D01*
X100591184Y-95150000D01*
X100622562Y-95316760D01*
X100721117Y-95469919D01*
X100871495Y-95572668D01*
X101050000Y-95608816D01*
X102550000Y-95608816D01*
X102716760Y-95577438D01*
X102869919Y-95478883D01*
X102972668Y-95328505D01*
X103008816Y-95150000D01*
X103008816Y-94635000D01*
X115825000Y-94635000D01*
X115825000Y-94985000D01*
X116800000Y-94985000D01*
X116800000Y-93772852D01*
X116850000Y-93772852D01*
X116850000Y-94985000D01*
X117825000Y-94985000D01*
X117825000Y-94635000D01*
X122975000Y-94635000D01*
X122975000Y-94985000D01*
X123950000Y-94985000D01*
X123950000Y-93772852D01*
X124000000Y-93772852D01*
X124000000Y-94985000D01*
X124975000Y-94985000D01*
X124975000Y-94635000D01*
X124889312Y-94254220D01*
X124664429Y-93935216D01*
X124334587Y-93726554D01*
X124156078Y-93676532D01*
X124000000Y-93772852D01*
X123950000Y-93772852D01*
X123793922Y-93676532D01*
X123615413Y-93726554D01*
X123285571Y-93935216D01*
X123060688Y-94254220D01*
X122975000Y-94635000D01*
X117825000Y-94635000D01*
X117739312Y-94254220D01*
X117514429Y-93935216D01*
X117184587Y-93726554D01*
X117006078Y-93676532D01*
X116850000Y-93772852D01*
X116800000Y-93772852D01*
X116643922Y-93676532D01*
X116465413Y-93726554D01*
X116135571Y-93935216D01*
X115910688Y-94254220D01*
X115825000Y-94635000D01*
X103008816Y-94635000D01*
X103008816Y-94039712D01*
X104539684Y-92508844D01*
X117826511Y-92508844D01*
X117871105Y-92689312D01*
X118236362Y-92846957D01*
X118634143Y-92852824D01*
X119003890Y-92706020D01*
X119028895Y-92689312D01*
X119073489Y-92508844D01*
X118450000Y-91885355D01*
X117826511Y-92508844D01*
X104539684Y-92508844D01*
X105014385Y-92034143D01*
X117447176Y-92034143D01*
X117593980Y-92403890D01*
X117610688Y-92428895D01*
X117791156Y-92473489D01*
X118414645Y-91850000D01*
X118485355Y-91850000D01*
X119108844Y-92473489D01*
X119149414Y-92463464D01*
X119382806Y-92697264D01*
X119750215Y-92849826D01*
X120148040Y-92850173D01*
X120515714Y-92698253D01*
X120700075Y-92514214D01*
X120882806Y-92697264D01*
X121250215Y-92849826D01*
X121648040Y-92850173D01*
X122015714Y-92698253D01*
X122200075Y-92514214D01*
X122382806Y-92697264D01*
X122750215Y-92849826D01*
X123148040Y-92850173D01*
X123515714Y-92698253D01*
X123797264Y-92417194D01*
X123913403Y-92137500D01*
X126900000Y-92137500D01*
X126900000Y-92839510D01*
X126968508Y-93004904D01*
X127095095Y-93131491D01*
X127260489Y-93200000D01*
X127962500Y-93200000D01*
X128075000Y-93087500D01*
X128075000Y-92025000D01*
X128125000Y-92025000D01*
X128125000Y-93087500D01*
X128237500Y-93200000D01*
X128939511Y-93200000D01*
X129104905Y-93131491D01*
X129231492Y-93004904D01*
X129300000Y-92839510D01*
X129300000Y-92137500D01*
X129187500Y-92025000D01*
X128125000Y-92025000D01*
X128075000Y-92025000D01*
X127012500Y-92025000D01*
X126900000Y-92137500D01*
X123913403Y-92137500D01*
X123949826Y-92049785D01*
X123950173Y-91651960D01*
X123798253Y-91284286D01*
X123674673Y-91160490D01*
X126900000Y-91160490D01*
X126900000Y-91862500D01*
X127012500Y-91975000D01*
X128075000Y-91975000D01*
X128075000Y-90912500D01*
X128125000Y-90912500D01*
X128125000Y-91975000D01*
X129187500Y-91975000D01*
X129300000Y-91862500D01*
X129300000Y-91160490D01*
X129231492Y-90995096D01*
X129104905Y-90868509D01*
X128939511Y-90800000D01*
X128237500Y-90800000D01*
X128125000Y-90912500D01*
X128075000Y-90912500D01*
X127962500Y-90800000D01*
X127260489Y-90800000D01*
X127095095Y-90868509D01*
X126968508Y-90995096D01*
X126900000Y-91160490D01*
X123674673Y-91160490D01*
X123517194Y-91002736D01*
X123149785Y-90850174D01*
X122751960Y-90849827D01*
X122384286Y-91001747D01*
X122199925Y-91185786D01*
X122017194Y-91002736D01*
X121649785Y-90850174D01*
X121251960Y-90849827D01*
X120884286Y-91001747D01*
X120699925Y-91185786D01*
X120517194Y-91002736D01*
X120149785Y-90850174D01*
X119751960Y-90849827D01*
X119384286Y-91001747D01*
X119149152Y-91236471D01*
X119108844Y-91226511D01*
X118485355Y-91850000D01*
X118414645Y-91850000D01*
X117791156Y-91226511D01*
X117610688Y-91271105D01*
X117453043Y-91636362D01*
X117447176Y-92034143D01*
X105014385Y-92034143D01*
X105857372Y-91191156D01*
X117826511Y-91191156D01*
X118450000Y-91814645D01*
X119073489Y-91191156D01*
X119028895Y-91010688D01*
X118663638Y-90853043D01*
X118265857Y-90847176D01*
X117896110Y-90993980D01*
X117871105Y-91010688D01*
X117826511Y-91191156D01*
X105857372Y-91191156D01*
X107474264Y-89574264D01*
X107604328Y-89379610D01*
X107650000Y-89150000D01*
X107650000Y-88508432D01*
X115949861Y-88508432D01*
X116071397Y-88802572D01*
X116296245Y-89027812D01*
X116590172Y-89149861D01*
X116908432Y-89150139D01*
X117150787Y-89050000D01*
X123350000Y-89050000D01*
X123617879Y-88996716D01*
X123844975Y-88844975D01*
X124039950Y-88650000D01*
X125749680Y-88650000D01*
X125990172Y-88749861D01*
X126308432Y-88750139D01*
X126602572Y-88628603D01*
X126827812Y-88403755D01*
X126949861Y-88109828D01*
X126950139Y-87791568D01*
X126828603Y-87497428D01*
X126603755Y-87272188D01*
X126309828Y-87150139D01*
X125991568Y-87149861D01*
X125749213Y-87250000D01*
X123750000Y-87250000D01*
X123482122Y-87303284D01*
X123255025Y-87455025D01*
X123255023Y-87455028D01*
X123060051Y-87650000D01*
X117150320Y-87650000D01*
X116909828Y-87550139D01*
X116591568Y-87549861D01*
X116297428Y-87671397D01*
X116072188Y-87896245D01*
X115950139Y-88190172D01*
X115949861Y-88508432D01*
X107650000Y-88508432D01*
X107650000Y-86858464D01*
X107704245Y-86777281D01*
X107727812Y-86753755D01*
X107740694Y-86722731D01*
X107812201Y-86615714D01*
X107837091Y-86490581D01*
X107849861Y-86459828D01*
X107849890Y-86426236D01*
X107875000Y-86300000D01*
X107875000Y-81800000D01*
X107812201Y-81484286D01*
X107633363Y-81216637D01*
X105675000Y-79258274D01*
X105675000Y-78739752D01*
X105940172Y-78849861D01*
X106258432Y-78850139D01*
X106552572Y-78728603D01*
X106777812Y-78503755D01*
X106899861Y-78209828D01*
X106899958Y-78098570D01*
X107124264Y-77874264D01*
X107254328Y-77679610D01*
X107300000Y-77450000D01*
X107300000Y-77048528D01*
X107649870Y-76698658D01*
X107649861Y-76708432D01*
X107771397Y-77002572D01*
X107996245Y-77227812D01*
X108290172Y-77349861D01*
X108401430Y-77349958D01*
X108925736Y-77874264D01*
X109120390Y-78004328D01*
X109350000Y-78050000D01*
X113768568Y-78050000D01*
X113846245Y-78127812D01*
X114140172Y-78249861D01*
X114458432Y-78250139D01*
X114752572Y-78128603D01*
X114977812Y-77903755D01*
X115099861Y-77609828D01*
X115100139Y-77291568D01*
X114978603Y-76997428D01*
X114753755Y-76772188D01*
X114459828Y-76650139D01*
X114141568Y-76649861D01*
X113847428Y-76771397D01*
X113768688Y-76850000D01*
X109598528Y-76850000D01*
X109250043Y-76501515D01*
X109250139Y-76391568D01*
X109150325Y-76150000D01*
X112250000Y-76150000D01*
X112479610Y-76104328D01*
X112674264Y-75974264D01*
X112948485Y-75700043D01*
X113058432Y-75700139D01*
X113352572Y-75578603D01*
X113577812Y-75353755D01*
X113699861Y-75059828D01*
X113700030Y-74866756D01*
X115116637Y-76283363D01*
X115384286Y-76462201D01*
X115700000Y-76525000D01*
X119000000Y-76525000D01*
X119125132Y-76500110D01*
X119158432Y-76500139D01*
X119189480Y-76487310D01*
X119315714Y-76462201D01*
X119421795Y-76391320D01*
X119452572Y-76378603D01*
X119476348Y-76354868D01*
X119583363Y-76283363D01*
X119654245Y-76177281D01*
X119677812Y-76153755D01*
X119690694Y-76122731D01*
X119762201Y-76015714D01*
X119787091Y-75890581D01*
X119799861Y-75859828D01*
X119799890Y-75826236D01*
X119825000Y-75700000D01*
X119800110Y-75574868D01*
X119800139Y-75541568D01*
X119787310Y-75510520D01*
X119762201Y-75384286D01*
X119691320Y-75278205D01*
X119678603Y-75247428D01*
X119654868Y-75223652D01*
X119583363Y-75116637D01*
X119477281Y-75045755D01*
X119453755Y-75022188D01*
X119422731Y-75009306D01*
X119315714Y-74937799D01*
X119190581Y-74912909D01*
X119159828Y-74900139D01*
X119126236Y-74900110D01*
X119000000Y-74875000D01*
X116041726Y-74875000D01*
X114183363Y-73016637D01*
X113915714Y-72837799D01*
X113600000Y-72775000D01*
X111875000Y-72775000D01*
X111875000Y-72350000D01*
X111850110Y-72224868D01*
X111850139Y-72191568D01*
X111837310Y-72160520D01*
X111812201Y-72034286D01*
X111741320Y-71928205D01*
X111728603Y-71897428D01*
X111704868Y-71873652D01*
X111633363Y-71766637D01*
X111527281Y-71695755D01*
X111503755Y-71672188D01*
X111472731Y-71659306D01*
X111365714Y-71587799D01*
X111240581Y-71562909D01*
X111209828Y-71550139D01*
X111176236Y-71550110D01*
X111050000Y-71525000D01*
X110924868Y-71549890D01*
X110891568Y-71549861D01*
X110860520Y-71562690D01*
X110734286Y-71587799D01*
X110628205Y-71658680D01*
X110597428Y-71671397D01*
X110573652Y-71695132D01*
X110466637Y-71766637D01*
X110395755Y-71872719D01*
X110372188Y-71896245D01*
X110359306Y-71927269D01*
X110287799Y-72034286D01*
X110262909Y-72159419D01*
X110250139Y-72190172D01*
X110250110Y-72223764D01*
X110225000Y-72350000D01*
X110225000Y-72775000D01*
X105273528Y-72775000D01*
X103486903Y-70988375D01*
X103752572Y-70878603D01*
X103977812Y-70653755D01*
X104099861Y-70359828D01*
X104100139Y-70041568D01*
X103978603Y-69747428D01*
X103753755Y-69522188D01*
X103459828Y-69400139D01*
X103348570Y-69400042D01*
X101850000Y-67901472D01*
X101850000Y-59798528D01*
X103098528Y-58550000D01*
X105091184Y-58550000D01*
X105122562Y-58716760D01*
X105221117Y-58869919D01*
X105371495Y-58972668D01*
X105550000Y-59008816D01*
X106450000Y-59008816D01*
X106616760Y-58977438D01*
X106769919Y-58878883D01*
X106872668Y-58728505D01*
X106908816Y-58550000D01*
X106908816Y-57350000D01*
X106877438Y-57183240D01*
X106778883Y-57030081D01*
X106628505Y-56927332D01*
X106450000Y-56891184D01*
X105550000Y-56891184D01*
X105383240Y-56922562D01*
X105230081Y-57021117D01*
X105127332Y-57171495D01*
X105091184Y-57350000D01*
X102850000Y-57350000D01*
X102620390Y-57395672D01*
X102425736Y-57525736D01*
X101150000Y-58801472D01*
X101150000Y-56848528D01*
X102111028Y-55887500D01*
X105100000Y-55887500D01*
X105100000Y-56439511D01*
X105168509Y-56604905D01*
X105295096Y-56731492D01*
X105460490Y-56800000D01*
X105862500Y-56800000D01*
X105975000Y-56687500D01*
X105975000Y-55775000D01*
X106025000Y-55775000D01*
X106025000Y-56687500D01*
X106137500Y-56800000D01*
X106539510Y-56800000D01*
X106704904Y-56731492D01*
X106831491Y-56604905D01*
X106900000Y-56439511D01*
X106900000Y-55887500D01*
X106787500Y-55775000D01*
X106025000Y-55775000D01*
X105975000Y-55775000D01*
X105212500Y-55775000D01*
X105100000Y-55887500D01*
X102111028Y-55887500D01*
X102148485Y-55850043D01*
X102258432Y-55850139D01*
X102552572Y-55728603D01*
X102777812Y-55503755D01*
X102899861Y-55209828D01*
X102899991Y-55060489D01*
X105100000Y-55060489D01*
X105100000Y-55612500D01*
X105212500Y-55725000D01*
X105975000Y-55725000D01*
X105975000Y-54812500D01*
X106025000Y-54812500D01*
X106025000Y-55725000D01*
X106787500Y-55725000D01*
X106900000Y-55612500D01*
X106900000Y-55060489D01*
X106831491Y-54895095D01*
X106704904Y-54768508D01*
X106539510Y-54700000D01*
X106137500Y-54700000D01*
X106025000Y-54812500D01*
X105975000Y-54812500D01*
X105862500Y-54700000D01*
X105460490Y-54700000D01*
X105295096Y-54768508D01*
X105168509Y-54895095D01*
X105100000Y-55060489D01*
X102899991Y-55060489D01*
X102900139Y-54891568D01*
X102778603Y-54597428D01*
X102553755Y-54372188D01*
X102259828Y-54250139D01*
X101941568Y-54249861D01*
X101647428Y-54371397D01*
X101422188Y-54596245D01*
X101300139Y-54890172D01*
X101300042Y-55001430D01*
X100525000Y-55776472D01*
X100525000Y-52850459D01*
X100722845Y-52850632D01*
X102064858Y-52296124D01*
X103092515Y-51270259D01*
X103649365Y-49929215D01*
X103649543Y-49725000D01*
X111576472Y-49725000D01*
X111295736Y-50005736D01*
M02*
