G04 #@! TF.FileFunction,Legend,Bot*
%FSLAX46Y46*%
G04 Gerber Fmt 4.6, Leading zero omitted, Abs format (unit mm)*
G04 Created by KiCad (PCBNEW 4.0.2-stable) date 24.08.2018 1:20:05*
%MOMM*%
G01*
G04 APERTURE LIST*
%ADD10C,0.100000*%
%ADD11C,0.300000*%
%ADD12C,0.150000*%
%ADD13C,0.400000*%
%ADD14C,0.200000*%
%ADD15C,0.010000*%
%ADD16C,0.002540*%
G04 APERTURE END LIST*
D10*
D11*
X128435713Y-52878571D02*
X128935713Y-52164286D01*
X129292856Y-52878571D02*
X129292856Y-51378571D01*
X128721428Y-51378571D01*
X128578570Y-51450000D01*
X128507142Y-51521429D01*
X128435713Y-51664286D01*
X128435713Y-51878571D01*
X128507142Y-52021429D01*
X128578570Y-52092857D01*
X128721428Y-52164286D01*
X129292856Y-52164286D01*
X127792856Y-52878571D02*
X127792856Y-51378571D01*
X127435713Y-51378571D01*
X127221428Y-51450000D01*
X127078570Y-51592857D01*
X127007142Y-51735714D01*
X126935713Y-52021429D01*
X126935713Y-52235714D01*
X127007142Y-52521429D01*
X127078570Y-52664286D01*
X127221428Y-52807143D01*
X127435713Y-52878571D01*
X127792856Y-52878571D01*
X125435713Y-52735714D02*
X125507142Y-52807143D01*
X125721428Y-52878571D01*
X125864285Y-52878571D01*
X126078570Y-52807143D01*
X126221428Y-52664286D01*
X126292856Y-52521429D01*
X126364285Y-52235714D01*
X126364285Y-52021429D01*
X126292856Y-51735714D01*
X126221428Y-51592857D01*
X126078570Y-51450000D01*
X125864285Y-51378571D01*
X125721428Y-51378571D01*
X125507142Y-51450000D01*
X125435713Y-51521429D01*
X124864285Y-51521429D02*
X124792856Y-51450000D01*
X124649999Y-51378571D01*
X124292856Y-51378571D01*
X124149999Y-51450000D01*
X124078570Y-51521429D01*
X124007142Y-51664286D01*
X124007142Y-51807143D01*
X124078570Y-52021429D01*
X124935713Y-52878571D01*
X124007142Y-52878571D01*
X123364285Y-52307143D02*
X122221428Y-52307143D01*
X121221428Y-51378571D02*
X121078571Y-51378571D01*
X120935714Y-51450000D01*
X120864285Y-51521429D01*
X120792856Y-51664286D01*
X120721428Y-51950000D01*
X120721428Y-52307143D01*
X120792856Y-52592857D01*
X120864285Y-52735714D01*
X120935714Y-52807143D01*
X121078571Y-52878571D01*
X121221428Y-52878571D01*
X121364285Y-52807143D01*
X121435714Y-52735714D01*
X121507142Y-52592857D01*
X121578571Y-52307143D01*
X121578571Y-51950000D01*
X121507142Y-51664286D01*
X121435714Y-51521429D01*
X121364285Y-51450000D01*
X121221428Y-51378571D01*
X119792857Y-51378571D02*
X119650000Y-51378571D01*
X119507143Y-51450000D01*
X119435714Y-51521429D01*
X119364285Y-51664286D01*
X119292857Y-51950000D01*
X119292857Y-52307143D01*
X119364285Y-52592857D01*
X119435714Y-52735714D01*
X119507143Y-52807143D01*
X119650000Y-52878571D01*
X119792857Y-52878571D01*
X119935714Y-52807143D01*
X120007143Y-52735714D01*
X120078571Y-52592857D01*
X120150000Y-52307143D01*
X120150000Y-51950000D01*
X120078571Y-51664286D01*
X120007143Y-51521429D01*
X119935714Y-51450000D01*
X119792857Y-51378571D01*
X118007143Y-51878571D02*
X118007143Y-52878571D01*
X118364286Y-51307143D02*
X118721429Y-52378571D01*
X117792857Y-52378571D01*
X116435715Y-52878571D02*
X117292858Y-52878571D01*
X116864286Y-52878571D02*
X116864286Y-51378571D01*
X117007143Y-51592857D01*
X117150001Y-51735714D01*
X117292858Y-51807143D01*
X112550000Y-80400000D02*
G75*
G03X112550000Y-80400000I-150000J0D01*
G01*
X117350000Y-70600000D02*
G75*
G03X117350000Y-70600000I-150000J0D01*
G01*
X100850000Y-57400000D02*
G75*
G03X100850000Y-57400000I-150000J0D01*
G01*
D12*
X103950000Y-55650000D02*
X104650000Y-55650000D01*
X104650000Y-54450000D02*
X103950000Y-54450000D01*
X121700000Y-65650000D02*
X121700000Y-64950000D01*
X120500000Y-64950000D02*
X120500000Y-65650000D01*
X114300000Y-92350000D02*
X114300000Y-91650000D01*
X113100000Y-91650000D02*
X113100000Y-92350000D01*
X106450000Y-92350000D02*
X105750000Y-92350000D01*
X105750000Y-93550000D02*
X106450000Y-93550000D01*
X106450000Y-90450000D02*
X105750000Y-90450000D01*
X105750000Y-91650000D02*
X106450000Y-91650000D01*
X112700000Y-71750000D02*
X112700000Y-71050000D01*
X111500000Y-71050000D02*
X111500000Y-71750000D01*
X123200000Y-65650000D02*
X123200000Y-64950000D01*
X122000000Y-64950000D02*
X122000000Y-65650000D01*
X131750000Y-80000000D02*
X132450000Y-80000000D01*
X132450000Y-78800000D02*
X131750000Y-78800000D01*
X106449040Y-86601120D02*
X111650960Y-86601120D01*
X111650960Y-88998880D02*
X106449040Y-88998880D01*
X110600000Y-71750000D02*
X110600000Y-71050000D01*
X109400000Y-71050000D02*
X109400000Y-71750000D01*
X118400000Y-87750000D02*
X118400000Y-87050000D01*
X117200000Y-87050000D02*
X117200000Y-87750000D01*
X148850000Y-57250000D02*
X148850000Y-56550000D01*
X147650000Y-56550000D02*
X147650000Y-57250000D01*
X111300000Y-93600000D02*
X109500000Y-93600000D01*
X111300000Y-90400000D02*
X109500000Y-90400000D01*
X101185000Y-58225000D02*
X101540000Y-58225000D01*
X101185000Y-65975000D02*
X101540000Y-65975000D01*
X111835000Y-65975000D02*
X111480000Y-65975000D01*
X111835000Y-58225000D02*
X111480000Y-58225000D01*
X101185000Y-58225000D02*
X101185000Y-65975000D01*
X111835000Y-58225000D02*
X111835000Y-65975000D01*
X101540000Y-58225000D02*
X101540000Y-56700000D01*
X117875000Y-71275000D02*
X118175000Y-71275000D01*
X117875000Y-78525000D02*
X118175000Y-78525000D01*
X125125000Y-78525000D02*
X124825000Y-78525000D01*
X125125000Y-71275000D02*
X124825000Y-71275000D01*
X117875000Y-71275000D02*
X117875000Y-71575000D01*
X125125000Y-71275000D02*
X125125000Y-71575000D01*
X125125000Y-78525000D02*
X125125000Y-78225000D01*
X117875000Y-78525000D02*
X117875000Y-78225000D01*
X118175000Y-71275000D02*
X118175000Y-70050000D01*
X111625000Y-79725000D02*
X111480000Y-79725000D01*
X111625000Y-75575000D02*
X111480000Y-75575000D01*
X106475000Y-75575000D02*
X106620000Y-75575000D01*
X106475000Y-79725000D02*
X106620000Y-79725000D01*
X111625000Y-79725000D02*
X111625000Y-75575000D01*
X106475000Y-79725000D02*
X106475000Y-75575000D01*
X111480000Y-79725000D02*
X111480000Y-81125000D01*
D13*
X134450000Y-91350000D02*
G75*
G03X134450000Y-91350000I-100000J0D01*
G01*
D12*
X141350000Y-90850000D02*
X141350000Y-86350000D01*
X141350000Y-86350000D02*
X134850000Y-86350000D01*
X134850000Y-86350000D02*
X134850000Y-90850000D01*
X134850000Y-90850000D02*
X141350000Y-90850000D01*
X137400000Y-85525000D02*
X138400000Y-85525000D01*
X138400000Y-84175000D02*
X137400000Y-84175000D01*
X142500000Y-91675000D02*
X141500000Y-91675000D01*
X141500000Y-93025000D02*
X142500000Y-93025000D01*
X118625000Y-64650000D02*
X118625000Y-65650000D01*
X119975000Y-65650000D02*
X119975000Y-64650000D01*
X106175000Y-70750000D02*
X106175000Y-71750000D01*
X107525000Y-71750000D02*
X107525000Y-70750000D01*
X104575000Y-70750000D02*
X104575000Y-71750000D01*
X105925000Y-71750000D02*
X105925000Y-70750000D01*
X104325000Y-76450000D02*
X104325000Y-77450000D01*
X105675000Y-77450000D02*
X105675000Y-76450000D01*
X105675000Y-81750000D02*
X105675000Y-80750000D01*
X104325000Y-80750000D02*
X104325000Y-81750000D01*
X118125000Y-61550000D02*
X118125000Y-60550000D01*
X116775000Y-60550000D02*
X116775000Y-61550000D01*
X125325000Y-61550000D02*
X125325000Y-60550000D01*
X123975000Y-60550000D02*
X123975000Y-61550000D01*
X132525000Y-61550000D02*
X132525000Y-60550000D01*
X131175000Y-60550000D02*
X131175000Y-61550000D01*
X139725000Y-61550000D02*
X139725000Y-60550000D01*
X138375000Y-60550000D02*
X138375000Y-61550000D01*
X109200000Y-83525000D02*
X110200000Y-83525000D01*
X110200000Y-82175000D02*
X109200000Y-82175000D01*
X109125000Y-71750000D02*
X109125000Y-70750000D01*
X107775000Y-70750000D02*
X107775000Y-71750000D01*
X126075000Y-64800000D02*
X126075000Y-65800000D01*
X127425000Y-65800000D02*
X127425000Y-64800000D01*
X132600000Y-67275000D02*
X131600000Y-67275000D01*
X131600000Y-68625000D02*
X132600000Y-68625000D01*
X132600000Y-70475000D02*
X131600000Y-70475000D01*
X131600000Y-71825000D02*
X132600000Y-71825000D01*
X132600000Y-73675000D02*
X131600000Y-73675000D01*
X131600000Y-75025000D02*
X132600000Y-75025000D01*
X132600000Y-81475000D02*
X131600000Y-81475000D01*
X131600000Y-82825000D02*
X132600000Y-82825000D01*
X132600000Y-68875000D02*
X131600000Y-68875000D01*
X131600000Y-70225000D02*
X132600000Y-70225000D01*
X132600000Y-72075000D02*
X131600000Y-72075000D01*
X131600000Y-73425000D02*
X132600000Y-73425000D01*
X132600000Y-75275000D02*
X131600000Y-75275000D01*
X131600000Y-76625000D02*
X132600000Y-76625000D01*
X132600000Y-83075000D02*
X131600000Y-83075000D01*
X131600000Y-84425000D02*
X132600000Y-84425000D01*
X122175000Y-83600000D02*
X122175000Y-82600000D01*
X120825000Y-82600000D02*
X120825000Y-83600000D01*
X120575000Y-83600000D02*
X120575000Y-82600000D01*
X119225000Y-82600000D02*
X119225000Y-83600000D01*
X127675000Y-64800000D02*
X127675000Y-65800000D01*
X129025000Y-65800000D02*
X129025000Y-64800000D01*
D14*
X122600499Y-90150000D02*
G75*
G03X122600499Y-90150000I-100499J0D01*
G01*
D12*
X119100000Y-89250000D02*
X119100000Y-87450000D01*
X122300000Y-89250000D02*
X122300000Y-87450000D01*
X124850000Y-89917500D02*
X124850000Y-90298500D01*
X124850000Y-88901500D02*
X124850000Y-89282500D01*
X124850000Y-89282500D02*
X124469000Y-89917500D01*
X124469000Y-89917500D02*
X125231000Y-89917500D01*
X125231000Y-89917500D02*
X124850000Y-89282500D01*
X124342000Y-89282500D02*
X125358000Y-89282500D01*
X125750000Y-87600000D02*
X125750000Y-91140000D01*
X123950000Y-87600000D02*
X123950000Y-91140000D01*
X113300840Y-60499760D02*
X113349100Y-60499760D01*
X116099820Y-61200800D02*
X116099820Y-60499760D01*
X116099820Y-60499760D02*
X115850900Y-60499760D01*
X113300840Y-60499760D02*
X113100180Y-60499760D01*
X113100180Y-60499760D02*
X113100180Y-61200800D01*
X120500840Y-60499760D02*
X120549100Y-60499760D01*
X123299820Y-61200800D02*
X123299820Y-60499760D01*
X123299820Y-60499760D02*
X123050900Y-60499760D01*
X120500840Y-60499760D02*
X120300180Y-60499760D01*
X120300180Y-60499760D02*
X120300180Y-61200800D01*
X127700840Y-60499760D02*
X127749100Y-60499760D01*
X130499820Y-61200800D02*
X130499820Y-60499760D01*
X130499820Y-60499760D02*
X130250900Y-60499760D01*
X127700840Y-60499760D02*
X127500180Y-60499760D01*
X127500180Y-60499760D02*
X127500180Y-61200800D01*
X134900840Y-60499760D02*
X134949100Y-60499760D01*
X137699820Y-61200800D02*
X137699820Y-60499760D01*
X137699820Y-60499760D02*
X137450900Y-60499760D01*
X134900840Y-60499760D02*
X134700180Y-60499760D01*
X134700180Y-60499760D02*
X134700180Y-61200800D01*
X100530000Y-78730000D02*
X100530000Y-83810000D01*
X100530000Y-78730000D02*
X103070000Y-78730000D01*
X103070000Y-78730000D02*
X103070000Y-83810000D01*
X103070000Y-83810000D02*
X100530000Y-83810000D01*
X100530000Y-95670000D02*
X100530000Y-85510000D01*
X103070000Y-95670000D02*
X103070000Y-85510000D01*
X100530000Y-85510000D02*
X103070000Y-85510000D01*
X103070000Y-95670000D02*
X100530000Y-95670000D01*
X116830000Y-97400000D02*
X116830000Y-96200000D01*
X123980000Y-97400000D02*
X123980000Y-96200000D01*
X116820000Y-100630000D02*
X116820000Y-99700000D01*
X123980000Y-100630000D02*
X123980000Y-99700000D01*
X123975000Y-100630000D02*
X116825000Y-100630000D01*
D15*
G36*
X144721371Y-54769066D02*
X144681889Y-54769467D01*
X144566200Y-54772259D01*
X144469311Y-54780550D01*
X144387919Y-54795232D01*
X144318723Y-54817193D01*
X144258420Y-54847322D01*
X144203708Y-54886510D01*
X144184167Y-54903532D01*
X144151750Y-54943363D01*
X144122520Y-54997413D01*
X144099991Y-55057323D01*
X144087679Y-55114739D01*
X144086400Y-55135956D01*
X144094417Y-55194769D01*
X144115899Y-55259013D01*
X144146999Y-55319821D01*
X144183866Y-55368330D01*
X144189854Y-55374182D01*
X144240579Y-55415321D01*
X144296125Y-55447435D01*
X144359696Y-55471365D01*
X144434494Y-55487953D01*
X144523722Y-55498041D01*
X144630582Y-55502469D01*
X144679528Y-55502845D01*
X144741762Y-55502545D01*
X144785528Y-55501292D01*
X144814931Y-55498554D01*
X144834079Y-55493801D01*
X144847077Y-55486501D01*
X144854045Y-55480267D01*
X144860626Y-55472694D01*
X144865788Y-55462924D01*
X144869703Y-55448340D01*
X144872543Y-55426326D01*
X144874480Y-55394264D01*
X144875684Y-55349536D01*
X144876328Y-55289526D01*
X144876583Y-55211617D01*
X144876622Y-55135956D01*
X144876870Y-55035041D01*
X144876817Y-54954427D01*
X144875857Y-54915822D01*
X144729867Y-54915822D01*
X144729867Y-55356089D01*
X144636734Y-55356004D01*
X144580693Y-55354396D01*
X144521999Y-55350256D01*
X144473028Y-55344464D01*
X144471538Y-55344226D01*
X144392392Y-55325090D01*
X144331002Y-55295287D01*
X144284305Y-55252878D01*
X144254635Y-55206961D01*
X144236353Y-55156026D01*
X144237771Y-55108200D01*
X144258988Y-55056933D01*
X144300489Y-55003899D01*
X144357998Y-54964600D01*
X144432750Y-54938331D01*
X144482708Y-54929035D01*
X144539416Y-54922507D01*
X144599519Y-54917782D01*
X144650639Y-54915817D01*
X144653667Y-54915808D01*
X144729867Y-54915822D01*
X144875857Y-54915822D01*
X144875260Y-54891851D01*
X144870998Y-54845055D01*
X144862830Y-54811778D01*
X144849556Y-54789759D01*
X144829974Y-54776739D01*
X144802883Y-54770457D01*
X144767082Y-54768653D01*
X144721371Y-54769066D01*
X144721371Y-54769066D01*
G37*
X144721371Y-54769066D02*
X144681889Y-54769467D01*
X144566200Y-54772259D01*
X144469311Y-54780550D01*
X144387919Y-54795232D01*
X144318723Y-54817193D01*
X144258420Y-54847322D01*
X144203708Y-54886510D01*
X144184167Y-54903532D01*
X144151750Y-54943363D01*
X144122520Y-54997413D01*
X144099991Y-55057323D01*
X144087679Y-55114739D01*
X144086400Y-55135956D01*
X144094417Y-55194769D01*
X144115899Y-55259013D01*
X144146999Y-55319821D01*
X144183866Y-55368330D01*
X144189854Y-55374182D01*
X144240579Y-55415321D01*
X144296125Y-55447435D01*
X144359696Y-55471365D01*
X144434494Y-55487953D01*
X144523722Y-55498041D01*
X144630582Y-55502469D01*
X144679528Y-55502845D01*
X144741762Y-55502545D01*
X144785528Y-55501292D01*
X144814931Y-55498554D01*
X144834079Y-55493801D01*
X144847077Y-55486501D01*
X144854045Y-55480267D01*
X144860626Y-55472694D01*
X144865788Y-55462924D01*
X144869703Y-55448340D01*
X144872543Y-55426326D01*
X144874480Y-55394264D01*
X144875684Y-55349536D01*
X144876328Y-55289526D01*
X144876583Y-55211617D01*
X144876622Y-55135956D01*
X144876870Y-55035041D01*
X144876817Y-54954427D01*
X144875857Y-54915822D01*
X144729867Y-54915822D01*
X144729867Y-55356089D01*
X144636734Y-55356004D01*
X144580693Y-55354396D01*
X144521999Y-55350256D01*
X144473028Y-55344464D01*
X144471538Y-55344226D01*
X144392392Y-55325090D01*
X144331002Y-55295287D01*
X144284305Y-55252878D01*
X144254635Y-55206961D01*
X144236353Y-55156026D01*
X144237771Y-55108200D01*
X144258988Y-55056933D01*
X144300489Y-55003899D01*
X144357998Y-54964600D01*
X144432750Y-54938331D01*
X144482708Y-54929035D01*
X144539416Y-54922507D01*
X144599519Y-54917782D01*
X144650639Y-54915817D01*
X144653667Y-54915808D01*
X144729867Y-54915822D01*
X144875857Y-54915822D01*
X144875260Y-54891851D01*
X144870998Y-54845055D01*
X144862830Y-54811778D01*
X144849556Y-54789759D01*
X144829974Y-54776739D01*
X144802883Y-54770457D01*
X144767082Y-54768653D01*
X144721371Y-54769066D01*
G36*
X143312794Y-54769146D02*
X143243386Y-54769518D01*
X143190997Y-54770385D01*
X143152847Y-54771946D01*
X143126159Y-54774403D01*
X143108153Y-54777957D01*
X143096049Y-54782810D01*
X143087069Y-54789161D01*
X143083818Y-54792084D01*
X143064043Y-54823142D01*
X143060482Y-54858828D01*
X143073491Y-54890510D01*
X143079506Y-54896913D01*
X143089235Y-54903121D01*
X143104901Y-54907910D01*
X143129408Y-54911514D01*
X143165661Y-54914164D01*
X143216565Y-54916095D01*
X143285026Y-54917539D01*
X143347617Y-54918418D01*
X143595334Y-54921467D01*
X143598719Y-54986378D01*
X143602105Y-55051289D01*
X143433958Y-55051289D01*
X143360959Y-55051919D01*
X143307517Y-55054553D01*
X143270628Y-55060309D01*
X143247288Y-55070304D01*
X143234494Y-55085656D01*
X143229242Y-55107482D01*
X143228445Y-55127738D01*
X143230923Y-55152592D01*
X143240277Y-55170906D01*
X143259383Y-55183637D01*
X143291118Y-55191741D01*
X143338359Y-55196176D01*
X143403983Y-55197899D01*
X143439801Y-55198045D01*
X143600978Y-55198045D01*
X143600978Y-55356089D01*
X143352622Y-55356089D01*
X143271213Y-55356202D01*
X143209342Y-55356712D01*
X143163968Y-55357870D01*
X143132054Y-55359930D01*
X143110559Y-55363146D01*
X143096443Y-55367772D01*
X143086668Y-55374059D01*
X143081689Y-55378667D01*
X143064610Y-55405560D01*
X143059111Y-55429467D01*
X143066963Y-55458667D01*
X143081689Y-55480267D01*
X143089546Y-55487066D01*
X143099688Y-55492346D01*
X143114844Y-55496298D01*
X143137741Y-55499113D01*
X143171109Y-55500982D01*
X143217675Y-55502098D01*
X143280167Y-55502651D01*
X143361314Y-55502833D01*
X143403422Y-55502845D01*
X143493598Y-55502765D01*
X143563924Y-55502398D01*
X143617129Y-55501552D01*
X143655940Y-55500036D01*
X143683087Y-55497659D01*
X143701298Y-55494229D01*
X143713300Y-55489554D01*
X143721822Y-55483444D01*
X143725156Y-55480267D01*
X143731755Y-55472670D01*
X143736927Y-55462870D01*
X143740846Y-55448239D01*
X143743684Y-55426152D01*
X143745615Y-55393982D01*
X143746812Y-55349103D01*
X143747448Y-55288889D01*
X143747697Y-55210713D01*
X143747734Y-55137923D01*
X143747700Y-55044707D01*
X143747465Y-54971431D01*
X143746830Y-54915458D01*
X143745594Y-54874151D01*
X143743556Y-54844872D01*
X143740517Y-54824984D01*
X143736277Y-54811850D01*
X143730635Y-54802832D01*
X143723391Y-54795293D01*
X143721606Y-54793612D01*
X143712945Y-54786172D01*
X143702882Y-54780409D01*
X143688625Y-54776112D01*
X143667383Y-54773064D01*
X143636364Y-54771051D01*
X143592777Y-54769860D01*
X143533831Y-54769275D01*
X143456734Y-54769083D01*
X143402001Y-54769067D01*
X143312794Y-54769146D01*
X143312794Y-54769146D01*
G37*
X143312794Y-54769146D02*
X143243386Y-54769518D01*
X143190997Y-54770385D01*
X143152847Y-54771946D01*
X143126159Y-54774403D01*
X143108153Y-54777957D01*
X143096049Y-54782810D01*
X143087069Y-54789161D01*
X143083818Y-54792084D01*
X143064043Y-54823142D01*
X143060482Y-54858828D01*
X143073491Y-54890510D01*
X143079506Y-54896913D01*
X143089235Y-54903121D01*
X143104901Y-54907910D01*
X143129408Y-54911514D01*
X143165661Y-54914164D01*
X143216565Y-54916095D01*
X143285026Y-54917539D01*
X143347617Y-54918418D01*
X143595334Y-54921467D01*
X143598719Y-54986378D01*
X143602105Y-55051289D01*
X143433958Y-55051289D01*
X143360959Y-55051919D01*
X143307517Y-55054553D01*
X143270628Y-55060309D01*
X143247288Y-55070304D01*
X143234494Y-55085656D01*
X143229242Y-55107482D01*
X143228445Y-55127738D01*
X143230923Y-55152592D01*
X143240277Y-55170906D01*
X143259383Y-55183637D01*
X143291118Y-55191741D01*
X143338359Y-55196176D01*
X143403983Y-55197899D01*
X143439801Y-55198045D01*
X143600978Y-55198045D01*
X143600978Y-55356089D01*
X143352622Y-55356089D01*
X143271213Y-55356202D01*
X143209342Y-55356712D01*
X143163968Y-55357870D01*
X143132054Y-55359930D01*
X143110559Y-55363146D01*
X143096443Y-55367772D01*
X143086668Y-55374059D01*
X143081689Y-55378667D01*
X143064610Y-55405560D01*
X143059111Y-55429467D01*
X143066963Y-55458667D01*
X143081689Y-55480267D01*
X143089546Y-55487066D01*
X143099688Y-55492346D01*
X143114844Y-55496298D01*
X143137741Y-55499113D01*
X143171109Y-55500982D01*
X143217675Y-55502098D01*
X143280167Y-55502651D01*
X143361314Y-55502833D01*
X143403422Y-55502845D01*
X143493598Y-55502765D01*
X143563924Y-55502398D01*
X143617129Y-55501552D01*
X143655940Y-55500036D01*
X143683087Y-55497659D01*
X143701298Y-55494229D01*
X143713300Y-55489554D01*
X143721822Y-55483444D01*
X143725156Y-55480267D01*
X143731755Y-55472670D01*
X143736927Y-55462870D01*
X143740846Y-55448239D01*
X143743684Y-55426152D01*
X143745615Y-55393982D01*
X143746812Y-55349103D01*
X143747448Y-55288889D01*
X143747697Y-55210713D01*
X143747734Y-55137923D01*
X143747700Y-55044707D01*
X143747465Y-54971431D01*
X143746830Y-54915458D01*
X143745594Y-54874151D01*
X143743556Y-54844872D01*
X143740517Y-54824984D01*
X143736277Y-54811850D01*
X143730635Y-54802832D01*
X143723391Y-54795293D01*
X143721606Y-54793612D01*
X143712945Y-54786172D01*
X143702882Y-54780409D01*
X143688625Y-54776112D01*
X143667383Y-54773064D01*
X143636364Y-54771051D01*
X143592777Y-54769860D01*
X143533831Y-54769275D01*
X143456734Y-54769083D01*
X143402001Y-54769067D01*
X143312794Y-54769146D01*
G36*
X142291703Y-54770351D02*
X142216888Y-54775581D01*
X142147306Y-54783750D01*
X142087002Y-54794550D01*
X142040020Y-54807673D01*
X142010406Y-54822813D01*
X142005860Y-54827269D01*
X141990054Y-54861850D01*
X141994847Y-54897351D01*
X142019364Y-54927725D01*
X142020534Y-54928596D01*
X142034954Y-54937954D01*
X142050008Y-54942876D01*
X142071005Y-54943473D01*
X142103257Y-54939861D01*
X142152073Y-54932154D01*
X142156000Y-54931505D01*
X142228739Y-54922569D01*
X142307217Y-54918161D01*
X142385927Y-54918119D01*
X142459361Y-54922279D01*
X142522011Y-54930479D01*
X142568370Y-54942557D01*
X142571416Y-54943771D01*
X142605048Y-54962615D01*
X142616864Y-54981685D01*
X142607614Y-55000439D01*
X142578047Y-55018337D01*
X142528911Y-55034837D01*
X142460957Y-55049396D01*
X142415645Y-55056406D01*
X142321456Y-55069889D01*
X142246544Y-55082214D01*
X142187717Y-55094449D01*
X142141785Y-55107661D01*
X142105555Y-55122917D01*
X142075838Y-55141285D01*
X142049442Y-55163831D01*
X142028230Y-55185971D01*
X142003065Y-55216819D01*
X141990681Y-55243345D01*
X141986808Y-55276026D01*
X141986667Y-55287995D01*
X141989576Y-55327712D01*
X142001202Y-55357259D01*
X142021323Y-55383486D01*
X142062216Y-55423576D01*
X142107817Y-55454149D01*
X142161513Y-55476203D01*
X142226692Y-55490735D01*
X142306744Y-55498741D01*
X142405057Y-55501218D01*
X142421289Y-55501177D01*
X142486849Y-55499818D01*
X142551866Y-55496730D01*
X142609252Y-55492356D01*
X142651922Y-55487140D01*
X142655372Y-55486541D01*
X142697796Y-55476491D01*
X142733780Y-55463796D01*
X142754150Y-55452190D01*
X142773107Y-55421572D01*
X142774427Y-55385918D01*
X142758085Y-55354144D01*
X142754429Y-55350551D01*
X142739315Y-55339876D01*
X142720415Y-55335276D01*
X142691162Y-55336059D01*
X142655651Y-55340127D01*
X142615970Y-55343762D01*
X142560345Y-55346828D01*
X142495406Y-55349053D01*
X142427785Y-55350164D01*
X142410000Y-55350237D01*
X142342128Y-55349964D01*
X142292454Y-55348646D01*
X142256610Y-55345827D01*
X142230224Y-55341050D01*
X142208926Y-55333857D01*
X142196126Y-55327867D01*
X142168000Y-55311233D01*
X142150068Y-55296168D01*
X142147447Y-55291897D01*
X142152976Y-55274263D01*
X142179260Y-55257192D01*
X142224478Y-55241458D01*
X142286808Y-55227838D01*
X142305171Y-55224804D01*
X142401090Y-55209738D01*
X142477641Y-55197146D01*
X142537780Y-55186111D01*
X142584460Y-55175720D01*
X142620637Y-55165056D01*
X142649265Y-55153205D01*
X142673298Y-55139251D01*
X142695692Y-55122281D01*
X142719402Y-55101378D01*
X142727380Y-55094049D01*
X142755353Y-55066699D01*
X142770160Y-55045029D01*
X142775952Y-55020232D01*
X142776889Y-54988983D01*
X142766575Y-54927705D01*
X142735752Y-54875640D01*
X142684595Y-54832958D01*
X142613283Y-54799825D01*
X142562400Y-54784964D01*
X142507100Y-54775366D01*
X142440853Y-54769936D01*
X142367706Y-54768367D01*
X142291703Y-54770351D01*
X142291703Y-54770351D01*
G37*
X142291703Y-54770351D02*
X142216888Y-54775581D01*
X142147306Y-54783750D01*
X142087002Y-54794550D01*
X142040020Y-54807673D01*
X142010406Y-54822813D01*
X142005860Y-54827269D01*
X141990054Y-54861850D01*
X141994847Y-54897351D01*
X142019364Y-54927725D01*
X142020534Y-54928596D01*
X142034954Y-54937954D01*
X142050008Y-54942876D01*
X142071005Y-54943473D01*
X142103257Y-54939861D01*
X142152073Y-54932154D01*
X142156000Y-54931505D01*
X142228739Y-54922569D01*
X142307217Y-54918161D01*
X142385927Y-54918119D01*
X142459361Y-54922279D01*
X142522011Y-54930479D01*
X142568370Y-54942557D01*
X142571416Y-54943771D01*
X142605048Y-54962615D01*
X142616864Y-54981685D01*
X142607614Y-55000439D01*
X142578047Y-55018337D01*
X142528911Y-55034837D01*
X142460957Y-55049396D01*
X142415645Y-55056406D01*
X142321456Y-55069889D01*
X142246544Y-55082214D01*
X142187717Y-55094449D01*
X142141785Y-55107661D01*
X142105555Y-55122917D01*
X142075838Y-55141285D01*
X142049442Y-55163831D01*
X142028230Y-55185971D01*
X142003065Y-55216819D01*
X141990681Y-55243345D01*
X141986808Y-55276026D01*
X141986667Y-55287995D01*
X141989576Y-55327712D01*
X142001202Y-55357259D01*
X142021323Y-55383486D01*
X142062216Y-55423576D01*
X142107817Y-55454149D01*
X142161513Y-55476203D01*
X142226692Y-55490735D01*
X142306744Y-55498741D01*
X142405057Y-55501218D01*
X142421289Y-55501177D01*
X142486849Y-55499818D01*
X142551866Y-55496730D01*
X142609252Y-55492356D01*
X142651922Y-55487140D01*
X142655372Y-55486541D01*
X142697796Y-55476491D01*
X142733780Y-55463796D01*
X142754150Y-55452190D01*
X142773107Y-55421572D01*
X142774427Y-55385918D01*
X142758085Y-55354144D01*
X142754429Y-55350551D01*
X142739315Y-55339876D01*
X142720415Y-55335276D01*
X142691162Y-55336059D01*
X142655651Y-55340127D01*
X142615970Y-55343762D01*
X142560345Y-55346828D01*
X142495406Y-55349053D01*
X142427785Y-55350164D01*
X142410000Y-55350237D01*
X142342128Y-55349964D01*
X142292454Y-55348646D01*
X142256610Y-55345827D01*
X142230224Y-55341050D01*
X142208926Y-55333857D01*
X142196126Y-55327867D01*
X142168000Y-55311233D01*
X142150068Y-55296168D01*
X142147447Y-55291897D01*
X142152976Y-55274263D01*
X142179260Y-55257192D01*
X142224478Y-55241458D01*
X142286808Y-55227838D01*
X142305171Y-55224804D01*
X142401090Y-55209738D01*
X142477641Y-55197146D01*
X142537780Y-55186111D01*
X142584460Y-55175720D01*
X142620637Y-55165056D01*
X142649265Y-55153205D01*
X142673298Y-55139251D01*
X142695692Y-55122281D01*
X142719402Y-55101378D01*
X142727380Y-55094049D01*
X142755353Y-55066699D01*
X142770160Y-55045029D01*
X142775952Y-55020232D01*
X142776889Y-54988983D01*
X142766575Y-54927705D01*
X142735752Y-54875640D01*
X142684595Y-54832958D01*
X142613283Y-54799825D01*
X142562400Y-54784964D01*
X142507100Y-54775366D01*
X142440853Y-54769936D01*
X142367706Y-54768367D01*
X142291703Y-54770351D01*
G36*
X141523822Y-54791645D02*
X141517242Y-54799218D01*
X141512079Y-54808987D01*
X141508164Y-54823571D01*
X141505324Y-54845585D01*
X141503387Y-54877648D01*
X141502183Y-54922375D01*
X141501539Y-54982385D01*
X141501284Y-55060294D01*
X141501245Y-55135956D01*
X141501314Y-55229802D01*
X141501638Y-55303689D01*
X141502386Y-55360232D01*
X141503732Y-55402049D01*
X141505846Y-55431757D01*
X141508900Y-55451973D01*
X141513066Y-55465314D01*
X141518516Y-55474398D01*
X141523822Y-55480267D01*
X141556826Y-55499947D01*
X141591991Y-55498181D01*
X141623455Y-55476717D01*
X141630684Y-55468337D01*
X141636334Y-55458614D01*
X141640599Y-55444861D01*
X141643673Y-55424389D01*
X141645752Y-55394512D01*
X141647030Y-55352541D01*
X141647701Y-55295789D01*
X141647959Y-55221567D01*
X141648000Y-55137537D01*
X141648000Y-54824485D01*
X141620291Y-54796776D01*
X141586137Y-54773463D01*
X141553006Y-54772623D01*
X141523822Y-54791645D01*
X141523822Y-54791645D01*
G37*
X141523822Y-54791645D02*
X141517242Y-54799218D01*
X141512079Y-54808987D01*
X141508164Y-54823571D01*
X141505324Y-54845585D01*
X141503387Y-54877648D01*
X141502183Y-54922375D01*
X141501539Y-54982385D01*
X141501284Y-55060294D01*
X141501245Y-55135956D01*
X141501314Y-55229802D01*
X141501638Y-55303689D01*
X141502386Y-55360232D01*
X141503732Y-55402049D01*
X141505846Y-55431757D01*
X141508900Y-55451973D01*
X141513066Y-55465314D01*
X141518516Y-55474398D01*
X141523822Y-55480267D01*
X141556826Y-55499947D01*
X141591991Y-55498181D01*
X141623455Y-55476717D01*
X141630684Y-55468337D01*
X141636334Y-55458614D01*
X141640599Y-55444861D01*
X141643673Y-55424389D01*
X141645752Y-55394512D01*
X141647030Y-55352541D01*
X141647701Y-55295789D01*
X141647959Y-55221567D01*
X141648000Y-55137537D01*
X141648000Y-54824485D01*
X141620291Y-54796776D01*
X141586137Y-54773463D01*
X141553006Y-54772623D01*
X141523822Y-54791645D01*
G36*
X140550081Y-54774599D02*
X140481565Y-54786095D01*
X140428943Y-54803967D01*
X140394708Y-54827499D01*
X140385379Y-54840924D01*
X140375893Y-54872148D01*
X140382277Y-54900395D01*
X140402430Y-54927182D01*
X140433745Y-54939713D01*
X140479183Y-54938696D01*
X140514326Y-54931906D01*
X140592419Y-54918971D01*
X140672226Y-54917742D01*
X140761555Y-54928241D01*
X140786229Y-54932690D01*
X140869291Y-54956108D01*
X140934273Y-54990945D01*
X140980461Y-55036604D01*
X141007145Y-55092494D01*
X141012663Y-55121388D01*
X141009051Y-55180012D01*
X140985729Y-55231879D01*
X140944824Y-55275978D01*
X140888459Y-55311299D01*
X140818760Y-55336829D01*
X140737852Y-55351559D01*
X140647860Y-55354478D01*
X140550910Y-55344575D01*
X140545436Y-55343641D01*
X140506875Y-55336459D01*
X140485494Y-55329521D01*
X140476227Y-55319227D01*
X140474006Y-55301976D01*
X140473956Y-55292841D01*
X140473956Y-55254489D01*
X140542431Y-55254489D01*
X140602900Y-55250347D01*
X140644165Y-55237147D01*
X140668175Y-55213730D01*
X140676877Y-55178936D01*
X140676983Y-55174394D01*
X140671892Y-55144654D01*
X140654433Y-55123419D01*
X140621939Y-55109366D01*
X140571743Y-55101173D01*
X140523123Y-55098161D01*
X140452456Y-55096433D01*
X140401198Y-55099070D01*
X140366239Y-55108800D01*
X140344470Y-55128353D01*
X140332780Y-55160456D01*
X140328060Y-55207838D01*
X140327200Y-55270071D01*
X140328609Y-55339535D01*
X140332848Y-55386786D01*
X140339936Y-55412012D01*
X140341311Y-55413988D01*
X140380228Y-55445508D01*
X140437286Y-55470470D01*
X140508869Y-55488340D01*
X140591358Y-55498586D01*
X140681139Y-55500673D01*
X140774592Y-55494068D01*
X140829556Y-55485956D01*
X140915766Y-55461554D01*
X140995892Y-55421662D01*
X141062977Y-55369887D01*
X141073173Y-55359539D01*
X141106302Y-55316035D01*
X141136194Y-55262118D01*
X141159357Y-55205592D01*
X141172298Y-55154259D01*
X141173858Y-55134544D01*
X141167218Y-55093419D01*
X141149568Y-55042252D01*
X141124297Y-54988394D01*
X141094789Y-54939195D01*
X141068719Y-54906334D01*
X141007765Y-54857452D01*
X140928969Y-54818545D01*
X140835157Y-54790494D01*
X140729150Y-54774179D01*
X140632000Y-54770192D01*
X140550081Y-54774599D01*
X140550081Y-54774599D01*
G37*
X140550081Y-54774599D02*
X140481565Y-54786095D01*
X140428943Y-54803967D01*
X140394708Y-54827499D01*
X140385379Y-54840924D01*
X140375893Y-54872148D01*
X140382277Y-54900395D01*
X140402430Y-54927182D01*
X140433745Y-54939713D01*
X140479183Y-54938696D01*
X140514326Y-54931906D01*
X140592419Y-54918971D01*
X140672226Y-54917742D01*
X140761555Y-54928241D01*
X140786229Y-54932690D01*
X140869291Y-54956108D01*
X140934273Y-54990945D01*
X140980461Y-55036604D01*
X141007145Y-55092494D01*
X141012663Y-55121388D01*
X141009051Y-55180012D01*
X140985729Y-55231879D01*
X140944824Y-55275978D01*
X140888459Y-55311299D01*
X140818760Y-55336829D01*
X140737852Y-55351559D01*
X140647860Y-55354478D01*
X140550910Y-55344575D01*
X140545436Y-55343641D01*
X140506875Y-55336459D01*
X140485494Y-55329521D01*
X140476227Y-55319227D01*
X140474006Y-55301976D01*
X140473956Y-55292841D01*
X140473956Y-55254489D01*
X140542431Y-55254489D01*
X140602900Y-55250347D01*
X140644165Y-55237147D01*
X140668175Y-55213730D01*
X140676877Y-55178936D01*
X140676983Y-55174394D01*
X140671892Y-55144654D01*
X140654433Y-55123419D01*
X140621939Y-55109366D01*
X140571743Y-55101173D01*
X140523123Y-55098161D01*
X140452456Y-55096433D01*
X140401198Y-55099070D01*
X140366239Y-55108800D01*
X140344470Y-55128353D01*
X140332780Y-55160456D01*
X140328060Y-55207838D01*
X140327200Y-55270071D01*
X140328609Y-55339535D01*
X140332848Y-55386786D01*
X140339936Y-55412012D01*
X140341311Y-55413988D01*
X140380228Y-55445508D01*
X140437286Y-55470470D01*
X140508869Y-55488340D01*
X140591358Y-55498586D01*
X140681139Y-55500673D01*
X140774592Y-55494068D01*
X140829556Y-55485956D01*
X140915766Y-55461554D01*
X140995892Y-55421662D01*
X141062977Y-55369887D01*
X141073173Y-55359539D01*
X141106302Y-55316035D01*
X141136194Y-55262118D01*
X141159357Y-55205592D01*
X141172298Y-55154259D01*
X141173858Y-55134544D01*
X141167218Y-55093419D01*
X141149568Y-55042252D01*
X141124297Y-54988394D01*
X141094789Y-54939195D01*
X141068719Y-54906334D01*
X141007765Y-54857452D01*
X140928969Y-54818545D01*
X140835157Y-54790494D01*
X140729150Y-54774179D01*
X140632000Y-54770192D01*
X140550081Y-54774599D01*
G36*
X139900114Y-54773448D02*
X139876548Y-54787273D01*
X139845735Y-54809881D01*
X139806078Y-54842338D01*
X139755980Y-54885708D01*
X139693843Y-54941058D01*
X139618072Y-55009451D01*
X139531334Y-55088084D01*
X139350711Y-55251878D01*
X139345067Y-55032029D01*
X139343029Y-54956351D01*
X139341063Y-54899994D01*
X139338734Y-54859706D01*
X139335606Y-54832235D01*
X139331245Y-54814329D01*
X139325216Y-54802737D01*
X139317084Y-54794208D01*
X139312772Y-54790623D01*
X139278241Y-54771670D01*
X139245383Y-54774441D01*
X139219318Y-54790633D01*
X139192667Y-54812199D01*
X139189352Y-55127151D01*
X139188435Y-55219779D01*
X139187968Y-55292544D01*
X139188113Y-55348161D01*
X139189032Y-55389342D01*
X139190887Y-55418803D01*
X139193839Y-55439255D01*
X139198050Y-55453413D01*
X139203682Y-55463991D01*
X139209927Y-55472474D01*
X139223439Y-55488207D01*
X139236883Y-55498636D01*
X139252124Y-55502639D01*
X139271026Y-55499094D01*
X139295455Y-55486879D01*
X139327273Y-55464871D01*
X139368348Y-55431949D01*
X139420542Y-55386991D01*
X139485722Y-55328875D01*
X139559556Y-55262099D01*
X139824845Y-55021458D01*
X139830489Y-55240589D01*
X139832531Y-55316128D01*
X139834502Y-55372354D01*
X139836839Y-55412524D01*
X139839981Y-55439896D01*
X139844364Y-55457728D01*
X139850424Y-55469279D01*
X139858600Y-55477807D01*
X139862784Y-55481282D01*
X139899765Y-55500372D01*
X139934708Y-55497493D01*
X139965136Y-55473100D01*
X139972097Y-55463286D01*
X139977523Y-55451826D01*
X139981603Y-55435968D01*
X139984529Y-55412963D01*
X139986492Y-55380062D01*
X139987683Y-55334516D01*
X139988292Y-55273573D01*
X139988511Y-55194486D01*
X139988534Y-55135956D01*
X139988460Y-55044407D01*
X139988113Y-54972687D01*
X139987301Y-54918045D01*
X139985833Y-54877732D01*
X139983519Y-54848998D01*
X139980167Y-54829093D01*
X139975588Y-54815268D01*
X139969589Y-54804772D01*
X139965136Y-54798811D01*
X139953850Y-54784691D01*
X139943301Y-54774029D01*
X139931893Y-54767892D01*
X139918030Y-54767343D01*
X139900114Y-54773448D01*
X139900114Y-54773448D01*
G37*
X139900114Y-54773448D02*
X139876548Y-54787273D01*
X139845735Y-54809881D01*
X139806078Y-54842338D01*
X139755980Y-54885708D01*
X139693843Y-54941058D01*
X139618072Y-55009451D01*
X139531334Y-55088084D01*
X139350711Y-55251878D01*
X139345067Y-55032029D01*
X139343029Y-54956351D01*
X139341063Y-54899994D01*
X139338734Y-54859706D01*
X139335606Y-54832235D01*
X139331245Y-54814329D01*
X139325216Y-54802737D01*
X139317084Y-54794208D01*
X139312772Y-54790623D01*
X139278241Y-54771670D01*
X139245383Y-54774441D01*
X139219318Y-54790633D01*
X139192667Y-54812199D01*
X139189352Y-55127151D01*
X139188435Y-55219779D01*
X139187968Y-55292544D01*
X139188113Y-55348161D01*
X139189032Y-55389342D01*
X139190887Y-55418803D01*
X139193839Y-55439255D01*
X139198050Y-55453413D01*
X139203682Y-55463991D01*
X139209927Y-55472474D01*
X139223439Y-55488207D01*
X139236883Y-55498636D01*
X139252124Y-55502639D01*
X139271026Y-55499094D01*
X139295455Y-55486879D01*
X139327273Y-55464871D01*
X139368348Y-55431949D01*
X139420542Y-55386991D01*
X139485722Y-55328875D01*
X139559556Y-55262099D01*
X139824845Y-55021458D01*
X139830489Y-55240589D01*
X139832531Y-55316128D01*
X139834502Y-55372354D01*
X139836839Y-55412524D01*
X139839981Y-55439896D01*
X139844364Y-55457728D01*
X139850424Y-55469279D01*
X139858600Y-55477807D01*
X139862784Y-55481282D01*
X139899765Y-55500372D01*
X139934708Y-55497493D01*
X139965136Y-55473100D01*
X139972097Y-55463286D01*
X139977523Y-55451826D01*
X139981603Y-55435968D01*
X139984529Y-55412963D01*
X139986492Y-55380062D01*
X139987683Y-55334516D01*
X139988292Y-55273573D01*
X139988511Y-55194486D01*
X139988534Y-55135956D01*
X139988460Y-55044407D01*
X139988113Y-54972687D01*
X139987301Y-54918045D01*
X139985833Y-54877732D01*
X139983519Y-54848998D01*
X139980167Y-54829093D01*
X139975588Y-54815268D01*
X139969589Y-54804772D01*
X139965136Y-54798811D01*
X139953850Y-54784691D01*
X139943301Y-54774029D01*
X139931893Y-54767892D01*
X139918030Y-54767343D01*
X139900114Y-54773448D01*
G36*
X138369657Y-54769260D02*
X138293299Y-54770174D01*
X138234783Y-54772311D01*
X138191745Y-54776175D01*
X138161817Y-54782267D01*
X138142632Y-54791090D01*
X138131824Y-54803146D01*
X138127027Y-54818939D01*
X138125873Y-54838970D01*
X138125867Y-54841335D01*
X138126869Y-54863992D01*
X138131604Y-54881503D01*
X138142667Y-54894574D01*
X138162652Y-54903913D01*
X138194154Y-54910227D01*
X138239768Y-54914222D01*
X138302087Y-54916606D01*
X138383707Y-54918086D01*
X138408723Y-54918414D01*
X138650800Y-54921467D01*
X138654186Y-54986378D01*
X138657571Y-55051289D01*
X138489424Y-55051289D01*
X138423734Y-55051531D01*
X138376828Y-55052556D01*
X138344917Y-55054811D01*
X138324209Y-55058742D01*
X138310916Y-55064798D01*
X138301245Y-55073424D01*
X138301183Y-55073493D01*
X138283644Y-55107112D01*
X138284278Y-55143448D01*
X138302686Y-55174423D01*
X138306329Y-55177607D01*
X138319259Y-55185812D01*
X138336976Y-55191521D01*
X138363430Y-55195162D01*
X138402568Y-55197167D01*
X138458338Y-55197964D01*
X138494006Y-55198045D01*
X138656445Y-55198045D01*
X138656445Y-55356089D01*
X138409839Y-55356089D01*
X138328420Y-55356231D01*
X138266590Y-55356814D01*
X138221363Y-55358068D01*
X138189752Y-55360227D01*
X138168769Y-55363523D01*
X138155427Y-55368189D01*
X138146739Y-55374457D01*
X138144550Y-55376733D01*
X138128386Y-55408280D01*
X138127203Y-55444168D01*
X138140464Y-55475285D01*
X138150957Y-55485271D01*
X138161871Y-55490769D01*
X138178783Y-55495022D01*
X138204367Y-55498180D01*
X138241299Y-55500392D01*
X138292254Y-55501806D01*
X138359906Y-55502572D01*
X138446931Y-55502838D01*
X138466606Y-55502845D01*
X138555089Y-55502787D01*
X138623773Y-55502467D01*
X138675436Y-55501667D01*
X138712855Y-55500167D01*
X138738810Y-55497749D01*
X138756078Y-55494194D01*
X138767438Y-55489282D01*
X138775668Y-55482795D01*
X138780183Y-55478138D01*
X138786979Y-55469889D01*
X138792288Y-55459669D01*
X138796294Y-55444800D01*
X138799179Y-55422602D01*
X138801126Y-55390393D01*
X138802319Y-55345496D01*
X138802939Y-55285228D01*
X138803171Y-55206911D01*
X138803200Y-55140994D01*
X138803129Y-55048628D01*
X138802792Y-54976117D01*
X138802002Y-54920737D01*
X138800574Y-54879765D01*
X138798321Y-54850478D01*
X138795057Y-54830153D01*
X138790596Y-54816066D01*
X138784752Y-54805495D01*
X138779803Y-54798811D01*
X138756406Y-54769067D01*
X138466226Y-54769067D01*
X138369657Y-54769260D01*
X138369657Y-54769260D01*
G37*
X138369657Y-54769260D02*
X138293299Y-54770174D01*
X138234783Y-54772311D01*
X138191745Y-54776175D01*
X138161817Y-54782267D01*
X138142632Y-54791090D01*
X138131824Y-54803146D01*
X138127027Y-54818939D01*
X138125873Y-54838970D01*
X138125867Y-54841335D01*
X138126869Y-54863992D01*
X138131604Y-54881503D01*
X138142667Y-54894574D01*
X138162652Y-54903913D01*
X138194154Y-54910227D01*
X138239768Y-54914222D01*
X138302087Y-54916606D01*
X138383707Y-54918086D01*
X138408723Y-54918414D01*
X138650800Y-54921467D01*
X138654186Y-54986378D01*
X138657571Y-55051289D01*
X138489424Y-55051289D01*
X138423734Y-55051531D01*
X138376828Y-55052556D01*
X138344917Y-55054811D01*
X138324209Y-55058742D01*
X138310916Y-55064798D01*
X138301245Y-55073424D01*
X138301183Y-55073493D01*
X138283644Y-55107112D01*
X138284278Y-55143448D01*
X138302686Y-55174423D01*
X138306329Y-55177607D01*
X138319259Y-55185812D01*
X138336976Y-55191521D01*
X138363430Y-55195162D01*
X138402568Y-55197167D01*
X138458338Y-55197964D01*
X138494006Y-55198045D01*
X138656445Y-55198045D01*
X138656445Y-55356089D01*
X138409839Y-55356089D01*
X138328420Y-55356231D01*
X138266590Y-55356814D01*
X138221363Y-55358068D01*
X138189752Y-55360227D01*
X138168769Y-55363523D01*
X138155427Y-55368189D01*
X138146739Y-55374457D01*
X138144550Y-55376733D01*
X138128386Y-55408280D01*
X138127203Y-55444168D01*
X138140464Y-55475285D01*
X138150957Y-55485271D01*
X138161871Y-55490769D01*
X138178783Y-55495022D01*
X138204367Y-55498180D01*
X138241299Y-55500392D01*
X138292254Y-55501806D01*
X138359906Y-55502572D01*
X138446931Y-55502838D01*
X138466606Y-55502845D01*
X138555089Y-55502787D01*
X138623773Y-55502467D01*
X138675436Y-55501667D01*
X138712855Y-55500167D01*
X138738810Y-55497749D01*
X138756078Y-55494194D01*
X138767438Y-55489282D01*
X138775668Y-55482795D01*
X138780183Y-55478138D01*
X138786979Y-55469889D01*
X138792288Y-55459669D01*
X138796294Y-55444800D01*
X138799179Y-55422602D01*
X138801126Y-55390393D01*
X138802319Y-55345496D01*
X138802939Y-55285228D01*
X138803171Y-55206911D01*
X138803200Y-55140994D01*
X138803129Y-55048628D01*
X138802792Y-54976117D01*
X138802002Y-54920737D01*
X138800574Y-54879765D01*
X138798321Y-54850478D01*
X138795057Y-54830153D01*
X138790596Y-54816066D01*
X138784752Y-54805495D01*
X138779803Y-54798811D01*
X138756406Y-54769067D01*
X138466226Y-54769067D01*
X138369657Y-54769260D01*
G36*
X137581691Y-54769275D02*
X137452712Y-54773636D01*
X137343009Y-54786861D01*
X137250774Y-54809741D01*
X137174198Y-54843070D01*
X137111473Y-54887638D01*
X137060788Y-54944236D01*
X137020337Y-55013658D01*
X137019541Y-55015351D01*
X136995399Y-55077483D01*
X136986797Y-55132509D01*
X136993769Y-55187887D01*
X137016346Y-55251073D01*
X137020628Y-55260689D01*
X137049828Y-55316966D01*
X137082644Y-55360451D01*
X137124998Y-55397417D01*
X137182810Y-55434135D01*
X137186169Y-55436052D01*
X137236496Y-55460227D01*
X137293379Y-55478282D01*
X137360473Y-55490839D01*
X137441435Y-55498522D01*
X137539918Y-55501953D01*
X137574714Y-55502251D01*
X137740406Y-55502845D01*
X137763803Y-55473100D01*
X137770743Y-55463319D01*
X137776158Y-55451897D01*
X137780235Y-55436095D01*
X137783163Y-55413175D01*
X137785133Y-55380396D01*
X137785775Y-55356089D01*
X137629156Y-55356089D01*
X137535274Y-55356089D01*
X137480336Y-55354483D01*
X137423940Y-55350255D01*
X137377655Y-55344292D01*
X137374861Y-55343790D01*
X137292652Y-55321736D01*
X137228886Y-55288600D01*
X137181548Y-55242847D01*
X137148618Y-55182939D01*
X137142892Y-55167061D01*
X137137279Y-55142333D01*
X137139709Y-55117902D01*
X137151533Y-55085400D01*
X137158660Y-55069434D01*
X137182000Y-55027006D01*
X137210120Y-54997240D01*
X137241060Y-54976511D01*
X137303034Y-54949537D01*
X137382349Y-54929998D01*
X137474747Y-54918746D01*
X137541667Y-54916270D01*
X137629156Y-54915822D01*
X137629156Y-55356089D01*
X137785775Y-55356089D01*
X137786332Y-55335021D01*
X137786950Y-55274311D01*
X137787175Y-55195526D01*
X137787200Y-55133920D01*
X137787200Y-54824485D01*
X137759491Y-54796776D01*
X137747194Y-54785544D01*
X137733897Y-54777853D01*
X137715328Y-54773040D01*
X137687214Y-54770446D01*
X137645283Y-54769410D01*
X137585263Y-54769270D01*
X137581691Y-54769275D01*
X137581691Y-54769275D01*
G37*
X137581691Y-54769275D02*
X137452712Y-54773636D01*
X137343009Y-54786861D01*
X137250774Y-54809741D01*
X137174198Y-54843070D01*
X137111473Y-54887638D01*
X137060788Y-54944236D01*
X137020337Y-55013658D01*
X137019541Y-55015351D01*
X136995399Y-55077483D01*
X136986797Y-55132509D01*
X136993769Y-55187887D01*
X137016346Y-55251073D01*
X137020628Y-55260689D01*
X137049828Y-55316966D01*
X137082644Y-55360451D01*
X137124998Y-55397417D01*
X137182810Y-55434135D01*
X137186169Y-55436052D01*
X137236496Y-55460227D01*
X137293379Y-55478282D01*
X137360473Y-55490839D01*
X137441435Y-55498522D01*
X137539918Y-55501953D01*
X137574714Y-55502251D01*
X137740406Y-55502845D01*
X137763803Y-55473100D01*
X137770743Y-55463319D01*
X137776158Y-55451897D01*
X137780235Y-55436095D01*
X137783163Y-55413175D01*
X137785133Y-55380396D01*
X137785775Y-55356089D01*
X137629156Y-55356089D01*
X137535274Y-55356089D01*
X137480336Y-55354483D01*
X137423940Y-55350255D01*
X137377655Y-55344292D01*
X137374861Y-55343790D01*
X137292652Y-55321736D01*
X137228886Y-55288600D01*
X137181548Y-55242847D01*
X137148618Y-55182939D01*
X137142892Y-55167061D01*
X137137279Y-55142333D01*
X137139709Y-55117902D01*
X137151533Y-55085400D01*
X137158660Y-55069434D01*
X137182000Y-55027006D01*
X137210120Y-54997240D01*
X137241060Y-54976511D01*
X137303034Y-54949537D01*
X137382349Y-54929998D01*
X137474747Y-54918746D01*
X137541667Y-54916270D01*
X137629156Y-54915822D01*
X137629156Y-55356089D01*
X137785775Y-55356089D01*
X137786332Y-55335021D01*
X137786950Y-55274311D01*
X137787175Y-55195526D01*
X137787200Y-55133920D01*
X137787200Y-54824485D01*
X137759491Y-54796776D01*
X137747194Y-54785544D01*
X137733897Y-54777853D01*
X137715328Y-54773040D01*
X137687214Y-54770446D01*
X137645283Y-54769410D01*
X137585263Y-54769270D01*
X137581691Y-54769275D01*
G36*
X134855335Y-54771034D02*
X134835745Y-54778035D01*
X134834990Y-54778377D01*
X134808387Y-54798678D01*
X134793730Y-54819561D01*
X134790862Y-54829352D01*
X134791004Y-54842361D01*
X134795039Y-54860895D01*
X134803854Y-54887257D01*
X134818331Y-54923752D01*
X134839355Y-54972687D01*
X134867812Y-55036365D01*
X134904585Y-55117093D01*
X134924825Y-55161216D01*
X134961375Y-55239985D01*
X134995685Y-55312423D01*
X135026448Y-55375880D01*
X135052352Y-55427708D01*
X135072090Y-55465259D01*
X135084350Y-55485884D01*
X135086776Y-55488733D01*
X135117817Y-55501302D01*
X135152879Y-55499619D01*
X135181000Y-55484332D01*
X135182146Y-55483089D01*
X135193332Y-55466154D01*
X135212096Y-55433170D01*
X135236125Y-55388380D01*
X135263103Y-55336032D01*
X135272799Y-55316742D01*
X135345986Y-55170150D01*
X135425760Y-55329393D01*
X135454233Y-55384415D01*
X135480650Y-55432132D01*
X135502852Y-55468893D01*
X135518681Y-55491044D01*
X135524046Y-55495741D01*
X135565743Y-55502102D01*
X135600151Y-55488733D01*
X135610272Y-55474446D01*
X135627786Y-55442692D01*
X135651265Y-55396597D01*
X135679280Y-55339285D01*
X135710401Y-55273880D01*
X135743201Y-55203507D01*
X135776250Y-55131291D01*
X135808119Y-55060355D01*
X135837381Y-54993825D01*
X135862605Y-54934826D01*
X135882364Y-54886481D01*
X135895228Y-54851915D01*
X135899769Y-54834253D01*
X135899723Y-54833613D01*
X135888674Y-54811388D01*
X135866590Y-54788753D01*
X135865290Y-54787768D01*
X135838147Y-54772425D01*
X135813042Y-54772574D01*
X135803632Y-54775466D01*
X135792166Y-54781718D01*
X135779990Y-54794014D01*
X135765643Y-54814908D01*
X135747664Y-54846949D01*
X135724593Y-54892688D01*
X135694970Y-54954677D01*
X135668255Y-55011898D01*
X135637520Y-55078226D01*
X135609979Y-55137874D01*
X135587062Y-55187725D01*
X135570202Y-55224664D01*
X135560827Y-55245573D01*
X135559460Y-55248845D01*
X135553311Y-55243497D01*
X135539178Y-55221109D01*
X135518943Y-55184946D01*
X135494485Y-55138277D01*
X135484752Y-55119022D01*
X135451783Y-55054004D01*
X135426357Y-55006654D01*
X135406388Y-54974219D01*
X135389790Y-54953946D01*
X135374476Y-54943082D01*
X135358360Y-54938875D01*
X135347857Y-54938400D01*
X135329330Y-54940042D01*
X135313096Y-54946831D01*
X135296965Y-54961566D01*
X135278749Y-54987044D01*
X135256261Y-55026061D01*
X135227311Y-55081414D01*
X135211338Y-55112903D01*
X135185430Y-55163087D01*
X135162833Y-55204704D01*
X135145542Y-55234242D01*
X135135550Y-55248189D01*
X135134191Y-55248770D01*
X135127739Y-55237793D01*
X135113292Y-55209290D01*
X135092297Y-55166244D01*
X135066203Y-55111638D01*
X135036454Y-55048454D01*
X135021820Y-55017071D01*
X134983750Y-54936078D01*
X134953095Y-54873756D01*
X134928263Y-54828071D01*
X134907663Y-54796989D01*
X134889702Y-54778478D01*
X134872790Y-54770504D01*
X134855335Y-54771034D01*
X134855335Y-54771034D01*
G37*
X134855335Y-54771034D02*
X134835745Y-54778035D01*
X134834990Y-54778377D01*
X134808387Y-54798678D01*
X134793730Y-54819561D01*
X134790862Y-54829352D01*
X134791004Y-54842361D01*
X134795039Y-54860895D01*
X134803854Y-54887257D01*
X134818331Y-54923752D01*
X134839355Y-54972687D01*
X134867812Y-55036365D01*
X134904585Y-55117093D01*
X134924825Y-55161216D01*
X134961375Y-55239985D01*
X134995685Y-55312423D01*
X135026448Y-55375880D01*
X135052352Y-55427708D01*
X135072090Y-55465259D01*
X135084350Y-55485884D01*
X135086776Y-55488733D01*
X135117817Y-55501302D01*
X135152879Y-55499619D01*
X135181000Y-55484332D01*
X135182146Y-55483089D01*
X135193332Y-55466154D01*
X135212096Y-55433170D01*
X135236125Y-55388380D01*
X135263103Y-55336032D01*
X135272799Y-55316742D01*
X135345986Y-55170150D01*
X135425760Y-55329393D01*
X135454233Y-55384415D01*
X135480650Y-55432132D01*
X135502852Y-55468893D01*
X135518681Y-55491044D01*
X135524046Y-55495741D01*
X135565743Y-55502102D01*
X135600151Y-55488733D01*
X135610272Y-55474446D01*
X135627786Y-55442692D01*
X135651265Y-55396597D01*
X135679280Y-55339285D01*
X135710401Y-55273880D01*
X135743201Y-55203507D01*
X135776250Y-55131291D01*
X135808119Y-55060355D01*
X135837381Y-54993825D01*
X135862605Y-54934826D01*
X135882364Y-54886481D01*
X135895228Y-54851915D01*
X135899769Y-54834253D01*
X135899723Y-54833613D01*
X135888674Y-54811388D01*
X135866590Y-54788753D01*
X135865290Y-54787768D01*
X135838147Y-54772425D01*
X135813042Y-54772574D01*
X135803632Y-54775466D01*
X135792166Y-54781718D01*
X135779990Y-54794014D01*
X135765643Y-54814908D01*
X135747664Y-54846949D01*
X135724593Y-54892688D01*
X135694970Y-54954677D01*
X135668255Y-55011898D01*
X135637520Y-55078226D01*
X135609979Y-55137874D01*
X135587062Y-55187725D01*
X135570202Y-55224664D01*
X135560827Y-55245573D01*
X135559460Y-55248845D01*
X135553311Y-55243497D01*
X135539178Y-55221109D01*
X135518943Y-55184946D01*
X135494485Y-55138277D01*
X135484752Y-55119022D01*
X135451783Y-55054004D01*
X135426357Y-55006654D01*
X135406388Y-54974219D01*
X135389790Y-54953946D01*
X135374476Y-54943082D01*
X135358360Y-54938875D01*
X135347857Y-54938400D01*
X135329330Y-54940042D01*
X135313096Y-54946831D01*
X135296965Y-54961566D01*
X135278749Y-54987044D01*
X135256261Y-55026061D01*
X135227311Y-55081414D01*
X135211338Y-55112903D01*
X135185430Y-55163087D01*
X135162833Y-55204704D01*
X135145542Y-55234242D01*
X135135550Y-55248189D01*
X135134191Y-55248770D01*
X135127739Y-55237793D01*
X135113292Y-55209290D01*
X135092297Y-55166244D01*
X135066203Y-55111638D01*
X135036454Y-55048454D01*
X135021820Y-55017071D01*
X134983750Y-54936078D01*
X134953095Y-54873756D01*
X134928263Y-54828071D01*
X134907663Y-54796989D01*
X134889702Y-54778478D01*
X134872790Y-54770504D01*
X134855335Y-54771034D01*
G36*
X134411386Y-54775877D02*
X134387673Y-54790647D01*
X134361022Y-54812227D01*
X134361022Y-55133773D01*
X134361107Y-55227830D01*
X134361471Y-55301932D01*
X134362276Y-55358704D01*
X134363687Y-55400768D01*
X134365867Y-55430748D01*
X134368979Y-55451267D01*
X134373186Y-55464949D01*
X134378652Y-55474416D01*
X134382528Y-55479082D01*
X134413966Y-55499575D01*
X134449767Y-55498739D01*
X134481127Y-55481264D01*
X134507778Y-55459684D01*
X134507778Y-54812227D01*
X134481127Y-54790647D01*
X134455406Y-54774949D01*
X134434400Y-54769067D01*
X134411386Y-54775877D01*
X134411386Y-54775877D01*
G37*
X134411386Y-54775877D02*
X134387673Y-54790647D01*
X134361022Y-54812227D01*
X134361022Y-55133773D01*
X134361107Y-55227830D01*
X134361471Y-55301932D01*
X134362276Y-55358704D01*
X134363687Y-55400768D01*
X134365867Y-55430748D01*
X134368979Y-55451267D01*
X134373186Y-55464949D01*
X134378652Y-55474416D01*
X134382528Y-55479082D01*
X134413966Y-55499575D01*
X134449767Y-55498739D01*
X134481127Y-55481264D01*
X134507778Y-55459684D01*
X134507778Y-54812227D01*
X134481127Y-54790647D01*
X134455406Y-54774949D01*
X134434400Y-54769067D01*
X134411386Y-54775877D01*
G36*
X133636935Y-54769163D02*
X133558228Y-54769542D01*
X133497137Y-54770333D01*
X133451183Y-54771670D01*
X133417886Y-54773683D01*
X133394764Y-54776506D01*
X133379338Y-54780269D01*
X133369129Y-54785105D01*
X133364187Y-54788822D01*
X133338543Y-54821358D01*
X133335441Y-54855138D01*
X133351289Y-54885826D01*
X133361652Y-54898089D01*
X133372804Y-54906450D01*
X133388965Y-54911657D01*
X133414358Y-54914457D01*
X133453202Y-54915596D01*
X133509720Y-54915821D01*
X133520820Y-54915822D01*
X133666756Y-54915822D01*
X133666756Y-55186756D01*
X133666852Y-55272154D01*
X133667289Y-55337864D01*
X133668288Y-55386774D01*
X133670072Y-55421773D01*
X133672863Y-55445749D01*
X133676883Y-55461593D01*
X133682355Y-55472191D01*
X133689334Y-55480267D01*
X133722266Y-55500112D01*
X133756646Y-55498548D01*
X133787824Y-55475906D01*
X133790114Y-55473100D01*
X133797571Y-55462492D01*
X133803253Y-55450081D01*
X133807399Y-55432850D01*
X133810250Y-55407784D01*
X133812046Y-55371867D01*
X133813028Y-55322083D01*
X133813436Y-55255417D01*
X133813511Y-55179589D01*
X133813511Y-54915822D01*
X133952873Y-54915822D01*
X134012678Y-54915418D01*
X134054082Y-54913840D01*
X134081252Y-54910547D01*
X134098354Y-54904992D01*
X134109557Y-54896631D01*
X134110917Y-54895178D01*
X134127275Y-54861939D01*
X134125828Y-54824362D01*
X134107022Y-54791645D01*
X134099750Y-54785298D01*
X134090373Y-54780266D01*
X134076391Y-54776396D01*
X134055304Y-54773537D01*
X134024611Y-54771535D01*
X133981811Y-54770239D01*
X133924405Y-54769498D01*
X133849890Y-54769158D01*
X133755767Y-54769068D01*
X133735740Y-54769067D01*
X133636935Y-54769163D01*
X133636935Y-54769163D01*
G37*
X133636935Y-54769163D02*
X133558228Y-54769542D01*
X133497137Y-54770333D01*
X133451183Y-54771670D01*
X133417886Y-54773683D01*
X133394764Y-54776506D01*
X133379338Y-54780269D01*
X133369129Y-54785105D01*
X133364187Y-54788822D01*
X133338543Y-54821358D01*
X133335441Y-54855138D01*
X133351289Y-54885826D01*
X133361652Y-54898089D01*
X133372804Y-54906450D01*
X133388965Y-54911657D01*
X133414358Y-54914457D01*
X133453202Y-54915596D01*
X133509720Y-54915821D01*
X133520820Y-54915822D01*
X133666756Y-54915822D01*
X133666756Y-55186756D01*
X133666852Y-55272154D01*
X133667289Y-55337864D01*
X133668288Y-55386774D01*
X133670072Y-55421773D01*
X133672863Y-55445749D01*
X133676883Y-55461593D01*
X133682355Y-55472191D01*
X133689334Y-55480267D01*
X133722266Y-55500112D01*
X133756646Y-55498548D01*
X133787824Y-55475906D01*
X133790114Y-55473100D01*
X133797571Y-55462492D01*
X133803253Y-55450081D01*
X133807399Y-55432850D01*
X133810250Y-55407784D01*
X133812046Y-55371867D01*
X133813028Y-55322083D01*
X133813436Y-55255417D01*
X133813511Y-55179589D01*
X133813511Y-54915822D01*
X133952873Y-54915822D01*
X134012678Y-54915418D01*
X134054082Y-54913840D01*
X134081252Y-54910547D01*
X134098354Y-54904992D01*
X134109557Y-54896631D01*
X134110917Y-54895178D01*
X134127275Y-54861939D01*
X134125828Y-54824362D01*
X134107022Y-54791645D01*
X134099750Y-54785298D01*
X134090373Y-54780266D01*
X134076391Y-54776396D01*
X134055304Y-54773537D01*
X134024611Y-54771535D01*
X133981811Y-54770239D01*
X133924405Y-54769498D01*
X133849890Y-54769158D01*
X133755767Y-54769068D01*
X133735740Y-54769067D01*
X133636935Y-54769163D01*
G36*
X132371177Y-54774533D02*
X132339798Y-54796776D01*
X132312089Y-54824485D01*
X132312089Y-55133920D01*
X132312162Y-55225799D01*
X132312505Y-55297840D01*
X132313308Y-55352780D01*
X132314759Y-55393360D01*
X132317048Y-55422317D01*
X132320364Y-55442391D01*
X132324895Y-55456321D01*
X132330831Y-55466845D01*
X132335486Y-55473100D01*
X132366217Y-55497673D01*
X132401504Y-55500341D01*
X132433755Y-55485271D01*
X132444412Y-55476374D01*
X132451536Y-55464557D01*
X132455833Y-55445526D01*
X132458009Y-55414992D01*
X132458772Y-55368662D01*
X132458845Y-55332871D01*
X132458845Y-55198045D01*
X132955556Y-55198045D01*
X132955556Y-55320700D01*
X132956069Y-55376787D01*
X132958124Y-55415333D01*
X132962492Y-55441361D01*
X132969944Y-55459897D01*
X132978953Y-55473100D01*
X133009856Y-55497604D01*
X133044804Y-55500506D01*
X133078262Y-55483089D01*
X133087396Y-55473959D01*
X133093848Y-55461855D01*
X133098103Y-55443001D01*
X133100648Y-55413620D01*
X133101971Y-55369937D01*
X133102557Y-55308175D01*
X133102625Y-55294000D01*
X133103109Y-55177631D01*
X133103359Y-55081727D01*
X133103277Y-55004177D01*
X133102769Y-54942869D01*
X133101738Y-54895690D01*
X133100087Y-54860530D01*
X133097721Y-54835276D01*
X133094543Y-54817817D01*
X133090456Y-54806041D01*
X133085366Y-54797835D01*
X133079734Y-54791645D01*
X133047872Y-54771844D01*
X133014643Y-54774533D01*
X132983265Y-54796776D01*
X132970567Y-54811126D01*
X132962474Y-54826978D01*
X132957958Y-54849554D01*
X132955994Y-54884078D01*
X132955556Y-54935776D01*
X132955556Y-55051289D01*
X132458845Y-55051289D01*
X132458845Y-54932756D01*
X132458338Y-54878148D01*
X132456302Y-54841275D01*
X132451965Y-54817307D01*
X132444553Y-54801415D01*
X132436267Y-54791645D01*
X132404406Y-54771844D01*
X132371177Y-54774533D01*
X132371177Y-54774533D01*
G37*
X132371177Y-54774533D02*
X132339798Y-54796776D01*
X132312089Y-54824485D01*
X132312089Y-55133920D01*
X132312162Y-55225799D01*
X132312505Y-55297840D01*
X132313308Y-55352780D01*
X132314759Y-55393360D01*
X132317048Y-55422317D01*
X132320364Y-55442391D01*
X132324895Y-55456321D01*
X132330831Y-55466845D01*
X132335486Y-55473100D01*
X132366217Y-55497673D01*
X132401504Y-55500341D01*
X132433755Y-55485271D01*
X132444412Y-55476374D01*
X132451536Y-55464557D01*
X132455833Y-55445526D01*
X132458009Y-55414992D01*
X132458772Y-55368662D01*
X132458845Y-55332871D01*
X132458845Y-55198045D01*
X132955556Y-55198045D01*
X132955556Y-55320700D01*
X132956069Y-55376787D01*
X132958124Y-55415333D01*
X132962492Y-55441361D01*
X132969944Y-55459897D01*
X132978953Y-55473100D01*
X133009856Y-55497604D01*
X133044804Y-55500506D01*
X133078262Y-55483089D01*
X133087396Y-55473959D01*
X133093848Y-55461855D01*
X133098103Y-55443001D01*
X133100648Y-55413620D01*
X133101971Y-55369937D01*
X133102557Y-55308175D01*
X133102625Y-55294000D01*
X133103109Y-55177631D01*
X133103359Y-55081727D01*
X133103277Y-55004177D01*
X133102769Y-54942869D01*
X133101738Y-54895690D01*
X133100087Y-54860530D01*
X133097721Y-54835276D01*
X133094543Y-54817817D01*
X133090456Y-54806041D01*
X133085366Y-54797835D01*
X133079734Y-54791645D01*
X133047872Y-54771844D01*
X133014643Y-54774533D01*
X132983265Y-54796776D01*
X132970567Y-54811126D01*
X132962474Y-54826978D01*
X132957958Y-54849554D01*
X132955994Y-54884078D01*
X132955556Y-54935776D01*
X132955556Y-55051289D01*
X132458845Y-55051289D01*
X132458845Y-54932756D01*
X132458338Y-54878148D01*
X132456302Y-54841275D01*
X132451965Y-54817307D01*
X132444553Y-54801415D01*
X132436267Y-54791645D01*
X132404406Y-54771844D01*
X132371177Y-54774533D01*
G36*
X141546400Y-49989054D02*
X141535535Y-50102993D01*
X141503918Y-50210616D01*
X141453015Y-50309615D01*
X141384293Y-50397684D01*
X141299219Y-50472516D01*
X141202232Y-50530384D01*
X141095964Y-50570005D01*
X140988950Y-50588573D01*
X140883300Y-50587434D01*
X140781125Y-50567930D01*
X140684534Y-50531406D01*
X140595638Y-50479205D01*
X140516546Y-50412673D01*
X140449369Y-50333152D01*
X140396217Y-50241987D01*
X140359199Y-50140523D01*
X140340427Y-50030102D01*
X140338489Y-49980206D01*
X140338489Y-49892267D01*
X140286560Y-49892267D01*
X140250253Y-49895111D01*
X140223355Y-49906911D01*
X140196249Y-49930649D01*
X140157867Y-49969031D01*
X140157867Y-52160602D01*
X140157876Y-52422739D01*
X140157908Y-52663241D01*
X140157972Y-52883048D01*
X140158076Y-53083101D01*
X140158227Y-53264344D01*
X140158434Y-53427716D01*
X140158706Y-53574160D01*
X140159050Y-53704617D01*
X140159474Y-53820029D01*
X140159987Y-53921338D01*
X140160597Y-54009484D01*
X140161312Y-54085410D01*
X140162140Y-54150057D01*
X140163089Y-54204367D01*
X140164167Y-54249280D01*
X140165383Y-54285740D01*
X140166745Y-54314687D01*
X140168261Y-54337063D01*
X140169938Y-54353809D01*
X140171786Y-54365868D01*
X140173813Y-54374180D01*
X140176025Y-54379687D01*
X140177108Y-54381537D01*
X140181271Y-54388549D01*
X140184805Y-54394996D01*
X140188635Y-54400900D01*
X140193682Y-54406286D01*
X140200871Y-54411178D01*
X140211123Y-54415598D01*
X140225364Y-54419572D01*
X140244514Y-54423121D01*
X140269499Y-54426270D01*
X140301240Y-54429042D01*
X140340662Y-54431461D01*
X140388686Y-54433551D01*
X140446237Y-54435335D01*
X140514237Y-54436837D01*
X140593610Y-54438080D01*
X140685279Y-54439089D01*
X140790166Y-54439885D01*
X140909196Y-54440494D01*
X141043290Y-54440939D01*
X141193373Y-54441243D01*
X141360367Y-54441430D01*
X141545196Y-54441524D01*
X141748783Y-54441548D01*
X141972050Y-54441525D01*
X142215922Y-54441480D01*
X142481321Y-54441437D01*
X142519704Y-54441432D01*
X142786682Y-54441389D01*
X143032002Y-54441318D01*
X143256583Y-54441213D01*
X143461345Y-54441066D01*
X143647206Y-54440869D01*
X143815088Y-54440616D01*
X143965908Y-54440300D01*
X144100587Y-54439913D01*
X144220044Y-54439447D01*
X144325199Y-54438897D01*
X144416971Y-54438253D01*
X144496279Y-54437511D01*
X144564043Y-54436661D01*
X144621182Y-54435697D01*
X144668617Y-54434611D01*
X144707266Y-54433397D01*
X144738049Y-54432047D01*
X144761885Y-54430555D01*
X144779694Y-54428911D01*
X144792395Y-54427111D01*
X144800908Y-54425145D01*
X144805266Y-54423477D01*
X144813728Y-54419906D01*
X144821497Y-54417270D01*
X144828602Y-54414634D01*
X144835073Y-54411062D01*
X144840939Y-54405621D01*
X144846229Y-54397375D01*
X144850974Y-54385390D01*
X144855202Y-54368731D01*
X144858943Y-54346463D01*
X144862227Y-54317652D01*
X144865083Y-54281363D01*
X144867540Y-54236661D01*
X144869629Y-54182611D01*
X144871378Y-54118279D01*
X144872817Y-54042730D01*
X144873976Y-53955030D01*
X144874883Y-53854243D01*
X144875569Y-53739434D01*
X144876063Y-53609670D01*
X144876395Y-53464015D01*
X144876593Y-53301535D01*
X144876687Y-53121295D01*
X144876708Y-52922360D01*
X144876685Y-52703796D01*
X144876646Y-52464668D01*
X144876622Y-52204040D01*
X144876622Y-52161889D01*
X144876636Y-51898992D01*
X144876661Y-51657732D01*
X144876671Y-51437165D01*
X144876642Y-51236352D01*
X144876548Y-51054349D01*
X144876362Y-50890216D01*
X144876059Y-50743011D01*
X144875614Y-50611792D01*
X144875034Y-50501867D01*
X144572197Y-50501867D01*
X144532407Y-50559711D01*
X144521236Y-50575479D01*
X144511166Y-50589441D01*
X144502138Y-50602784D01*
X144494097Y-50616693D01*
X144486986Y-50632356D01*
X144480747Y-50650958D01*
X144475325Y-50673686D01*
X144470662Y-50701727D01*
X144466701Y-50736267D01*
X144463385Y-50778492D01*
X144460659Y-50829589D01*
X144458464Y-50890744D01*
X144456745Y-50963144D01*
X144455444Y-51047975D01*
X144454505Y-51146422D01*
X144453870Y-51259674D01*
X144453484Y-51388916D01*
X144453288Y-51535334D01*
X144453227Y-51700116D01*
X144453243Y-51884447D01*
X144453280Y-52089513D01*
X144453289Y-52212133D01*
X144453265Y-52429082D01*
X144453231Y-52624642D01*
X144453243Y-52799999D01*
X144453358Y-52956341D01*
X144453630Y-53094857D01*
X144454118Y-53216734D01*
X144454876Y-53323160D01*
X144455962Y-53415322D01*
X144457431Y-53494409D01*
X144459340Y-53561608D01*
X144461744Y-53618107D01*
X144464701Y-53665093D01*
X144468266Y-53703755D01*
X144472495Y-53735280D01*
X144477446Y-53760855D01*
X144483173Y-53781670D01*
X144489733Y-53798911D01*
X144497183Y-53813765D01*
X144505579Y-53827422D01*
X144514976Y-53841069D01*
X144525432Y-53855893D01*
X144531523Y-53864783D01*
X144570296Y-53922400D01*
X144038732Y-53922400D01*
X143915483Y-53922365D01*
X143812987Y-53922215D01*
X143729420Y-53921878D01*
X143662956Y-53921286D01*
X143611771Y-53920367D01*
X143574041Y-53919051D01*
X143547940Y-53917269D01*
X143531644Y-53914951D01*
X143523328Y-53912026D01*
X143521168Y-53908424D01*
X143523339Y-53904075D01*
X143524535Y-53902645D01*
X143549685Y-53865573D01*
X143575583Y-53812772D01*
X143599192Y-53750770D01*
X143607461Y-53724357D01*
X143612078Y-53706416D01*
X143615979Y-53685355D01*
X143619248Y-53659089D01*
X143621966Y-53625532D01*
X143624215Y-53582599D01*
X143626077Y-53528204D01*
X143627636Y-53460262D01*
X143628972Y-53376688D01*
X143630169Y-53275395D01*
X143631308Y-53154300D01*
X143631685Y-53109600D01*
X143632702Y-52984449D01*
X143633460Y-52880082D01*
X143633903Y-52794707D01*
X143633970Y-52726533D01*
X143633605Y-52673765D01*
X143632748Y-52634614D01*
X143631341Y-52607285D01*
X143629325Y-52589986D01*
X143626643Y-52580926D01*
X143623236Y-52578312D01*
X143619044Y-52580351D01*
X143614571Y-52584667D01*
X143604216Y-52597602D01*
X143582158Y-52626676D01*
X143549957Y-52669759D01*
X143509174Y-52724718D01*
X143461370Y-52789423D01*
X143408105Y-52861742D01*
X143350940Y-52939544D01*
X143291437Y-53020698D01*
X143231155Y-53103072D01*
X143171655Y-53184536D01*
X143114498Y-53262957D01*
X143061245Y-53336204D01*
X143013457Y-53402147D01*
X142972693Y-53458654D01*
X142940516Y-53503593D01*
X142918485Y-53534834D01*
X142913917Y-53541466D01*
X142890996Y-53578369D01*
X142864188Y-53626359D01*
X142838789Y-53675897D01*
X142835568Y-53682577D01*
X142813890Y-53730772D01*
X142801304Y-53768334D01*
X142795574Y-53804160D01*
X142794456Y-53846200D01*
X142795090Y-53922400D01*
X141640651Y-53922400D01*
X141731815Y-53828669D01*
X141778612Y-53778775D01*
X141828899Y-53722295D01*
X141874944Y-53668026D01*
X141895369Y-53642673D01*
X141925807Y-53603128D01*
X141965862Y-53549916D01*
X142014361Y-53484667D01*
X142070135Y-53409011D01*
X142132011Y-53324577D01*
X142198819Y-53232994D01*
X142269387Y-53135892D01*
X142342545Y-53034901D01*
X142417121Y-52931650D01*
X142491944Y-52827768D01*
X142565843Y-52724885D01*
X142637646Y-52624631D01*
X142706184Y-52528636D01*
X142770284Y-52438527D01*
X142828775Y-52355936D01*
X142880486Y-52282492D01*
X142924247Y-52219824D01*
X142958885Y-52169561D01*
X142983230Y-52133334D01*
X142996111Y-52112771D01*
X142997869Y-52108668D01*
X142989910Y-52097342D01*
X142969115Y-52070162D01*
X142936847Y-52028829D01*
X142894470Y-51975044D01*
X142843347Y-51910506D01*
X142784841Y-51836918D01*
X142720314Y-51755978D01*
X142651131Y-51669388D01*
X142578653Y-51578848D01*
X142504246Y-51486060D01*
X142444517Y-51411702D01*
X141433511Y-51411702D01*
X141427602Y-51424659D01*
X141413272Y-51446908D01*
X141412225Y-51448391D01*
X141393438Y-51478544D01*
X141373791Y-51515375D01*
X141369892Y-51523511D01*
X141366356Y-51531940D01*
X141363230Y-51542059D01*
X141360486Y-51555260D01*
X141358092Y-51572938D01*
X141356019Y-51596484D01*
X141354235Y-51627293D01*
X141352712Y-51666757D01*
X141351419Y-51716269D01*
X141350326Y-51777223D01*
X141349403Y-51851011D01*
X141348619Y-51939028D01*
X141347945Y-52042665D01*
X141347350Y-52163316D01*
X141346805Y-52302374D01*
X141346279Y-52461232D01*
X141345745Y-52640089D01*
X141345206Y-52825207D01*
X141344772Y-52989145D01*
X141344509Y-53133303D01*
X141344484Y-53259079D01*
X141344765Y-53367871D01*
X141345419Y-53461077D01*
X141346514Y-53540097D01*
X141348118Y-53606328D01*
X141350297Y-53661170D01*
X141353119Y-53706021D01*
X141356651Y-53742278D01*
X141360961Y-53771341D01*
X141366117Y-53794609D01*
X141372185Y-53813479D01*
X141379233Y-53829351D01*
X141387329Y-53843622D01*
X141396540Y-53857691D01*
X141405040Y-53870158D01*
X141422176Y-53896452D01*
X141432322Y-53914037D01*
X141433511Y-53917257D01*
X141422604Y-53918334D01*
X141391411Y-53919335D01*
X141342223Y-53920235D01*
X141277333Y-53921010D01*
X141199030Y-53921637D01*
X141109607Y-53922091D01*
X141011356Y-53922349D01*
X140942445Y-53922400D01*
X140837452Y-53922180D01*
X140740610Y-53921548D01*
X140654107Y-53920549D01*
X140580132Y-53919227D01*
X140520874Y-53917626D01*
X140478520Y-53915791D01*
X140455260Y-53913765D01*
X140451378Y-53912493D01*
X140459076Y-53897591D01*
X140467074Y-53889560D01*
X140480246Y-53872434D01*
X140497485Y-53842183D01*
X140509407Y-53817622D01*
X140536045Y-53758711D01*
X140539120Y-52581845D01*
X140542195Y-51404978D01*
X140987853Y-51404978D01*
X141085670Y-51405142D01*
X141176064Y-51405611D01*
X141256630Y-51406347D01*
X141324962Y-51407316D01*
X141378656Y-51408480D01*
X141415305Y-51409803D01*
X141432504Y-51411249D01*
X141433511Y-51411702D01*
X142444517Y-51411702D01*
X142429270Y-51392722D01*
X142355090Y-51300537D01*
X142283069Y-51211204D01*
X142214569Y-51126424D01*
X142150955Y-51047898D01*
X142093588Y-50977326D01*
X142043833Y-50916409D01*
X142003052Y-50866847D01*
X141985888Y-50846178D01*
X141899596Y-50745516D01*
X141822997Y-50662259D01*
X141754183Y-50594438D01*
X141691248Y-50540089D01*
X141681867Y-50532722D01*
X141642356Y-50502117D01*
X142774116Y-50501867D01*
X142768827Y-50549844D01*
X142772130Y-50607188D01*
X142793661Y-50675463D01*
X142833635Y-50755212D01*
X142878943Y-50827495D01*
X142895161Y-50850140D01*
X142923214Y-50887696D01*
X142961430Y-50938021D01*
X143008137Y-50998973D01*
X143061661Y-51068411D01*
X143120331Y-51144194D01*
X143182475Y-51224180D01*
X143246421Y-51306228D01*
X143310495Y-51388196D01*
X143373027Y-51467943D01*
X143432343Y-51543327D01*
X143486771Y-51612207D01*
X143534639Y-51672442D01*
X143574275Y-51721889D01*
X143604006Y-51758408D01*
X143622161Y-51779858D01*
X143625220Y-51783156D01*
X143628079Y-51775149D01*
X143630293Y-51744855D01*
X143631857Y-51692556D01*
X143632767Y-51618531D01*
X143633020Y-51523063D01*
X143632613Y-51406434D01*
X143631704Y-51286445D01*
X143630382Y-51154333D01*
X143628857Y-51042594D01*
X143626881Y-50949025D01*
X143624206Y-50871419D01*
X143620582Y-50807574D01*
X143615761Y-50755283D01*
X143609494Y-50712344D01*
X143601532Y-50676551D01*
X143591627Y-50645700D01*
X143579531Y-50617586D01*
X143564993Y-50590005D01*
X143550311Y-50564966D01*
X143512314Y-50501867D01*
X144572197Y-50501867D01*
X144875034Y-50501867D01*
X144875001Y-50495617D01*
X144874195Y-50393544D01*
X144873170Y-50304633D01*
X144871900Y-50227941D01*
X144870360Y-50162527D01*
X144868524Y-50107449D01*
X144866367Y-50061765D01*
X144863863Y-50024534D01*
X144860987Y-49994813D01*
X144857713Y-49971662D01*
X144854015Y-49954139D01*
X144849869Y-49941301D01*
X144845247Y-49932208D01*
X144840126Y-49925918D01*
X144834478Y-49921488D01*
X144828279Y-49917978D01*
X144821504Y-49914445D01*
X144815508Y-49910876D01*
X144810275Y-49908300D01*
X144802099Y-49905972D01*
X144789886Y-49903878D01*
X144772541Y-49902007D01*
X144748969Y-49900347D01*
X144718077Y-49898884D01*
X144678768Y-49897608D01*
X144629950Y-49896504D01*
X144570527Y-49895561D01*
X144499404Y-49894767D01*
X144415488Y-49894109D01*
X144317683Y-49893575D01*
X144204894Y-49893153D01*
X144076029Y-49892829D01*
X143929991Y-49892592D01*
X143765686Y-49892430D01*
X143582020Y-49892330D01*
X143377897Y-49892280D01*
X143166753Y-49892267D01*
X141546400Y-49892267D01*
X141546400Y-49989054D01*
X141546400Y-49989054D01*
G37*
X141546400Y-49989054D02*
X141535535Y-50102993D01*
X141503918Y-50210616D01*
X141453015Y-50309615D01*
X141384293Y-50397684D01*
X141299219Y-50472516D01*
X141202232Y-50530384D01*
X141095964Y-50570005D01*
X140988950Y-50588573D01*
X140883300Y-50587434D01*
X140781125Y-50567930D01*
X140684534Y-50531406D01*
X140595638Y-50479205D01*
X140516546Y-50412673D01*
X140449369Y-50333152D01*
X140396217Y-50241987D01*
X140359199Y-50140523D01*
X140340427Y-50030102D01*
X140338489Y-49980206D01*
X140338489Y-49892267D01*
X140286560Y-49892267D01*
X140250253Y-49895111D01*
X140223355Y-49906911D01*
X140196249Y-49930649D01*
X140157867Y-49969031D01*
X140157867Y-52160602D01*
X140157876Y-52422739D01*
X140157908Y-52663241D01*
X140157972Y-52883048D01*
X140158076Y-53083101D01*
X140158227Y-53264344D01*
X140158434Y-53427716D01*
X140158706Y-53574160D01*
X140159050Y-53704617D01*
X140159474Y-53820029D01*
X140159987Y-53921338D01*
X140160597Y-54009484D01*
X140161312Y-54085410D01*
X140162140Y-54150057D01*
X140163089Y-54204367D01*
X140164167Y-54249280D01*
X140165383Y-54285740D01*
X140166745Y-54314687D01*
X140168261Y-54337063D01*
X140169938Y-54353809D01*
X140171786Y-54365868D01*
X140173813Y-54374180D01*
X140176025Y-54379687D01*
X140177108Y-54381537D01*
X140181271Y-54388549D01*
X140184805Y-54394996D01*
X140188635Y-54400900D01*
X140193682Y-54406286D01*
X140200871Y-54411178D01*
X140211123Y-54415598D01*
X140225364Y-54419572D01*
X140244514Y-54423121D01*
X140269499Y-54426270D01*
X140301240Y-54429042D01*
X140340662Y-54431461D01*
X140388686Y-54433551D01*
X140446237Y-54435335D01*
X140514237Y-54436837D01*
X140593610Y-54438080D01*
X140685279Y-54439089D01*
X140790166Y-54439885D01*
X140909196Y-54440494D01*
X141043290Y-54440939D01*
X141193373Y-54441243D01*
X141360367Y-54441430D01*
X141545196Y-54441524D01*
X141748783Y-54441548D01*
X141972050Y-54441525D01*
X142215922Y-54441480D01*
X142481321Y-54441437D01*
X142519704Y-54441432D01*
X142786682Y-54441389D01*
X143032002Y-54441318D01*
X143256583Y-54441213D01*
X143461345Y-54441066D01*
X143647206Y-54440869D01*
X143815088Y-54440616D01*
X143965908Y-54440300D01*
X144100587Y-54439913D01*
X144220044Y-54439447D01*
X144325199Y-54438897D01*
X144416971Y-54438253D01*
X144496279Y-54437511D01*
X144564043Y-54436661D01*
X144621182Y-54435697D01*
X144668617Y-54434611D01*
X144707266Y-54433397D01*
X144738049Y-54432047D01*
X144761885Y-54430555D01*
X144779694Y-54428911D01*
X144792395Y-54427111D01*
X144800908Y-54425145D01*
X144805266Y-54423477D01*
X144813728Y-54419906D01*
X144821497Y-54417270D01*
X144828602Y-54414634D01*
X144835073Y-54411062D01*
X144840939Y-54405621D01*
X144846229Y-54397375D01*
X144850974Y-54385390D01*
X144855202Y-54368731D01*
X144858943Y-54346463D01*
X144862227Y-54317652D01*
X144865083Y-54281363D01*
X144867540Y-54236661D01*
X144869629Y-54182611D01*
X144871378Y-54118279D01*
X144872817Y-54042730D01*
X144873976Y-53955030D01*
X144874883Y-53854243D01*
X144875569Y-53739434D01*
X144876063Y-53609670D01*
X144876395Y-53464015D01*
X144876593Y-53301535D01*
X144876687Y-53121295D01*
X144876708Y-52922360D01*
X144876685Y-52703796D01*
X144876646Y-52464668D01*
X144876622Y-52204040D01*
X144876622Y-52161889D01*
X144876636Y-51898992D01*
X144876661Y-51657732D01*
X144876671Y-51437165D01*
X144876642Y-51236352D01*
X144876548Y-51054349D01*
X144876362Y-50890216D01*
X144876059Y-50743011D01*
X144875614Y-50611792D01*
X144875034Y-50501867D01*
X144572197Y-50501867D01*
X144532407Y-50559711D01*
X144521236Y-50575479D01*
X144511166Y-50589441D01*
X144502138Y-50602784D01*
X144494097Y-50616693D01*
X144486986Y-50632356D01*
X144480747Y-50650958D01*
X144475325Y-50673686D01*
X144470662Y-50701727D01*
X144466701Y-50736267D01*
X144463385Y-50778492D01*
X144460659Y-50829589D01*
X144458464Y-50890744D01*
X144456745Y-50963144D01*
X144455444Y-51047975D01*
X144454505Y-51146422D01*
X144453870Y-51259674D01*
X144453484Y-51388916D01*
X144453288Y-51535334D01*
X144453227Y-51700116D01*
X144453243Y-51884447D01*
X144453280Y-52089513D01*
X144453289Y-52212133D01*
X144453265Y-52429082D01*
X144453231Y-52624642D01*
X144453243Y-52799999D01*
X144453358Y-52956341D01*
X144453630Y-53094857D01*
X144454118Y-53216734D01*
X144454876Y-53323160D01*
X144455962Y-53415322D01*
X144457431Y-53494409D01*
X144459340Y-53561608D01*
X144461744Y-53618107D01*
X144464701Y-53665093D01*
X144468266Y-53703755D01*
X144472495Y-53735280D01*
X144477446Y-53760855D01*
X144483173Y-53781670D01*
X144489733Y-53798911D01*
X144497183Y-53813765D01*
X144505579Y-53827422D01*
X144514976Y-53841069D01*
X144525432Y-53855893D01*
X144531523Y-53864783D01*
X144570296Y-53922400D01*
X144038732Y-53922400D01*
X143915483Y-53922365D01*
X143812987Y-53922215D01*
X143729420Y-53921878D01*
X143662956Y-53921286D01*
X143611771Y-53920367D01*
X143574041Y-53919051D01*
X143547940Y-53917269D01*
X143531644Y-53914951D01*
X143523328Y-53912026D01*
X143521168Y-53908424D01*
X143523339Y-53904075D01*
X143524535Y-53902645D01*
X143549685Y-53865573D01*
X143575583Y-53812772D01*
X143599192Y-53750770D01*
X143607461Y-53724357D01*
X143612078Y-53706416D01*
X143615979Y-53685355D01*
X143619248Y-53659089D01*
X143621966Y-53625532D01*
X143624215Y-53582599D01*
X143626077Y-53528204D01*
X143627636Y-53460262D01*
X143628972Y-53376688D01*
X143630169Y-53275395D01*
X143631308Y-53154300D01*
X143631685Y-53109600D01*
X143632702Y-52984449D01*
X143633460Y-52880082D01*
X143633903Y-52794707D01*
X143633970Y-52726533D01*
X143633605Y-52673765D01*
X143632748Y-52634614D01*
X143631341Y-52607285D01*
X143629325Y-52589986D01*
X143626643Y-52580926D01*
X143623236Y-52578312D01*
X143619044Y-52580351D01*
X143614571Y-52584667D01*
X143604216Y-52597602D01*
X143582158Y-52626676D01*
X143549957Y-52669759D01*
X143509174Y-52724718D01*
X143461370Y-52789423D01*
X143408105Y-52861742D01*
X143350940Y-52939544D01*
X143291437Y-53020698D01*
X143231155Y-53103072D01*
X143171655Y-53184536D01*
X143114498Y-53262957D01*
X143061245Y-53336204D01*
X143013457Y-53402147D01*
X142972693Y-53458654D01*
X142940516Y-53503593D01*
X142918485Y-53534834D01*
X142913917Y-53541466D01*
X142890996Y-53578369D01*
X142864188Y-53626359D01*
X142838789Y-53675897D01*
X142835568Y-53682577D01*
X142813890Y-53730772D01*
X142801304Y-53768334D01*
X142795574Y-53804160D01*
X142794456Y-53846200D01*
X142795090Y-53922400D01*
X141640651Y-53922400D01*
X141731815Y-53828669D01*
X141778612Y-53778775D01*
X141828899Y-53722295D01*
X141874944Y-53668026D01*
X141895369Y-53642673D01*
X141925807Y-53603128D01*
X141965862Y-53549916D01*
X142014361Y-53484667D01*
X142070135Y-53409011D01*
X142132011Y-53324577D01*
X142198819Y-53232994D01*
X142269387Y-53135892D01*
X142342545Y-53034901D01*
X142417121Y-52931650D01*
X142491944Y-52827768D01*
X142565843Y-52724885D01*
X142637646Y-52624631D01*
X142706184Y-52528636D01*
X142770284Y-52438527D01*
X142828775Y-52355936D01*
X142880486Y-52282492D01*
X142924247Y-52219824D01*
X142958885Y-52169561D01*
X142983230Y-52133334D01*
X142996111Y-52112771D01*
X142997869Y-52108668D01*
X142989910Y-52097342D01*
X142969115Y-52070162D01*
X142936847Y-52028829D01*
X142894470Y-51975044D01*
X142843347Y-51910506D01*
X142784841Y-51836918D01*
X142720314Y-51755978D01*
X142651131Y-51669388D01*
X142578653Y-51578848D01*
X142504246Y-51486060D01*
X142444517Y-51411702D01*
X141433511Y-51411702D01*
X141427602Y-51424659D01*
X141413272Y-51446908D01*
X141412225Y-51448391D01*
X141393438Y-51478544D01*
X141373791Y-51515375D01*
X141369892Y-51523511D01*
X141366356Y-51531940D01*
X141363230Y-51542059D01*
X141360486Y-51555260D01*
X141358092Y-51572938D01*
X141356019Y-51596484D01*
X141354235Y-51627293D01*
X141352712Y-51666757D01*
X141351419Y-51716269D01*
X141350326Y-51777223D01*
X141349403Y-51851011D01*
X141348619Y-51939028D01*
X141347945Y-52042665D01*
X141347350Y-52163316D01*
X141346805Y-52302374D01*
X141346279Y-52461232D01*
X141345745Y-52640089D01*
X141345206Y-52825207D01*
X141344772Y-52989145D01*
X141344509Y-53133303D01*
X141344484Y-53259079D01*
X141344765Y-53367871D01*
X141345419Y-53461077D01*
X141346514Y-53540097D01*
X141348118Y-53606328D01*
X141350297Y-53661170D01*
X141353119Y-53706021D01*
X141356651Y-53742278D01*
X141360961Y-53771341D01*
X141366117Y-53794609D01*
X141372185Y-53813479D01*
X141379233Y-53829351D01*
X141387329Y-53843622D01*
X141396540Y-53857691D01*
X141405040Y-53870158D01*
X141422176Y-53896452D01*
X141432322Y-53914037D01*
X141433511Y-53917257D01*
X141422604Y-53918334D01*
X141391411Y-53919335D01*
X141342223Y-53920235D01*
X141277333Y-53921010D01*
X141199030Y-53921637D01*
X141109607Y-53922091D01*
X141011356Y-53922349D01*
X140942445Y-53922400D01*
X140837452Y-53922180D01*
X140740610Y-53921548D01*
X140654107Y-53920549D01*
X140580132Y-53919227D01*
X140520874Y-53917626D01*
X140478520Y-53915791D01*
X140455260Y-53913765D01*
X140451378Y-53912493D01*
X140459076Y-53897591D01*
X140467074Y-53889560D01*
X140480246Y-53872434D01*
X140497485Y-53842183D01*
X140509407Y-53817622D01*
X140536045Y-53758711D01*
X140539120Y-52581845D01*
X140542195Y-51404978D01*
X140987853Y-51404978D01*
X141085670Y-51405142D01*
X141176064Y-51405611D01*
X141256630Y-51406347D01*
X141324962Y-51407316D01*
X141378656Y-51408480D01*
X141415305Y-51409803D01*
X141432504Y-51411249D01*
X141433511Y-51411702D01*
X142444517Y-51411702D01*
X142429270Y-51392722D01*
X142355090Y-51300537D01*
X142283069Y-51211204D01*
X142214569Y-51126424D01*
X142150955Y-51047898D01*
X142093588Y-50977326D01*
X142043833Y-50916409D01*
X142003052Y-50866847D01*
X141985888Y-50846178D01*
X141899596Y-50745516D01*
X141822997Y-50662259D01*
X141754183Y-50594438D01*
X141691248Y-50540089D01*
X141681867Y-50532722D01*
X141642356Y-50502117D01*
X142774116Y-50501867D01*
X142768827Y-50549844D01*
X142772130Y-50607188D01*
X142793661Y-50675463D01*
X142833635Y-50755212D01*
X142878943Y-50827495D01*
X142895161Y-50850140D01*
X142923214Y-50887696D01*
X142961430Y-50938021D01*
X143008137Y-50998973D01*
X143061661Y-51068411D01*
X143120331Y-51144194D01*
X143182475Y-51224180D01*
X143246421Y-51306228D01*
X143310495Y-51388196D01*
X143373027Y-51467943D01*
X143432343Y-51543327D01*
X143486771Y-51612207D01*
X143534639Y-51672442D01*
X143574275Y-51721889D01*
X143604006Y-51758408D01*
X143622161Y-51779858D01*
X143625220Y-51783156D01*
X143628079Y-51775149D01*
X143630293Y-51744855D01*
X143631857Y-51692556D01*
X143632767Y-51618531D01*
X143633020Y-51523063D01*
X143632613Y-51406434D01*
X143631704Y-51286445D01*
X143630382Y-51154333D01*
X143628857Y-51042594D01*
X143626881Y-50949025D01*
X143624206Y-50871419D01*
X143620582Y-50807574D01*
X143615761Y-50755283D01*
X143609494Y-50712344D01*
X143601532Y-50676551D01*
X143591627Y-50645700D01*
X143579531Y-50617586D01*
X143564993Y-50590005D01*
X143550311Y-50564966D01*
X143512314Y-50501867D01*
X144572197Y-50501867D01*
X144875034Y-50501867D01*
X144875001Y-50495617D01*
X144874195Y-50393544D01*
X144873170Y-50304633D01*
X144871900Y-50227941D01*
X144870360Y-50162527D01*
X144868524Y-50107449D01*
X144866367Y-50061765D01*
X144863863Y-50024534D01*
X144860987Y-49994813D01*
X144857713Y-49971662D01*
X144854015Y-49954139D01*
X144849869Y-49941301D01*
X144845247Y-49932208D01*
X144840126Y-49925918D01*
X144834478Y-49921488D01*
X144828279Y-49917978D01*
X144821504Y-49914445D01*
X144815508Y-49910876D01*
X144810275Y-49908300D01*
X144802099Y-49905972D01*
X144789886Y-49903878D01*
X144772541Y-49902007D01*
X144748969Y-49900347D01*
X144718077Y-49898884D01*
X144678768Y-49897608D01*
X144629950Y-49896504D01*
X144570527Y-49895561D01*
X144499404Y-49894767D01*
X144415488Y-49894109D01*
X144317683Y-49893575D01*
X144204894Y-49893153D01*
X144076029Y-49892829D01*
X143929991Y-49892592D01*
X143765686Y-49892430D01*
X143582020Y-49892330D01*
X143377897Y-49892280D01*
X143166753Y-49892267D01*
X141546400Y-49892267D01*
X141546400Y-49989054D01*
G36*
X138271571Y-50449071D02*
X138111430Y-50470245D01*
X137947490Y-50510385D01*
X137777687Y-50569889D01*
X137599957Y-50649154D01*
X137588690Y-50654699D01*
X137530995Y-50682725D01*
X137479448Y-50706802D01*
X137437809Y-50725249D01*
X137409838Y-50736386D01*
X137400267Y-50738933D01*
X137381050Y-50743941D01*
X137376439Y-50748147D01*
X137381542Y-50758580D01*
X137397582Y-50784868D01*
X137422712Y-50824257D01*
X137455086Y-50873991D01*
X137492857Y-50931315D01*
X137534178Y-50993476D01*
X137577202Y-51057718D01*
X137620083Y-51121285D01*
X137660974Y-51181425D01*
X137698029Y-51235380D01*
X137729400Y-51280397D01*
X137753241Y-51313721D01*
X137767706Y-51332597D01*
X137769691Y-51334787D01*
X137779809Y-51330138D01*
X137802150Y-51312962D01*
X137832720Y-51286440D01*
X137848464Y-51271964D01*
X137944953Y-51196682D01*
X138051664Y-51141241D01*
X138167168Y-51106141D01*
X138290038Y-51091880D01*
X138359439Y-51093051D01*
X138480577Y-51110212D01*
X138589795Y-51146094D01*
X138687418Y-51200959D01*
X138773772Y-51275070D01*
X138849185Y-51368688D01*
X138913982Y-51482076D01*
X138951399Y-51568667D01*
X138995252Y-51704366D01*
X139027572Y-51851850D01*
X139048443Y-52007314D01*
X139057949Y-52166956D01*
X139056173Y-52326973D01*
X139043197Y-52483561D01*
X139019106Y-52632918D01*
X138983982Y-52771240D01*
X138937908Y-52894724D01*
X138921627Y-52928978D01*
X138853380Y-53043064D01*
X138772921Y-53139557D01*
X138681430Y-53217670D01*
X138580089Y-53276617D01*
X138470080Y-53315612D01*
X138352585Y-53333868D01*
X138311117Y-53335211D01*
X138189559Y-53324290D01*
X138069122Y-53291474D01*
X137951334Y-53237439D01*
X137837723Y-53162865D01*
X137746315Y-53084539D01*
X137699785Y-53040008D01*
X137518517Y-53337271D01*
X137473420Y-53411433D01*
X137432181Y-53479646D01*
X137396265Y-53539459D01*
X137367134Y-53588420D01*
X137346250Y-53624079D01*
X137335076Y-53643984D01*
X137333625Y-53647079D01*
X137341854Y-53656718D01*
X137367433Y-53673999D01*
X137407127Y-53697283D01*
X137457703Y-53724934D01*
X137515926Y-53755315D01*
X137578563Y-53786790D01*
X137642379Y-53817722D01*
X137704140Y-53846473D01*
X137760612Y-53871408D01*
X137808562Y-53890889D01*
X137832014Y-53899318D01*
X137965779Y-53937133D01*
X138103673Y-53962136D01*
X138251378Y-53975140D01*
X138378167Y-53977468D01*
X138446122Y-53976373D01*
X138511723Y-53974275D01*
X138569153Y-53971434D01*
X138612597Y-53968106D01*
X138626702Y-53966422D01*
X138765716Y-53937587D01*
X138907243Y-53892468D01*
X139044725Y-53833750D01*
X139171606Y-53764120D01*
X139249111Y-53711441D01*
X139376519Y-53603239D01*
X139494822Y-53476671D01*
X139601828Y-53334866D01*
X139695348Y-53180951D01*
X139773190Y-53018053D01*
X139817044Y-52900756D01*
X139867292Y-52717128D01*
X139900791Y-52522581D01*
X139917551Y-52321325D01*
X139917584Y-52117568D01*
X139900899Y-51915521D01*
X139867507Y-51719392D01*
X139817420Y-51533391D01*
X139813603Y-51521803D01*
X139750719Y-51359750D01*
X139673972Y-51211832D01*
X139580758Y-51073865D01*
X139468473Y-50941661D01*
X139424608Y-50896399D01*
X139288466Y-50772457D01*
X139148509Y-50669915D01*
X139002589Y-50587656D01*
X138848558Y-50524564D01*
X138684268Y-50479523D01*
X138588711Y-50462033D01*
X138429977Y-50446466D01*
X138271571Y-50449071D01*
X138271571Y-50449071D01*
G37*
X138271571Y-50449071D02*
X138111430Y-50470245D01*
X137947490Y-50510385D01*
X137777687Y-50569889D01*
X137599957Y-50649154D01*
X137588690Y-50654699D01*
X137530995Y-50682725D01*
X137479448Y-50706802D01*
X137437809Y-50725249D01*
X137409838Y-50736386D01*
X137400267Y-50738933D01*
X137381050Y-50743941D01*
X137376439Y-50748147D01*
X137381542Y-50758580D01*
X137397582Y-50784868D01*
X137422712Y-50824257D01*
X137455086Y-50873991D01*
X137492857Y-50931315D01*
X137534178Y-50993476D01*
X137577202Y-51057718D01*
X137620083Y-51121285D01*
X137660974Y-51181425D01*
X137698029Y-51235380D01*
X137729400Y-51280397D01*
X137753241Y-51313721D01*
X137767706Y-51332597D01*
X137769691Y-51334787D01*
X137779809Y-51330138D01*
X137802150Y-51312962D01*
X137832720Y-51286440D01*
X137848464Y-51271964D01*
X137944953Y-51196682D01*
X138051664Y-51141241D01*
X138167168Y-51106141D01*
X138290038Y-51091880D01*
X138359439Y-51093051D01*
X138480577Y-51110212D01*
X138589795Y-51146094D01*
X138687418Y-51200959D01*
X138773772Y-51275070D01*
X138849185Y-51368688D01*
X138913982Y-51482076D01*
X138951399Y-51568667D01*
X138995252Y-51704366D01*
X139027572Y-51851850D01*
X139048443Y-52007314D01*
X139057949Y-52166956D01*
X139056173Y-52326973D01*
X139043197Y-52483561D01*
X139019106Y-52632918D01*
X138983982Y-52771240D01*
X138937908Y-52894724D01*
X138921627Y-52928978D01*
X138853380Y-53043064D01*
X138772921Y-53139557D01*
X138681430Y-53217670D01*
X138580089Y-53276617D01*
X138470080Y-53315612D01*
X138352585Y-53333868D01*
X138311117Y-53335211D01*
X138189559Y-53324290D01*
X138069122Y-53291474D01*
X137951334Y-53237439D01*
X137837723Y-53162865D01*
X137746315Y-53084539D01*
X137699785Y-53040008D01*
X137518517Y-53337271D01*
X137473420Y-53411433D01*
X137432181Y-53479646D01*
X137396265Y-53539459D01*
X137367134Y-53588420D01*
X137346250Y-53624079D01*
X137335076Y-53643984D01*
X137333625Y-53647079D01*
X137341854Y-53656718D01*
X137367433Y-53673999D01*
X137407127Y-53697283D01*
X137457703Y-53724934D01*
X137515926Y-53755315D01*
X137578563Y-53786790D01*
X137642379Y-53817722D01*
X137704140Y-53846473D01*
X137760612Y-53871408D01*
X137808562Y-53890889D01*
X137832014Y-53899318D01*
X137965779Y-53937133D01*
X138103673Y-53962136D01*
X138251378Y-53975140D01*
X138378167Y-53977468D01*
X138446122Y-53976373D01*
X138511723Y-53974275D01*
X138569153Y-53971434D01*
X138612597Y-53968106D01*
X138626702Y-53966422D01*
X138765716Y-53937587D01*
X138907243Y-53892468D01*
X139044725Y-53833750D01*
X139171606Y-53764120D01*
X139249111Y-53711441D01*
X139376519Y-53603239D01*
X139494822Y-53476671D01*
X139601828Y-53334866D01*
X139695348Y-53180951D01*
X139773190Y-53018053D01*
X139817044Y-52900756D01*
X139867292Y-52717128D01*
X139900791Y-52522581D01*
X139917551Y-52321325D01*
X139917584Y-52117568D01*
X139900899Y-51915521D01*
X139867507Y-51719392D01*
X139817420Y-51533391D01*
X139813603Y-51521803D01*
X139750719Y-51359750D01*
X139673972Y-51211832D01*
X139580758Y-51073865D01*
X139468473Y-50941661D01*
X139424608Y-50896399D01*
X139288466Y-50772457D01*
X139148509Y-50669915D01*
X139002589Y-50587656D01*
X138848558Y-50524564D01*
X138684268Y-50479523D01*
X138588711Y-50462033D01*
X138429977Y-50446466D01*
X138271571Y-50449071D01*
G36*
X135926426Y-51366552D02*
X135774508Y-51386567D01*
X135639244Y-51420202D01*
X135519761Y-51467725D01*
X135415185Y-51529405D01*
X135337576Y-51592965D01*
X135268735Y-51667099D01*
X135214994Y-51746871D01*
X135172090Y-51839091D01*
X135156616Y-51882161D01*
X135143756Y-51921142D01*
X135132554Y-51957289D01*
X135122880Y-51992434D01*
X135114604Y-52028410D01*
X135107597Y-52067050D01*
X135101728Y-52110185D01*
X135096869Y-52159649D01*
X135092890Y-52217273D01*
X135089660Y-52284891D01*
X135087051Y-52364334D01*
X135084933Y-52457436D01*
X135083176Y-52566027D01*
X135081651Y-52691942D01*
X135080228Y-52837012D01*
X135078975Y-52979778D01*
X135077649Y-53135968D01*
X135076444Y-53271239D01*
X135075234Y-53387246D01*
X135073894Y-53485645D01*
X135072300Y-53568093D01*
X135070325Y-53636246D01*
X135067844Y-53691760D01*
X135064731Y-53736292D01*
X135060862Y-53771498D01*
X135056111Y-53799034D01*
X135050352Y-53820556D01*
X135043461Y-53837722D01*
X135035311Y-53852186D01*
X135025777Y-53865606D01*
X135014734Y-53879638D01*
X135010434Y-53885071D01*
X134994614Y-53907910D01*
X134987578Y-53923463D01*
X134987556Y-53923922D01*
X134998433Y-53926121D01*
X135029418Y-53928147D01*
X135078043Y-53929942D01*
X135141837Y-53931451D01*
X135218331Y-53932616D01*
X135305056Y-53933380D01*
X135399543Y-53933686D01*
X135410450Y-53933689D01*
X135833343Y-53933689D01*
X135836605Y-53837622D01*
X135839867Y-53741556D01*
X135901956Y-53792543D01*
X135999286Y-53860057D01*
X136109187Y-53914749D01*
X136195651Y-53944978D01*
X136264722Y-53959666D01*
X136348075Y-53969659D01*
X136437841Y-53974646D01*
X136526155Y-53974313D01*
X136605149Y-53968351D01*
X136641378Y-53962638D01*
X136781397Y-53924776D01*
X136907822Y-53869932D01*
X137019740Y-53798924D01*
X137116238Y-53712568D01*
X137196400Y-53611679D01*
X137259313Y-53497076D01*
X137303688Y-53370984D01*
X137316022Y-53314401D01*
X137323632Y-53252202D01*
X137327261Y-53177363D01*
X137327755Y-53143467D01*
X137327690Y-53140282D01*
X136567752Y-53140282D01*
X136558459Y-53215333D01*
X136530272Y-53279160D01*
X136481803Y-53334798D01*
X136476746Y-53339211D01*
X136428452Y-53374037D01*
X136376743Y-53396620D01*
X136316011Y-53408540D01*
X136240648Y-53411383D01*
X136222541Y-53410978D01*
X136168722Y-53408325D01*
X136128692Y-53402909D01*
X136093676Y-53392745D01*
X136054897Y-53375850D01*
X136044255Y-53370672D01*
X135983604Y-53334844D01*
X135936785Y-53292212D01*
X135924048Y-53276973D01*
X135879378Y-53220462D01*
X135879378Y-53024586D01*
X135879914Y-52945939D01*
X135881604Y-52887988D01*
X135884572Y-52848875D01*
X135888943Y-52826741D01*
X135893028Y-52820274D01*
X135908953Y-52817111D01*
X135942736Y-52814488D01*
X135989660Y-52812655D01*
X136045007Y-52811857D01*
X136053894Y-52811842D01*
X136174670Y-52817096D01*
X136277340Y-52833263D01*
X136363894Y-52860961D01*
X136436319Y-52900808D01*
X136491249Y-52947758D01*
X136535796Y-53005645D01*
X136560520Y-53068693D01*
X136567752Y-53140282D01*
X137327690Y-53140282D01*
X137325822Y-53049712D01*
X137317478Y-52970812D01*
X137301232Y-52899590D01*
X137275595Y-52828864D01*
X137251599Y-52776493D01*
X137192980Y-52681196D01*
X137114883Y-52593170D01*
X137019685Y-52514017D01*
X136909762Y-52445340D01*
X136787490Y-52388741D01*
X136655245Y-52345821D01*
X136590578Y-52330882D01*
X136454396Y-52308777D01*
X136305951Y-52294194D01*
X136154495Y-52287813D01*
X136027936Y-52289445D01*
X135866050Y-52296224D01*
X135873470Y-52237245D01*
X135892762Y-52138092D01*
X135923896Y-52057372D01*
X135967731Y-51994466D01*
X136025129Y-51948756D01*
X136096952Y-51919622D01*
X136184059Y-51906447D01*
X136287314Y-51908611D01*
X136325289Y-51912612D01*
X136466480Y-51937780D01*
X136603293Y-51978814D01*
X136697822Y-52016815D01*
X136742982Y-52036190D01*
X136781415Y-52051760D01*
X136807766Y-52061405D01*
X136815454Y-52063452D01*
X136825198Y-52054374D01*
X136841917Y-52025405D01*
X136865768Y-51976217D01*
X136896907Y-51906484D01*
X136935493Y-51815879D01*
X136942090Y-51800089D01*
X136972147Y-51727772D01*
X136999126Y-51662425D01*
X137021864Y-51606906D01*
X137039194Y-51564072D01*
X137049952Y-51536781D01*
X137053059Y-51527942D01*
X137043060Y-51523187D01*
X137016783Y-51517910D01*
X136988511Y-51514231D01*
X136958354Y-51509474D01*
X136910567Y-51500028D01*
X136849388Y-51486820D01*
X136779054Y-51470776D01*
X136703806Y-51452820D01*
X136675245Y-51445797D01*
X136570184Y-51420209D01*
X136482520Y-51400147D01*
X136407932Y-51384969D01*
X136342097Y-51374035D01*
X136280693Y-51366704D01*
X136219398Y-51362335D01*
X136153890Y-51360287D01*
X136095872Y-51359889D01*
X135926426Y-51366552D01*
X135926426Y-51366552D01*
G37*
X135926426Y-51366552D02*
X135774508Y-51386567D01*
X135639244Y-51420202D01*
X135519761Y-51467725D01*
X135415185Y-51529405D01*
X135337576Y-51592965D01*
X135268735Y-51667099D01*
X135214994Y-51746871D01*
X135172090Y-51839091D01*
X135156616Y-51882161D01*
X135143756Y-51921142D01*
X135132554Y-51957289D01*
X135122880Y-51992434D01*
X135114604Y-52028410D01*
X135107597Y-52067050D01*
X135101728Y-52110185D01*
X135096869Y-52159649D01*
X135092890Y-52217273D01*
X135089660Y-52284891D01*
X135087051Y-52364334D01*
X135084933Y-52457436D01*
X135083176Y-52566027D01*
X135081651Y-52691942D01*
X135080228Y-52837012D01*
X135078975Y-52979778D01*
X135077649Y-53135968D01*
X135076444Y-53271239D01*
X135075234Y-53387246D01*
X135073894Y-53485645D01*
X135072300Y-53568093D01*
X135070325Y-53636246D01*
X135067844Y-53691760D01*
X135064731Y-53736292D01*
X135060862Y-53771498D01*
X135056111Y-53799034D01*
X135050352Y-53820556D01*
X135043461Y-53837722D01*
X135035311Y-53852186D01*
X135025777Y-53865606D01*
X135014734Y-53879638D01*
X135010434Y-53885071D01*
X134994614Y-53907910D01*
X134987578Y-53923463D01*
X134987556Y-53923922D01*
X134998433Y-53926121D01*
X135029418Y-53928147D01*
X135078043Y-53929942D01*
X135141837Y-53931451D01*
X135218331Y-53932616D01*
X135305056Y-53933380D01*
X135399543Y-53933686D01*
X135410450Y-53933689D01*
X135833343Y-53933689D01*
X135836605Y-53837622D01*
X135839867Y-53741556D01*
X135901956Y-53792543D01*
X135999286Y-53860057D01*
X136109187Y-53914749D01*
X136195651Y-53944978D01*
X136264722Y-53959666D01*
X136348075Y-53969659D01*
X136437841Y-53974646D01*
X136526155Y-53974313D01*
X136605149Y-53968351D01*
X136641378Y-53962638D01*
X136781397Y-53924776D01*
X136907822Y-53869932D01*
X137019740Y-53798924D01*
X137116238Y-53712568D01*
X137196400Y-53611679D01*
X137259313Y-53497076D01*
X137303688Y-53370984D01*
X137316022Y-53314401D01*
X137323632Y-53252202D01*
X137327261Y-53177363D01*
X137327755Y-53143467D01*
X137327690Y-53140282D01*
X136567752Y-53140282D01*
X136558459Y-53215333D01*
X136530272Y-53279160D01*
X136481803Y-53334798D01*
X136476746Y-53339211D01*
X136428452Y-53374037D01*
X136376743Y-53396620D01*
X136316011Y-53408540D01*
X136240648Y-53411383D01*
X136222541Y-53410978D01*
X136168722Y-53408325D01*
X136128692Y-53402909D01*
X136093676Y-53392745D01*
X136054897Y-53375850D01*
X136044255Y-53370672D01*
X135983604Y-53334844D01*
X135936785Y-53292212D01*
X135924048Y-53276973D01*
X135879378Y-53220462D01*
X135879378Y-53024586D01*
X135879914Y-52945939D01*
X135881604Y-52887988D01*
X135884572Y-52848875D01*
X135888943Y-52826741D01*
X135893028Y-52820274D01*
X135908953Y-52817111D01*
X135942736Y-52814488D01*
X135989660Y-52812655D01*
X136045007Y-52811857D01*
X136053894Y-52811842D01*
X136174670Y-52817096D01*
X136277340Y-52833263D01*
X136363894Y-52860961D01*
X136436319Y-52900808D01*
X136491249Y-52947758D01*
X136535796Y-53005645D01*
X136560520Y-53068693D01*
X136567752Y-53140282D01*
X137327690Y-53140282D01*
X137325822Y-53049712D01*
X137317478Y-52970812D01*
X137301232Y-52899590D01*
X137275595Y-52828864D01*
X137251599Y-52776493D01*
X137192980Y-52681196D01*
X137114883Y-52593170D01*
X137019685Y-52514017D01*
X136909762Y-52445340D01*
X136787490Y-52388741D01*
X136655245Y-52345821D01*
X136590578Y-52330882D01*
X136454396Y-52308777D01*
X136305951Y-52294194D01*
X136154495Y-52287813D01*
X136027936Y-52289445D01*
X135866050Y-52296224D01*
X135873470Y-52237245D01*
X135892762Y-52138092D01*
X135923896Y-52057372D01*
X135967731Y-51994466D01*
X136025129Y-51948756D01*
X136096952Y-51919622D01*
X136184059Y-51906447D01*
X136287314Y-51908611D01*
X136325289Y-51912612D01*
X136466480Y-51937780D01*
X136603293Y-51978814D01*
X136697822Y-52016815D01*
X136742982Y-52036190D01*
X136781415Y-52051760D01*
X136807766Y-52061405D01*
X136815454Y-52063452D01*
X136825198Y-52054374D01*
X136841917Y-52025405D01*
X136865768Y-51976217D01*
X136896907Y-51906484D01*
X136935493Y-51815879D01*
X136942090Y-51800089D01*
X136972147Y-51727772D01*
X136999126Y-51662425D01*
X137021864Y-51606906D01*
X137039194Y-51564072D01*
X137049952Y-51536781D01*
X137053059Y-51527942D01*
X137043060Y-51523187D01*
X137016783Y-51517910D01*
X136988511Y-51514231D01*
X136958354Y-51509474D01*
X136910567Y-51500028D01*
X136849388Y-51486820D01*
X136779054Y-51470776D01*
X136703806Y-51452820D01*
X136675245Y-51445797D01*
X136570184Y-51420209D01*
X136482520Y-51400147D01*
X136407932Y-51384969D01*
X136342097Y-51374035D01*
X136280693Y-51366704D01*
X136219398Y-51362335D01*
X136153890Y-51360287D01*
X136095872Y-51359889D01*
X135926426Y-51366552D01*
G36*
X132413493Y-51972245D02*
X132413474Y-52206662D01*
X132413448Y-52419603D01*
X132413375Y-52612168D01*
X132413218Y-52785459D01*
X132412936Y-52940576D01*
X132412491Y-53078620D01*
X132411844Y-53200692D01*
X132410955Y-53307894D01*
X132409787Y-53401326D01*
X132408299Y-53482090D01*
X132406454Y-53551286D01*
X132404211Y-53610015D01*
X132401531Y-53659379D01*
X132398377Y-53700478D01*
X132394708Y-53734413D01*
X132390487Y-53762286D01*
X132385673Y-53785198D01*
X132380227Y-53804249D01*
X132374112Y-53820540D01*
X132367288Y-53835173D01*
X132359715Y-53849249D01*
X132351355Y-53863868D01*
X132346161Y-53872974D01*
X132311896Y-53933689D01*
X133170045Y-53933689D01*
X133170045Y-53837733D01*
X133170776Y-53794370D01*
X133172728Y-53761205D01*
X133175537Y-53743424D01*
X133176779Y-53741778D01*
X133188201Y-53748662D01*
X133210916Y-53766505D01*
X133233615Y-53785879D01*
X133288200Y-53826614D01*
X133357679Y-53867617D01*
X133434730Y-53905123D01*
X133512035Y-53935364D01*
X133542887Y-53945012D01*
X133611384Y-53959578D01*
X133694236Y-53969539D01*
X133783629Y-53974583D01*
X133871752Y-53974396D01*
X133950793Y-53968666D01*
X133988489Y-53962858D01*
X134126586Y-53924797D01*
X134253887Y-53867073D01*
X134369708Y-53790211D01*
X134473363Y-53694739D01*
X134564167Y-53581179D01*
X134630969Y-53470381D01*
X134685836Y-53353625D01*
X134727837Y-53234276D01*
X134757833Y-53108283D01*
X134776689Y-52971594D01*
X134785268Y-52820158D01*
X134785994Y-52742711D01*
X134783900Y-52685934D01*
X133954783Y-52685934D01*
X133954576Y-52779002D01*
X133951663Y-52866692D01*
X133946000Y-52943772D01*
X133937545Y-53005009D01*
X133934962Y-53017350D01*
X133903160Y-53124633D01*
X133861502Y-53211658D01*
X133809637Y-53278642D01*
X133747219Y-53325805D01*
X133673900Y-53353365D01*
X133589331Y-53361541D01*
X133493165Y-53350551D01*
X133429689Y-53334829D01*
X133380546Y-53316639D01*
X133326417Y-53290791D01*
X133285756Y-53267089D01*
X133215200Y-53220721D01*
X133215200Y-52070530D01*
X133282608Y-52026962D01*
X133361133Y-51986040D01*
X133445319Y-51959389D01*
X133530443Y-51947465D01*
X133611784Y-51950722D01*
X133684620Y-51969615D01*
X133716574Y-51985184D01*
X133774499Y-52028181D01*
X133823456Y-52084953D01*
X133864610Y-52157575D01*
X133899126Y-52248121D01*
X133928167Y-52358666D01*
X133929448Y-52364533D01*
X133939619Y-52426788D01*
X133947261Y-52504594D01*
X133952330Y-52592720D01*
X133954783Y-52685934D01*
X134783900Y-52685934D01*
X134778143Y-52529895D01*
X134756198Y-52334059D01*
X134720214Y-52155332D01*
X134670241Y-51993845D01*
X134606332Y-51849726D01*
X134528538Y-51723106D01*
X134436911Y-51614115D01*
X134331503Y-51522883D01*
X134286338Y-51491932D01*
X134185389Y-51435785D01*
X134082099Y-51396174D01*
X133972011Y-51372014D01*
X133850670Y-51362219D01*
X133758164Y-51363265D01*
X133628510Y-51374231D01*
X133515916Y-51396046D01*
X133417125Y-51429714D01*
X133328879Y-51476236D01*
X133280014Y-51510448D01*
X133250647Y-51532362D01*
X133228957Y-51547333D01*
X133220747Y-51551733D01*
X133219132Y-51540904D01*
X133217841Y-51510251D01*
X133216862Y-51462526D01*
X133216183Y-51400479D01*
X133215790Y-51326862D01*
X133215670Y-51244427D01*
X133215812Y-51155925D01*
X133216203Y-51064107D01*
X133216829Y-50971724D01*
X133217680Y-50881528D01*
X133218740Y-50796271D01*
X133219999Y-50718703D01*
X133221444Y-50651576D01*
X133223062Y-50597641D01*
X133224839Y-50559650D01*
X133225331Y-50552667D01*
X133232908Y-50482251D01*
X133244469Y-50427102D01*
X133262208Y-50379981D01*
X133288318Y-50333647D01*
X133294585Y-50324067D01*
X133319017Y-50287378D01*
X132413689Y-50287378D01*
X132413493Y-51972245D01*
X132413493Y-51972245D01*
G37*
X132413493Y-51972245D02*
X132413474Y-52206662D01*
X132413448Y-52419603D01*
X132413375Y-52612168D01*
X132413218Y-52785459D01*
X132412936Y-52940576D01*
X132412491Y-53078620D01*
X132411844Y-53200692D01*
X132410955Y-53307894D01*
X132409787Y-53401326D01*
X132408299Y-53482090D01*
X132406454Y-53551286D01*
X132404211Y-53610015D01*
X132401531Y-53659379D01*
X132398377Y-53700478D01*
X132394708Y-53734413D01*
X132390487Y-53762286D01*
X132385673Y-53785198D01*
X132380227Y-53804249D01*
X132374112Y-53820540D01*
X132367288Y-53835173D01*
X132359715Y-53849249D01*
X132351355Y-53863868D01*
X132346161Y-53872974D01*
X132311896Y-53933689D01*
X133170045Y-53933689D01*
X133170045Y-53837733D01*
X133170776Y-53794370D01*
X133172728Y-53761205D01*
X133175537Y-53743424D01*
X133176779Y-53741778D01*
X133188201Y-53748662D01*
X133210916Y-53766505D01*
X133233615Y-53785879D01*
X133288200Y-53826614D01*
X133357679Y-53867617D01*
X133434730Y-53905123D01*
X133512035Y-53935364D01*
X133542887Y-53945012D01*
X133611384Y-53959578D01*
X133694236Y-53969539D01*
X133783629Y-53974583D01*
X133871752Y-53974396D01*
X133950793Y-53968666D01*
X133988489Y-53962858D01*
X134126586Y-53924797D01*
X134253887Y-53867073D01*
X134369708Y-53790211D01*
X134473363Y-53694739D01*
X134564167Y-53581179D01*
X134630969Y-53470381D01*
X134685836Y-53353625D01*
X134727837Y-53234276D01*
X134757833Y-53108283D01*
X134776689Y-52971594D01*
X134785268Y-52820158D01*
X134785994Y-52742711D01*
X134783900Y-52685934D01*
X133954783Y-52685934D01*
X133954576Y-52779002D01*
X133951663Y-52866692D01*
X133946000Y-52943772D01*
X133937545Y-53005009D01*
X133934962Y-53017350D01*
X133903160Y-53124633D01*
X133861502Y-53211658D01*
X133809637Y-53278642D01*
X133747219Y-53325805D01*
X133673900Y-53353365D01*
X133589331Y-53361541D01*
X133493165Y-53350551D01*
X133429689Y-53334829D01*
X133380546Y-53316639D01*
X133326417Y-53290791D01*
X133285756Y-53267089D01*
X133215200Y-53220721D01*
X133215200Y-52070530D01*
X133282608Y-52026962D01*
X133361133Y-51986040D01*
X133445319Y-51959389D01*
X133530443Y-51947465D01*
X133611784Y-51950722D01*
X133684620Y-51969615D01*
X133716574Y-51985184D01*
X133774499Y-52028181D01*
X133823456Y-52084953D01*
X133864610Y-52157575D01*
X133899126Y-52248121D01*
X133928167Y-52358666D01*
X133929448Y-52364533D01*
X133939619Y-52426788D01*
X133947261Y-52504594D01*
X133952330Y-52592720D01*
X133954783Y-52685934D01*
X134783900Y-52685934D01*
X134778143Y-52529895D01*
X134756198Y-52334059D01*
X134720214Y-52155332D01*
X134670241Y-51993845D01*
X134606332Y-51849726D01*
X134528538Y-51723106D01*
X134436911Y-51614115D01*
X134331503Y-51522883D01*
X134286338Y-51491932D01*
X134185389Y-51435785D01*
X134082099Y-51396174D01*
X133972011Y-51372014D01*
X133850670Y-51362219D01*
X133758164Y-51363265D01*
X133628510Y-51374231D01*
X133515916Y-51396046D01*
X133417125Y-51429714D01*
X133328879Y-51476236D01*
X133280014Y-51510448D01*
X133250647Y-51532362D01*
X133228957Y-51547333D01*
X133220747Y-51551733D01*
X133219132Y-51540904D01*
X133217841Y-51510251D01*
X133216862Y-51462526D01*
X133216183Y-51400479D01*
X133215790Y-51326862D01*
X133215670Y-51244427D01*
X133215812Y-51155925D01*
X133216203Y-51064107D01*
X133216829Y-50971724D01*
X133217680Y-50881528D01*
X133218740Y-50796271D01*
X133219999Y-50718703D01*
X133221444Y-50651576D01*
X133223062Y-50597641D01*
X133224839Y-50559650D01*
X133225331Y-50552667D01*
X133232908Y-50482251D01*
X133244469Y-50427102D01*
X133262208Y-50379981D01*
X133288318Y-50333647D01*
X133294585Y-50324067D01*
X133319017Y-50287378D01*
X132413689Y-50287378D01*
X132413493Y-51972245D01*
G36*
X140873043Y-49526571D02*
X140776768Y-49550809D01*
X140690184Y-49593641D01*
X140615373Y-49653419D01*
X140554418Y-49728494D01*
X140509399Y-49817220D01*
X140483136Y-49913530D01*
X140477286Y-50010795D01*
X140492140Y-50104654D01*
X140525840Y-50192511D01*
X140576528Y-50271770D01*
X140642345Y-50339836D01*
X140721434Y-50394112D01*
X140811934Y-50432002D01*
X140863200Y-50444426D01*
X140907698Y-50451947D01*
X140941999Y-50454919D01*
X140974960Y-50453094D01*
X141015434Y-50446225D01*
X141048531Y-50439250D01*
X141141947Y-50407741D01*
X141225619Y-50356617D01*
X141297665Y-50287429D01*
X141356200Y-50201728D01*
X141370148Y-50174489D01*
X141386586Y-50138122D01*
X141396894Y-50107582D01*
X141402460Y-50075450D01*
X141404669Y-50034307D01*
X141404948Y-49988222D01*
X141400861Y-49903865D01*
X141387446Y-49834586D01*
X141362256Y-49773961D01*
X141322846Y-49715567D01*
X141284298Y-49671302D01*
X141212406Y-49605484D01*
X141137313Y-49560053D01*
X141054562Y-49532850D01*
X140976928Y-49522576D01*
X140873043Y-49526571D01*
X140873043Y-49526571D01*
G37*
X140873043Y-49526571D02*
X140776768Y-49550809D01*
X140690184Y-49593641D01*
X140615373Y-49653419D01*
X140554418Y-49728494D01*
X140509399Y-49817220D01*
X140483136Y-49913530D01*
X140477286Y-50010795D01*
X140492140Y-50104654D01*
X140525840Y-50192511D01*
X140576528Y-50271770D01*
X140642345Y-50339836D01*
X140721434Y-50394112D01*
X140811934Y-50432002D01*
X140863200Y-50444426D01*
X140907698Y-50451947D01*
X140941999Y-50454919D01*
X140974960Y-50453094D01*
X141015434Y-50446225D01*
X141048531Y-50439250D01*
X141141947Y-50407741D01*
X141225619Y-50356617D01*
X141297665Y-50287429D01*
X141356200Y-50201728D01*
X141370148Y-50174489D01*
X141386586Y-50138122D01*
X141396894Y-50107582D01*
X141402460Y-50075450D01*
X141404669Y-50034307D01*
X141404948Y-49988222D01*
X141400861Y-49903865D01*
X141387446Y-49834586D01*
X141362256Y-49773961D01*
X141322846Y-49715567D01*
X141284298Y-49671302D01*
X141212406Y-49605484D01*
X141137313Y-49560053D01*
X141054562Y-49532850D01*
X140976928Y-49522576D01*
X140873043Y-49526571D01*
D16*
G36*
X110813840Y-54445360D02*
X110788440Y-54430120D01*
X110730020Y-54394560D01*
X110646200Y-54338680D01*
X110547140Y-54272640D01*
X110448080Y-54206600D01*
X110366800Y-54153260D01*
X110310920Y-54115160D01*
X110285520Y-54102460D01*
X110272820Y-54107540D01*
X110227100Y-54130400D01*
X110158520Y-54165960D01*
X110117880Y-54186280D01*
X110056920Y-54211680D01*
X110023900Y-54219300D01*
X110018820Y-54209140D01*
X109995960Y-54160880D01*
X109960400Y-54079600D01*
X109914680Y-53970380D01*
X109858800Y-53843380D01*
X109802920Y-53708760D01*
X109744500Y-53569060D01*
X109688620Y-53434440D01*
X109640360Y-53315060D01*
X109599720Y-53218540D01*
X109574320Y-53149960D01*
X109564160Y-53122020D01*
X109566700Y-53114400D01*
X109599720Y-53083920D01*
X109653060Y-53043280D01*
X109772440Y-52946760D01*
X109889280Y-52801980D01*
X109960400Y-52636880D01*
X109983260Y-52451460D01*
X109962940Y-52281280D01*
X109896900Y-52118720D01*
X109782600Y-51971400D01*
X109642900Y-51862180D01*
X109480340Y-51793600D01*
X109300000Y-51770740D01*
X109127280Y-51791060D01*
X108959640Y-51857100D01*
X108812320Y-51968860D01*
X108748820Y-52039980D01*
X108662460Y-52189840D01*
X108614200Y-52347320D01*
X108609120Y-52387960D01*
X108616740Y-52563220D01*
X108667540Y-52733400D01*
X108761520Y-52883260D01*
X108891060Y-53007720D01*
X108906300Y-53017880D01*
X108964720Y-53063600D01*
X109005360Y-53094080D01*
X109035840Y-53119480D01*
X108812320Y-53657960D01*
X108776760Y-53741780D01*
X108715800Y-53889100D01*
X108662460Y-54016100D01*
X108619280Y-54117700D01*
X108588800Y-54183740D01*
X108576100Y-54211680D01*
X108576100Y-54214220D01*
X108555780Y-54216760D01*
X108515140Y-54201520D01*
X108438940Y-54165960D01*
X108390680Y-54140560D01*
X108332260Y-54112620D01*
X108306860Y-54102460D01*
X108284000Y-54115160D01*
X108230660Y-54150720D01*
X108149380Y-54204060D01*
X108052860Y-54267560D01*
X107961420Y-54331060D01*
X107877600Y-54386940D01*
X107816640Y-54425040D01*
X107786160Y-54442820D01*
X107781080Y-54442820D01*
X107755680Y-54427580D01*
X107707420Y-54386940D01*
X107633760Y-54318360D01*
X107529620Y-54214220D01*
X107514380Y-54198980D01*
X107428020Y-54112620D01*
X107359440Y-54038960D01*
X107313720Y-53988160D01*
X107295940Y-53965300D01*
X107295940Y-53965300D01*
X107311180Y-53934820D01*
X107349280Y-53873860D01*
X107405160Y-53787500D01*
X107473740Y-53688440D01*
X107651540Y-53429360D01*
X107555020Y-53185520D01*
X107524540Y-53109320D01*
X107486440Y-53020420D01*
X107458500Y-52954380D01*
X107443260Y-52926440D01*
X107417860Y-52916280D01*
X107349280Y-52901040D01*
X107252760Y-52880720D01*
X107138460Y-52860400D01*
X107026700Y-52840080D01*
X106927640Y-52819760D01*
X106856520Y-52807060D01*
X106823500Y-52799440D01*
X106815880Y-52794360D01*
X106808260Y-52779120D01*
X106805720Y-52746100D01*
X106803180Y-52685140D01*
X106800640Y-52591160D01*
X106800640Y-52451460D01*
X106800640Y-52436220D01*
X106803180Y-52306680D01*
X106805720Y-52200000D01*
X106808260Y-52133960D01*
X106813340Y-52106020D01*
X106813340Y-52106020D01*
X106843820Y-52098400D01*
X106914940Y-52083160D01*
X107014000Y-52065380D01*
X107133380Y-52042520D01*
X107141000Y-52039980D01*
X107257840Y-52017120D01*
X107356900Y-51996800D01*
X107428020Y-51981560D01*
X107455960Y-51971400D01*
X107463580Y-51963780D01*
X107486440Y-51918060D01*
X107519460Y-51844400D01*
X107560100Y-51755500D01*
X107598200Y-51661520D01*
X107631220Y-51577700D01*
X107654080Y-51516740D01*
X107661700Y-51488800D01*
X107659160Y-51486260D01*
X107641380Y-51458320D01*
X107600740Y-51397360D01*
X107544860Y-51313540D01*
X107476280Y-51211940D01*
X107471200Y-51204320D01*
X107402620Y-51105260D01*
X107346740Y-51018900D01*
X107311180Y-50960480D01*
X107295940Y-50932540D01*
X107295940Y-50930000D01*
X107318800Y-50899520D01*
X107369600Y-50843640D01*
X107443260Y-50767440D01*
X107529620Y-50678540D01*
X107557560Y-50653140D01*
X107656620Y-50556620D01*
X107722660Y-50495660D01*
X107765840Y-50462640D01*
X107786160Y-50455020D01*
X107786160Y-50455020D01*
X107816640Y-50472800D01*
X107880140Y-50513440D01*
X107963960Y-50571860D01*
X108065560Y-50640440D01*
X108073180Y-50645520D01*
X108172240Y-50714100D01*
X108256060Y-50769980D01*
X108314480Y-50810620D01*
X108342420Y-50825860D01*
X108344960Y-50825860D01*
X108385600Y-50813160D01*
X108456720Y-50787760D01*
X108545620Y-50754740D01*
X108637060Y-50716640D01*
X108720880Y-50681080D01*
X108784380Y-50653140D01*
X108814860Y-50635360D01*
X108814860Y-50635360D01*
X108825020Y-50599800D01*
X108842800Y-50523600D01*
X108863120Y-50422000D01*
X108888520Y-50300080D01*
X108891060Y-50279760D01*
X108913920Y-50160380D01*
X108931700Y-50061320D01*
X108946940Y-49992740D01*
X108954560Y-49964800D01*
X108969800Y-49962260D01*
X109028220Y-49957180D01*
X109117120Y-49954640D01*
X109226340Y-49954640D01*
X109338100Y-49954640D01*
X109447320Y-49957180D01*
X109541300Y-49959720D01*
X109609880Y-49964800D01*
X109637820Y-49969880D01*
X109637820Y-49972420D01*
X109647980Y-50010520D01*
X109665760Y-50084180D01*
X109686080Y-50188320D01*
X109708940Y-50310240D01*
X109714020Y-50333100D01*
X109736880Y-50449940D01*
X109757200Y-50549000D01*
X109769900Y-50615040D01*
X109777520Y-50642980D01*
X109790220Y-50648060D01*
X109838480Y-50668380D01*
X109917220Y-50701400D01*
X110016280Y-50742040D01*
X110244880Y-50833480D01*
X110526820Y-50642980D01*
X110552220Y-50625200D01*
X110653820Y-50556620D01*
X110735100Y-50500740D01*
X110793520Y-50462640D01*
X110816380Y-50449940D01*
X110818920Y-50449940D01*
X110846860Y-50475340D01*
X110902740Y-50528680D01*
X110978940Y-50602340D01*
X111067840Y-50688700D01*
X111131340Y-50754740D01*
X111210080Y-50833480D01*
X111258340Y-50886820D01*
X111286280Y-50919840D01*
X111293900Y-50940160D01*
X111291360Y-50955400D01*
X111273580Y-50983340D01*
X111232940Y-51044300D01*
X111174520Y-51130660D01*
X111105940Y-51229720D01*
X111050060Y-51313540D01*
X110989100Y-51407520D01*
X110951000Y-51473560D01*
X110935760Y-51506580D01*
X110940840Y-51519280D01*
X110958620Y-51575160D01*
X110994180Y-51658980D01*
X111034820Y-51758040D01*
X111133880Y-51979020D01*
X111278660Y-52006960D01*
X111367560Y-52024740D01*
X111489480Y-52047600D01*
X111608860Y-52070460D01*
X111791740Y-52106020D01*
X111799360Y-52781660D01*
X111771420Y-52794360D01*
X111743480Y-52801980D01*
X111674900Y-52817220D01*
X111578380Y-52837540D01*
X111461540Y-52857860D01*
X111365020Y-52875640D01*
X111265960Y-52895960D01*
X111194840Y-52908660D01*
X111164360Y-52916280D01*
X111154200Y-52926440D01*
X111131340Y-52974700D01*
X111095780Y-53050900D01*
X111055140Y-53142340D01*
X111017040Y-53236320D01*
X110981480Y-53325220D01*
X110958620Y-53391260D01*
X110948460Y-53424280D01*
X110961160Y-53452220D01*
X110999260Y-53510640D01*
X111052600Y-53591920D01*
X111121180Y-53690980D01*
X111187220Y-53787500D01*
X111245640Y-53871320D01*
X111283740Y-53932280D01*
X111301520Y-53960220D01*
X111291360Y-53978000D01*
X111253260Y-54026260D01*
X111179600Y-54102460D01*
X111067840Y-54211680D01*
X111050060Y-54229460D01*
X110963700Y-54313280D01*
X110890040Y-54381860D01*
X110836700Y-54427580D01*
X110813840Y-54445360D01*
X110813840Y-54445360D01*
G37*
X110813840Y-54445360D02*
X110788440Y-54430120D01*
X110730020Y-54394560D01*
X110646200Y-54338680D01*
X110547140Y-54272640D01*
X110448080Y-54206600D01*
X110366800Y-54153260D01*
X110310920Y-54115160D01*
X110285520Y-54102460D01*
X110272820Y-54107540D01*
X110227100Y-54130400D01*
X110158520Y-54165960D01*
X110117880Y-54186280D01*
X110056920Y-54211680D01*
X110023900Y-54219300D01*
X110018820Y-54209140D01*
X109995960Y-54160880D01*
X109960400Y-54079600D01*
X109914680Y-53970380D01*
X109858800Y-53843380D01*
X109802920Y-53708760D01*
X109744500Y-53569060D01*
X109688620Y-53434440D01*
X109640360Y-53315060D01*
X109599720Y-53218540D01*
X109574320Y-53149960D01*
X109564160Y-53122020D01*
X109566700Y-53114400D01*
X109599720Y-53083920D01*
X109653060Y-53043280D01*
X109772440Y-52946760D01*
X109889280Y-52801980D01*
X109960400Y-52636880D01*
X109983260Y-52451460D01*
X109962940Y-52281280D01*
X109896900Y-52118720D01*
X109782600Y-51971400D01*
X109642900Y-51862180D01*
X109480340Y-51793600D01*
X109300000Y-51770740D01*
X109127280Y-51791060D01*
X108959640Y-51857100D01*
X108812320Y-51968860D01*
X108748820Y-52039980D01*
X108662460Y-52189840D01*
X108614200Y-52347320D01*
X108609120Y-52387960D01*
X108616740Y-52563220D01*
X108667540Y-52733400D01*
X108761520Y-52883260D01*
X108891060Y-53007720D01*
X108906300Y-53017880D01*
X108964720Y-53063600D01*
X109005360Y-53094080D01*
X109035840Y-53119480D01*
X108812320Y-53657960D01*
X108776760Y-53741780D01*
X108715800Y-53889100D01*
X108662460Y-54016100D01*
X108619280Y-54117700D01*
X108588800Y-54183740D01*
X108576100Y-54211680D01*
X108576100Y-54214220D01*
X108555780Y-54216760D01*
X108515140Y-54201520D01*
X108438940Y-54165960D01*
X108390680Y-54140560D01*
X108332260Y-54112620D01*
X108306860Y-54102460D01*
X108284000Y-54115160D01*
X108230660Y-54150720D01*
X108149380Y-54204060D01*
X108052860Y-54267560D01*
X107961420Y-54331060D01*
X107877600Y-54386940D01*
X107816640Y-54425040D01*
X107786160Y-54442820D01*
X107781080Y-54442820D01*
X107755680Y-54427580D01*
X107707420Y-54386940D01*
X107633760Y-54318360D01*
X107529620Y-54214220D01*
X107514380Y-54198980D01*
X107428020Y-54112620D01*
X107359440Y-54038960D01*
X107313720Y-53988160D01*
X107295940Y-53965300D01*
X107295940Y-53965300D01*
X107311180Y-53934820D01*
X107349280Y-53873860D01*
X107405160Y-53787500D01*
X107473740Y-53688440D01*
X107651540Y-53429360D01*
X107555020Y-53185520D01*
X107524540Y-53109320D01*
X107486440Y-53020420D01*
X107458500Y-52954380D01*
X107443260Y-52926440D01*
X107417860Y-52916280D01*
X107349280Y-52901040D01*
X107252760Y-52880720D01*
X107138460Y-52860400D01*
X107026700Y-52840080D01*
X106927640Y-52819760D01*
X106856520Y-52807060D01*
X106823500Y-52799440D01*
X106815880Y-52794360D01*
X106808260Y-52779120D01*
X106805720Y-52746100D01*
X106803180Y-52685140D01*
X106800640Y-52591160D01*
X106800640Y-52451460D01*
X106800640Y-52436220D01*
X106803180Y-52306680D01*
X106805720Y-52200000D01*
X106808260Y-52133960D01*
X106813340Y-52106020D01*
X106813340Y-52106020D01*
X106843820Y-52098400D01*
X106914940Y-52083160D01*
X107014000Y-52065380D01*
X107133380Y-52042520D01*
X107141000Y-52039980D01*
X107257840Y-52017120D01*
X107356900Y-51996800D01*
X107428020Y-51981560D01*
X107455960Y-51971400D01*
X107463580Y-51963780D01*
X107486440Y-51918060D01*
X107519460Y-51844400D01*
X107560100Y-51755500D01*
X107598200Y-51661520D01*
X107631220Y-51577700D01*
X107654080Y-51516740D01*
X107661700Y-51488800D01*
X107659160Y-51486260D01*
X107641380Y-51458320D01*
X107600740Y-51397360D01*
X107544860Y-51313540D01*
X107476280Y-51211940D01*
X107471200Y-51204320D01*
X107402620Y-51105260D01*
X107346740Y-51018900D01*
X107311180Y-50960480D01*
X107295940Y-50932540D01*
X107295940Y-50930000D01*
X107318800Y-50899520D01*
X107369600Y-50843640D01*
X107443260Y-50767440D01*
X107529620Y-50678540D01*
X107557560Y-50653140D01*
X107656620Y-50556620D01*
X107722660Y-50495660D01*
X107765840Y-50462640D01*
X107786160Y-50455020D01*
X107786160Y-50455020D01*
X107816640Y-50472800D01*
X107880140Y-50513440D01*
X107963960Y-50571860D01*
X108065560Y-50640440D01*
X108073180Y-50645520D01*
X108172240Y-50714100D01*
X108256060Y-50769980D01*
X108314480Y-50810620D01*
X108342420Y-50825860D01*
X108344960Y-50825860D01*
X108385600Y-50813160D01*
X108456720Y-50787760D01*
X108545620Y-50754740D01*
X108637060Y-50716640D01*
X108720880Y-50681080D01*
X108784380Y-50653140D01*
X108814860Y-50635360D01*
X108814860Y-50635360D01*
X108825020Y-50599800D01*
X108842800Y-50523600D01*
X108863120Y-50422000D01*
X108888520Y-50300080D01*
X108891060Y-50279760D01*
X108913920Y-50160380D01*
X108931700Y-50061320D01*
X108946940Y-49992740D01*
X108954560Y-49964800D01*
X108969800Y-49962260D01*
X109028220Y-49957180D01*
X109117120Y-49954640D01*
X109226340Y-49954640D01*
X109338100Y-49954640D01*
X109447320Y-49957180D01*
X109541300Y-49959720D01*
X109609880Y-49964800D01*
X109637820Y-49969880D01*
X109637820Y-49972420D01*
X109647980Y-50010520D01*
X109665760Y-50084180D01*
X109686080Y-50188320D01*
X109708940Y-50310240D01*
X109714020Y-50333100D01*
X109736880Y-50449940D01*
X109757200Y-50549000D01*
X109769900Y-50615040D01*
X109777520Y-50642980D01*
X109790220Y-50648060D01*
X109838480Y-50668380D01*
X109917220Y-50701400D01*
X110016280Y-50742040D01*
X110244880Y-50833480D01*
X110526820Y-50642980D01*
X110552220Y-50625200D01*
X110653820Y-50556620D01*
X110735100Y-50500740D01*
X110793520Y-50462640D01*
X110816380Y-50449940D01*
X110818920Y-50449940D01*
X110846860Y-50475340D01*
X110902740Y-50528680D01*
X110978940Y-50602340D01*
X111067840Y-50688700D01*
X111131340Y-50754740D01*
X111210080Y-50833480D01*
X111258340Y-50886820D01*
X111286280Y-50919840D01*
X111293900Y-50940160D01*
X111291360Y-50955400D01*
X111273580Y-50983340D01*
X111232940Y-51044300D01*
X111174520Y-51130660D01*
X111105940Y-51229720D01*
X111050060Y-51313540D01*
X110989100Y-51407520D01*
X110951000Y-51473560D01*
X110935760Y-51506580D01*
X110940840Y-51519280D01*
X110958620Y-51575160D01*
X110994180Y-51658980D01*
X111034820Y-51758040D01*
X111133880Y-51979020D01*
X111278660Y-52006960D01*
X111367560Y-52024740D01*
X111489480Y-52047600D01*
X111608860Y-52070460D01*
X111791740Y-52106020D01*
X111799360Y-52781660D01*
X111771420Y-52794360D01*
X111743480Y-52801980D01*
X111674900Y-52817220D01*
X111578380Y-52837540D01*
X111461540Y-52857860D01*
X111365020Y-52875640D01*
X111265960Y-52895960D01*
X111194840Y-52908660D01*
X111164360Y-52916280D01*
X111154200Y-52926440D01*
X111131340Y-52974700D01*
X111095780Y-53050900D01*
X111055140Y-53142340D01*
X111017040Y-53236320D01*
X110981480Y-53325220D01*
X110958620Y-53391260D01*
X110948460Y-53424280D01*
X110961160Y-53452220D01*
X110999260Y-53510640D01*
X111052600Y-53591920D01*
X111121180Y-53690980D01*
X111187220Y-53787500D01*
X111245640Y-53871320D01*
X111283740Y-53932280D01*
X111301520Y-53960220D01*
X111291360Y-53978000D01*
X111253260Y-54026260D01*
X111179600Y-54102460D01*
X111067840Y-54211680D01*
X111050060Y-54229460D01*
X110963700Y-54313280D01*
X110890040Y-54381860D01*
X110836700Y-54427580D01*
X110813840Y-54445360D01*
D12*
X104466666Y-53907143D02*
X104514285Y-53954762D01*
X104657142Y-54002381D01*
X104752380Y-54002381D01*
X104895238Y-53954762D01*
X104990476Y-53859524D01*
X105038095Y-53764286D01*
X105085714Y-53573810D01*
X105085714Y-53430952D01*
X105038095Y-53240476D01*
X104990476Y-53145238D01*
X104895238Y-53050000D01*
X104752380Y-53002381D01*
X104657142Y-53002381D01*
X104514285Y-53050000D01*
X104466666Y-53097619D01*
X103514285Y-54002381D02*
X104085714Y-54002381D01*
X103800000Y-54002381D02*
X103800000Y-53002381D01*
X103895238Y-53145238D01*
X103990476Y-53240476D01*
X104085714Y-53288095D01*
X121457143Y-68033334D02*
X121504762Y-67985715D01*
X121552381Y-67842858D01*
X121552381Y-67747620D01*
X121504762Y-67604762D01*
X121409524Y-67509524D01*
X121314286Y-67461905D01*
X121123810Y-67414286D01*
X120980952Y-67414286D01*
X120790476Y-67461905D01*
X120695238Y-67509524D01*
X120600000Y-67604762D01*
X120552381Y-67747620D01*
X120552381Y-67842858D01*
X120600000Y-67985715D01*
X120647619Y-68033334D01*
X120647619Y-68414286D02*
X120600000Y-68461905D01*
X120552381Y-68557143D01*
X120552381Y-68795239D01*
X120600000Y-68890477D01*
X120647619Y-68938096D01*
X120742857Y-68985715D01*
X120838095Y-68985715D01*
X120980952Y-68938096D01*
X121552381Y-68366667D01*
X121552381Y-68985715D01*
X115757143Y-91833334D02*
X115804762Y-91785715D01*
X115852381Y-91642858D01*
X115852381Y-91547620D01*
X115804762Y-91404762D01*
X115709524Y-91309524D01*
X115614286Y-91261905D01*
X115423810Y-91214286D01*
X115280952Y-91214286D01*
X115090476Y-91261905D01*
X114995238Y-91309524D01*
X114900000Y-91404762D01*
X114852381Y-91547620D01*
X114852381Y-91642858D01*
X114900000Y-91785715D01*
X114947619Y-91833334D01*
X114852381Y-92166667D02*
X114852381Y-92785715D01*
X115233333Y-92452381D01*
X115233333Y-92595239D01*
X115280952Y-92690477D01*
X115328571Y-92738096D01*
X115423810Y-92785715D01*
X115661905Y-92785715D01*
X115757143Y-92738096D01*
X115804762Y-92690477D01*
X115852381Y-92595239D01*
X115852381Y-92309524D01*
X115804762Y-92214286D01*
X115757143Y-92166667D01*
X105466666Y-94957143D02*
X105514285Y-95004762D01*
X105657142Y-95052381D01*
X105752380Y-95052381D01*
X105895238Y-95004762D01*
X105990476Y-94909524D01*
X106038095Y-94814286D01*
X106085714Y-94623810D01*
X106085714Y-94480952D01*
X106038095Y-94290476D01*
X105990476Y-94195238D01*
X105895238Y-94100000D01*
X105752380Y-94052381D01*
X105657142Y-94052381D01*
X105514285Y-94100000D01*
X105466666Y-94147619D01*
X104609523Y-94385714D02*
X104609523Y-95052381D01*
X104847619Y-94004762D02*
X105085714Y-94719048D01*
X104466666Y-94719048D01*
X105266666Y-89957143D02*
X105314285Y-90004762D01*
X105457142Y-90052381D01*
X105552380Y-90052381D01*
X105695238Y-90004762D01*
X105790476Y-89909524D01*
X105838095Y-89814286D01*
X105885714Y-89623810D01*
X105885714Y-89480952D01*
X105838095Y-89290476D01*
X105790476Y-89195238D01*
X105695238Y-89100000D01*
X105552380Y-89052381D01*
X105457142Y-89052381D01*
X105314285Y-89100000D01*
X105266666Y-89147619D01*
X104361904Y-89052381D02*
X104838095Y-89052381D01*
X104885714Y-89528571D01*
X104838095Y-89480952D01*
X104742857Y-89433333D01*
X104504761Y-89433333D01*
X104409523Y-89480952D01*
X104361904Y-89528571D01*
X104314285Y-89623810D01*
X104314285Y-89861905D01*
X104361904Y-89957143D01*
X104409523Y-90004762D01*
X104504761Y-90052381D01*
X104742857Y-90052381D01*
X104838095Y-90004762D01*
X104885714Y-89957143D01*
X115657143Y-70733334D02*
X115704762Y-70685715D01*
X115752381Y-70542858D01*
X115752381Y-70447620D01*
X115704762Y-70304762D01*
X115609524Y-70209524D01*
X115514286Y-70161905D01*
X115323810Y-70114286D01*
X115180952Y-70114286D01*
X114990476Y-70161905D01*
X114895238Y-70209524D01*
X114800000Y-70304762D01*
X114752381Y-70447620D01*
X114752381Y-70542858D01*
X114800000Y-70685715D01*
X114847619Y-70733334D01*
X114752381Y-71590477D02*
X114752381Y-71400000D01*
X114800000Y-71304762D01*
X114847619Y-71257143D01*
X114990476Y-71161905D01*
X115180952Y-71114286D01*
X115561905Y-71114286D01*
X115657143Y-71161905D01*
X115704762Y-71209524D01*
X115752381Y-71304762D01*
X115752381Y-71495239D01*
X115704762Y-71590477D01*
X115657143Y-71638096D01*
X115561905Y-71685715D01*
X115323810Y-71685715D01*
X115228571Y-71638096D01*
X115180952Y-71590477D01*
X115133333Y-71495239D01*
X115133333Y-71304762D01*
X115180952Y-71209524D01*
X115228571Y-71161905D01*
X115323810Y-71114286D01*
X122957143Y-68033334D02*
X123004762Y-67985715D01*
X123052381Y-67842858D01*
X123052381Y-67747620D01*
X123004762Y-67604762D01*
X122909524Y-67509524D01*
X122814286Y-67461905D01*
X122623810Y-67414286D01*
X122480952Y-67414286D01*
X122290476Y-67461905D01*
X122195238Y-67509524D01*
X122100000Y-67604762D01*
X122052381Y-67747620D01*
X122052381Y-67842858D01*
X122100000Y-67985715D01*
X122147619Y-68033334D01*
X122052381Y-68366667D02*
X122052381Y-69033334D01*
X123052381Y-68604762D01*
X135466666Y-79757143D02*
X135514285Y-79804762D01*
X135657142Y-79852381D01*
X135752380Y-79852381D01*
X135895238Y-79804762D01*
X135990476Y-79709524D01*
X136038095Y-79614286D01*
X136085714Y-79423810D01*
X136085714Y-79280952D01*
X136038095Y-79090476D01*
X135990476Y-78995238D01*
X135895238Y-78900000D01*
X135752380Y-78852381D01*
X135657142Y-78852381D01*
X135514285Y-78900000D01*
X135466666Y-78947619D01*
X134895238Y-79280952D02*
X134990476Y-79233333D01*
X135038095Y-79185714D01*
X135085714Y-79090476D01*
X135085714Y-79042857D01*
X135038095Y-78947619D01*
X134990476Y-78900000D01*
X134895238Y-78852381D01*
X134704761Y-78852381D01*
X134609523Y-78900000D01*
X134561904Y-78947619D01*
X134514285Y-79042857D01*
X134514285Y-79090476D01*
X134561904Y-79185714D01*
X134609523Y-79233333D01*
X134704761Y-79280952D01*
X134895238Y-79280952D01*
X134990476Y-79328571D01*
X135038095Y-79376190D01*
X135085714Y-79471429D01*
X135085714Y-79661905D01*
X135038095Y-79757143D01*
X134990476Y-79804762D01*
X134895238Y-79852381D01*
X134704761Y-79852381D01*
X134609523Y-79804762D01*
X134561904Y-79757143D01*
X134514285Y-79661905D01*
X134514285Y-79471429D01*
X134561904Y-79376190D01*
X134609523Y-79328571D01*
X134704761Y-79280952D01*
X109166666Y-85957143D02*
X109214285Y-86004762D01*
X109357142Y-86052381D01*
X109452380Y-86052381D01*
X109595238Y-86004762D01*
X109690476Y-85909524D01*
X109738095Y-85814286D01*
X109785714Y-85623810D01*
X109785714Y-85480952D01*
X109738095Y-85290476D01*
X109690476Y-85195238D01*
X109595238Y-85100000D01*
X109452380Y-85052381D01*
X109357142Y-85052381D01*
X109214285Y-85100000D01*
X109166666Y-85147619D01*
X108690476Y-86052381D02*
X108500000Y-86052381D01*
X108404761Y-86004762D01*
X108357142Y-85957143D01*
X108261904Y-85814286D01*
X108214285Y-85623810D01*
X108214285Y-85242857D01*
X108261904Y-85147619D01*
X108309523Y-85100000D01*
X108404761Y-85052381D01*
X108595238Y-85052381D01*
X108690476Y-85100000D01*
X108738095Y-85147619D01*
X108785714Y-85242857D01*
X108785714Y-85480952D01*
X108738095Y-85576190D01*
X108690476Y-85623810D01*
X108595238Y-85671429D01*
X108404761Y-85671429D01*
X108309523Y-85623810D01*
X108261904Y-85576190D01*
X108214285Y-85480952D01*
X105671428Y-86607143D02*
X104528571Y-86607143D01*
X105100000Y-87178571D02*
X105100000Y-86035714D01*
X114057143Y-70757143D02*
X114104762Y-70709524D01*
X114152381Y-70566667D01*
X114152381Y-70471429D01*
X114104762Y-70328571D01*
X114009524Y-70233333D01*
X113914286Y-70185714D01*
X113723810Y-70138095D01*
X113580952Y-70138095D01*
X113390476Y-70185714D01*
X113295238Y-70233333D01*
X113200000Y-70328571D01*
X113152381Y-70471429D01*
X113152381Y-70566667D01*
X113200000Y-70709524D01*
X113247619Y-70757143D01*
X114152381Y-71709524D02*
X114152381Y-71138095D01*
X114152381Y-71423809D02*
X113152381Y-71423809D01*
X113295238Y-71328571D01*
X113390476Y-71233333D01*
X113438095Y-71138095D01*
X113152381Y-72328571D02*
X113152381Y-72423810D01*
X113200000Y-72519048D01*
X113247619Y-72566667D01*
X113342857Y-72614286D01*
X113533333Y-72661905D01*
X113771429Y-72661905D01*
X113961905Y-72614286D01*
X114057143Y-72566667D01*
X114104762Y-72519048D01*
X114152381Y-72423810D01*
X114152381Y-72328571D01*
X114104762Y-72233333D01*
X114057143Y-72185714D01*
X113961905Y-72138095D01*
X113771429Y-72090476D01*
X113533333Y-72090476D01*
X113342857Y-72138095D01*
X113247619Y-72185714D01*
X113200000Y-72233333D01*
X113152381Y-72328571D01*
X116557143Y-86757143D02*
X116604762Y-86709524D01*
X116652381Y-86566667D01*
X116652381Y-86471429D01*
X116604762Y-86328571D01*
X116509524Y-86233333D01*
X116414286Y-86185714D01*
X116223810Y-86138095D01*
X116080952Y-86138095D01*
X115890476Y-86185714D01*
X115795238Y-86233333D01*
X115700000Y-86328571D01*
X115652381Y-86471429D01*
X115652381Y-86566667D01*
X115700000Y-86709524D01*
X115747619Y-86757143D01*
X116652381Y-87709524D02*
X116652381Y-87138095D01*
X116652381Y-87423809D02*
X115652381Y-87423809D01*
X115795238Y-87328571D01*
X115890476Y-87233333D01*
X115938095Y-87138095D01*
X116652381Y-88661905D02*
X116652381Y-88090476D01*
X116652381Y-88376190D02*
X115652381Y-88376190D01*
X115795238Y-88280952D01*
X115890476Y-88185714D01*
X115938095Y-88090476D01*
X146957143Y-56257143D02*
X147004762Y-56209524D01*
X147052381Y-56066667D01*
X147052381Y-55971429D01*
X147004762Y-55828571D01*
X146909524Y-55733333D01*
X146814286Y-55685714D01*
X146623810Y-55638095D01*
X146480952Y-55638095D01*
X146290476Y-55685714D01*
X146195238Y-55733333D01*
X146100000Y-55828571D01*
X146052381Y-55971429D01*
X146052381Y-56066667D01*
X146100000Y-56209524D01*
X146147619Y-56257143D01*
X147052381Y-57209524D02*
X147052381Y-56638095D01*
X147052381Y-56923809D02*
X146052381Y-56923809D01*
X146195238Y-56828571D01*
X146290476Y-56733333D01*
X146338095Y-56638095D01*
X146147619Y-57590476D02*
X146100000Y-57638095D01*
X146052381Y-57733333D01*
X146052381Y-57971429D01*
X146100000Y-58066667D01*
X146147619Y-58114286D01*
X146242857Y-58161905D01*
X146338095Y-58161905D01*
X146480952Y-58114286D01*
X147052381Y-57542857D01*
X147052381Y-58161905D01*
X111450000Y-90107143D02*
X111450000Y-89207143D01*
X111235715Y-89207143D01*
X111107143Y-89250000D01*
X111021429Y-89335714D01*
X110978572Y-89421429D01*
X110935715Y-89592857D01*
X110935715Y-89721429D01*
X110978572Y-89892857D01*
X111021429Y-89978571D01*
X111107143Y-90064286D01*
X111235715Y-90107143D01*
X111450000Y-90107143D01*
X110592857Y-89850000D02*
X110164286Y-89850000D01*
X110678572Y-90107143D02*
X110378572Y-89207143D01*
X110078572Y-90107143D01*
X109307143Y-90107143D02*
X109821428Y-90107143D01*
X109564286Y-90107143D02*
X109564286Y-89207143D01*
X109650000Y-89335714D01*
X109735714Y-89421429D01*
X109821428Y-89464286D01*
X113552381Y-63311905D02*
X112552381Y-63311905D01*
X112552381Y-63550000D01*
X112600000Y-63692858D01*
X112695238Y-63788096D01*
X112790476Y-63835715D01*
X112980952Y-63883334D01*
X113123810Y-63883334D01*
X113314286Y-63835715D01*
X113409524Y-63788096D01*
X113504762Y-63692858D01*
X113552381Y-63550000D01*
X113552381Y-63311905D01*
X113552381Y-64311905D02*
X112552381Y-64311905D01*
X112552381Y-64550000D01*
X112600000Y-64692858D01*
X112695238Y-64788096D01*
X112790476Y-64835715D01*
X112980952Y-64883334D01*
X113123810Y-64883334D01*
X113314286Y-64835715D01*
X113409524Y-64788096D01*
X113504762Y-64692858D01*
X113552381Y-64550000D01*
X113552381Y-64311905D01*
X113552381Y-65835715D02*
X113552381Y-65264286D01*
X113552381Y-65550000D02*
X112552381Y-65550000D01*
X112695238Y-65454762D01*
X112790476Y-65359524D01*
X112838095Y-65264286D01*
X128352381Y-73661905D02*
X127352381Y-73661905D01*
X127352381Y-73900000D01*
X127400000Y-74042858D01*
X127495238Y-74138096D01*
X127590476Y-74185715D01*
X127780952Y-74233334D01*
X127923810Y-74233334D01*
X128114286Y-74185715D01*
X128209524Y-74138096D01*
X128304762Y-74042858D01*
X128352381Y-73900000D01*
X128352381Y-73661905D01*
X128352381Y-74661905D02*
X127352381Y-74661905D01*
X127352381Y-74900000D01*
X127400000Y-75042858D01*
X127495238Y-75138096D01*
X127590476Y-75185715D01*
X127780952Y-75233334D01*
X127923810Y-75233334D01*
X128114286Y-75185715D01*
X128209524Y-75138096D01*
X128304762Y-75042858D01*
X128352381Y-74900000D01*
X128352381Y-74661905D01*
X127447619Y-75614286D02*
X127400000Y-75661905D01*
X127352381Y-75757143D01*
X127352381Y-75995239D01*
X127400000Y-76090477D01*
X127447619Y-76138096D01*
X127542857Y-76185715D01*
X127638095Y-76185715D01*
X127780952Y-76138096D01*
X128352381Y-75566667D01*
X128352381Y-76185715D01*
X113552381Y-76361905D02*
X112552381Y-76361905D01*
X112552381Y-76600000D01*
X112600000Y-76742858D01*
X112695238Y-76838096D01*
X112790476Y-76885715D01*
X112980952Y-76933334D01*
X113123810Y-76933334D01*
X113314286Y-76885715D01*
X113409524Y-76838096D01*
X113504762Y-76742858D01*
X113552381Y-76600000D01*
X113552381Y-76361905D01*
X113552381Y-77361905D02*
X112552381Y-77361905D01*
X112552381Y-77600000D01*
X112600000Y-77742858D01*
X112695238Y-77838096D01*
X112790476Y-77885715D01*
X112980952Y-77933334D01*
X113123810Y-77933334D01*
X113314286Y-77885715D01*
X113409524Y-77838096D01*
X113504762Y-77742858D01*
X113552381Y-77600000D01*
X113552381Y-77361905D01*
X112552381Y-78266667D02*
X112552381Y-78885715D01*
X112933333Y-78552381D01*
X112933333Y-78695239D01*
X112980952Y-78790477D01*
X113028571Y-78838096D01*
X113123810Y-78885715D01*
X113361905Y-78885715D01*
X113457143Y-78838096D01*
X113504762Y-78790477D01*
X113552381Y-78695239D01*
X113552381Y-78409524D01*
X113504762Y-78314286D01*
X113457143Y-78266667D01*
X139266667Y-92302381D02*
X139266667Y-91302381D01*
X139266667Y-91778571D02*
X138695238Y-91778571D01*
X138695238Y-92302381D02*
X138695238Y-91302381D01*
X137742857Y-92302381D02*
X138219048Y-92302381D01*
X138219048Y-91302381D01*
X136885714Y-92302381D02*
X137457143Y-92302381D01*
X137171429Y-92302381D02*
X137171429Y-91302381D01*
X137266667Y-91445238D01*
X137361905Y-91540476D01*
X137457143Y-91588095D01*
X141266666Y-85352381D02*
X141600000Y-84876190D01*
X141838095Y-85352381D02*
X141838095Y-84352381D01*
X141457142Y-84352381D01*
X141361904Y-84400000D01*
X141314285Y-84447619D01*
X141266666Y-84542857D01*
X141266666Y-84685714D01*
X141314285Y-84780952D01*
X141361904Y-84828571D01*
X141457142Y-84876190D01*
X141838095Y-84876190D01*
X140314285Y-85352381D02*
X140885714Y-85352381D01*
X140600000Y-85352381D02*
X140600000Y-84352381D01*
X140695238Y-84495238D01*
X140790476Y-84590476D01*
X140885714Y-84638095D01*
X145466666Y-92852381D02*
X145800000Y-92376190D01*
X146038095Y-92852381D02*
X146038095Y-91852381D01*
X145657142Y-91852381D01*
X145561904Y-91900000D01*
X145514285Y-91947619D01*
X145466666Y-92042857D01*
X145466666Y-92185714D01*
X145514285Y-92280952D01*
X145561904Y-92328571D01*
X145657142Y-92376190D01*
X146038095Y-92376190D01*
X145085714Y-91947619D02*
X145038095Y-91900000D01*
X144942857Y-91852381D01*
X144704761Y-91852381D01*
X144609523Y-91900000D01*
X144561904Y-91947619D01*
X144514285Y-92042857D01*
X144514285Y-92138095D01*
X144561904Y-92280952D01*
X145133333Y-92852381D01*
X144514285Y-92852381D01*
X119752381Y-68033334D02*
X119276190Y-67700000D01*
X119752381Y-67461905D02*
X118752381Y-67461905D01*
X118752381Y-67842858D01*
X118800000Y-67938096D01*
X118847619Y-67985715D01*
X118942857Y-68033334D01*
X119085714Y-68033334D01*
X119180952Y-67985715D01*
X119228571Y-67938096D01*
X119276190Y-67842858D01*
X119276190Y-67461905D01*
X118752381Y-68366667D02*
X118752381Y-68985715D01*
X119133333Y-68652381D01*
X119133333Y-68795239D01*
X119180952Y-68890477D01*
X119228571Y-68938096D01*
X119323810Y-68985715D01*
X119561905Y-68985715D01*
X119657143Y-68938096D01*
X119704762Y-68890477D01*
X119752381Y-68795239D01*
X119752381Y-68509524D01*
X119704762Y-68414286D01*
X119657143Y-68366667D01*
X102752381Y-69833334D02*
X102276190Y-69500000D01*
X102752381Y-69261905D02*
X101752381Y-69261905D01*
X101752381Y-69642858D01*
X101800000Y-69738096D01*
X101847619Y-69785715D01*
X101942857Y-69833334D01*
X102085714Y-69833334D01*
X102180952Y-69785715D01*
X102228571Y-69738096D01*
X102276190Y-69642858D01*
X102276190Y-69261905D01*
X102085714Y-70690477D02*
X102752381Y-70690477D01*
X101704762Y-70452381D02*
X102419048Y-70214286D01*
X102419048Y-70833334D01*
X101352381Y-69833334D02*
X100876190Y-69500000D01*
X101352381Y-69261905D02*
X100352381Y-69261905D01*
X100352381Y-69642858D01*
X100400000Y-69738096D01*
X100447619Y-69785715D01*
X100542857Y-69833334D01*
X100685714Y-69833334D01*
X100780952Y-69785715D01*
X100828571Y-69738096D01*
X100876190Y-69642858D01*
X100876190Y-69261905D01*
X100352381Y-70738096D02*
X100352381Y-70261905D01*
X100828571Y-70214286D01*
X100780952Y-70261905D01*
X100733333Y-70357143D01*
X100733333Y-70595239D01*
X100780952Y-70690477D01*
X100828571Y-70738096D01*
X100923810Y-70785715D01*
X101161905Y-70785715D01*
X101257143Y-70738096D01*
X101304762Y-70690477D01*
X101352381Y-70595239D01*
X101352381Y-70357143D01*
X101304762Y-70261905D01*
X101257143Y-70214286D01*
X103952381Y-77133334D02*
X103476190Y-76800000D01*
X103952381Y-76561905D02*
X102952381Y-76561905D01*
X102952381Y-76942858D01*
X103000000Y-77038096D01*
X103047619Y-77085715D01*
X103142857Y-77133334D01*
X103285714Y-77133334D01*
X103380952Y-77085715D01*
X103428571Y-77038096D01*
X103476190Y-76942858D01*
X103476190Y-76561905D01*
X102952381Y-77990477D02*
X102952381Y-77800000D01*
X103000000Y-77704762D01*
X103047619Y-77657143D01*
X103190476Y-77561905D01*
X103380952Y-77514286D01*
X103761905Y-77514286D01*
X103857143Y-77561905D01*
X103904762Y-77609524D01*
X103952381Y-77704762D01*
X103952381Y-77895239D01*
X103904762Y-77990477D01*
X103857143Y-78038096D01*
X103761905Y-78085715D01*
X103523810Y-78085715D01*
X103428571Y-78038096D01*
X103380952Y-77990477D01*
X103333333Y-77895239D01*
X103333333Y-77704762D01*
X103380952Y-77609524D01*
X103428571Y-77561905D01*
X103523810Y-77514286D01*
X105452381Y-84033334D02*
X104976190Y-83700000D01*
X105452381Y-83461905D02*
X104452381Y-83461905D01*
X104452381Y-83842858D01*
X104500000Y-83938096D01*
X104547619Y-83985715D01*
X104642857Y-84033334D01*
X104785714Y-84033334D01*
X104880952Y-83985715D01*
X104928571Y-83938096D01*
X104976190Y-83842858D01*
X104976190Y-83461905D01*
X104452381Y-84366667D02*
X104452381Y-85033334D01*
X105452381Y-84604762D01*
X117902381Y-57683334D02*
X117426190Y-57350000D01*
X117902381Y-57111905D02*
X116902381Y-57111905D01*
X116902381Y-57492858D01*
X116950000Y-57588096D01*
X116997619Y-57635715D01*
X117092857Y-57683334D01*
X117235714Y-57683334D01*
X117330952Y-57635715D01*
X117378571Y-57588096D01*
X117426190Y-57492858D01*
X117426190Y-57111905D01*
X117330952Y-58254762D02*
X117283333Y-58159524D01*
X117235714Y-58111905D01*
X117140476Y-58064286D01*
X117092857Y-58064286D01*
X116997619Y-58111905D01*
X116950000Y-58159524D01*
X116902381Y-58254762D01*
X116902381Y-58445239D01*
X116950000Y-58540477D01*
X116997619Y-58588096D01*
X117092857Y-58635715D01*
X117140476Y-58635715D01*
X117235714Y-58588096D01*
X117283333Y-58540477D01*
X117330952Y-58445239D01*
X117330952Y-58254762D01*
X117378571Y-58159524D01*
X117426190Y-58111905D01*
X117521429Y-58064286D01*
X117711905Y-58064286D01*
X117807143Y-58111905D01*
X117854762Y-58159524D01*
X117902381Y-58254762D01*
X117902381Y-58445239D01*
X117854762Y-58540477D01*
X117807143Y-58588096D01*
X117711905Y-58635715D01*
X117521429Y-58635715D01*
X117426190Y-58588096D01*
X117378571Y-58540477D01*
X117330952Y-58445239D01*
X125102381Y-57683334D02*
X124626190Y-57350000D01*
X125102381Y-57111905D02*
X124102381Y-57111905D01*
X124102381Y-57492858D01*
X124150000Y-57588096D01*
X124197619Y-57635715D01*
X124292857Y-57683334D01*
X124435714Y-57683334D01*
X124530952Y-57635715D01*
X124578571Y-57588096D01*
X124626190Y-57492858D01*
X124626190Y-57111905D01*
X125102381Y-58159524D02*
X125102381Y-58350000D01*
X125054762Y-58445239D01*
X125007143Y-58492858D01*
X124864286Y-58588096D01*
X124673810Y-58635715D01*
X124292857Y-58635715D01*
X124197619Y-58588096D01*
X124150000Y-58540477D01*
X124102381Y-58445239D01*
X124102381Y-58254762D01*
X124150000Y-58159524D01*
X124197619Y-58111905D01*
X124292857Y-58064286D01*
X124530952Y-58064286D01*
X124626190Y-58111905D01*
X124673810Y-58159524D01*
X124721429Y-58254762D01*
X124721429Y-58445239D01*
X124673810Y-58540477D01*
X124626190Y-58588096D01*
X124530952Y-58635715D01*
X132302381Y-56707143D02*
X131826190Y-56373809D01*
X132302381Y-56135714D02*
X131302381Y-56135714D01*
X131302381Y-56516667D01*
X131350000Y-56611905D01*
X131397619Y-56659524D01*
X131492857Y-56707143D01*
X131635714Y-56707143D01*
X131730952Y-56659524D01*
X131778571Y-56611905D01*
X131826190Y-56516667D01*
X131826190Y-56135714D01*
X132302381Y-57659524D02*
X132302381Y-57088095D01*
X132302381Y-57373809D02*
X131302381Y-57373809D01*
X131445238Y-57278571D01*
X131540476Y-57183333D01*
X131588095Y-57088095D01*
X131302381Y-58278571D02*
X131302381Y-58373810D01*
X131350000Y-58469048D01*
X131397619Y-58516667D01*
X131492857Y-58564286D01*
X131683333Y-58611905D01*
X131921429Y-58611905D01*
X132111905Y-58564286D01*
X132207143Y-58516667D01*
X132254762Y-58469048D01*
X132302381Y-58373810D01*
X132302381Y-58278571D01*
X132254762Y-58183333D01*
X132207143Y-58135714D01*
X132111905Y-58088095D01*
X131921429Y-58040476D01*
X131683333Y-58040476D01*
X131492857Y-58088095D01*
X131397619Y-58135714D01*
X131350000Y-58183333D01*
X131302381Y-58278571D01*
X139502381Y-56807143D02*
X139026190Y-56473809D01*
X139502381Y-56235714D02*
X138502381Y-56235714D01*
X138502381Y-56616667D01*
X138550000Y-56711905D01*
X138597619Y-56759524D01*
X138692857Y-56807143D01*
X138835714Y-56807143D01*
X138930952Y-56759524D01*
X138978571Y-56711905D01*
X139026190Y-56616667D01*
X139026190Y-56235714D01*
X139502381Y-57759524D02*
X139502381Y-57188095D01*
X139502381Y-57473809D02*
X138502381Y-57473809D01*
X138645238Y-57378571D01*
X138740476Y-57283333D01*
X138788095Y-57188095D01*
X139502381Y-58711905D02*
X139502381Y-58140476D01*
X139502381Y-58426190D02*
X138502381Y-58426190D01*
X138645238Y-58330952D01*
X138740476Y-58235714D01*
X138788095Y-58140476D01*
X114142857Y-83352381D02*
X114476191Y-82876190D01*
X114714286Y-83352381D02*
X114714286Y-82352381D01*
X114333333Y-82352381D01*
X114238095Y-82400000D01*
X114190476Y-82447619D01*
X114142857Y-82542857D01*
X114142857Y-82685714D01*
X114190476Y-82780952D01*
X114238095Y-82828571D01*
X114333333Y-82876190D01*
X114714286Y-82876190D01*
X113190476Y-83352381D02*
X113761905Y-83352381D01*
X113476191Y-83352381D02*
X113476191Y-82352381D01*
X113571429Y-82495238D01*
X113666667Y-82590476D01*
X113761905Y-82638095D01*
X112809524Y-82447619D02*
X112761905Y-82400000D01*
X112666667Y-82352381D01*
X112428571Y-82352381D01*
X112333333Y-82400000D01*
X112285714Y-82447619D01*
X112238095Y-82542857D01*
X112238095Y-82638095D01*
X112285714Y-82780952D01*
X112857143Y-83352381D01*
X112238095Y-83352381D01*
X104152381Y-69857143D02*
X103676190Y-69523809D01*
X104152381Y-69285714D02*
X103152381Y-69285714D01*
X103152381Y-69666667D01*
X103200000Y-69761905D01*
X103247619Y-69809524D01*
X103342857Y-69857143D01*
X103485714Y-69857143D01*
X103580952Y-69809524D01*
X103628571Y-69761905D01*
X103676190Y-69666667D01*
X103676190Y-69285714D01*
X104152381Y-70809524D02*
X104152381Y-70238095D01*
X104152381Y-70523809D02*
X103152381Y-70523809D01*
X103295238Y-70428571D01*
X103390476Y-70333333D01*
X103438095Y-70238095D01*
X103152381Y-71142857D02*
X103152381Y-71761905D01*
X103533333Y-71428571D01*
X103533333Y-71571429D01*
X103580952Y-71666667D01*
X103628571Y-71714286D01*
X103723810Y-71761905D01*
X103961905Y-71761905D01*
X104057143Y-71714286D01*
X104104762Y-71666667D01*
X104152381Y-71571429D01*
X104152381Y-71285714D01*
X104104762Y-71190476D01*
X104057143Y-71142857D01*
X127152381Y-68157143D02*
X126676190Y-67823809D01*
X127152381Y-67585714D02*
X126152381Y-67585714D01*
X126152381Y-67966667D01*
X126200000Y-68061905D01*
X126247619Y-68109524D01*
X126342857Y-68157143D01*
X126485714Y-68157143D01*
X126580952Y-68109524D01*
X126628571Y-68061905D01*
X126676190Y-67966667D01*
X126676190Y-67585714D01*
X127152381Y-69109524D02*
X127152381Y-68538095D01*
X127152381Y-68823809D02*
X126152381Y-68823809D01*
X126295238Y-68728571D01*
X126390476Y-68633333D01*
X126438095Y-68538095D01*
X126485714Y-69966667D02*
X127152381Y-69966667D01*
X126104762Y-69728571D02*
X126819048Y-69490476D01*
X126819048Y-70109524D01*
X136342857Y-68452381D02*
X136676191Y-67976190D01*
X136914286Y-68452381D02*
X136914286Y-67452381D01*
X136533333Y-67452381D01*
X136438095Y-67500000D01*
X136390476Y-67547619D01*
X136342857Y-67642857D01*
X136342857Y-67785714D01*
X136390476Y-67880952D01*
X136438095Y-67928571D01*
X136533333Y-67976190D01*
X136914286Y-67976190D01*
X135390476Y-68452381D02*
X135961905Y-68452381D01*
X135676191Y-68452381D02*
X135676191Y-67452381D01*
X135771429Y-67595238D01*
X135866667Y-67690476D01*
X135961905Y-67738095D01*
X134485714Y-67452381D02*
X134961905Y-67452381D01*
X135009524Y-67928571D01*
X134961905Y-67880952D01*
X134866667Y-67833333D01*
X134628571Y-67833333D01*
X134533333Y-67880952D01*
X134485714Y-67928571D01*
X134438095Y-68023810D01*
X134438095Y-68261905D01*
X134485714Y-68357143D01*
X134533333Y-68404762D01*
X134628571Y-68452381D01*
X134866667Y-68452381D01*
X134961905Y-68404762D01*
X135009524Y-68357143D01*
X136342857Y-71652381D02*
X136676191Y-71176190D01*
X136914286Y-71652381D02*
X136914286Y-70652381D01*
X136533333Y-70652381D01*
X136438095Y-70700000D01*
X136390476Y-70747619D01*
X136342857Y-70842857D01*
X136342857Y-70985714D01*
X136390476Y-71080952D01*
X136438095Y-71128571D01*
X136533333Y-71176190D01*
X136914286Y-71176190D01*
X135390476Y-71652381D02*
X135961905Y-71652381D01*
X135676191Y-71652381D02*
X135676191Y-70652381D01*
X135771429Y-70795238D01*
X135866667Y-70890476D01*
X135961905Y-70938095D01*
X134533333Y-70652381D02*
X134723810Y-70652381D01*
X134819048Y-70700000D01*
X134866667Y-70747619D01*
X134961905Y-70890476D01*
X135009524Y-71080952D01*
X135009524Y-71461905D01*
X134961905Y-71557143D01*
X134914286Y-71604762D01*
X134819048Y-71652381D01*
X134628571Y-71652381D01*
X134533333Y-71604762D01*
X134485714Y-71557143D01*
X134438095Y-71461905D01*
X134438095Y-71223810D01*
X134485714Y-71128571D01*
X134533333Y-71080952D01*
X134628571Y-71033333D01*
X134819048Y-71033333D01*
X134914286Y-71080952D01*
X134961905Y-71128571D01*
X135009524Y-71223810D01*
X136342857Y-74852381D02*
X136676191Y-74376190D01*
X136914286Y-74852381D02*
X136914286Y-73852381D01*
X136533333Y-73852381D01*
X136438095Y-73900000D01*
X136390476Y-73947619D01*
X136342857Y-74042857D01*
X136342857Y-74185714D01*
X136390476Y-74280952D01*
X136438095Y-74328571D01*
X136533333Y-74376190D01*
X136914286Y-74376190D01*
X135390476Y-74852381D02*
X135961905Y-74852381D01*
X135676191Y-74852381D02*
X135676191Y-73852381D01*
X135771429Y-73995238D01*
X135866667Y-74090476D01*
X135961905Y-74138095D01*
X135057143Y-73852381D02*
X134390476Y-73852381D01*
X134819048Y-74852381D01*
X128942857Y-82652381D02*
X129276191Y-82176190D01*
X129514286Y-82652381D02*
X129514286Y-81652381D01*
X129133333Y-81652381D01*
X129038095Y-81700000D01*
X128990476Y-81747619D01*
X128942857Y-81842857D01*
X128942857Y-81985714D01*
X128990476Y-82080952D01*
X129038095Y-82128571D01*
X129133333Y-82176190D01*
X129514286Y-82176190D01*
X127990476Y-82652381D02*
X128561905Y-82652381D01*
X128276191Y-82652381D02*
X128276191Y-81652381D01*
X128371429Y-81795238D01*
X128466667Y-81890476D01*
X128561905Y-81938095D01*
X127419048Y-82080952D02*
X127514286Y-82033333D01*
X127561905Y-81985714D01*
X127609524Y-81890476D01*
X127609524Y-81842857D01*
X127561905Y-81747619D01*
X127514286Y-81700000D01*
X127419048Y-81652381D01*
X127228571Y-81652381D01*
X127133333Y-81700000D01*
X127085714Y-81747619D01*
X127038095Y-81842857D01*
X127038095Y-81890476D01*
X127085714Y-81985714D01*
X127133333Y-82033333D01*
X127228571Y-82080952D01*
X127419048Y-82080952D01*
X127514286Y-82128571D01*
X127561905Y-82176190D01*
X127609524Y-82271429D01*
X127609524Y-82461905D01*
X127561905Y-82557143D01*
X127514286Y-82604762D01*
X127419048Y-82652381D01*
X127228571Y-82652381D01*
X127133333Y-82604762D01*
X127085714Y-82557143D01*
X127038095Y-82461905D01*
X127038095Y-82271429D01*
X127085714Y-82176190D01*
X127133333Y-82128571D01*
X127228571Y-82080952D01*
X136342857Y-70052381D02*
X136676191Y-69576190D01*
X136914286Y-70052381D02*
X136914286Y-69052381D01*
X136533333Y-69052381D01*
X136438095Y-69100000D01*
X136390476Y-69147619D01*
X136342857Y-69242857D01*
X136342857Y-69385714D01*
X136390476Y-69480952D01*
X136438095Y-69528571D01*
X136533333Y-69576190D01*
X136914286Y-69576190D01*
X135390476Y-70052381D02*
X135961905Y-70052381D01*
X135676191Y-70052381D02*
X135676191Y-69052381D01*
X135771429Y-69195238D01*
X135866667Y-69290476D01*
X135961905Y-69338095D01*
X134914286Y-70052381D02*
X134723810Y-70052381D01*
X134628571Y-70004762D01*
X134580952Y-69957143D01*
X134485714Y-69814286D01*
X134438095Y-69623810D01*
X134438095Y-69242857D01*
X134485714Y-69147619D01*
X134533333Y-69100000D01*
X134628571Y-69052381D01*
X134819048Y-69052381D01*
X134914286Y-69100000D01*
X134961905Y-69147619D01*
X135009524Y-69242857D01*
X135009524Y-69480952D01*
X134961905Y-69576190D01*
X134914286Y-69623810D01*
X134819048Y-69671429D01*
X134628571Y-69671429D01*
X134533333Y-69623810D01*
X134485714Y-69576190D01*
X134438095Y-69480952D01*
X136342857Y-73252381D02*
X136676191Y-72776190D01*
X136914286Y-73252381D02*
X136914286Y-72252381D01*
X136533333Y-72252381D01*
X136438095Y-72300000D01*
X136390476Y-72347619D01*
X136342857Y-72442857D01*
X136342857Y-72585714D01*
X136390476Y-72680952D01*
X136438095Y-72728571D01*
X136533333Y-72776190D01*
X136914286Y-72776190D01*
X135961905Y-72347619D02*
X135914286Y-72300000D01*
X135819048Y-72252381D01*
X135580952Y-72252381D01*
X135485714Y-72300000D01*
X135438095Y-72347619D01*
X135390476Y-72442857D01*
X135390476Y-72538095D01*
X135438095Y-72680952D01*
X136009524Y-73252381D01*
X135390476Y-73252381D01*
X134771429Y-72252381D02*
X134676190Y-72252381D01*
X134580952Y-72300000D01*
X134533333Y-72347619D01*
X134485714Y-72442857D01*
X134438095Y-72633333D01*
X134438095Y-72871429D01*
X134485714Y-73061905D01*
X134533333Y-73157143D01*
X134580952Y-73204762D01*
X134676190Y-73252381D01*
X134771429Y-73252381D01*
X134866667Y-73204762D01*
X134914286Y-73157143D01*
X134961905Y-73061905D01*
X135009524Y-72871429D01*
X135009524Y-72633333D01*
X134961905Y-72442857D01*
X134914286Y-72347619D01*
X134866667Y-72300000D01*
X134771429Y-72252381D01*
X136342857Y-76452381D02*
X136676191Y-75976190D01*
X136914286Y-76452381D02*
X136914286Y-75452381D01*
X136533333Y-75452381D01*
X136438095Y-75500000D01*
X136390476Y-75547619D01*
X136342857Y-75642857D01*
X136342857Y-75785714D01*
X136390476Y-75880952D01*
X136438095Y-75928571D01*
X136533333Y-75976190D01*
X136914286Y-75976190D01*
X135961905Y-75547619D02*
X135914286Y-75500000D01*
X135819048Y-75452381D01*
X135580952Y-75452381D01*
X135485714Y-75500000D01*
X135438095Y-75547619D01*
X135390476Y-75642857D01*
X135390476Y-75738095D01*
X135438095Y-75880952D01*
X136009524Y-76452381D01*
X135390476Y-76452381D01*
X134438095Y-76452381D02*
X135009524Y-76452381D01*
X134723810Y-76452381D02*
X134723810Y-75452381D01*
X134819048Y-75595238D01*
X134914286Y-75690476D01*
X135009524Y-75738095D01*
X128942857Y-84252381D02*
X129276191Y-83776190D01*
X129514286Y-84252381D02*
X129514286Y-83252381D01*
X129133333Y-83252381D01*
X129038095Y-83300000D01*
X128990476Y-83347619D01*
X128942857Y-83442857D01*
X128942857Y-83585714D01*
X128990476Y-83680952D01*
X129038095Y-83728571D01*
X129133333Y-83776190D01*
X129514286Y-83776190D01*
X128561905Y-83347619D02*
X128514286Y-83300000D01*
X128419048Y-83252381D01*
X128180952Y-83252381D01*
X128085714Y-83300000D01*
X128038095Y-83347619D01*
X127990476Y-83442857D01*
X127990476Y-83538095D01*
X128038095Y-83680952D01*
X128609524Y-84252381D01*
X127990476Y-84252381D01*
X127609524Y-83347619D02*
X127561905Y-83300000D01*
X127466667Y-83252381D01*
X127228571Y-83252381D01*
X127133333Y-83300000D01*
X127085714Y-83347619D01*
X127038095Y-83442857D01*
X127038095Y-83538095D01*
X127085714Y-83680952D01*
X127657143Y-84252381D01*
X127038095Y-84252381D01*
X123652381Y-82457143D02*
X123176190Y-82123809D01*
X123652381Y-81885714D02*
X122652381Y-81885714D01*
X122652381Y-82266667D01*
X122700000Y-82361905D01*
X122747619Y-82409524D01*
X122842857Y-82457143D01*
X122985714Y-82457143D01*
X123080952Y-82409524D01*
X123128571Y-82361905D01*
X123176190Y-82266667D01*
X123176190Y-81885714D01*
X122747619Y-82838095D02*
X122700000Y-82885714D01*
X122652381Y-82980952D01*
X122652381Y-83219048D01*
X122700000Y-83314286D01*
X122747619Y-83361905D01*
X122842857Y-83409524D01*
X122938095Y-83409524D01*
X123080952Y-83361905D01*
X123652381Y-82790476D01*
X123652381Y-83409524D01*
X122652381Y-83742857D02*
X122652381Y-84361905D01*
X123033333Y-84028571D01*
X123033333Y-84171429D01*
X123080952Y-84266667D01*
X123128571Y-84314286D01*
X123223810Y-84361905D01*
X123461905Y-84361905D01*
X123557143Y-84314286D01*
X123604762Y-84266667D01*
X123652381Y-84171429D01*
X123652381Y-83885714D01*
X123604762Y-83790476D01*
X123557143Y-83742857D01*
X118752381Y-82457143D02*
X118276190Y-82123809D01*
X118752381Y-81885714D02*
X117752381Y-81885714D01*
X117752381Y-82266667D01*
X117800000Y-82361905D01*
X117847619Y-82409524D01*
X117942857Y-82457143D01*
X118085714Y-82457143D01*
X118180952Y-82409524D01*
X118228571Y-82361905D01*
X118276190Y-82266667D01*
X118276190Y-81885714D01*
X117847619Y-82838095D02*
X117800000Y-82885714D01*
X117752381Y-82980952D01*
X117752381Y-83219048D01*
X117800000Y-83314286D01*
X117847619Y-83361905D01*
X117942857Y-83409524D01*
X118038095Y-83409524D01*
X118180952Y-83361905D01*
X118752381Y-82790476D01*
X118752381Y-83409524D01*
X118085714Y-84266667D02*
X118752381Y-84266667D01*
X117704762Y-84028571D02*
X118419048Y-83790476D01*
X118419048Y-84409524D01*
X128852381Y-68157143D02*
X128376190Y-67823809D01*
X128852381Y-67585714D02*
X127852381Y-67585714D01*
X127852381Y-67966667D01*
X127900000Y-68061905D01*
X127947619Y-68109524D01*
X128042857Y-68157143D01*
X128185714Y-68157143D01*
X128280952Y-68109524D01*
X128328571Y-68061905D01*
X128376190Y-67966667D01*
X128376190Y-67585714D01*
X127947619Y-68538095D02*
X127900000Y-68585714D01*
X127852381Y-68680952D01*
X127852381Y-68919048D01*
X127900000Y-69014286D01*
X127947619Y-69061905D01*
X128042857Y-69109524D01*
X128138095Y-69109524D01*
X128280952Y-69061905D01*
X128852381Y-68490476D01*
X128852381Y-69109524D01*
X127852381Y-70014286D02*
X127852381Y-69538095D01*
X128328571Y-69490476D01*
X128280952Y-69538095D01*
X128233333Y-69633333D01*
X128233333Y-69871429D01*
X128280952Y-69966667D01*
X128328571Y-70014286D01*
X128423810Y-70061905D01*
X128661905Y-70061905D01*
X128757143Y-70014286D01*
X128804762Y-69966667D01*
X128852381Y-69871429D01*
X128852381Y-69633333D01*
X128804762Y-69538095D01*
X128757143Y-69490476D01*
X122602381Y-87040476D02*
X123602381Y-87373809D01*
X122602381Y-87707143D01*
X123602381Y-88040476D02*
X122602381Y-88040476D01*
X122602381Y-88278571D01*
X122650000Y-88421429D01*
X122745238Y-88516667D01*
X122840476Y-88564286D01*
X123030952Y-88611905D01*
X123173810Y-88611905D01*
X123364286Y-88564286D01*
X123459524Y-88516667D01*
X123554762Y-88421429D01*
X123602381Y-88278571D01*
X123602381Y-88040476D01*
X123602381Y-89564286D02*
X123602381Y-88992857D01*
X123602381Y-89278571D02*
X122602381Y-89278571D01*
X122745238Y-89183333D01*
X122840476Y-89088095D01*
X122888095Y-88992857D01*
X126352381Y-87390476D02*
X127352381Y-87723809D01*
X126352381Y-88057143D01*
X127352381Y-88390476D02*
X126352381Y-88390476D01*
X126352381Y-88628571D01*
X126400000Y-88771429D01*
X126495238Y-88866667D01*
X126590476Y-88914286D01*
X126780952Y-88961905D01*
X126923810Y-88961905D01*
X127114286Y-88914286D01*
X127209524Y-88866667D01*
X127304762Y-88771429D01*
X127352381Y-88628571D01*
X127352381Y-88390476D01*
X126447619Y-89342857D02*
X126400000Y-89390476D01*
X126352381Y-89485714D01*
X126352381Y-89723810D01*
X126400000Y-89819048D01*
X126447619Y-89866667D01*
X126542857Y-89914286D01*
X126638095Y-89914286D01*
X126780952Y-89866667D01*
X127352381Y-89295238D01*
X127352381Y-89914286D01*
X115790476Y-58352381D02*
X115457143Y-59352381D01*
X115123809Y-58352381D01*
X114933333Y-58352381D02*
X114361904Y-58352381D01*
X114647619Y-59352381D02*
X114647619Y-58352381D01*
X113504761Y-59352381D02*
X114076190Y-59352381D01*
X113790476Y-59352381D02*
X113790476Y-58352381D01*
X113885714Y-58495238D01*
X113980952Y-58590476D01*
X114076190Y-58638095D01*
X122990476Y-58352381D02*
X122657143Y-59352381D01*
X122323809Y-58352381D01*
X122133333Y-58352381D02*
X121561904Y-58352381D01*
X121847619Y-59352381D02*
X121847619Y-58352381D01*
X121276190Y-58447619D02*
X121228571Y-58400000D01*
X121133333Y-58352381D01*
X120895237Y-58352381D01*
X120799999Y-58400000D01*
X120752380Y-58447619D01*
X120704761Y-58542857D01*
X120704761Y-58638095D01*
X120752380Y-58780952D01*
X121323809Y-59352381D01*
X120704761Y-59352381D01*
X130190476Y-58352381D02*
X129857143Y-59352381D01*
X129523809Y-58352381D01*
X129333333Y-58352381D02*
X128761904Y-58352381D01*
X129047619Y-59352381D02*
X129047619Y-58352381D01*
X128523809Y-58352381D02*
X127904761Y-58352381D01*
X128238095Y-58733333D01*
X128095237Y-58733333D01*
X127999999Y-58780952D01*
X127952380Y-58828571D01*
X127904761Y-58923810D01*
X127904761Y-59161905D01*
X127952380Y-59257143D01*
X127999999Y-59304762D01*
X128095237Y-59352381D01*
X128380952Y-59352381D01*
X128476190Y-59304762D01*
X128523809Y-59257143D01*
X137390476Y-58352381D02*
X137057143Y-59352381D01*
X136723809Y-58352381D01*
X136533333Y-58352381D02*
X135961904Y-58352381D01*
X136247619Y-59352381D02*
X136247619Y-58352381D01*
X135199999Y-58685714D02*
X135199999Y-59352381D01*
X135438095Y-58304762D02*
X135676190Y-59019048D01*
X135057142Y-59019048D01*
M02*
