G04 #@! TF.FileFunction,Legend,Top*
%FSLAX46Y46*%
G04 Gerber Fmt 4.6, Leading zero omitted, Abs format (unit mm)*
G04 Created by KiCad (PCBNEW 4.0.2-stable) date 24.08.2018 1:20:05*
%MOMM*%
G01*
G04 APERTURE LIST*
%ADD10C,0.100000*%
%ADD11C,0.300000*%
%ADD12C,0.200000*%
%ADD13C,0.150000*%
%ADD14C,0.010000*%
G04 APERTURE END LIST*
D10*
D11*
X119864287Y-68978571D02*
X119364287Y-68264286D01*
X119007144Y-68978571D02*
X119007144Y-67478571D01*
X119578572Y-67478571D01*
X119721430Y-67550000D01*
X119792858Y-67621429D01*
X119864287Y-67764286D01*
X119864287Y-67978571D01*
X119792858Y-68121429D01*
X119721430Y-68192857D01*
X119578572Y-68264286D01*
X119007144Y-68264286D01*
X120507144Y-68978571D02*
X120507144Y-67478571D01*
X120864287Y-67478571D01*
X121078572Y-67550000D01*
X121221430Y-67692857D01*
X121292858Y-67835714D01*
X121364287Y-68121429D01*
X121364287Y-68335714D01*
X121292858Y-68621429D01*
X121221430Y-68764286D01*
X121078572Y-68907143D01*
X120864287Y-68978571D01*
X120507144Y-68978571D01*
X122864287Y-68835714D02*
X122792858Y-68907143D01*
X122578572Y-68978571D01*
X122435715Y-68978571D01*
X122221430Y-68907143D01*
X122078572Y-68764286D01*
X122007144Y-68621429D01*
X121935715Y-68335714D01*
X121935715Y-68121429D01*
X122007144Y-67835714D01*
X122078572Y-67692857D01*
X122221430Y-67550000D01*
X122435715Y-67478571D01*
X122578572Y-67478571D01*
X122792858Y-67550000D01*
X122864287Y-67621429D01*
X123435715Y-67621429D02*
X123507144Y-67550000D01*
X123650001Y-67478571D01*
X124007144Y-67478571D01*
X124150001Y-67550000D01*
X124221430Y-67621429D01*
X124292858Y-67764286D01*
X124292858Y-67907143D01*
X124221430Y-68121429D01*
X123364287Y-68978571D01*
X124292858Y-68978571D01*
X124935715Y-68407143D02*
X126078572Y-68407143D01*
X127078572Y-67478571D02*
X127221429Y-67478571D01*
X127364286Y-67550000D01*
X127435715Y-67621429D01*
X127507144Y-67764286D01*
X127578572Y-68050000D01*
X127578572Y-68407143D01*
X127507144Y-68692857D01*
X127435715Y-68835714D01*
X127364286Y-68907143D01*
X127221429Y-68978571D01*
X127078572Y-68978571D01*
X126935715Y-68907143D01*
X126864286Y-68835714D01*
X126792858Y-68692857D01*
X126721429Y-68407143D01*
X126721429Y-68050000D01*
X126792858Y-67764286D01*
X126864286Y-67621429D01*
X126935715Y-67550000D01*
X127078572Y-67478571D01*
X128507143Y-67478571D02*
X128650000Y-67478571D01*
X128792857Y-67550000D01*
X128864286Y-67621429D01*
X128935715Y-67764286D01*
X129007143Y-68050000D01*
X129007143Y-68407143D01*
X128935715Y-68692857D01*
X128864286Y-68835714D01*
X128792857Y-68907143D01*
X128650000Y-68978571D01*
X128507143Y-68978571D01*
X128364286Y-68907143D01*
X128292857Y-68835714D01*
X128221429Y-68692857D01*
X128150000Y-68407143D01*
X128150000Y-68050000D01*
X128221429Y-67764286D01*
X128292857Y-67621429D01*
X128364286Y-67550000D01*
X128507143Y-67478571D01*
X130292857Y-67978571D02*
X130292857Y-68978571D01*
X129935714Y-67407143D02*
X129578571Y-68478571D01*
X130507143Y-68478571D01*
X131864285Y-68978571D02*
X131007142Y-68978571D01*
X131435714Y-68978571D02*
X131435714Y-67478571D01*
X131292857Y-67692857D01*
X131149999Y-67835714D01*
X131007142Y-67907143D01*
D12*
X145100000Y-89700000D02*
X146600000Y-91200000D01*
D13*
X127600000Y-98928571D02*
X127552381Y-99023809D01*
X127552381Y-99166666D01*
X127600000Y-99309524D01*
X127695238Y-99404762D01*
X127790476Y-99452381D01*
X127980952Y-99500000D01*
X128123810Y-99500000D01*
X128314286Y-99452381D01*
X128409524Y-99404762D01*
X128504762Y-99309524D01*
X128552381Y-99166666D01*
X128552381Y-99071428D01*
X128504762Y-98928571D01*
X128457143Y-98880952D01*
X128123810Y-98880952D01*
X128123810Y-99071428D01*
X128552381Y-98309524D02*
X128504762Y-98404762D01*
X128457143Y-98452381D01*
X128361905Y-98500000D01*
X128076190Y-98500000D01*
X127980952Y-98452381D01*
X127933333Y-98404762D01*
X127885714Y-98309524D01*
X127885714Y-98166666D01*
X127933333Y-98071428D01*
X127980952Y-98023809D01*
X128076190Y-97976190D01*
X128361905Y-97976190D01*
X128457143Y-98023809D01*
X128504762Y-98071428D01*
X128552381Y-98166666D01*
X128552381Y-98309524D01*
X127885714Y-97119047D02*
X128552381Y-97119047D01*
X127885714Y-97547619D02*
X128409524Y-97547619D01*
X128504762Y-97500000D01*
X128552381Y-97404762D01*
X128552381Y-97261904D01*
X128504762Y-97166666D01*
X128457143Y-97119047D01*
X127885714Y-96785714D02*
X127885714Y-96404762D01*
X127552381Y-96642857D02*
X128409524Y-96642857D01*
X128504762Y-96595238D01*
X128552381Y-96500000D01*
X128552381Y-96404762D01*
X132271429Y-88700000D02*
X132176191Y-88652381D01*
X132033334Y-88652381D01*
X131890476Y-88700000D01*
X131795238Y-88795238D01*
X131747619Y-88890476D01*
X131700000Y-89080952D01*
X131700000Y-89223810D01*
X131747619Y-89414286D01*
X131795238Y-89509524D01*
X131890476Y-89604762D01*
X132033334Y-89652381D01*
X132128572Y-89652381D01*
X132271429Y-89604762D01*
X132319048Y-89557143D01*
X132319048Y-89223810D01*
X132128572Y-89223810D01*
X132890476Y-89652381D02*
X132795238Y-89604762D01*
X132747619Y-89557143D01*
X132700000Y-89461905D01*
X132700000Y-89176190D01*
X132747619Y-89080952D01*
X132795238Y-89033333D01*
X132890476Y-88985714D01*
X133033334Y-88985714D01*
X133128572Y-89033333D01*
X133176191Y-89080952D01*
X133223810Y-89176190D01*
X133223810Y-89461905D01*
X133176191Y-89557143D01*
X133128572Y-89604762D01*
X133033334Y-89652381D01*
X132890476Y-89652381D01*
X134080953Y-88985714D02*
X134080953Y-89652381D01*
X133652381Y-88985714D02*
X133652381Y-89509524D01*
X133700000Y-89604762D01*
X133795238Y-89652381D01*
X133938096Y-89652381D01*
X134033334Y-89604762D01*
X134080953Y-89557143D01*
X134414286Y-88985714D02*
X134795238Y-88985714D01*
X134557143Y-88652381D02*
X134557143Y-89509524D01*
X134604762Y-89604762D01*
X134700000Y-89652381D01*
X134795238Y-89652381D01*
X137100000Y-88652381D02*
X137290477Y-88652381D01*
X137385715Y-88700000D01*
X137480953Y-88795238D01*
X137528572Y-88985714D01*
X137528572Y-89319048D01*
X137480953Y-89509524D01*
X137385715Y-89604762D01*
X137290477Y-89652381D01*
X137100000Y-89652381D01*
X137004762Y-89604762D01*
X136909524Y-89509524D01*
X136861905Y-89319048D01*
X136861905Y-88985714D01*
X136909524Y-88795238D01*
X137004762Y-88700000D01*
X137100000Y-88652381D01*
X137957143Y-88652381D02*
X137957143Y-89461905D01*
X138004762Y-89557143D01*
X138052381Y-89604762D01*
X138147619Y-89652381D01*
X138338096Y-89652381D01*
X138433334Y-89604762D01*
X138480953Y-89557143D01*
X138528572Y-89461905D01*
X138528572Y-88652381D01*
X138861905Y-88652381D02*
X139433334Y-88652381D01*
X139147619Y-89652381D02*
X139147619Y-88652381D01*
X141676190Y-88652381D02*
X142009523Y-89652381D01*
X142342857Y-88652381D01*
X142819047Y-89652381D02*
X142723809Y-89604762D01*
X142676190Y-89557143D01*
X142628571Y-89461905D01*
X142628571Y-89176190D01*
X142676190Y-89080952D01*
X142723809Y-89033333D01*
X142819047Y-88985714D01*
X142961905Y-88985714D01*
X143057143Y-89033333D01*
X143104762Y-89080952D01*
X143152381Y-89176190D01*
X143152381Y-89461905D01*
X143104762Y-89557143D01*
X143057143Y-89604762D01*
X142961905Y-89652381D01*
X142819047Y-89652381D01*
X144009524Y-88985714D02*
X144009524Y-89652381D01*
X143580952Y-88985714D02*
X143580952Y-89509524D01*
X143628571Y-89604762D01*
X143723809Y-89652381D01*
X143866667Y-89652381D01*
X143961905Y-89604762D01*
X144009524Y-89557143D01*
X144342857Y-88985714D02*
X144723809Y-88985714D01*
X144485714Y-88652381D02*
X144485714Y-89509524D01*
X144533333Y-89604762D01*
X144628571Y-89652381D01*
X144723809Y-89652381D01*
X146752381Y-87638095D02*
X146752381Y-87019047D01*
X147133333Y-87352381D01*
X147133333Y-87209523D01*
X147180952Y-87114285D01*
X147228571Y-87066666D01*
X147323810Y-87019047D01*
X147561905Y-87019047D01*
X147657143Y-87066666D01*
X147704762Y-87114285D01*
X147752381Y-87209523D01*
X147752381Y-87495238D01*
X147704762Y-87590476D01*
X147657143Y-87638095D01*
X146752381Y-86733333D02*
X147752381Y-86400000D01*
X146752381Y-86066666D01*
X146752381Y-85828571D02*
X146752381Y-85209523D01*
X147133333Y-85542857D01*
X147133333Y-85399999D01*
X147180952Y-85304761D01*
X147228571Y-85257142D01*
X147323810Y-85209523D01*
X147561905Y-85209523D01*
X147657143Y-85257142D01*
X147704762Y-85304761D01*
X147752381Y-85399999D01*
X147752381Y-85685714D01*
X147704762Y-85780952D01*
X147657143Y-85828571D01*
X146752381Y-97390476D02*
X146752381Y-97866667D01*
X147228571Y-97914286D01*
X147180952Y-97866667D01*
X147133333Y-97771429D01*
X147133333Y-97533333D01*
X147180952Y-97438095D01*
X147228571Y-97390476D01*
X147323810Y-97342857D01*
X147561905Y-97342857D01*
X147657143Y-97390476D01*
X147704762Y-97438095D01*
X147752381Y-97533333D01*
X147752381Y-97771429D01*
X147704762Y-97866667D01*
X147657143Y-97914286D01*
X146752381Y-97057143D02*
X147752381Y-96723810D01*
X146752381Y-96390476D01*
X127700000Y-89561904D02*
X127652381Y-89657142D01*
X127652381Y-89799999D01*
X127700000Y-89942857D01*
X127795238Y-90038095D01*
X127890476Y-90085714D01*
X128080952Y-90133333D01*
X128223810Y-90133333D01*
X128414286Y-90085714D01*
X128509524Y-90038095D01*
X128604762Y-89942857D01*
X128652381Y-89799999D01*
X128652381Y-89704761D01*
X128604762Y-89561904D01*
X128557143Y-89514285D01*
X128223810Y-89514285D01*
X128223810Y-89704761D01*
X128652381Y-89085714D02*
X127652381Y-89085714D01*
X128652381Y-88514285D01*
X127652381Y-88514285D01*
X128652381Y-88038095D02*
X127652381Y-88038095D01*
X127652381Y-87800000D01*
X127700000Y-87657142D01*
X127795238Y-87561904D01*
X127890476Y-87514285D01*
X128080952Y-87466666D01*
X128223810Y-87466666D01*
X128414286Y-87514285D01*
X128509524Y-87561904D01*
X128604762Y-87657142D01*
X128652381Y-87800000D01*
X128652381Y-88038095D01*
X112809524Y-98252381D02*
X112333333Y-98252381D01*
X112285714Y-98728571D01*
X112333333Y-98680952D01*
X112428571Y-98633333D01*
X112666667Y-98633333D01*
X112761905Y-98680952D01*
X112809524Y-98728571D01*
X112857143Y-98823810D01*
X112857143Y-99061905D01*
X112809524Y-99157143D01*
X112761905Y-99204762D01*
X112666667Y-99252381D01*
X112428571Y-99252381D01*
X112333333Y-99204762D01*
X112285714Y-99157143D01*
X113142857Y-98252381D02*
X113476190Y-99252381D01*
X113809524Y-98252381D01*
X109238096Y-98300000D02*
X109142858Y-98252381D01*
X109000001Y-98252381D01*
X108857143Y-98300000D01*
X108761905Y-98395238D01*
X108714286Y-98490476D01*
X108666667Y-98680952D01*
X108666667Y-98823810D01*
X108714286Y-99014286D01*
X108761905Y-99109524D01*
X108857143Y-99204762D01*
X109000001Y-99252381D01*
X109095239Y-99252381D01*
X109238096Y-99204762D01*
X109285715Y-99157143D01*
X109285715Y-98823810D01*
X109095239Y-98823810D01*
X109714286Y-99252381D02*
X109714286Y-98252381D01*
X110285715Y-99252381D01*
X110285715Y-98252381D01*
X110761905Y-99252381D02*
X110761905Y-98252381D01*
X111000000Y-98252381D01*
X111142858Y-98300000D01*
X111238096Y-98395238D01*
X111285715Y-98490476D01*
X111333334Y-98680952D01*
X111333334Y-98823810D01*
X111285715Y-99014286D01*
X111238096Y-99109524D01*
X111142858Y-99204762D01*
X111000000Y-99252381D01*
X110761905Y-99252381D01*
X122452381Y-89533333D02*
X123452381Y-89200000D01*
X122452381Y-88866666D01*
X121952381Y-90080952D02*
X120952381Y-90080952D01*
X120952381Y-89842857D01*
X121000000Y-89699999D01*
X121095238Y-89604761D01*
X121190476Y-89557142D01*
X121380952Y-89509523D01*
X121523810Y-89509523D01*
X121714286Y-89557142D01*
X121809524Y-89604761D01*
X121904762Y-89699999D01*
X121952381Y-89842857D01*
X121952381Y-90080952D01*
X121571429Y-89080952D02*
X121571429Y-88319047D01*
X120452381Y-90080952D02*
X119452381Y-90080952D01*
X119452381Y-89842857D01*
X119500000Y-89699999D01*
X119595238Y-89604761D01*
X119690476Y-89557142D01*
X119880952Y-89509523D01*
X120023810Y-89509523D01*
X120214286Y-89557142D01*
X120309524Y-89604761D01*
X120404762Y-89699999D01*
X120452381Y-89842857D01*
X120452381Y-90080952D01*
X120071429Y-89080952D02*
X120071429Y-88319047D01*
X120452381Y-88699999D02*
X119690476Y-88699999D01*
X118000000Y-89961904D02*
X117952381Y-90057142D01*
X117952381Y-90199999D01*
X118000000Y-90342857D01*
X118095238Y-90438095D01*
X118190476Y-90485714D01*
X118380952Y-90533333D01*
X118523810Y-90533333D01*
X118714286Y-90485714D01*
X118809524Y-90438095D01*
X118904762Y-90342857D01*
X118952381Y-90199999D01*
X118952381Y-90104761D01*
X118904762Y-89961904D01*
X118857143Y-89914285D01*
X118523810Y-89914285D01*
X118523810Y-90104761D01*
X118952381Y-89485714D02*
X117952381Y-89485714D01*
X118952381Y-88914285D01*
X117952381Y-88914285D01*
X118952381Y-88438095D02*
X117952381Y-88438095D01*
X117952381Y-88200000D01*
X118000000Y-88057142D01*
X118095238Y-87961904D01*
X118190476Y-87914285D01*
X118380952Y-87866666D01*
X118523810Y-87866666D01*
X118714286Y-87914285D01*
X118809524Y-87961904D01*
X118904762Y-88057142D01*
X118952381Y-88200000D01*
X118952381Y-88438095D01*
D11*
X118607143Y-93378571D02*
X118607143Y-94592857D01*
X118678571Y-94735714D01*
X118750000Y-94807143D01*
X118892857Y-94878571D01*
X119178571Y-94878571D01*
X119321429Y-94807143D01*
X119392857Y-94735714D01*
X119464286Y-94592857D01*
X119464286Y-93378571D01*
X120107143Y-94807143D02*
X120321429Y-94878571D01*
X120678572Y-94878571D01*
X120821429Y-94807143D01*
X120892858Y-94735714D01*
X120964286Y-94592857D01*
X120964286Y-94450000D01*
X120892858Y-94307143D01*
X120821429Y-94235714D01*
X120678572Y-94164286D01*
X120392858Y-94092857D01*
X120250000Y-94021429D01*
X120178572Y-93950000D01*
X120107143Y-93807143D01*
X120107143Y-93664286D01*
X120178572Y-93521429D01*
X120250000Y-93450000D01*
X120392858Y-93378571D01*
X120750000Y-93378571D01*
X120964286Y-93450000D01*
X122107143Y-94092857D02*
X122321429Y-94164286D01*
X122392857Y-94235714D01*
X122464286Y-94378571D01*
X122464286Y-94592857D01*
X122392857Y-94735714D01*
X122321429Y-94807143D01*
X122178571Y-94878571D01*
X121607143Y-94878571D01*
X121607143Y-93378571D01*
X122107143Y-93378571D01*
X122250000Y-93450000D01*
X122321429Y-93521429D01*
X122392857Y-93664286D01*
X122392857Y-93807143D01*
X122321429Y-93950000D01*
X122250000Y-94021429D01*
X122107143Y-94092857D01*
X121607143Y-94092857D01*
X138350000Y-59350000D02*
G75*
G03X138350000Y-59350000I-150000J0D01*
G01*
D13*
X134450000Y-56850000D02*
X137450000Y-56850000D01*
X133950000Y-59350000D02*
X134950000Y-54350000D01*
X134950000Y-54350000D02*
X137950000Y-54350000D01*
X137950000Y-54350000D02*
X136950000Y-59350000D01*
X136950000Y-59350000D02*
X133950000Y-59350000D01*
X139700000Y-59850000D02*
X139700000Y-53850000D01*
X132700000Y-59850000D02*
X132700000Y-53850000D01*
D11*
X116750000Y-59350000D02*
G75*
G03X116750000Y-59350000I-150000J0D01*
G01*
D13*
X112850000Y-56850000D02*
X115850000Y-56850000D01*
X112350000Y-59350000D02*
X113350000Y-54350000D01*
X113350000Y-54350000D02*
X116350000Y-54350000D01*
X116350000Y-54350000D02*
X115350000Y-59350000D01*
X115350000Y-59350000D02*
X112350000Y-59350000D01*
X118100000Y-59850000D02*
X118100000Y-53850000D01*
X111100000Y-59850000D02*
X111100000Y-53850000D01*
X106300000Y-54750000D02*
X105700000Y-54750000D01*
X105325000Y-57350000D02*
X105325000Y-56350000D01*
X106675000Y-56350000D02*
X106675000Y-57350000D01*
D11*
X123950000Y-59350000D02*
G75*
G03X123950000Y-59350000I-150000J0D01*
G01*
D13*
X120050000Y-56850000D02*
X123050000Y-56850000D01*
X119550000Y-59350000D02*
X120550000Y-54350000D01*
X120550000Y-54350000D02*
X123550000Y-54350000D01*
X123550000Y-54350000D02*
X122550000Y-59350000D01*
X122550000Y-59350000D02*
X119550000Y-59350000D01*
X125300000Y-59850000D02*
X125300000Y-53850000D01*
X118300000Y-59850000D02*
X118300000Y-53850000D01*
D11*
X131150000Y-59350000D02*
G75*
G03X131150000Y-59350000I-150000J0D01*
G01*
D13*
X127250000Y-56850000D02*
X130250000Y-56850000D01*
X126750000Y-59350000D02*
X127750000Y-54350000D01*
X127750000Y-54350000D02*
X130750000Y-54350000D01*
X130750000Y-54350000D02*
X129750000Y-59350000D01*
X129750000Y-59350000D02*
X126750000Y-59350000D01*
X132500000Y-59850000D02*
X132500000Y-53850000D01*
X125500000Y-59850000D02*
X125500000Y-53850000D01*
X150000000Y-59900000D02*
X150000000Y-53900000D01*
X146500000Y-59900000D02*
X146500000Y-53900000D01*
X147168377Y-69210303D02*
X148653301Y-67725379D01*
X148653301Y-67725379D02*
X150774621Y-69846699D01*
X150774621Y-69846699D02*
X149289697Y-71331623D01*
X150496446Y-75503553D02*
G75*
G03X150496446Y-75503553I-7499999J0D01*
G01*
X145600000Y-91000000D02*
X145600000Y-100000000D01*
X145600000Y-100000000D02*
X130600000Y-100000000D01*
X130600000Y-100000000D02*
X130600000Y-91000000D01*
X130600000Y-91000000D02*
X145600000Y-91000000D01*
X129370000Y-90730000D02*
X129370000Y-95810000D01*
X129370000Y-90730000D02*
X126830000Y-90730000D01*
X126830000Y-90730000D02*
X126830000Y-95810000D01*
X126830000Y-95810000D02*
X129370000Y-95810000D01*
X146830000Y-88230000D02*
X146830000Y-95850000D01*
X146830000Y-95850000D02*
X149370000Y-95850000D01*
X149370000Y-95850000D02*
X149370000Y-88230000D01*
X149370000Y-88230000D02*
X146830000Y-88230000D01*
X113970000Y-97320000D02*
X108890000Y-97320000D01*
X113970000Y-97320000D02*
X113970000Y-94780000D01*
X113970000Y-94780000D02*
X108890000Y-94780000D01*
X108890000Y-94780000D02*
X108890000Y-97320000D01*
X135842504Y-73071831D02*
G75*
G03X150050000Y-73050000I7107496J-2428169D01*
G01*
X142950000Y-67500000D02*
X150050000Y-67500000D01*
X150050000Y-67500000D02*
X150050000Y-73100000D01*
X142950000Y-67500000D02*
X135850000Y-67500000D01*
X135850000Y-67500000D02*
X135850000Y-73100000D01*
D14*
G36*
X109456321Y-65631853D02*
X109513710Y-65632419D01*
X109563815Y-65633308D01*
X109604610Y-65634526D01*
X109634071Y-65636078D01*
X109650175Y-65637971D01*
X109650212Y-65637980D01*
X109664622Y-65640229D01*
X109689853Y-65643081D01*
X109721374Y-65646046D01*
X109734470Y-65647132D01*
X109766667Y-65649835D01*
X109793816Y-65652365D01*
X109811648Y-65654314D01*
X109815289Y-65654854D01*
X109829107Y-65656860D01*
X109852495Y-65659742D01*
X109873424Y-65662107D01*
X109915187Y-65667404D01*
X109968143Y-65675272D01*
X110028436Y-65685046D01*
X110092210Y-65696062D01*
X110155608Y-65707655D01*
X110214773Y-65719160D01*
X110262121Y-65729090D01*
X110516125Y-65792789D01*
X110765542Y-65871080D01*
X111009768Y-65963687D01*
X111248199Y-66070330D01*
X111480233Y-66190734D01*
X111705265Y-66324621D01*
X111922691Y-66471713D01*
X111996581Y-66526037D01*
X112142442Y-66641518D01*
X112289305Y-66769182D01*
X112434434Y-66906282D01*
X112575094Y-67050068D01*
X112708546Y-67197791D01*
X112832057Y-67346703D01*
X112895533Y-67429151D01*
X113044881Y-67641672D01*
X113181303Y-67862278D01*
X113304523Y-68090283D01*
X113414264Y-68325001D01*
X113510251Y-68565746D01*
X113592209Y-68811832D01*
X113659861Y-69062572D01*
X113712932Y-69317280D01*
X113748040Y-69549667D01*
X113753843Y-69598365D01*
X113759352Y-69648143D01*
X113764056Y-69694147D01*
X113767445Y-69731522D01*
X113768257Y-69742091D01*
X113770878Y-69776854D01*
X113773561Y-69808974D01*
X113775843Y-69833005D01*
X113776438Y-69838303D01*
X113777287Y-69853245D01*
X113777986Y-69881221D01*
X113778535Y-69919871D01*
X113778936Y-69966834D01*
X113779190Y-70019752D01*
X113779299Y-70076263D01*
X113779263Y-70134009D01*
X113779083Y-70190630D01*
X113778762Y-70243765D01*
X113778299Y-70291056D01*
X113777696Y-70330142D01*
X113776954Y-70358663D01*
X113776179Y-70373242D01*
X113774285Y-70395290D01*
X113771764Y-70426915D01*
X113769070Y-70462342D01*
X113768264Y-70473303D01*
X113765613Y-70503692D01*
X113761365Y-70545378D01*
X113755956Y-70594402D01*
X113749821Y-70646802D01*
X113744163Y-70692590D01*
X113704187Y-70946935D01*
X113649548Y-71197397D01*
X113580614Y-71443419D01*
X113497751Y-71684442D01*
X113401327Y-71919907D01*
X113291711Y-72149257D01*
X113169269Y-72371931D01*
X113034370Y-72587372D01*
X112887380Y-72795020D01*
X112728668Y-72994318D01*
X112558602Y-73184707D01*
X112377547Y-73365627D01*
X112185874Y-73536520D01*
X111983948Y-73696829D01*
X111772138Y-73845993D01*
X111596208Y-73956694D01*
X111367970Y-74084276D01*
X111134300Y-74197535D01*
X110895056Y-74296519D01*
X110650097Y-74381274D01*
X110399281Y-74451845D01*
X110142466Y-74508280D01*
X109879511Y-74550625D01*
X109727182Y-74568438D01*
X109689885Y-74571426D01*
X109639951Y-74574254D01*
X109580075Y-74576866D01*
X109512953Y-74579206D01*
X109441279Y-74581216D01*
X109367749Y-74582840D01*
X109295058Y-74584022D01*
X109225902Y-74584705D01*
X109162976Y-74584834D01*
X109108974Y-74584350D01*
X109066593Y-74583199D01*
X109053697Y-74582550D01*
X108789989Y-74559155D01*
X108529886Y-74521016D01*
X108273893Y-74468342D01*
X108022513Y-74401342D01*
X107776250Y-74320225D01*
X107535608Y-74225200D01*
X107301091Y-74116476D01*
X107073203Y-73994262D01*
X106852449Y-73858767D01*
X106639331Y-73710200D01*
X106434355Y-73548770D01*
X106318286Y-73448333D01*
X106127919Y-73267673D01*
X105949146Y-73077234D01*
X105782289Y-72877572D01*
X105627672Y-72669242D01*
X105485618Y-72452799D01*
X105356451Y-72228798D01*
X105240495Y-71997795D01*
X105138073Y-71760345D01*
X105049508Y-71517003D01*
X104975124Y-71268323D01*
X104923657Y-71054880D01*
X104904982Y-70962751D01*
X104887500Y-70866375D01*
X104872009Y-70770654D01*
X104859310Y-70680493D01*
X104851071Y-70609577D01*
X104847284Y-70572996D01*
X104843712Y-70539876D01*
X104840838Y-70514624D01*
X104839515Y-70504091D01*
X104835675Y-70467353D01*
X104832358Y-70417777D01*
X104829601Y-70357911D01*
X104827441Y-70290303D01*
X104825914Y-70217502D01*
X104825058Y-70142054D01*
X104825052Y-70138595D01*
X105095836Y-70138595D01*
X105096613Y-70218222D01*
X105098236Y-70293285D01*
X105100705Y-70360459D01*
X105104021Y-70416423D01*
X105104561Y-70423273D01*
X105131539Y-70672880D01*
X105171144Y-70914556D01*
X105223771Y-71149719D01*
X105289814Y-71379786D01*
X105369670Y-71606172D01*
X105463732Y-71830295D01*
X105543614Y-71997303D01*
X105659036Y-72212494D01*
X105783027Y-72415859D01*
X105916824Y-72609109D01*
X106061662Y-72793952D01*
X106218778Y-72972099D01*
X106335436Y-73092450D01*
X106519582Y-73264864D01*
X106712729Y-73425155D01*
X106914226Y-73573076D01*
X107123421Y-73708379D01*
X107339660Y-73830819D01*
X107562292Y-73940148D01*
X107790664Y-74036120D01*
X108024123Y-74118487D01*
X108262018Y-74187004D01*
X108503695Y-74241423D01*
X108748503Y-74281497D01*
X108995789Y-74306980D01*
X109244901Y-74317625D01*
X109495186Y-74313185D01*
X109554000Y-74309932D01*
X109811072Y-74286337D01*
X110063779Y-74248011D01*
X110311852Y-74195059D01*
X110555019Y-74127591D01*
X110793013Y-74045713D01*
X111025563Y-73949532D01*
X111252400Y-73839156D01*
X111473253Y-73714693D01*
X111687854Y-73576249D01*
X111895932Y-73423932D01*
X112009760Y-73332403D01*
X112051249Y-73296512D01*
X112100731Y-73251394D01*
X112156033Y-73199223D01*
X112214978Y-73142170D01*
X112275392Y-73082411D01*
X112335098Y-73022118D01*
X112391921Y-72963464D01*
X112443687Y-72908622D01*
X112488219Y-72859766D01*
X112522086Y-72820584D01*
X112683546Y-72614729D01*
X112830790Y-72402992D01*
X112963791Y-72185438D01*
X113082525Y-71962128D01*
X113186966Y-71733126D01*
X113277089Y-71498494D01*
X113352867Y-71258296D01*
X113414276Y-71012594D01*
X113461290Y-70761451D01*
X113493882Y-70504930D01*
X113502312Y-70408264D01*
X113505376Y-70356079D01*
X113507660Y-70291987D01*
X113509166Y-70219456D01*
X113509893Y-70141955D01*
X113509841Y-70062951D01*
X113509011Y-69985912D01*
X113507401Y-69914305D01*
X113505013Y-69851599D01*
X113502312Y-69807129D01*
X113475063Y-69549488D01*
X113433208Y-69296375D01*
X113376886Y-69048135D01*
X113306236Y-68805110D01*
X113221398Y-68567644D01*
X113122510Y-68336080D01*
X113009713Y-68110762D01*
X112883144Y-67892033D01*
X112742943Y-67680235D01*
X112589250Y-67475714D01*
X112525997Y-67398372D01*
X112464266Y-67327436D01*
X112392934Y-67250236D01*
X112314846Y-67169565D01*
X112232851Y-67088213D01*
X112149796Y-67008970D01*
X112068528Y-66934629D01*
X111991895Y-66867980D01*
X111947757Y-66831582D01*
X111742978Y-66676631D01*
X111530948Y-66535164D01*
X111312064Y-66407349D01*
X111086724Y-66293356D01*
X110855325Y-66193352D01*
X110618265Y-66107507D01*
X110375941Y-66035987D01*
X110128751Y-65978961D01*
X109877091Y-65936599D01*
X109815697Y-65928586D01*
X109659907Y-65912332D01*
X109505660Y-65902438D01*
X109347360Y-65898641D01*
X109207636Y-65899959D01*
X108991672Y-65909594D01*
X108784693Y-65928728D01*
X108583173Y-65957977D01*
X108383585Y-65997952D01*
X108182405Y-66049269D01*
X107976104Y-66112542D01*
X107964576Y-66116369D01*
X107728548Y-66203053D01*
X107499087Y-66303434D01*
X107276725Y-66417047D01*
X107061993Y-66543428D01*
X106855422Y-66682113D01*
X106657543Y-66832638D01*
X106468887Y-66994537D01*
X106289985Y-67167347D01*
X106121370Y-67350604D01*
X105963571Y-67543842D01*
X105817121Y-67746597D01*
X105682550Y-67958406D01*
X105560390Y-68178803D01*
X105525084Y-68248879D01*
X105420906Y-68477694D01*
X105330952Y-68711944D01*
X105255162Y-68951850D01*
X105193475Y-69197633D01*
X105145831Y-69449514D01*
X105112170Y-69707713D01*
X105104632Y-69788273D01*
X105101184Y-69840886D01*
X105098580Y-69905548D01*
X105096820Y-69978935D01*
X105095906Y-70057725D01*
X105095836Y-70138595D01*
X104825052Y-70138595D01*
X104824908Y-70066510D01*
X104825503Y-69993416D01*
X104826878Y-69925321D01*
X104829070Y-69864773D01*
X104830027Y-69846000D01*
X104849069Y-69617866D01*
X104880658Y-69386814D01*
X104924088Y-69157756D01*
X104937123Y-69099604D01*
X105003958Y-68844390D01*
X105084859Y-68595419D01*
X105179832Y-68352679D01*
X105288883Y-68116159D01*
X105412018Y-67885847D01*
X105549242Y-67661730D01*
X105700563Y-67443798D01*
X105865984Y-67232038D01*
X105875211Y-67220908D01*
X105909890Y-67180839D01*
X105953917Y-67132533D01*
X106005216Y-67078071D01*
X106061711Y-67019535D01*
X106121326Y-66959006D01*
X106181985Y-66898566D01*
X106241613Y-66840295D01*
X106298134Y-66786276D01*
X106349472Y-66738591D01*
X106393550Y-66699319D01*
X106405939Y-66688738D01*
X106614197Y-66523110D01*
X106829812Y-66370935D01*
X107052559Y-66232332D01*
X107282210Y-66107418D01*
X107518540Y-65996313D01*
X107761321Y-65899135D01*
X108010328Y-65816003D01*
X108153151Y-65775429D01*
X108352842Y-65727692D01*
X108561994Y-65688168D01*
X108776650Y-65657535D01*
X108945939Y-65640197D01*
X108977815Y-65638151D01*
X109020622Y-65636370D01*
X109072336Y-65634860D01*
X109130933Y-65633628D01*
X109194389Y-65632680D01*
X109260680Y-65632021D01*
X109327781Y-65631660D01*
X109393670Y-65631602D01*
X109456321Y-65631853D01*
X109456321Y-65631853D01*
G37*
X109456321Y-65631853D02*
X109513710Y-65632419D01*
X109563815Y-65633308D01*
X109604610Y-65634526D01*
X109634071Y-65636078D01*
X109650175Y-65637971D01*
X109650212Y-65637980D01*
X109664622Y-65640229D01*
X109689853Y-65643081D01*
X109721374Y-65646046D01*
X109734470Y-65647132D01*
X109766667Y-65649835D01*
X109793816Y-65652365D01*
X109811648Y-65654314D01*
X109815289Y-65654854D01*
X109829107Y-65656860D01*
X109852495Y-65659742D01*
X109873424Y-65662107D01*
X109915187Y-65667404D01*
X109968143Y-65675272D01*
X110028436Y-65685046D01*
X110092210Y-65696062D01*
X110155608Y-65707655D01*
X110214773Y-65719160D01*
X110262121Y-65729090D01*
X110516125Y-65792789D01*
X110765542Y-65871080D01*
X111009768Y-65963687D01*
X111248199Y-66070330D01*
X111480233Y-66190734D01*
X111705265Y-66324621D01*
X111922691Y-66471713D01*
X111996581Y-66526037D01*
X112142442Y-66641518D01*
X112289305Y-66769182D01*
X112434434Y-66906282D01*
X112575094Y-67050068D01*
X112708546Y-67197791D01*
X112832057Y-67346703D01*
X112895533Y-67429151D01*
X113044881Y-67641672D01*
X113181303Y-67862278D01*
X113304523Y-68090283D01*
X113414264Y-68325001D01*
X113510251Y-68565746D01*
X113592209Y-68811832D01*
X113659861Y-69062572D01*
X113712932Y-69317280D01*
X113748040Y-69549667D01*
X113753843Y-69598365D01*
X113759352Y-69648143D01*
X113764056Y-69694147D01*
X113767445Y-69731522D01*
X113768257Y-69742091D01*
X113770878Y-69776854D01*
X113773561Y-69808974D01*
X113775843Y-69833005D01*
X113776438Y-69838303D01*
X113777287Y-69853245D01*
X113777986Y-69881221D01*
X113778535Y-69919871D01*
X113778936Y-69966834D01*
X113779190Y-70019752D01*
X113779299Y-70076263D01*
X113779263Y-70134009D01*
X113779083Y-70190630D01*
X113778762Y-70243765D01*
X113778299Y-70291056D01*
X113777696Y-70330142D01*
X113776954Y-70358663D01*
X113776179Y-70373242D01*
X113774285Y-70395290D01*
X113771764Y-70426915D01*
X113769070Y-70462342D01*
X113768264Y-70473303D01*
X113765613Y-70503692D01*
X113761365Y-70545378D01*
X113755956Y-70594402D01*
X113749821Y-70646802D01*
X113744163Y-70692590D01*
X113704187Y-70946935D01*
X113649548Y-71197397D01*
X113580614Y-71443419D01*
X113497751Y-71684442D01*
X113401327Y-71919907D01*
X113291711Y-72149257D01*
X113169269Y-72371931D01*
X113034370Y-72587372D01*
X112887380Y-72795020D01*
X112728668Y-72994318D01*
X112558602Y-73184707D01*
X112377547Y-73365627D01*
X112185874Y-73536520D01*
X111983948Y-73696829D01*
X111772138Y-73845993D01*
X111596208Y-73956694D01*
X111367970Y-74084276D01*
X111134300Y-74197535D01*
X110895056Y-74296519D01*
X110650097Y-74381274D01*
X110399281Y-74451845D01*
X110142466Y-74508280D01*
X109879511Y-74550625D01*
X109727182Y-74568438D01*
X109689885Y-74571426D01*
X109639951Y-74574254D01*
X109580075Y-74576866D01*
X109512953Y-74579206D01*
X109441279Y-74581216D01*
X109367749Y-74582840D01*
X109295058Y-74584022D01*
X109225902Y-74584705D01*
X109162976Y-74584834D01*
X109108974Y-74584350D01*
X109066593Y-74583199D01*
X109053697Y-74582550D01*
X108789989Y-74559155D01*
X108529886Y-74521016D01*
X108273893Y-74468342D01*
X108022513Y-74401342D01*
X107776250Y-74320225D01*
X107535608Y-74225200D01*
X107301091Y-74116476D01*
X107073203Y-73994262D01*
X106852449Y-73858767D01*
X106639331Y-73710200D01*
X106434355Y-73548770D01*
X106318286Y-73448333D01*
X106127919Y-73267673D01*
X105949146Y-73077234D01*
X105782289Y-72877572D01*
X105627672Y-72669242D01*
X105485618Y-72452799D01*
X105356451Y-72228798D01*
X105240495Y-71997795D01*
X105138073Y-71760345D01*
X105049508Y-71517003D01*
X104975124Y-71268323D01*
X104923657Y-71054880D01*
X104904982Y-70962751D01*
X104887500Y-70866375D01*
X104872009Y-70770654D01*
X104859310Y-70680493D01*
X104851071Y-70609577D01*
X104847284Y-70572996D01*
X104843712Y-70539876D01*
X104840838Y-70514624D01*
X104839515Y-70504091D01*
X104835675Y-70467353D01*
X104832358Y-70417777D01*
X104829601Y-70357911D01*
X104827441Y-70290303D01*
X104825914Y-70217502D01*
X104825058Y-70142054D01*
X104825052Y-70138595D01*
X105095836Y-70138595D01*
X105096613Y-70218222D01*
X105098236Y-70293285D01*
X105100705Y-70360459D01*
X105104021Y-70416423D01*
X105104561Y-70423273D01*
X105131539Y-70672880D01*
X105171144Y-70914556D01*
X105223771Y-71149719D01*
X105289814Y-71379786D01*
X105369670Y-71606172D01*
X105463732Y-71830295D01*
X105543614Y-71997303D01*
X105659036Y-72212494D01*
X105783027Y-72415859D01*
X105916824Y-72609109D01*
X106061662Y-72793952D01*
X106218778Y-72972099D01*
X106335436Y-73092450D01*
X106519582Y-73264864D01*
X106712729Y-73425155D01*
X106914226Y-73573076D01*
X107123421Y-73708379D01*
X107339660Y-73830819D01*
X107562292Y-73940148D01*
X107790664Y-74036120D01*
X108024123Y-74118487D01*
X108262018Y-74187004D01*
X108503695Y-74241423D01*
X108748503Y-74281497D01*
X108995789Y-74306980D01*
X109244901Y-74317625D01*
X109495186Y-74313185D01*
X109554000Y-74309932D01*
X109811072Y-74286337D01*
X110063779Y-74248011D01*
X110311852Y-74195059D01*
X110555019Y-74127591D01*
X110793013Y-74045713D01*
X111025563Y-73949532D01*
X111252400Y-73839156D01*
X111473253Y-73714693D01*
X111687854Y-73576249D01*
X111895932Y-73423932D01*
X112009760Y-73332403D01*
X112051249Y-73296512D01*
X112100731Y-73251394D01*
X112156033Y-73199223D01*
X112214978Y-73142170D01*
X112275392Y-73082411D01*
X112335098Y-73022118D01*
X112391921Y-72963464D01*
X112443687Y-72908622D01*
X112488219Y-72859766D01*
X112522086Y-72820584D01*
X112683546Y-72614729D01*
X112830790Y-72402992D01*
X112963791Y-72185438D01*
X113082525Y-71962128D01*
X113186966Y-71733126D01*
X113277089Y-71498494D01*
X113352867Y-71258296D01*
X113414276Y-71012594D01*
X113461290Y-70761451D01*
X113493882Y-70504930D01*
X113502312Y-70408264D01*
X113505376Y-70356079D01*
X113507660Y-70291987D01*
X113509166Y-70219456D01*
X113509893Y-70141955D01*
X113509841Y-70062951D01*
X113509011Y-69985912D01*
X113507401Y-69914305D01*
X113505013Y-69851599D01*
X113502312Y-69807129D01*
X113475063Y-69549488D01*
X113433208Y-69296375D01*
X113376886Y-69048135D01*
X113306236Y-68805110D01*
X113221398Y-68567644D01*
X113122510Y-68336080D01*
X113009713Y-68110762D01*
X112883144Y-67892033D01*
X112742943Y-67680235D01*
X112589250Y-67475714D01*
X112525997Y-67398372D01*
X112464266Y-67327436D01*
X112392934Y-67250236D01*
X112314846Y-67169565D01*
X112232851Y-67088213D01*
X112149796Y-67008970D01*
X112068528Y-66934629D01*
X111991895Y-66867980D01*
X111947757Y-66831582D01*
X111742978Y-66676631D01*
X111530948Y-66535164D01*
X111312064Y-66407349D01*
X111086724Y-66293356D01*
X110855325Y-66193352D01*
X110618265Y-66107507D01*
X110375941Y-66035987D01*
X110128751Y-65978961D01*
X109877091Y-65936599D01*
X109815697Y-65928586D01*
X109659907Y-65912332D01*
X109505660Y-65902438D01*
X109347360Y-65898641D01*
X109207636Y-65899959D01*
X108991672Y-65909594D01*
X108784693Y-65928728D01*
X108583173Y-65957977D01*
X108383585Y-65997952D01*
X108182405Y-66049269D01*
X107976104Y-66112542D01*
X107964576Y-66116369D01*
X107728548Y-66203053D01*
X107499087Y-66303434D01*
X107276725Y-66417047D01*
X107061993Y-66543428D01*
X106855422Y-66682113D01*
X106657543Y-66832638D01*
X106468887Y-66994537D01*
X106289985Y-67167347D01*
X106121370Y-67350604D01*
X105963571Y-67543842D01*
X105817121Y-67746597D01*
X105682550Y-67958406D01*
X105560390Y-68178803D01*
X105525084Y-68248879D01*
X105420906Y-68477694D01*
X105330952Y-68711944D01*
X105255162Y-68951850D01*
X105193475Y-69197633D01*
X105145831Y-69449514D01*
X105112170Y-69707713D01*
X105104632Y-69788273D01*
X105101184Y-69840886D01*
X105098580Y-69905548D01*
X105096820Y-69978935D01*
X105095906Y-70057725D01*
X105095836Y-70138595D01*
X104825052Y-70138595D01*
X104824908Y-70066510D01*
X104825503Y-69993416D01*
X104826878Y-69925321D01*
X104829070Y-69864773D01*
X104830027Y-69846000D01*
X104849069Y-69617866D01*
X104880658Y-69386814D01*
X104924088Y-69157756D01*
X104937123Y-69099604D01*
X105003958Y-68844390D01*
X105084859Y-68595419D01*
X105179832Y-68352679D01*
X105288883Y-68116159D01*
X105412018Y-67885847D01*
X105549242Y-67661730D01*
X105700563Y-67443798D01*
X105865984Y-67232038D01*
X105875211Y-67220908D01*
X105909890Y-67180839D01*
X105953917Y-67132533D01*
X106005216Y-67078071D01*
X106061711Y-67019535D01*
X106121326Y-66959006D01*
X106181985Y-66898566D01*
X106241613Y-66840295D01*
X106298134Y-66786276D01*
X106349472Y-66738591D01*
X106393550Y-66699319D01*
X106405939Y-66688738D01*
X106614197Y-66523110D01*
X106829812Y-66370935D01*
X107052559Y-66232332D01*
X107282210Y-66107418D01*
X107518540Y-65996313D01*
X107761321Y-65899135D01*
X108010328Y-65816003D01*
X108153151Y-65775429D01*
X108352842Y-65727692D01*
X108561994Y-65688168D01*
X108776650Y-65657535D01*
X108945939Y-65640197D01*
X108977815Y-65638151D01*
X109020622Y-65636370D01*
X109072336Y-65634860D01*
X109130933Y-65633628D01*
X109194389Y-65632680D01*
X109260680Y-65632021D01*
X109327781Y-65631660D01*
X109393670Y-65631602D01*
X109456321Y-65631853D01*
G36*
X109379122Y-66048268D02*
X109496007Y-66052169D01*
X109611089Y-66058438D01*
X109720980Y-66066992D01*
X109822291Y-66077751D01*
X109831091Y-66078853D01*
X110072242Y-66117161D01*
X110309927Y-66170226D01*
X110543508Y-66237674D01*
X110772351Y-66319131D01*
X110995819Y-66414223D01*
X111213278Y-66522577D01*
X111424090Y-66643817D01*
X111627621Y-66777570D01*
X111823235Y-66923463D01*
X112010295Y-67081120D01*
X112188167Y-67250167D01*
X112356215Y-67430232D01*
X112513802Y-67620939D01*
X112563899Y-67686810D01*
X112706199Y-67890651D01*
X112835042Y-68101637D01*
X112950269Y-68319159D01*
X113051718Y-68542606D01*
X113139229Y-68771365D01*
X113212642Y-69004827D01*
X113271797Y-69242380D01*
X113316532Y-69483412D01*
X113346689Y-69727312D01*
X113362105Y-69973470D01*
X113362621Y-70221275D01*
X113348077Y-70470114D01*
X113332550Y-70615697D01*
X113294165Y-70862207D01*
X113240996Y-71104658D01*
X113173227Y-71342598D01*
X113091040Y-71575575D01*
X112994616Y-71803136D01*
X112884139Y-72024829D01*
X112759790Y-72240201D01*
X112621753Y-72448801D01*
X112558074Y-72536518D01*
X112436812Y-72690014D01*
X112303277Y-72842518D01*
X112160458Y-72991002D01*
X112011340Y-73132444D01*
X111858910Y-73263819D01*
X111770727Y-73333777D01*
X111570118Y-73478123D01*
X111361150Y-73609747D01*
X111144599Y-73728322D01*
X110921240Y-73833518D01*
X110691848Y-73925007D01*
X110457197Y-74002458D01*
X110218064Y-74065543D01*
X109975222Y-74113933D01*
X109908060Y-74124596D01*
X109798317Y-74138945D01*
X109679273Y-74150724D01*
X109554899Y-74159745D01*
X109429164Y-74165821D01*
X109306037Y-74168766D01*
X109189487Y-74168393D01*
X109083483Y-74164515D01*
X109072939Y-74163886D01*
X108819088Y-74140642D01*
X108569983Y-74102852D01*
X108325879Y-74050609D01*
X108087032Y-73984006D01*
X107853696Y-73903138D01*
X107789243Y-73876220D01*
X108570701Y-73876220D01*
X108574688Y-73881639D01*
X108586028Y-73885777D01*
X108607417Y-73889644D01*
X108639421Y-73893975D01*
X108677955Y-73898744D01*
X108717132Y-73903290D01*
X108750032Y-73906818D01*
X108757589Y-73907554D01*
X108803996Y-73911909D01*
X108984552Y-73687451D01*
X109025216Y-73637156D01*
X109062803Y-73591161D01*
X109096250Y-73550729D01*
X109124490Y-73517127D01*
X109146460Y-73491620D01*
X109161096Y-73475473D01*
X109167332Y-73469950D01*
X109167465Y-73470061D01*
X109167161Y-73479235D01*
X109165149Y-73501706D01*
X109161643Y-73535499D01*
X109156857Y-73578637D01*
X109151007Y-73629144D01*
X109144308Y-73685045D01*
X109142546Y-73699455D01*
X109135562Y-73756915D01*
X109129239Y-73809943D01*
X109123814Y-73856462D01*
X109119527Y-73894394D01*
X109116616Y-73921661D01*
X109115318Y-73936185D01*
X109115273Y-73937462D01*
X109116474Y-73944068D01*
X109121697Y-73949107D01*
X109133375Y-73953262D01*
X109153937Y-73957219D01*
X109185815Y-73961661D01*
X109213409Y-73965091D01*
X109259725Y-73970724D01*
X109292931Y-73974606D01*
X109315204Y-73976794D01*
X109328719Y-73977343D01*
X109335656Y-73976307D01*
X109338191Y-73973742D01*
X109338500Y-73969703D01*
X109338485Y-73968268D01*
X109339395Y-73958729D01*
X109342010Y-73935358D01*
X109346158Y-73899603D01*
X109351668Y-73852910D01*
X109358366Y-73796728D01*
X109366081Y-73732502D01*
X109374640Y-73661682D01*
X109383872Y-73585713D01*
X109388515Y-73547653D01*
X109397986Y-73470081D01*
X109400657Y-73448182D01*
X109604880Y-73448182D01*
X109605245Y-73491619D01*
X109606862Y-73524425D01*
X109610356Y-73551350D01*
X109616349Y-73577145D01*
X109625466Y-73606558D01*
X109625819Y-73607621D01*
X109655750Y-73678081D01*
X109695881Y-73742685D01*
X109744133Y-73798858D01*
X109798428Y-73844024D01*
X109833761Y-73865140D01*
X109902028Y-73891644D01*
X109976668Y-73905257D01*
X110055507Y-73905891D01*
X110136371Y-73893458D01*
X110185662Y-73879452D01*
X110250860Y-73853659D01*
X110305268Y-73822745D01*
X110353303Y-73783977D01*
X110374801Y-73762406D01*
X110418402Y-73707154D01*
X110448104Y-73648208D01*
X110464569Y-73583640D01*
X110468460Y-73511524D01*
X110467573Y-73492522D01*
X110465184Y-73461501D01*
X110462512Y-73436375D01*
X110460007Y-73421093D01*
X110459154Y-73418625D01*
X110450645Y-73418068D01*
X110430054Y-73421054D01*
X110400148Y-73427066D01*
X110363693Y-73435582D01*
X110348968Y-73439298D01*
X110242879Y-73466603D01*
X110242879Y-73528589D01*
X110241656Y-73566365D01*
X110237400Y-73594045D01*
X110229227Y-73616774D01*
X110226949Y-73621364D01*
X110202035Y-73654205D01*
X110165516Y-73681844D01*
X110120908Y-73701964D01*
X110093780Y-73709069D01*
X110037265Y-73713984D01*
X109986951Y-73704955D01*
X109941927Y-73681694D01*
X109905945Y-73649207D01*
X109871405Y-73602099D01*
X109846332Y-73549342D01*
X109830819Y-73493483D01*
X109824960Y-73437067D01*
X109828849Y-73382640D01*
X109842580Y-73332748D01*
X109866247Y-73289937D01*
X109891696Y-73263072D01*
X109931324Y-73237826D01*
X109977627Y-73220099D01*
X110026178Y-73210765D01*
X110072549Y-73210696D01*
X110110473Y-73219975D01*
X110133774Y-73234709D01*
X110159246Y-73258546D01*
X110182186Y-73286814D01*
X110189900Y-73298827D01*
X110193920Y-73304446D01*
X110199698Y-73307598D01*
X110209715Y-73308021D01*
X110226452Y-73305453D01*
X110252391Y-73299633D01*
X110290013Y-73290299D01*
X110303846Y-73286800D01*
X110345310Y-73276204D01*
X110374032Y-73268348D01*
X110392203Y-73262228D01*
X110402011Y-73256838D01*
X110405647Y-73251174D01*
X110405301Y-73244230D01*
X110404477Y-73240619D01*
X110393371Y-73212193D01*
X110373851Y-73178362D01*
X110349088Y-73143853D01*
X110322256Y-73113397D01*
X110313631Y-73105170D01*
X110259104Y-73064767D01*
X110198498Y-73037140D01*
X110130484Y-73021871D01*
X110053735Y-73018542D01*
X110039926Y-73019123D01*
X109952774Y-73030446D01*
X109872519Y-73054331D01*
X109800223Y-73090047D01*
X109736947Y-73136867D01*
X109683753Y-73194059D01*
X109641703Y-73260895D01*
X109621858Y-73306409D01*
X109614302Y-73329516D01*
X109609321Y-73352942D01*
X109606421Y-73380793D01*
X109605112Y-73417175D01*
X109604880Y-73448182D01*
X109400657Y-73448182D01*
X109406872Y-73397252D01*
X109415000Y-73330571D01*
X109422201Y-73271442D01*
X109428304Y-73221270D01*
X109433137Y-73181457D01*
X109436530Y-73153410D01*
X109438312Y-73138530D01*
X109438545Y-73136466D01*
X109431397Y-73134080D01*
X109412076Y-73130951D01*
X109383768Y-73127378D01*
X109349660Y-73123662D01*
X109312936Y-73120102D01*
X109276784Y-73116997D01*
X109244388Y-73114647D01*
X109218936Y-73113351D01*
X109203612Y-73113409D01*
X109200675Y-73114104D01*
X109194568Y-73121517D01*
X109179945Y-73139548D01*
X109157924Y-73166807D01*
X109129625Y-73201907D01*
X109096166Y-73243460D01*
X109058669Y-73290077D01*
X109018675Y-73339842D01*
X108978601Y-73389473D01*
X108941624Y-73434776D01*
X108908821Y-73474470D01*
X108881267Y-73507276D01*
X108860039Y-73531911D01*
X108846212Y-73547096D01*
X108840863Y-73551550D01*
X108840846Y-73551509D01*
X108841234Y-73542369D01*
X108843324Y-73519865D01*
X108846904Y-73485909D01*
X108851763Y-73442411D01*
X108857692Y-73391283D01*
X108864478Y-73334436D01*
X108867729Y-73307712D01*
X108874863Y-73249301D01*
X108881334Y-73196097D01*
X108886919Y-73149943D01*
X108891398Y-73112681D01*
X108894548Y-73086155D01*
X108896147Y-73072207D01*
X108896300Y-73070521D01*
X108888922Y-73069289D01*
X108869574Y-73066658D01*
X108841522Y-73063030D01*
X108808029Y-73058810D01*
X108772357Y-73054397D01*
X108737771Y-73050196D01*
X108707535Y-73046609D01*
X108684911Y-73044038D01*
X108673163Y-73042885D01*
X108672225Y-73042889D01*
X108671248Y-73050531D01*
X108668616Y-73072046D01*
X108664499Y-73106020D01*
X108659066Y-73151041D01*
X108652488Y-73205697D01*
X108644935Y-73268574D01*
X108636577Y-73338260D01*
X108627585Y-73413342D01*
X108623416Y-73448182D01*
X108614098Y-73525807D01*
X108605232Y-73599142D01*
X108597002Y-73666700D01*
X108589591Y-73727000D01*
X108583184Y-73778557D01*
X108577964Y-73819888D01*
X108574114Y-73849508D01*
X108571819Y-73865934D01*
X108571370Y-73868512D01*
X108570701Y-73876220D01*
X107789243Y-73876220D01*
X107626127Y-73808097D01*
X107404578Y-73698977D01*
X107189305Y-73575873D01*
X106980562Y-73438876D01*
X106861656Y-73352389D01*
X106796718Y-73302819D01*
X106788628Y-73296442D01*
X107543216Y-73296442D01*
X107555031Y-73373896D01*
X107580117Y-73448003D01*
X107589164Y-73467095D01*
X107612875Y-73503948D01*
X107646896Y-73543670D01*
X107687515Y-73582770D01*
X107731022Y-73617759D01*
X107773708Y-73645147D01*
X107784291Y-73650630D01*
X107861793Y-73682132D01*
X107939957Y-73701857D01*
X108016211Y-73709437D01*
X108087988Y-73704505D01*
X108117506Y-73698273D01*
X108176180Y-73679011D01*
X108227388Y-73652695D01*
X108275938Y-73616510D01*
X108307789Y-73586919D01*
X108344066Y-73548254D01*
X108371121Y-73512425D01*
X108392854Y-73474221D01*
X108394302Y-73471273D01*
X108427069Y-73388547D01*
X108444924Y-73307099D01*
X108448346Y-73228017D01*
X108437815Y-73152391D01*
X108413812Y-73081309D01*
X108376817Y-73015860D01*
X108327309Y-72957131D01*
X108265769Y-72906212D01*
X108192676Y-72864192D01*
X108190101Y-72863200D01*
X108835948Y-72863200D01*
X108840379Y-72916053D01*
X108848936Y-72970609D01*
X108865130Y-73014154D01*
X108890101Y-73049631D01*
X108893465Y-73053200D01*
X108923409Y-73076567D01*
X108963519Y-73097248D01*
X109008566Y-73112778D01*
X109030159Y-73117633D01*
X109068550Y-73121529D01*
X109111802Y-73121076D01*
X109153872Y-73116703D01*
X109188717Y-73108839D01*
X109196983Y-73105811D01*
X109238333Y-73080444D01*
X109272478Y-73042722D01*
X109298021Y-72994547D01*
X109311174Y-72950469D01*
X109313190Y-72937333D01*
X109310989Y-72928386D01*
X109302112Y-72922434D01*
X109284099Y-72918282D01*
X109254491Y-72914736D01*
X109233447Y-72912712D01*
X109178440Y-72907562D01*
X109165728Y-72934351D01*
X109145688Y-72961262D01*
X109116953Y-72975658D01*
X109079356Y-72977589D01*
X109045229Y-72970883D01*
X109013065Y-72955557D01*
X108992592Y-72930351D01*
X108985136Y-72907836D01*
X108984007Y-72902136D01*
X110431704Y-72902136D01*
X110433738Y-72910829D01*
X110439384Y-72924989D01*
X110449149Y-72945570D01*
X110463540Y-72973530D01*
X110483062Y-73009823D01*
X110508222Y-73055405D01*
X110539527Y-73111232D01*
X110577483Y-73178259D01*
X110622596Y-73257442D01*
X110632087Y-73274060D01*
X110841621Y-73640818D01*
X110884765Y-73616652D01*
X110914353Y-73599927D01*
X110949321Y-73579946D01*
X110979864Y-73562327D01*
X111004365Y-73547455D01*
X111022633Y-73535130D01*
X111031432Y-73527568D01*
X111031777Y-73526736D01*
X111028135Y-73518390D01*
X111018194Y-73499379D01*
X111003385Y-73472351D01*
X110985136Y-73439953D01*
X110981043Y-73432788D01*
X110953936Y-73385514D01*
X110933549Y-73349524D01*
X110919124Y-73322644D01*
X110909901Y-73302700D01*
X110905123Y-73287521D01*
X110904032Y-73274934D01*
X110905869Y-73262765D01*
X110909876Y-73248842D01*
X110913154Y-73238254D01*
X110921648Y-73213790D01*
X110929847Y-73196055D01*
X110935143Y-73189529D01*
X110944086Y-73191645D01*
X110965276Y-73199136D01*
X110996831Y-73211262D01*
X111036874Y-73227281D01*
X111083523Y-73246452D01*
X111134898Y-73268034D01*
X111142346Y-73271200D01*
X111341388Y-73355918D01*
X111459772Y-73288519D01*
X111497962Y-73266545D01*
X111531034Y-73247070D01*
X111556848Y-73231393D01*
X111573262Y-73220812D01*
X111578230Y-73216746D01*
X111571354Y-73213003D01*
X111551709Y-73204173D01*
X111520813Y-73190894D01*
X111480187Y-73173804D01*
X111431349Y-73153541D01*
X111375821Y-73130742D01*
X111315121Y-73106044D01*
X111295439Y-73098081D01*
X111233130Y-73072830D01*
X111175242Y-73049228D01*
X111123343Y-73027923D01*
X111079000Y-73009565D01*
X111043781Y-72994806D01*
X111019253Y-72984293D01*
X111006983Y-72978678D01*
X111005937Y-72978054D01*
X111007074Y-72970060D01*
X111012437Y-72949473D01*
X111021390Y-72918309D01*
X111033296Y-72878580D01*
X111047520Y-72832301D01*
X111063426Y-72781485D01*
X111080376Y-72728147D01*
X111097736Y-72674300D01*
X111114868Y-72621957D01*
X111131137Y-72573134D01*
X111145906Y-72529844D01*
X111158539Y-72494100D01*
X111160678Y-72488239D01*
X111155442Y-72488944D01*
X111138830Y-72496384D01*
X111112782Y-72509570D01*
X111079240Y-72527514D01*
X111040144Y-72549228D01*
X111033220Y-72553147D01*
X110902322Y-72627422D01*
X110875280Y-72712605D01*
X110850111Y-72791916D01*
X110829196Y-72857756D01*
X110812101Y-72911318D01*
X110798390Y-72953793D01*
X110787629Y-72986373D01*
X110779384Y-73010250D01*
X110773218Y-73026616D01*
X110768698Y-73036662D01*
X110765388Y-73041580D01*
X110762853Y-73042563D01*
X110760659Y-73040802D01*
X110758371Y-73037488D01*
X110757301Y-73035953D01*
X110750011Y-73024507D01*
X110736728Y-73002264D01*
X110718990Y-72971852D01*
X110698336Y-72935901D01*
X110684457Y-72911479D01*
X110663231Y-72874384D01*
X110644354Y-72842161D01*
X110629225Y-72817139D01*
X110619243Y-72801647D01*
X110616106Y-72797741D01*
X110607785Y-72800025D01*
X110589279Y-72808497D01*
X110563641Y-72821488D01*
X110533925Y-72837330D01*
X110503183Y-72854354D01*
X110474469Y-72870890D01*
X110450835Y-72885270D01*
X110435336Y-72895826D01*
X110432776Y-72897953D01*
X110431704Y-72902136D01*
X108984007Y-72902136D01*
X108983124Y-72897678D01*
X108980329Y-72890438D01*
X108974304Y-72885246D01*
X108962605Y-72881232D01*
X108942783Y-72877525D01*
X108912395Y-72873256D01*
X108873625Y-72868166D01*
X108835948Y-72863200D01*
X108190101Y-72863200D01*
X108113066Y-72833534D01*
X108030611Y-72815511D01*
X107951001Y-72812209D01*
X107875237Y-72823063D01*
X107804322Y-72847510D01*
X107739257Y-72884987D01*
X107681046Y-72934930D01*
X107630689Y-72996776D01*
X107589190Y-73069961D01*
X107560525Y-73144151D01*
X107544954Y-73218806D01*
X107543216Y-73296442D01*
X106788628Y-73296442D01*
X106739321Y-73257580D01*
X106686704Y-73214245D01*
X106636102Y-73170392D01*
X106584754Y-73123596D01*
X106529898Y-73071433D01*
X106468771Y-73011478D01*
X106436286Y-72979117D01*
X106292344Y-72829283D01*
X106277709Y-72812616D01*
X106552182Y-72812616D01*
X106557840Y-72818564D01*
X106573725Y-72832945D01*
X106598199Y-72854381D01*
X106629627Y-72881493D01*
X106666372Y-72912903D01*
X106706799Y-72947233D01*
X106749271Y-72983104D01*
X106792151Y-73019137D01*
X106833805Y-73053955D01*
X106872595Y-73086179D01*
X106906885Y-73114431D01*
X106935040Y-73137333D01*
X106955423Y-73153505D01*
X106966397Y-73161570D01*
X106966447Y-73161601D01*
X107022833Y-73188665D01*
X107083080Y-73203920D01*
X107143850Y-73207097D01*
X107201808Y-73197927D01*
X107239777Y-73183601D01*
X107285714Y-73153902D01*
X107323661Y-73115037D01*
X107352204Y-73069760D01*
X107369928Y-73020826D01*
X107375418Y-72970988D01*
X107369645Y-72930817D01*
X107365648Y-72914611D01*
X107366649Y-72904733D01*
X107375414Y-72898736D01*
X107394710Y-72894176D01*
X107415060Y-72890682D01*
X107437991Y-72883542D01*
X107464879Y-72870670D01*
X107477594Y-72862986D01*
X107518570Y-72827426D01*
X107547228Y-72784389D01*
X107563499Y-72735723D01*
X107567314Y-72683274D01*
X107558604Y-72628890D01*
X107537300Y-72574417D01*
X107503333Y-72521702D01*
X107490887Y-72506761D01*
X107477267Y-72492868D01*
X107454808Y-72471781D01*
X107425173Y-72444924D01*
X107390025Y-72413719D01*
X107351029Y-72379589D01*
X107309848Y-72343957D01*
X107268146Y-72308245D01*
X107227586Y-72273878D01*
X107189832Y-72242277D01*
X107156547Y-72214866D01*
X107129395Y-72193067D01*
X107110041Y-72178304D01*
X107100146Y-72171998D01*
X107099373Y-72171898D01*
X107093543Y-72177951D01*
X107078899Y-72194415D01*
X107056551Y-72219991D01*
X107027611Y-72253378D01*
X106993188Y-72293275D01*
X106954394Y-72338382D01*
X106912338Y-72387399D01*
X106868133Y-72439024D01*
X106822889Y-72491957D01*
X106777715Y-72544898D01*
X106733724Y-72596546D01*
X106692026Y-72645600D01*
X106653731Y-72690761D01*
X106619950Y-72730726D01*
X106591795Y-72764197D01*
X106570375Y-72789871D01*
X106556801Y-72806450D01*
X106552182Y-72812616D01*
X106277709Y-72812616D01*
X106161511Y-72680292D01*
X106041901Y-72529502D01*
X105931628Y-72374275D01*
X105828806Y-72211969D01*
X105731550Y-72039947D01*
X105647244Y-71874689D01*
X105545435Y-71648918D01*
X105473994Y-71460677D01*
X105970123Y-71460677D01*
X105973370Y-71514976D01*
X105977636Y-71532766D01*
X106000506Y-71586206D01*
X106034131Y-71630424D01*
X106076366Y-71664410D01*
X106125064Y-71687154D01*
X106178081Y-71697648D01*
X106233273Y-71694882D01*
X106287176Y-71678433D01*
X106323663Y-71656094D01*
X106358900Y-71623780D01*
X106387975Y-71586469D01*
X106400502Y-71563572D01*
X106412975Y-71521237D01*
X106417033Y-71472686D01*
X106412665Y-71424405D01*
X106400836Y-71385003D01*
X106371104Y-71335970D01*
X106332200Y-71297488D01*
X106286433Y-71270005D01*
X106236112Y-71253972D01*
X106183546Y-71249838D01*
X106131044Y-71258053D01*
X106080915Y-71279068D01*
X106035468Y-71313330D01*
X106035036Y-71313750D01*
X106001963Y-71356223D01*
X105979990Y-71406479D01*
X105970123Y-71460677D01*
X105473994Y-71460677D01*
X105458482Y-71419807D01*
X105386236Y-71186804D01*
X105328550Y-70949358D01*
X105285274Y-70706917D01*
X105256262Y-70458930D01*
X105251813Y-70404030D01*
X105248527Y-70346993D01*
X105246140Y-70278285D01*
X105244651Y-70201600D01*
X105244060Y-70120636D01*
X105244367Y-70039088D01*
X105245573Y-69960652D01*
X105246321Y-69935170D01*
X105515271Y-69935170D01*
X105516579Y-70015987D01*
X105530188Y-70091179D01*
X105555311Y-70159474D01*
X105591161Y-70219602D01*
X105636950Y-70270290D01*
X105691891Y-70310267D01*
X105755196Y-70338262D01*
X105767117Y-70341846D01*
X105791839Y-70348338D01*
X105809782Y-70352211D01*
X105816771Y-70352668D01*
X105817874Y-70344497D01*
X105819463Y-70323761D01*
X105821354Y-70293271D01*
X105823363Y-70255842D01*
X105824104Y-70240709D01*
X105829320Y-70131267D01*
X105800235Y-70119115D01*
X105759522Y-70095394D01*
X105730581Y-70062765D01*
X105712942Y-70020426D01*
X105706136Y-69967572D01*
X105706022Y-69957606D01*
X105711138Y-69899288D01*
X105726642Y-69851528D01*
X105753374Y-69812809D01*
X105792169Y-69781616D01*
X105808422Y-69772369D01*
X105831316Y-69761559D01*
X105848675Y-69755534D01*
X105856071Y-69755385D01*
X105857198Y-69764283D01*
X105857416Y-69786242D01*
X105856776Y-69818961D01*
X105855334Y-69860137D01*
X105853142Y-69907468D01*
X105852092Y-69927153D01*
X105849596Y-69976221D01*
X105847780Y-70019992D01*
X105846707Y-70056174D01*
X105846438Y-70082475D01*
X105847033Y-70096605D01*
X105847517Y-70098325D01*
X105856626Y-70100527D01*
X105877843Y-70102992D01*
X105907892Y-70105403D01*
X105939504Y-70107251D01*
X106026860Y-70111545D01*
X106031578Y-70030727D01*
X106033974Y-69988688D01*
X106036751Y-69938386D01*
X106039520Y-69886937D01*
X106041364Y-69851773D01*
X106043767Y-69814946D01*
X106046712Y-69784421D01*
X106049853Y-69763080D01*
X106052837Y-69753808D01*
X106053251Y-69753636D01*
X106072548Y-69758510D01*
X106098353Y-69771395D01*
X106126023Y-69789691D01*
X106144595Y-69804843D01*
X106174575Y-69837157D01*
X106193597Y-69871907D01*
X106203361Y-69913247D01*
X106205649Y-69954170D01*
X106200134Y-70011323D01*
X106183185Y-70058186D01*
X106154743Y-70094842D01*
X106114748Y-70121375D01*
X106076435Y-70134860D01*
X106040333Y-70144018D01*
X106035239Y-70185509D01*
X106032583Y-70212864D01*
X106030012Y-70249010D01*
X106027977Y-70287346D01*
X106027542Y-70298201D01*
X106026260Y-70333088D01*
X106027299Y-70354866D01*
X106033362Y-70365805D01*
X106047150Y-70368176D01*
X106071366Y-70364248D01*
X106099069Y-70358308D01*
X106169878Y-70335942D01*
X106232423Y-70301208D01*
X106285993Y-70255154D01*
X106327721Y-70201597D01*
X106642048Y-70201597D01*
X106656331Y-70396338D01*
X106685047Y-70590756D01*
X106728332Y-70784112D01*
X106786322Y-70975664D01*
X106859155Y-71164671D01*
X106859887Y-71166380D01*
X106943605Y-71342158D01*
X107040888Y-71511592D01*
X107150916Y-71673814D01*
X107272869Y-71827957D01*
X107405924Y-71973151D01*
X107549261Y-72108530D01*
X107702059Y-72233226D01*
X107863496Y-72346370D01*
X108032753Y-72447095D01*
X108109387Y-72487203D01*
X108275628Y-72563339D01*
X108448552Y-72628573D01*
X108625317Y-72682070D01*
X108803083Y-72722994D01*
X108979008Y-72750509D01*
X109019060Y-72754868D01*
X109056610Y-72758644D01*
X109091203Y-72762187D01*
X109118300Y-72765028D01*
X109130667Y-72766382D01*
X109155713Y-72767964D01*
X109193328Y-72768683D01*
X109240713Y-72768622D01*
X109295072Y-72767864D01*
X109353607Y-72766490D01*
X109413522Y-72764584D01*
X109472019Y-72762227D01*
X109526301Y-72759502D01*
X109573571Y-72756492D01*
X109611032Y-72753278D01*
X109623273Y-72751874D01*
X109826920Y-72718311D01*
X110024691Y-72670582D01*
X110216287Y-72608834D01*
X110401408Y-72533214D01*
X110579752Y-72443869D01*
X110751019Y-72340947D01*
X110835597Y-72280901D01*
X111325207Y-72280901D01*
X111335175Y-72304587D01*
X111359037Y-72361234D01*
X111385410Y-72423757D01*
X111413695Y-72490739D01*
X111443292Y-72560766D01*
X111473601Y-72632422D01*
X111504022Y-72704292D01*
X111533955Y-72774961D01*
X111562801Y-72843014D01*
X111589960Y-72907036D01*
X111614831Y-72965610D01*
X111636814Y-73017323D01*
X111655311Y-73060759D01*
X111669720Y-73094503D01*
X111679442Y-73117139D01*
X111683877Y-73127253D01*
X111684063Y-73127627D01*
X111690629Y-73125253D01*
X111705357Y-73113847D01*
X111725912Y-73095642D01*
X111749964Y-73072868D01*
X111775179Y-73047757D01*
X111799225Y-73022540D01*
X111819769Y-72999449D01*
X111826228Y-72991627D01*
X111849798Y-72962253D01*
X111806171Y-72861727D01*
X111762545Y-72761200D01*
X111841016Y-72679433D01*
X111870844Y-72648339D01*
X111898651Y-72619325D01*
X111921834Y-72595110D01*
X111937791Y-72578410D01*
X111940947Y-72575097D01*
X111962405Y-72552527D01*
X112170129Y-72634483D01*
X112249443Y-72551612D01*
X112277408Y-72522182D01*
X112301352Y-72496583D01*
X112319345Y-72476909D01*
X112329462Y-72465251D01*
X112330941Y-72463153D01*
X112324452Y-72459342D01*
X112305014Y-72450748D01*
X112274104Y-72437961D01*
X112233198Y-72421570D01*
X112183775Y-72402162D01*
X112127312Y-72380325D01*
X112065286Y-72356649D01*
X112030759Y-72343593D01*
X111959993Y-72316906D01*
X111888533Y-72289934D01*
X111818826Y-72263602D01*
X111753321Y-72238836D01*
X111694467Y-72216562D01*
X111644711Y-72197706D01*
X111606503Y-72183192D01*
X111601394Y-72181247D01*
X111474394Y-72132873D01*
X111399801Y-72206887D01*
X111325207Y-72280901D01*
X110835597Y-72280901D01*
X110914910Y-72224594D01*
X111071124Y-72094958D01*
X111185980Y-71986188D01*
X111261661Y-71908194D01*
X111328329Y-71834347D01*
X111389543Y-71760295D01*
X111448864Y-71681690D01*
X111509852Y-71594182D01*
X111523425Y-71573936D01*
X111580099Y-71481358D01*
X112154357Y-71481358D01*
X112162357Y-71534805D01*
X112182825Y-71584276D01*
X112214861Y-71627644D01*
X112257567Y-71662777D01*
X112310045Y-71687547D01*
X112313364Y-71688619D01*
X112364472Y-71697174D01*
X112419287Y-71692901D01*
X112472277Y-71676660D01*
X112518049Y-71649015D01*
X112554871Y-71610724D01*
X112581667Y-71564366D01*
X112597362Y-71512522D01*
X112600880Y-71457774D01*
X112591145Y-71402702D01*
X112589101Y-71396386D01*
X112569801Y-71358591D01*
X112539733Y-71321490D01*
X112503134Y-71289211D01*
X112464242Y-71265880D01*
X112449101Y-71260013D01*
X112391115Y-71248877D01*
X112335037Y-71252064D01*
X112282894Y-71268740D01*
X112236710Y-71298071D01*
X112198512Y-71339224D01*
X112179353Y-71371058D01*
X112159723Y-71426066D01*
X112154357Y-71481358D01*
X111580099Y-71481358D01*
X111627164Y-71404477D01*
X111717734Y-71227453D01*
X111794815Y-71043782D01*
X111858086Y-70854381D01*
X111907225Y-70660167D01*
X111941911Y-70462057D01*
X111955850Y-70339528D01*
X111959853Y-70278587D01*
X111962057Y-70206885D01*
X111962556Y-70127996D01*
X111961440Y-70045489D01*
X111958801Y-69962938D01*
X111954730Y-69883912D01*
X111954610Y-69882304D01*
X112226713Y-69882304D01*
X112226984Y-69937158D01*
X112227539Y-69999486D01*
X112228376Y-70067707D01*
X112229215Y-70123588D01*
X112234824Y-70469910D01*
X112327972Y-70467758D01*
X112421121Y-70465606D01*
X112415007Y-69992242D01*
X112571212Y-69992242D01*
X112571212Y-70183704D01*
X112571402Y-70237827D01*
X112571936Y-70287994D01*
X112572759Y-70331778D01*
X112573817Y-70366753D01*
X112575057Y-70390492D01*
X112576023Y-70399220D01*
X112580833Y-70423273D01*
X112761550Y-70423273D01*
X112760669Y-70205833D01*
X112759788Y-69988394D01*
X112823288Y-69986158D01*
X112886788Y-69983923D01*
X112886788Y-70148536D01*
X112887033Y-70202809D01*
X112887717Y-70256885D01*
X112888760Y-70307070D01*
X112890083Y-70349665D01*
X112891610Y-70380976D01*
X112891789Y-70383605D01*
X112896790Y-70454060D01*
X113079212Y-70454060D01*
X113079212Y-69761333D01*
X112656333Y-69761333D01*
X112549773Y-69761476D01*
X112458550Y-69761906D01*
X112382607Y-69762623D01*
X112321889Y-69763629D01*
X112276341Y-69764925D01*
X112245907Y-69766512D01*
X112230533Y-69768390D01*
X112228530Y-69769300D01*
X112227634Y-69778423D01*
X112227035Y-69801353D01*
X112226729Y-69836508D01*
X112226713Y-69882304D01*
X111954610Y-69882304D01*
X111949319Y-69811984D01*
X111942659Y-69750725D01*
X111940345Y-69734394D01*
X111901895Y-69530243D01*
X111865777Y-69393701D01*
X112158885Y-69393701D01*
X112159804Y-69402046D01*
X112165131Y-69422183D01*
X112174069Y-69451416D01*
X112185820Y-69487051D01*
X112190920Y-69501893D01*
X112227078Y-69605963D01*
X112343342Y-69565225D01*
X112378048Y-69553072D01*
X112424730Y-69536737D01*
X112480832Y-69517113D01*
X112543798Y-69495095D01*
X112611070Y-69471577D01*
X112680093Y-69447452D01*
X112740545Y-69426328D01*
X112802987Y-69404474D01*
X112860756Y-69384183D01*
X112912265Y-69366019D01*
X112955927Y-69350544D01*
X112990155Y-69338321D01*
X113013360Y-69329914D01*
X113023956Y-69325885D01*
X113024434Y-69325645D01*
X113023058Y-69318044D01*
X113017569Y-69299166D01*
X113009052Y-69272222D01*
X112998590Y-69240425D01*
X112987267Y-69206987D01*
X112976169Y-69175121D01*
X112966378Y-69148039D01*
X112958978Y-69128953D01*
X112955666Y-69121846D01*
X112947978Y-69123183D01*
X112927382Y-69129076D01*
X112895491Y-69138975D01*
X112853917Y-69152330D01*
X112804275Y-69168590D01*
X112748177Y-69187205D01*
X112687237Y-69207624D01*
X112623069Y-69229296D01*
X112557286Y-69251672D01*
X112491501Y-69274201D01*
X112427327Y-69296331D01*
X112366378Y-69317514D01*
X112310267Y-69337198D01*
X112260608Y-69354833D01*
X112219014Y-69369868D01*
X112187098Y-69381754D01*
X112166474Y-69389938D01*
X112158885Y-69393701D01*
X111865777Y-69393701D01*
X111849563Y-69332409D01*
X111783519Y-69141225D01*
X111703934Y-68957026D01*
X111610980Y-68780146D01*
X111550592Y-68683878D01*
X111913929Y-68683878D01*
X111914531Y-68692644D01*
X111919761Y-68713673D01*
X111928877Y-68744799D01*
X111941138Y-68783858D01*
X111955803Y-68828685D01*
X111972131Y-68877114D01*
X111989380Y-68926982D01*
X112006809Y-68976122D01*
X112023677Y-69022370D01*
X112039243Y-69063561D01*
X112052765Y-69097531D01*
X112063503Y-69122113D01*
X112065087Y-69125383D01*
X112100438Y-69181968D01*
X112145026Y-69229511D01*
X112196436Y-69265807D01*
X112240242Y-69285066D01*
X112257019Y-69287821D01*
X112283873Y-69289353D01*
X112315520Y-69289392D01*
X112321410Y-69289216D01*
X112359633Y-69286546D01*
X112390073Y-69280510D01*
X112420250Y-69269379D01*
X112433016Y-69263546D01*
X112488700Y-69229878D01*
X112532173Y-69187116D01*
X112562567Y-69137879D01*
X112572433Y-69114812D01*
X112578443Y-69093275D01*
X112581485Y-69068118D01*
X112582447Y-69034187D01*
X112582465Y-69022424D01*
X112582058Y-68993268D01*
X112580440Y-68968816D01*
X112576836Y-68945384D01*
X112570470Y-68919290D01*
X112560567Y-68886854D01*
X112546352Y-68844392D01*
X112542789Y-68833980D01*
X112529510Y-68794453D01*
X112518506Y-68760152D01*
X112510563Y-68733653D01*
X112506466Y-68717532D01*
X112506189Y-68713895D01*
X112514078Y-68709969D01*
X112534160Y-68702004D01*
X112564045Y-68690893D01*
X112601343Y-68677526D01*
X112638309Y-68664636D01*
X112680355Y-68649995D01*
X112717302Y-68636829D01*
X112746698Y-68626038D01*
X112766095Y-68618517D01*
X112772926Y-68615335D01*
X112772607Y-68606694D01*
X112767800Y-68586954D01*
X112759607Y-68559315D01*
X112749133Y-68526975D01*
X112737482Y-68493132D01*
X112725756Y-68460986D01*
X112715061Y-68433735D01*
X112706498Y-68414577D01*
X112701173Y-68406712D01*
X112700924Y-68406667D01*
X112691874Y-68409156D01*
X112670018Y-68416239D01*
X112636994Y-68427340D01*
X112594437Y-68441883D01*
X112543984Y-68459290D01*
X112487272Y-68478986D01*
X112425937Y-68500394D01*
X112361616Y-68522937D01*
X112295945Y-68546039D01*
X112230560Y-68569124D01*
X112167100Y-68591615D01*
X112107198Y-68612935D01*
X112052494Y-68632509D01*
X112004622Y-68649760D01*
X111965220Y-68664110D01*
X111935924Y-68674985D01*
X111918370Y-68681807D01*
X111913929Y-68683878D01*
X111550592Y-68683878D01*
X111504826Y-68610921D01*
X111385644Y-68449682D01*
X111253604Y-68296767D01*
X111154761Y-68195963D01*
X111003340Y-68059764D01*
X110869485Y-67956394D01*
X111333290Y-67956394D01*
X111337222Y-67964297D01*
X111348836Y-67981364D01*
X111366024Y-68004884D01*
X111386676Y-68032142D01*
X111408682Y-68060426D01*
X111429932Y-68087023D01*
X111448318Y-68109220D01*
X111461730Y-68124304D01*
X111467956Y-68129576D01*
X111474681Y-68124941D01*
X111491512Y-68111989D01*
X111516642Y-68092152D01*
X111548263Y-68066860D01*
X111584565Y-68037544D01*
X111596042Y-68028225D01*
X111633849Y-67997509D01*
X111667898Y-67969887D01*
X111696274Y-67946913D01*
X111717058Y-67930137D01*
X111728334Y-67921111D01*
X111729493Y-67920210D01*
X111738312Y-67922954D01*
X111755430Y-67938345D01*
X111780917Y-67966453D01*
X111806078Y-67996545D01*
X111834326Y-68031040D01*
X111862411Y-68065177D01*
X111887249Y-68095216D01*
X111905754Y-68117418D01*
X111907097Y-68119016D01*
X111940326Y-68158486D01*
X111805670Y-68268527D01*
X111759750Y-68306629D01*
X111723208Y-68338172D01*
X111696771Y-68362487D01*
X111681165Y-68378905D01*
X111677115Y-68386757D01*
X111677173Y-68386844D01*
X111703123Y-68420660D01*
X111730282Y-68454266D01*
X111756817Y-68485597D01*
X111780897Y-68512587D01*
X111800690Y-68533171D01*
X111814364Y-68545283D01*
X111819657Y-68547491D01*
X111827151Y-68541737D01*
X111845431Y-68527168D01*
X111873358Y-68504704D01*
X111909794Y-68475269D01*
X111953601Y-68439782D01*
X112003641Y-68399166D01*
X112058774Y-68354341D01*
X112117864Y-68306230D01*
X112144030Y-68284903D01*
X112204365Y-68235705D01*
X112261129Y-68189401D01*
X112313196Y-68146911D01*
X112359442Y-68109154D01*
X112398742Y-68077047D01*
X112429970Y-68051511D01*
X112452003Y-68033464D01*
X112463714Y-68023825D01*
X112465299Y-68022491D01*
X112462523Y-68015376D01*
X112451942Y-67999000D01*
X112435546Y-67975977D01*
X112415325Y-67948924D01*
X112393268Y-67920454D01*
X112371365Y-67893185D01*
X112351605Y-67869730D01*
X112336666Y-67853399D01*
X112330419Y-67852157D01*
X112318742Y-67856649D01*
X112300732Y-67867541D01*
X112275486Y-67885496D01*
X112242104Y-67911179D01*
X112199682Y-67945255D01*
X112147319Y-67988388D01*
X112101352Y-68026769D01*
X112096084Y-68028887D01*
X112088848Y-68026381D01*
X112078273Y-68017889D01*
X112062987Y-68002050D01*
X112041617Y-67977504D01*
X112012793Y-67942888D01*
X111995282Y-67921533D01*
X111965761Y-67885137D01*
X111939595Y-67852337D01*
X111918369Y-67825166D01*
X111903673Y-67805657D01*
X111897091Y-67795844D01*
X111896979Y-67795583D01*
X111901396Y-67786461D01*
X111918062Y-67768743D01*
X111946661Y-67742728D01*
X111986875Y-67708712D01*
X112008752Y-67690813D01*
X112049144Y-67657391D01*
X112081451Y-67629313D01*
X112104557Y-67607616D01*
X112117348Y-67593335D01*
X112119449Y-67588014D01*
X112107611Y-67570715D01*
X112089658Y-67547629D01*
X112067792Y-67521237D01*
X112044215Y-67494022D01*
X112021130Y-67468467D01*
X112000740Y-67447053D01*
X111985246Y-67432264D01*
X111976851Y-67426581D01*
X111976310Y-67426684D01*
X111966520Y-67433920D01*
X111946585Y-67449613D01*
X111917836Y-67472667D01*
X111881604Y-67501984D01*
X111839222Y-67536469D01*
X111792019Y-67575025D01*
X111741328Y-67616554D01*
X111688479Y-67659961D01*
X111634805Y-67704148D01*
X111581636Y-67748019D01*
X111530303Y-67790477D01*
X111482138Y-67830425D01*
X111438473Y-67866767D01*
X111400638Y-67898405D01*
X111369965Y-67924244D01*
X111347786Y-67943187D01*
X111335430Y-67954136D01*
X111333290Y-67956394D01*
X110869485Y-67956394D01*
X110843796Y-67936556D01*
X110676565Y-67826537D01*
X110502085Y-67729904D01*
X110320793Y-67646853D01*
X110133124Y-67577581D01*
X109939517Y-67522286D01*
X109740407Y-67481164D01*
X109536232Y-67454412D01*
X109503970Y-67451549D01*
X109441336Y-67447898D01*
X109367721Y-67446143D01*
X109287405Y-67446186D01*
X109204673Y-67447931D01*
X109123805Y-67451282D01*
X109049086Y-67456143D01*
X108984796Y-67462416D01*
X108976727Y-67463420D01*
X108774274Y-67497018D01*
X108577213Y-67544967D01*
X108385962Y-67607060D01*
X108200935Y-67683091D01*
X108022549Y-67772852D01*
X107851220Y-67876136D01*
X107687363Y-67992735D01*
X107531395Y-68122442D01*
X107398342Y-68249980D01*
X107262897Y-68399387D01*
X107140380Y-68556619D01*
X107030927Y-68720935D01*
X106934676Y-68891593D01*
X106851764Y-69067854D01*
X106782326Y-69248977D01*
X106726500Y-69434221D01*
X106684422Y-69622845D01*
X106656230Y-69814110D01*
X106642060Y-70007274D01*
X106642048Y-70201597D01*
X106327721Y-70201597D01*
X106329880Y-70198826D01*
X106363373Y-70133269D01*
X106385762Y-70059531D01*
X106396337Y-69978657D01*
X106396419Y-69920160D01*
X106389226Y-69849703D01*
X106374084Y-69788611D01*
X106349552Y-69732302D01*
X106324346Y-69690780D01*
X106276249Y-69632953D01*
X106217714Y-69585881D01*
X106149774Y-69550050D01*
X106073462Y-69525951D01*
X105989812Y-69514070D01*
X105947970Y-69512848D01*
X105863176Y-69520127D01*
X105785755Y-69540565D01*
X105716468Y-69573417D01*
X105656077Y-69617940D01*
X105605345Y-69673390D01*
X105565034Y-69739022D01*
X105535907Y-69814093D01*
X105518725Y-69897859D01*
X105515271Y-69935170D01*
X105246321Y-69935170D01*
X105247676Y-69889024D01*
X105250678Y-69827899D01*
X105251813Y-69811364D01*
X105278119Y-69560117D01*
X105319103Y-69313454D01*
X105374695Y-69071549D01*
X105385819Y-69033958D01*
X105676730Y-69033958D01*
X105684009Y-69037062D01*
X105703903Y-69045397D01*
X105734806Y-69058295D01*
X105775114Y-69075088D01*
X105823223Y-69095107D01*
X105877528Y-69117685D01*
X105933612Y-69140983D01*
X105994437Y-69166529D01*
X106052336Y-69191385D01*
X106105364Y-69214678D01*
X106151573Y-69235530D01*
X106189020Y-69253067D01*
X106215757Y-69266413D01*
X106228393Y-69273659D01*
X106260085Y-69298485D01*
X106277477Y-69322115D01*
X106280941Y-69346998D01*
X106270845Y-69375583D01*
X106248784Y-69408724D01*
X106222086Y-69443690D01*
X106304391Y-69474924D01*
X106337480Y-69487372D01*
X106365141Y-69497573D01*
X106384293Y-69504404D01*
X106391721Y-69506746D01*
X106398239Y-69501147D01*
X106410253Y-69485966D01*
X106423515Y-69466924D01*
X106455119Y-69407432D01*
X106472348Y-69347097D01*
X106475250Y-69287396D01*
X106463869Y-69229803D01*
X106438254Y-69175795D01*
X106413297Y-69142517D01*
X106392112Y-69121000D01*
X106366355Y-69100149D01*
X106334329Y-69079007D01*
X106294337Y-69056615D01*
X106244680Y-69032015D01*
X106183662Y-69004249D01*
X106118535Y-68976145D01*
X106069726Y-68955095D01*
X106025868Y-68935487D01*
X105988892Y-68918239D01*
X105960726Y-68904272D01*
X105943303Y-68894506D01*
X105938392Y-68890311D01*
X105939907Y-68877275D01*
X105946213Y-68855102D01*
X105955928Y-68827194D01*
X105967672Y-68796956D01*
X105980064Y-68767791D01*
X105991720Y-68743102D01*
X106001261Y-68726293D01*
X106007218Y-68720742D01*
X106016425Y-68723857D01*
X106038462Y-68731753D01*
X106071730Y-68743846D01*
X106114630Y-68759548D01*
X106165565Y-68778276D01*
X106222937Y-68799442D01*
X106285146Y-68822462D01*
X106305879Y-68830149D01*
X106369305Y-68853637D01*
X106428411Y-68875452D01*
X106481597Y-68895010D01*
X106527265Y-68911726D01*
X106563816Y-68925016D01*
X106589650Y-68934293D01*
X106603170Y-68938975D01*
X106604636Y-68939407D01*
X106611866Y-68933206D01*
X106623098Y-68912682D01*
X106638100Y-68878312D01*
X106653459Y-68839055D01*
X106667101Y-68802280D01*
X106678258Y-68770994D01*
X106686028Y-68747826D01*
X106689508Y-68735401D01*
X106689520Y-68734044D01*
X106681839Y-68730804D01*
X106661330Y-68722843D01*
X106629608Y-68710759D01*
X106588289Y-68695155D01*
X106538989Y-68676631D01*
X106483324Y-68655786D01*
X106422910Y-68633222D01*
X106359363Y-68609539D01*
X106294298Y-68585339D01*
X106229332Y-68561220D01*
X106166080Y-68537785D01*
X106106158Y-68515633D01*
X106051182Y-68495366D01*
X106002768Y-68477583D01*
X105962532Y-68462885D01*
X105932089Y-68451873D01*
X105913056Y-68445148D01*
X105907160Y-68443263D01*
X105902532Y-68447081D01*
X105894978Y-68460212D01*
X105884167Y-68483454D01*
X105869768Y-68517607D01*
X105851448Y-68563468D01*
X105828878Y-68621837D01*
X105801726Y-68693514D01*
X105785402Y-68737073D01*
X105761630Y-68800833D01*
X105739700Y-68859929D01*
X105720166Y-68912847D01*
X105703582Y-68958074D01*
X105690501Y-68994096D01*
X105681478Y-69019400D01*
X105677067Y-69032472D01*
X105676730Y-69033958D01*
X105385819Y-69033958D01*
X105444825Y-68834572D01*
X105529424Y-68602696D01*
X105628421Y-68376094D01*
X105741747Y-68154936D01*
X105787223Y-68078107D01*
X106109606Y-68078107D01*
X106115514Y-68083934D01*
X106132333Y-68098012D01*
X106158702Y-68119294D01*
X106193264Y-68146733D01*
X106234658Y-68179282D01*
X106281526Y-68215896D01*
X106332508Y-68255526D01*
X106386246Y-68297127D01*
X106441380Y-68339652D01*
X106496551Y-68382055D01*
X106550400Y-68423288D01*
X106601567Y-68462305D01*
X106648694Y-68498059D01*
X106690422Y-68529504D01*
X106725390Y-68555594D01*
X106752241Y-68575281D01*
X106769615Y-68587519D01*
X106776036Y-68591299D01*
X106781480Y-68585388D01*
X106795254Y-68568438D01*
X106816395Y-68541685D01*
X106843945Y-68506366D01*
X106876940Y-68463716D01*
X106914421Y-68414971D01*
X106955427Y-68361368D01*
X106986629Y-68320412D01*
X107029630Y-68263785D01*
X107069733Y-68210801D01*
X107105976Y-68162744D01*
X107137399Y-68120893D01*
X107163043Y-68086531D01*
X107181947Y-68060938D01*
X107193150Y-68045397D01*
X107195900Y-68041175D01*
X107191554Y-68033429D01*
X107177433Y-68019438D01*
X107156403Y-68001380D01*
X107131329Y-67981434D01*
X107105074Y-67961777D01*
X107080503Y-67944589D01*
X107060481Y-67932046D01*
X107047872Y-67926327D01*
X107045289Y-67926651D01*
X107039305Y-67934273D01*
X107025248Y-67952585D01*
X107004327Y-67979997D01*
X106977755Y-68014920D01*
X106946740Y-68055763D01*
X106912494Y-68100939D01*
X106902465Y-68114182D01*
X106867743Y-68160034D01*
X106836118Y-68201783D01*
X106808757Y-68237887D01*
X106786831Y-68266803D01*
X106771508Y-68286988D01*
X106763959Y-68296901D01*
X106763386Y-68297640D01*
X106756620Y-68294799D01*
X106741210Y-68284573D01*
X106720346Y-68269421D01*
X106697221Y-68251801D01*
X106675026Y-68234172D01*
X106656953Y-68218992D01*
X106646192Y-68208719D01*
X106644545Y-68206099D01*
X106649032Y-68198555D01*
X106661687Y-68180444D01*
X106681307Y-68153410D01*
X106706684Y-68119094D01*
X106736613Y-68079141D01*
X106769889Y-68035193D01*
X106771545Y-68033017D01*
X106804940Y-67988964D01*
X106835048Y-67948878D01*
X106860666Y-67914393D01*
X106880589Y-67887141D01*
X106893613Y-67868756D01*
X106898534Y-67860871D01*
X106898545Y-67860782D01*
X106892725Y-67853404D01*
X106877301Y-67839905D01*
X106855328Y-67822515D01*
X106829860Y-67803462D01*
X106803952Y-67784973D01*
X106780660Y-67769279D01*
X106763037Y-67758605D01*
X106754139Y-67755183D01*
X106753915Y-67755276D01*
X106747602Y-67762316D01*
X106733298Y-67780007D01*
X106712282Y-67806709D01*
X106685834Y-67840785D01*
X106655232Y-67880597D01*
X106621756Y-67924505D01*
X106621142Y-67925314D01*
X106587780Y-67969024D01*
X106557385Y-68008415D01*
X106531208Y-68041902D01*
X106510498Y-68067900D01*
X106496505Y-68084822D01*
X106490479Y-68091084D01*
X106490431Y-68091091D01*
X106482186Y-68086639D01*
X106465866Y-68075218D01*
X106445212Y-68059728D01*
X106423963Y-68043067D01*
X106405859Y-68028137D01*
X106394640Y-68017837D01*
X106392794Y-68015377D01*
X106396884Y-68008205D01*
X106409229Y-67990395D01*
X106428686Y-67963502D01*
X106454114Y-67929083D01*
X106484370Y-67888692D01*
X106518312Y-67843885D01*
X106529364Y-67829394D01*
X106564291Y-67783489D01*
X106595978Y-67741496D01*
X106623265Y-67704976D01*
X106644996Y-67675494D01*
X106660010Y-67654612D01*
X106667151Y-67643894D01*
X106667585Y-67642887D01*
X106661855Y-67635144D01*
X106646535Y-67621588D01*
X106624547Y-67604292D01*
X106598809Y-67585327D01*
X106572244Y-67566766D01*
X106547770Y-67550681D01*
X106528309Y-67539144D01*
X106516781Y-67534227D01*
X106515013Y-67534625D01*
X106509392Y-67542315D01*
X106495431Y-67560949D01*
X106474117Y-67589225D01*
X106446434Y-67625839D01*
X106413370Y-67669487D01*
X106375911Y-67718868D01*
X106335041Y-67772676D01*
X106309727Y-67805974D01*
X106267460Y-67861756D01*
X106228232Y-67913918D01*
X106193002Y-67961158D01*
X106162729Y-68002171D01*
X106138371Y-68035654D01*
X106120888Y-68060303D01*
X106111238Y-68074815D01*
X106109606Y-68078107D01*
X105787223Y-68078107D01*
X105869331Y-67939395D01*
X106011104Y-67729642D01*
X106166995Y-67525851D01*
X106193821Y-67493111D01*
X106226855Y-67454891D01*
X106269235Y-67408502D01*
X106318848Y-67356053D01*
X106373578Y-67299651D01*
X106408625Y-67264293D01*
X106791950Y-67264293D01*
X106795885Y-67270636D01*
X106807895Y-67288048D01*
X106826988Y-67315156D01*
X106852173Y-67350589D01*
X106882458Y-67392975D01*
X106916852Y-67440941D01*
X106954363Y-67493115D01*
X106993999Y-67548126D01*
X107034770Y-67604601D01*
X107075682Y-67661168D01*
X107115745Y-67716455D01*
X107153968Y-67769090D01*
X107189357Y-67817702D01*
X107220923Y-67860917D01*
X107247673Y-67897364D01*
X107268616Y-67925671D01*
X107282760Y-67944466D01*
X107289114Y-67952377D01*
X107289343Y-67952541D01*
X107295979Y-67948277D01*
X107312743Y-67936573D01*
X107337331Y-67919061D01*
X107367437Y-67897376D01*
X107377858Y-67889823D01*
X107409365Y-67866934D01*
X107436165Y-67847425D01*
X107455916Y-67833005D01*
X107466274Y-67825382D01*
X107467212Y-67824666D01*
X107463919Y-67817959D01*
X107452949Y-67800910D01*
X107435714Y-67775598D01*
X107413624Y-67744107D01*
X107394091Y-67716813D01*
X107368445Y-67681165D01*
X107345724Y-67649385D01*
X107327566Y-67623783D01*
X107315611Y-67606667D01*
X107311754Y-67600875D01*
X107310205Y-67588524D01*
X107311923Y-67566802D01*
X107315975Y-67541150D01*
X107321431Y-67517006D01*
X107327362Y-67499811D01*
X107329678Y-67496076D01*
X107338151Y-67496603D01*
X107359410Y-67501171D01*
X107391536Y-67509272D01*
X107432609Y-67520401D01*
X107480707Y-67534051D01*
X107533912Y-67549713D01*
X107542051Y-67552155D01*
X107609536Y-67572099D01*
X107665635Y-67587925D01*
X107709625Y-67599448D01*
X107740786Y-67606482D01*
X107758396Y-67608844D01*
X107761612Y-67608381D01*
X107772702Y-67601581D01*
X107792693Y-67587988D01*
X107819103Y-67569414D01*
X107849450Y-67547669D01*
X107881253Y-67524564D01*
X107912028Y-67501910D01*
X107939294Y-67481518D01*
X107960569Y-67465200D01*
X107973370Y-67454765D01*
X107975970Y-67451991D01*
X107968849Y-67449089D01*
X107948456Y-67442521D01*
X107924209Y-67435139D01*
X110562433Y-67435139D01*
X110568600Y-67441139D01*
X110585061Y-67453223D01*
X110608922Y-67469533D01*
X110637290Y-67488214D01*
X110667272Y-67507409D01*
X110695972Y-67525261D01*
X110720499Y-67539913D01*
X110737957Y-67549508D01*
X110745037Y-67552303D01*
X110751231Y-67546086D01*
X110764288Y-67528683D01*
X110782918Y-67501963D01*
X110805830Y-67467796D01*
X110831733Y-67428052D01*
X110843488Y-67409685D01*
X110870136Y-67368287D01*
X110894191Y-67331805D01*
X110914398Y-67302072D01*
X110929502Y-67280917D01*
X110938248Y-67270173D01*
X110939761Y-67269216D01*
X110950246Y-67274889D01*
X110970485Y-67287117D01*
X110998102Y-67304362D01*
X111030725Y-67325084D01*
X111065978Y-67347745D01*
X111101487Y-67370807D01*
X111134879Y-67392730D01*
X111163780Y-67411976D01*
X111185814Y-67427007D01*
X111198609Y-67436283D01*
X111200863Y-67438438D01*
X111196968Y-67446244D01*
X111185910Y-67465004D01*
X111168899Y-67492756D01*
X111147144Y-67527536D01*
X111121854Y-67567381D01*
X111111999Y-67582770D01*
X111085814Y-67624118D01*
X111062923Y-67661326D01*
X111044505Y-67692391D01*
X111031737Y-67715308D01*
X111025798Y-67728074D01*
X111025560Y-67729801D01*
X111032887Y-67737372D01*
X111050167Y-67750483D01*
X111074548Y-67767334D01*
X111103180Y-67786125D01*
X111133210Y-67805057D01*
X111161788Y-67822329D01*
X111186062Y-67836142D01*
X111203181Y-67844696D01*
X111210192Y-67846344D01*
X111215218Y-67839012D01*
X111227754Y-67819914D01*
X111247020Y-67790258D01*
X111272237Y-67751251D01*
X111302628Y-67704101D01*
X111337413Y-67650014D01*
X111375814Y-67590197D01*
X111417052Y-67525859D01*
X111439194Y-67491275D01*
X111481450Y-67425159D01*
X111521091Y-67362967D01*
X111557358Y-67305899D01*
X111589494Y-67255154D01*
X111616742Y-67211934D01*
X111638344Y-67177437D01*
X111653543Y-67152865D01*
X111661581Y-67139417D01*
X111662679Y-67137214D01*
X111656449Y-67131705D01*
X111639945Y-67120094D01*
X111616077Y-67104224D01*
X111587754Y-67085939D01*
X111557888Y-67067081D01*
X111529388Y-67049495D01*
X111505165Y-67035023D01*
X111488129Y-67025508D01*
X111481982Y-67022770D01*
X111477795Y-67023944D01*
X111471266Y-67029896D01*
X111461538Y-67041852D01*
X111447754Y-67061037D01*
X111429058Y-67088678D01*
X111404593Y-67126000D01*
X111373504Y-67174230D01*
X111344784Y-67219142D01*
X111309351Y-67274679D01*
X111176357Y-67189398D01*
X111136314Y-67163708D01*
X111100962Y-67141004D01*
X111072243Y-67122534D01*
X111052099Y-67109548D01*
X111042475Y-67103297D01*
X111041936Y-67102930D01*
X111045447Y-67096415D01*
X111056072Y-67078967D01*
X111072564Y-67052580D01*
X111093677Y-67019245D01*
X111118163Y-66980957D01*
X111120830Y-66976807D01*
X111145759Y-66937700D01*
X111167537Y-66902902D01*
X111184881Y-66874518D01*
X111196504Y-66854653D01*
X111201123Y-66845412D01*
X111201151Y-66845189D01*
X111194991Y-66838888D01*
X111178073Y-66826157D01*
X111152737Y-66808647D01*
X111121325Y-66788012D01*
X111109271Y-66780321D01*
X111069470Y-66755731D01*
X111040840Y-66739563D01*
X111022106Y-66731186D01*
X111011991Y-66729966D01*
X111010175Y-66731204D01*
X111003503Y-66740851D01*
X110989769Y-66761700D01*
X110969897Y-66792301D01*
X110944811Y-66831202D01*
X110915433Y-66876952D01*
X110882685Y-66928100D01*
X110847493Y-66983194D01*
X110810777Y-67040783D01*
X110773462Y-67099417D01*
X110736471Y-67157643D01*
X110700726Y-67214010D01*
X110667151Y-67267067D01*
X110636669Y-67315364D01*
X110610203Y-67357448D01*
X110588675Y-67391868D01*
X110573010Y-67417173D01*
X110564130Y-67431913D01*
X110562433Y-67435139D01*
X107924209Y-67435139D01*
X107916352Y-67432747D01*
X107874096Y-67420227D01*
X107823248Y-67405422D01*
X107765367Y-67388792D01*
X107702013Y-67370796D01*
X107676046Y-67363476D01*
X107596410Y-67340921D01*
X107530718Y-67321962D01*
X107478022Y-67306295D01*
X107437374Y-67293617D01*
X107407828Y-67283624D01*
X107388435Y-67276014D01*
X107378247Y-67270483D01*
X107376076Y-67267515D01*
X107377680Y-67257407D01*
X107382181Y-67234148D01*
X107389187Y-67199623D01*
X107398308Y-67155722D01*
X107409154Y-67104330D01*
X107421334Y-67047335D01*
X107428626Y-67013515D01*
X107441272Y-66954705D01*
X107452702Y-66900884D01*
X107462544Y-66853850D01*
X107470428Y-66815402D01*
X107475984Y-66787336D01*
X107478841Y-66771450D01*
X107479110Y-66768519D01*
X107472807Y-66772157D01*
X107456395Y-66783163D01*
X107432226Y-66799864D01*
X107402652Y-66820590D01*
X107370026Y-66843669D01*
X107336701Y-66867430D01*
X107305028Y-66890202D01*
X107277359Y-66910315D01*
X107256048Y-66926096D01*
X107243447Y-66935875D01*
X107242988Y-66936262D01*
X107240031Y-66944805D01*
X107234559Y-66966485D01*
X107227012Y-66999328D01*
X107217829Y-67041365D01*
X107207449Y-67090622D01*
X107196310Y-67145128D01*
X107194840Y-67152442D01*
X107183747Y-67207596D01*
X107173575Y-67257881D01*
X107164731Y-67301302D01*
X107157624Y-67335863D01*
X107152663Y-67359568D01*
X107150256Y-67370421D01*
X107150155Y-67370774D01*
X107145152Y-67367217D01*
X107132707Y-67352976D01*
X107114310Y-67329909D01*
X107091447Y-67299872D01*
X107069954Y-67270713D01*
X107043549Y-67234428D01*
X107019661Y-67201646D01*
X107000034Y-67174757D01*
X106986411Y-67156149D01*
X106981199Y-67149087D01*
X106976231Y-67143852D01*
X106969931Y-67142276D01*
X106960158Y-67145425D01*
X106944771Y-67154368D01*
X106921629Y-67170175D01*
X106888589Y-67193913D01*
X106882487Y-67198340D01*
X106850737Y-67221403D01*
X106823705Y-67241069D01*
X106803702Y-67255653D01*
X106793043Y-67263469D01*
X106791950Y-67264293D01*
X106408625Y-67264293D01*
X106431311Y-67241406D01*
X106489933Y-67183423D01*
X106547328Y-67127813D01*
X106601383Y-67076682D01*
X106649982Y-67032139D01*
X106691010Y-66996291D01*
X106698424Y-66990100D01*
X106900128Y-66832904D01*
X107107758Y-66689910D01*
X107114437Y-66685882D01*
X107662831Y-66685882D01*
X107664810Y-66692855D01*
X107670814Y-66710927D01*
X107679655Y-66736716D01*
X107690144Y-66766836D01*
X107701093Y-66797904D01*
X107711313Y-66826535D01*
X107719616Y-66849345D01*
X107724813Y-66862950D01*
X107725750Y-66865048D01*
X107732895Y-66863089D01*
X107752158Y-66856649D01*
X107781204Y-66846540D01*
X107817696Y-66833573D01*
X107852987Y-66820851D01*
X107894310Y-66806279D01*
X107930576Y-66794278D01*
X107959350Y-66785590D01*
X107978200Y-66780955D01*
X107984590Y-66780743D01*
X107988269Y-66789027D01*
X107996520Y-66810223D01*
X108008756Y-66842740D01*
X108024389Y-66884988D01*
X108042832Y-66935375D01*
X108063497Y-66992312D01*
X108085796Y-67054206D01*
X108091906Y-67071242D01*
X108114673Y-67134767D01*
X108136009Y-67194278D01*
X108155311Y-67248094D01*
X108171975Y-67294534D01*
X108185398Y-67331916D01*
X108194977Y-67358559D01*
X108200108Y-67372783D01*
X108200599Y-67374131D01*
X108208831Y-67386545D01*
X108216758Y-67388795D01*
X108227279Y-67385006D01*
X108249223Y-67377109D01*
X108279531Y-67366205D01*
X108315139Y-67353396D01*
X108320545Y-67351452D01*
X108355686Y-67338255D01*
X108384878Y-67326229D01*
X108405411Y-67316570D01*
X108414575Y-67310475D01*
X108414808Y-67309848D01*
X108412270Y-67301169D01*
X108405027Y-67279578D01*
X108393627Y-67246632D01*
X108378618Y-67203890D01*
X108360549Y-67152909D01*
X108339967Y-67095246D01*
X108317421Y-67032459D01*
X108306699Y-67002722D01*
X108283616Y-66938249D01*
X108262511Y-66878257D01*
X108243899Y-66824289D01*
X108228293Y-66777886D01*
X108216210Y-66740591D01*
X108208164Y-66713947D01*
X108204671Y-66699497D01*
X108204739Y-66697364D01*
X108213741Y-66692875D01*
X108234685Y-66684272D01*
X108264991Y-66672558D01*
X108302084Y-66658739D01*
X108329130Y-66648916D01*
X108368974Y-66634481D01*
X108403453Y-66621782D01*
X108430085Y-66611751D01*
X108446385Y-66605319D01*
X108450299Y-66603478D01*
X108449004Y-66595539D01*
X108443340Y-66576025D01*
X108434205Y-66547826D01*
X108422499Y-66513833D01*
X108421852Y-66512003D01*
X108390486Y-66423446D01*
X108027440Y-66554129D01*
X107956394Y-66579712D01*
X107889886Y-66603681D01*
X107829292Y-66625537D01*
X107775991Y-66644783D01*
X107731359Y-66660920D01*
X107696774Y-66673452D01*
X107673614Y-66681880D01*
X107663256Y-66685707D01*
X107662831Y-66685882D01*
X107114437Y-66685882D01*
X107321347Y-66561106D01*
X107540923Y-66446480D01*
X107707843Y-66372148D01*
X108715378Y-66372148D01*
X108716136Y-66393775D01*
X108717705Y-66427304D01*
X108719979Y-66471007D01*
X108722852Y-66523157D01*
X108726217Y-66582024D01*
X108729968Y-66645880D01*
X108733998Y-66712997D01*
X108738203Y-66781646D01*
X108742475Y-66850098D01*
X108746709Y-66916625D01*
X108750797Y-66979499D01*
X108754635Y-67036991D01*
X108758115Y-67087373D01*
X108761131Y-67128916D01*
X108763578Y-67159892D01*
X108765348Y-67178572D01*
X108765788Y-67181883D01*
X108769966Y-67207858D01*
X108879120Y-67202292D01*
X108918285Y-67200187D01*
X108951488Y-67198195D01*
X108975935Y-67196502D01*
X108988831Y-67195290D01*
X108990116Y-67195000D01*
X108990233Y-67187154D01*
X108989454Y-67166365D01*
X108987898Y-67135048D01*
X108985685Y-67095620D01*
X108982936Y-67050497D01*
X108982885Y-67049691D01*
X108980242Y-67004290D01*
X108978350Y-66964343D01*
X108977288Y-66932321D01*
X108977139Y-66910695D01*
X108977985Y-66901934D01*
X108977996Y-66901923D01*
X108986776Y-66899919D01*
X109008073Y-66897249D01*
X109039042Y-66894210D01*
X109076836Y-66891099D01*
X109092985Y-66889918D01*
X109136532Y-66886498D01*
X109178102Y-66882615D01*
X109213559Y-66878695D01*
X109238764Y-66875166D01*
X109239840Y-66874970D01*
X109673845Y-66874970D01*
X109674519Y-66916327D01*
X109677107Y-66947913D01*
X109682429Y-66975310D01*
X109691305Y-67004103D01*
X109693870Y-67011329D01*
X109727792Y-67083523D01*
X109773972Y-67146691D01*
X109831929Y-67200454D01*
X109901183Y-67244427D01*
X109981253Y-67278231D01*
X110054882Y-67298143D01*
X110090764Y-67302473D01*
X110135641Y-67303223D01*
X110183904Y-67300740D01*
X110229944Y-67295369D01*
X110268152Y-67287455D01*
X110277885Y-67284414D01*
X110327949Y-67264683D01*
X110368507Y-67242912D01*
X110405359Y-67215428D01*
X110443000Y-67179889D01*
X110494414Y-67117141D01*
X110533614Y-67047029D01*
X110560252Y-66971668D01*
X110573985Y-66893174D01*
X110574465Y-66813662D01*
X110561348Y-66735245D01*
X110534286Y-66660039D01*
X110529596Y-66650348D01*
X110490890Y-66589524D01*
X110440697Y-66536677D01*
X110381061Y-66492442D01*
X110314027Y-66457455D01*
X110241638Y-66432352D01*
X110165939Y-66417769D01*
X110088973Y-66414343D01*
X110012786Y-66422708D01*
X109939421Y-66443502D01*
X109908060Y-66456992D01*
X109870647Y-66480015D01*
X109830385Y-66513121D01*
X109791015Y-66552475D01*
X109756277Y-66594248D01*
X109729910Y-66634608D01*
X109724635Y-66644927D01*
X109699064Y-66706440D01*
X109683056Y-66765394D01*
X109675218Y-66828091D01*
X109673845Y-66874970D01*
X109239840Y-66874970D01*
X109242773Y-66874436D01*
X109303676Y-66855853D01*
X109359069Y-66826097D01*
X109406284Y-66787143D01*
X109442653Y-66740965D01*
X109455307Y-66717182D01*
X109464249Y-66694273D01*
X109469636Y-66670509D01*
X109472261Y-66640875D01*
X109472914Y-66605576D01*
X109472347Y-66568117D01*
X109469926Y-66540854D01*
X109464765Y-66518617D01*
X109455982Y-66496238D01*
X109453166Y-66490121D01*
X109429112Y-66446249D01*
X109402127Y-66413517D01*
X109368423Y-66387696D01*
X109353744Y-66379185D01*
X109301147Y-66355659D01*
X109245629Y-66341762D01*
X109182289Y-66336353D01*
X109169151Y-66336191D01*
X109145326Y-66336604D01*
X109111205Y-66337843D01*
X109069115Y-66339765D01*
X109021382Y-66342226D01*
X108970334Y-66345083D01*
X108918297Y-66348192D01*
X108867597Y-66351409D01*
X108820562Y-66354593D01*
X108779517Y-66357598D01*
X108746789Y-66360282D01*
X108724705Y-66362501D01*
X108715591Y-66364111D01*
X108715538Y-66364153D01*
X108715378Y-66372148D01*
X107707843Y-66372148D01*
X107766519Y-66346019D01*
X107998163Y-66259710D01*
X108235887Y-66187541D01*
X108479722Y-66129499D01*
X108729697Y-66085572D01*
X108961333Y-66057965D01*
X109051540Y-66051583D01*
X109153499Y-66047893D01*
X109263823Y-66046816D01*
X109379122Y-66048268D01*
X109379122Y-66048268D01*
G37*
X109379122Y-66048268D02*
X109496007Y-66052169D01*
X109611089Y-66058438D01*
X109720980Y-66066992D01*
X109822291Y-66077751D01*
X109831091Y-66078853D01*
X110072242Y-66117161D01*
X110309927Y-66170226D01*
X110543508Y-66237674D01*
X110772351Y-66319131D01*
X110995819Y-66414223D01*
X111213278Y-66522577D01*
X111424090Y-66643817D01*
X111627621Y-66777570D01*
X111823235Y-66923463D01*
X112010295Y-67081120D01*
X112188167Y-67250167D01*
X112356215Y-67430232D01*
X112513802Y-67620939D01*
X112563899Y-67686810D01*
X112706199Y-67890651D01*
X112835042Y-68101637D01*
X112950269Y-68319159D01*
X113051718Y-68542606D01*
X113139229Y-68771365D01*
X113212642Y-69004827D01*
X113271797Y-69242380D01*
X113316532Y-69483412D01*
X113346689Y-69727312D01*
X113362105Y-69973470D01*
X113362621Y-70221275D01*
X113348077Y-70470114D01*
X113332550Y-70615697D01*
X113294165Y-70862207D01*
X113240996Y-71104658D01*
X113173227Y-71342598D01*
X113091040Y-71575575D01*
X112994616Y-71803136D01*
X112884139Y-72024829D01*
X112759790Y-72240201D01*
X112621753Y-72448801D01*
X112558074Y-72536518D01*
X112436812Y-72690014D01*
X112303277Y-72842518D01*
X112160458Y-72991002D01*
X112011340Y-73132444D01*
X111858910Y-73263819D01*
X111770727Y-73333777D01*
X111570118Y-73478123D01*
X111361150Y-73609747D01*
X111144599Y-73728322D01*
X110921240Y-73833518D01*
X110691848Y-73925007D01*
X110457197Y-74002458D01*
X110218064Y-74065543D01*
X109975222Y-74113933D01*
X109908060Y-74124596D01*
X109798317Y-74138945D01*
X109679273Y-74150724D01*
X109554899Y-74159745D01*
X109429164Y-74165821D01*
X109306037Y-74168766D01*
X109189487Y-74168393D01*
X109083483Y-74164515D01*
X109072939Y-74163886D01*
X108819088Y-74140642D01*
X108569983Y-74102852D01*
X108325879Y-74050609D01*
X108087032Y-73984006D01*
X107853696Y-73903138D01*
X107789243Y-73876220D01*
X108570701Y-73876220D01*
X108574688Y-73881639D01*
X108586028Y-73885777D01*
X108607417Y-73889644D01*
X108639421Y-73893975D01*
X108677955Y-73898744D01*
X108717132Y-73903290D01*
X108750032Y-73906818D01*
X108757589Y-73907554D01*
X108803996Y-73911909D01*
X108984552Y-73687451D01*
X109025216Y-73637156D01*
X109062803Y-73591161D01*
X109096250Y-73550729D01*
X109124490Y-73517127D01*
X109146460Y-73491620D01*
X109161096Y-73475473D01*
X109167332Y-73469950D01*
X109167465Y-73470061D01*
X109167161Y-73479235D01*
X109165149Y-73501706D01*
X109161643Y-73535499D01*
X109156857Y-73578637D01*
X109151007Y-73629144D01*
X109144308Y-73685045D01*
X109142546Y-73699455D01*
X109135562Y-73756915D01*
X109129239Y-73809943D01*
X109123814Y-73856462D01*
X109119527Y-73894394D01*
X109116616Y-73921661D01*
X109115318Y-73936185D01*
X109115273Y-73937462D01*
X109116474Y-73944068D01*
X109121697Y-73949107D01*
X109133375Y-73953262D01*
X109153937Y-73957219D01*
X109185815Y-73961661D01*
X109213409Y-73965091D01*
X109259725Y-73970724D01*
X109292931Y-73974606D01*
X109315204Y-73976794D01*
X109328719Y-73977343D01*
X109335656Y-73976307D01*
X109338191Y-73973742D01*
X109338500Y-73969703D01*
X109338485Y-73968268D01*
X109339395Y-73958729D01*
X109342010Y-73935358D01*
X109346158Y-73899603D01*
X109351668Y-73852910D01*
X109358366Y-73796728D01*
X109366081Y-73732502D01*
X109374640Y-73661682D01*
X109383872Y-73585713D01*
X109388515Y-73547653D01*
X109397986Y-73470081D01*
X109400657Y-73448182D01*
X109604880Y-73448182D01*
X109605245Y-73491619D01*
X109606862Y-73524425D01*
X109610356Y-73551350D01*
X109616349Y-73577145D01*
X109625466Y-73606558D01*
X109625819Y-73607621D01*
X109655750Y-73678081D01*
X109695881Y-73742685D01*
X109744133Y-73798858D01*
X109798428Y-73844024D01*
X109833761Y-73865140D01*
X109902028Y-73891644D01*
X109976668Y-73905257D01*
X110055507Y-73905891D01*
X110136371Y-73893458D01*
X110185662Y-73879452D01*
X110250860Y-73853659D01*
X110305268Y-73822745D01*
X110353303Y-73783977D01*
X110374801Y-73762406D01*
X110418402Y-73707154D01*
X110448104Y-73648208D01*
X110464569Y-73583640D01*
X110468460Y-73511524D01*
X110467573Y-73492522D01*
X110465184Y-73461501D01*
X110462512Y-73436375D01*
X110460007Y-73421093D01*
X110459154Y-73418625D01*
X110450645Y-73418068D01*
X110430054Y-73421054D01*
X110400148Y-73427066D01*
X110363693Y-73435582D01*
X110348968Y-73439298D01*
X110242879Y-73466603D01*
X110242879Y-73528589D01*
X110241656Y-73566365D01*
X110237400Y-73594045D01*
X110229227Y-73616774D01*
X110226949Y-73621364D01*
X110202035Y-73654205D01*
X110165516Y-73681844D01*
X110120908Y-73701964D01*
X110093780Y-73709069D01*
X110037265Y-73713984D01*
X109986951Y-73704955D01*
X109941927Y-73681694D01*
X109905945Y-73649207D01*
X109871405Y-73602099D01*
X109846332Y-73549342D01*
X109830819Y-73493483D01*
X109824960Y-73437067D01*
X109828849Y-73382640D01*
X109842580Y-73332748D01*
X109866247Y-73289937D01*
X109891696Y-73263072D01*
X109931324Y-73237826D01*
X109977627Y-73220099D01*
X110026178Y-73210765D01*
X110072549Y-73210696D01*
X110110473Y-73219975D01*
X110133774Y-73234709D01*
X110159246Y-73258546D01*
X110182186Y-73286814D01*
X110189900Y-73298827D01*
X110193920Y-73304446D01*
X110199698Y-73307598D01*
X110209715Y-73308021D01*
X110226452Y-73305453D01*
X110252391Y-73299633D01*
X110290013Y-73290299D01*
X110303846Y-73286800D01*
X110345310Y-73276204D01*
X110374032Y-73268348D01*
X110392203Y-73262228D01*
X110402011Y-73256838D01*
X110405647Y-73251174D01*
X110405301Y-73244230D01*
X110404477Y-73240619D01*
X110393371Y-73212193D01*
X110373851Y-73178362D01*
X110349088Y-73143853D01*
X110322256Y-73113397D01*
X110313631Y-73105170D01*
X110259104Y-73064767D01*
X110198498Y-73037140D01*
X110130484Y-73021871D01*
X110053735Y-73018542D01*
X110039926Y-73019123D01*
X109952774Y-73030446D01*
X109872519Y-73054331D01*
X109800223Y-73090047D01*
X109736947Y-73136867D01*
X109683753Y-73194059D01*
X109641703Y-73260895D01*
X109621858Y-73306409D01*
X109614302Y-73329516D01*
X109609321Y-73352942D01*
X109606421Y-73380793D01*
X109605112Y-73417175D01*
X109604880Y-73448182D01*
X109400657Y-73448182D01*
X109406872Y-73397252D01*
X109415000Y-73330571D01*
X109422201Y-73271442D01*
X109428304Y-73221270D01*
X109433137Y-73181457D01*
X109436530Y-73153410D01*
X109438312Y-73138530D01*
X109438545Y-73136466D01*
X109431397Y-73134080D01*
X109412076Y-73130951D01*
X109383768Y-73127378D01*
X109349660Y-73123662D01*
X109312936Y-73120102D01*
X109276784Y-73116997D01*
X109244388Y-73114647D01*
X109218936Y-73113351D01*
X109203612Y-73113409D01*
X109200675Y-73114104D01*
X109194568Y-73121517D01*
X109179945Y-73139548D01*
X109157924Y-73166807D01*
X109129625Y-73201907D01*
X109096166Y-73243460D01*
X109058669Y-73290077D01*
X109018675Y-73339842D01*
X108978601Y-73389473D01*
X108941624Y-73434776D01*
X108908821Y-73474470D01*
X108881267Y-73507276D01*
X108860039Y-73531911D01*
X108846212Y-73547096D01*
X108840863Y-73551550D01*
X108840846Y-73551509D01*
X108841234Y-73542369D01*
X108843324Y-73519865D01*
X108846904Y-73485909D01*
X108851763Y-73442411D01*
X108857692Y-73391283D01*
X108864478Y-73334436D01*
X108867729Y-73307712D01*
X108874863Y-73249301D01*
X108881334Y-73196097D01*
X108886919Y-73149943D01*
X108891398Y-73112681D01*
X108894548Y-73086155D01*
X108896147Y-73072207D01*
X108896300Y-73070521D01*
X108888922Y-73069289D01*
X108869574Y-73066658D01*
X108841522Y-73063030D01*
X108808029Y-73058810D01*
X108772357Y-73054397D01*
X108737771Y-73050196D01*
X108707535Y-73046609D01*
X108684911Y-73044038D01*
X108673163Y-73042885D01*
X108672225Y-73042889D01*
X108671248Y-73050531D01*
X108668616Y-73072046D01*
X108664499Y-73106020D01*
X108659066Y-73151041D01*
X108652488Y-73205697D01*
X108644935Y-73268574D01*
X108636577Y-73338260D01*
X108627585Y-73413342D01*
X108623416Y-73448182D01*
X108614098Y-73525807D01*
X108605232Y-73599142D01*
X108597002Y-73666700D01*
X108589591Y-73727000D01*
X108583184Y-73778557D01*
X108577964Y-73819888D01*
X108574114Y-73849508D01*
X108571819Y-73865934D01*
X108571370Y-73868512D01*
X108570701Y-73876220D01*
X107789243Y-73876220D01*
X107626127Y-73808097D01*
X107404578Y-73698977D01*
X107189305Y-73575873D01*
X106980562Y-73438876D01*
X106861656Y-73352389D01*
X106796718Y-73302819D01*
X106788628Y-73296442D01*
X107543216Y-73296442D01*
X107555031Y-73373896D01*
X107580117Y-73448003D01*
X107589164Y-73467095D01*
X107612875Y-73503948D01*
X107646896Y-73543670D01*
X107687515Y-73582770D01*
X107731022Y-73617759D01*
X107773708Y-73645147D01*
X107784291Y-73650630D01*
X107861793Y-73682132D01*
X107939957Y-73701857D01*
X108016211Y-73709437D01*
X108087988Y-73704505D01*
X108117506Y-73698273D01*
X108176180Y-73679011D01*
X108227388Y-73652695D01*
X108275938Y-73616510D01*
X108307789Y-73586919D01*
X108344066Y-73548254D01*
X108371121Y-73512425D01*
X108392854Y-73474221D01*
X108394302Y-73471273D01*
X108427069Y-73388547D01*
X108444924Y-73307099D01*
X108448346Y-73228017D01*
X108437815Y-73152391D01*
X108413812Y-73081309D01*
X108376817Y-73015860D01*
X108327309Y-72957131D01*
X108265769Y-72906212D01*
X108192676Y-72864192D01*
X108190101Y-72863200D01*
X108835948Y-72863200D01*
X108840379Y-72916053D01*
X108848936Y-72970609D01*
X108865130Y-73014154D01*
X108890101Y-73049631D01*
X108893465Y-73053200D01*
X108923409Y-73076567D01*
X108963519Y-73097248D01*
X109008566Y-73112778D01*
X109030159Y-73117633D01*
X109068550Y-73121529D01*
X109111802Y-73121076D01*
X109153872Y-73116703D01*
X109188717Y-73108839D01*
X109196983Y-73105811D01*
X109238333Y-73080444D01*
X109272478Y-73042722D01*
X109298021Y-72994547D01*
X109311174Y-72950469D01*
X109313190Y-72937333D01*
X109310989Y-72928386D01*
X109302112Y-72922434D01*
X109284099Y-72918282D01*
X109254491Y-72914736D01*
X109233447Y-72912712D01*
X109178440Y-72907562D01*
X109165728Y-72934351D01*
X109145688Y-72961262D01*
X109116953Y-72975658D01*
X109079356Y-72977589D01*
X109045229Y-72970883D01*
X109013065Y-72955557D01*
X108992592Y-72930351D01*
X108985136Y-72907836D01*
X108984007Y-72902136D01*
X110431704Y-72902136D01*
X110433738Y-72910829D01*
X110439384Y-72924989D01*
X110449149Y-72945570D01*
X110463540Y-72973530D01*
X110483062Y-73009823D01*
X110508222Y-73055405D01*
X110539527Y-73111232D01*
X110577483Y-73178259D01*
X110622596Y-73257442D01*
X110632087Y-73274060D01*
X110841621Y-73640818D01*
X110884765Y-73616652D01*
X110914353Y-73599927D01*
X110949321Y-73579946D01*
X110979864Y-73562327D01*
X111004365Y-73547455D01*
X111022633Y-73535130D01*
X111031432Y-73527568D01*
X111031777Y-73526736D01*
X111028135Y-73518390D01*
X111018194Y-73499379D01*
X111003385Y-73472351D01*
X110985136Y-73439953D01*
X110981043Y-73432788D01*
X110953936Y-73385514D01*
X110933549Y-73349524D01*
X110919124Y-73322644D01*
X110909901Y-73302700D01*
X110905123Y-73287521D01*
X110904032Y-73274934D01*
X110905869Y-73262765D01*
X110909876Y-73248842D01*
X110913154Y-73238254D01*
X110921648Y-73213790D01*
X110929847Y-73196055D01*
X110935143Y-73189529D01*
X110944086Y-73191645D01*
X110965276Y-73199136D01*
X110996831Y-73211262D01*
X111036874Y-73227281D01*
X111083523Y-73246452D01*
X111134898Y-73268034D01*
X111142346Y-73271200D01*
X111341388Y-73355918D01*
X111459772Y-73288519D01*
X111497962Y-73266545D01*
X111531034Y-73247070D01*
X111556848Y-73231393D01*
X111573262Y-73220812D01*
X111578230Y-73216746D01*
X111571354Y-73213003D01*
X111551709Y-73204173D01*
X111520813Y-73190894D01*
X111480187Y-73173804D01*
X111431349Y-73153541D01*
X111375821Y-73130742D01*
X111315121Y-73106044D01*
X111295439Y-73098081D01*
X111233130Y-73072830D01*
X111175242Y-73049228D01*
X111123343Y-73027923D01*
X111079000Y-73009565D01*
X111043781Y-72994806D01*
X111019253Y-72984293D01*
X111006983Y-72978678D01*
X111005937Y-72978054D01*
X111007074Y-72970060D01*
X111012437Y-72949473D01*
X111021390Y-72918309D01*
X111033296Y-72878580D01*
X111047520Y-72832301D01*
X111063426Y-72781485D01*
X111080376Y-72728147D01*
X111097736Y-72674300D01*
X111114868Y-72621957D01*
X111131137Y-72573134D01*
X111145906Y-72529844D01*
X111158539Y-72494100D01*
X111160678Y-72488239D01*
X111155442Y-72488944D01*
X111138830Y-72496384D01*
X111112782Y-72509570D01*
X111079240Y-72527514D01*
X111040144Y-72549228D01*
X111033220Y-72553147D01*
X110902322Y-72627422D01*
X110875280Y-72712605D01*
X110850111Y-72791916D01*
X110829196Y-72857756D01*
X110812101Y-72911318D01*
X110798390Y-72953793D01*
X110787629Y-72986373D01*
X110779384Y-73010250D01*
X110773218Y-73026616D01*
X110768698Y-73036662D01*
X110765388Y-73041580D01*
X110762853Y-73042563D01*
X110760659Y-73040802D01*
X110758371Y-73037488D01*
X110757301Y-73035953D01*
X110750011Y-73024507D01*
X110736728Y-73002264D01*
X110718990Y-72971852D01*
X110698336Y-72935901D01*
X110684457Y-72911479D01*
X110663231Y-72874384D01*
X110644354Y-72842161D01*
X110629225Y-72817139D01*
X110619243Y-72801647D01*
X110616106Y-72797741D01*
X110607785Y-72800025D01*
X110589279Y-72808497D01*
X110563641Y-72821488D01*
X110533925Y-72837330D01*
X110503183Y-72854354D01*
X110474469Y-72870890D01*
X110450835Y-72885270D01*
X110435336Y-72895826D01*
X110432776Y-72897953D01*
X110431704Y-72902136D01*
X108984007Y-72902136D01*
X108983124Y-72897678D01*
X108980329Y-72890438D01*
X108974304Y-72885246D01*
X108962605Y-72881232D01*
X108942783Y-72877525D01*
X108912395Y-72873256D01*
X108873625Y-72868166D01*
X108835948Y-72863200D01*
X108190101Y-72863200D01*
X108113066Y-72833534D01*
X108030611Y-72815511D01*
X107951001Y-72812209D01*
X107875237Y-72823063D01*
X107804322Y-72847510D01*
X107739257Y-72884987D01*
X107681046Y-72934930D01*
X107630689Y-72996776D01*
X107589190Y-73069961D01*
X107560525Y-73144151D01*
X107544954Y-73218806D01*
X107543216Y-73296442D01*
X106788628Y-73296442D01*
X106739321Y-73257580D01*
X106686704Y-73214245D01*
X106636102Y-73170392D01*
X106584754Y-73123596D01*
X106529898Y-73071433D01*
X106468771Y-73011478D01*
X106436286Y-72979117D01*
X106292344Y-72829283D01*
X106277709Y-72812616D01*
X106552182Y-72812616D01*
X106557840Y-72818564D01*
X106573725Y-72832945D01*
X106598199Y-72854381D01*
X106629627Y-72881493D01*
X106666372Y-72912903D01*
X106706799Y-72947233D01*
X106749271Y-72983104D01*
X106792151Y-73019137D01*
X106833805Y-73053955D01*
X106872595Y-73086179D01*
X106906885Y-73114431D01*
X106935040Y-73137333D01*
X106955423Y-73153505D01*
X106966397Y-73161570D01*
X106966447Y-73161601D01*
X107022833Y-73188665D01*
X107083080Y-73203920D01*
X107143850Y-73207097D01*
X107201808Y-73197927D01*
X107239777Y-73183601D01*
X107285714Y-73153902D01*
X107323661Y-73115037D01*
X107352204Y-73069760D01*
X107369928Y-73020826D01*
X107375418Y-72970988D01*
X107369645Y-72930817D01*
X107365648Y-72914611D01*
X107366649Y-72904733D01*
X107375414Y-72898736D01*
X107394710Y-72894176D01*
X107415060Y-72890682D01*
X107437991Y-72883542D01*
X107464879Y-72870670D01*
X107477594Y-72862986D01*
X107518570Y-72827426D01*
X107547228Y-72784389D01*
X107563499Y-72735723D01*
X107567314Y-72683274D01*
X107558604Y-72628890D01*
X107537300Y-72574417D01*
X107503333Y-72521702D01*
X107490887Y-72506761D01*
X107477267Y-72492868D01*
X107454808Y-72471781D01*
X107425173Y-72444924D01*
X107390025Y-72413719D01*
X107351029Y-72379589D01*
X107309848Y-72343957D01*
X107268146Y-72308245D01*
X107227586Y-72273878D01*
X107189832Y-72242277D01*
X107156547Y-72214866D01*
X107129395Y-72193067D01*
X107110041Y-72178304D01*
X107100146Y-72171998D01*
X107099373Y-72171898D01*
X107093543Y-72177951D01*
X107078899Y-72194415D01*
X107056551Y-72219991D01*
X107027611Y-72253378D01*
X106993188Y-72293275D01*
X106954394Y-72338382D01*
X106912338Y-72387399D01*
X106868133Y-72439024D01*
X106822889Y-72491957D01*
X106777715Y-72544898D01*
X106733724Y-72596546D01*
X106692026Y-72645600D01*
X106653731Y-72690761D01*
X106619950Y-72730726D01*
X106591795Y-72764197D01*
X106570375Y-72789871D01*
X106556801Y-72806450D01*
X106552182Y-72812616D01*
X106277709Y-72812616D01*
X106161511Y-72680292D01*
X106041901Y-72529502D01*
X105931628Y-72374275D01*
X105828806Y-72211969D01*
X105731550Y-72039947D01*
X105647244Y-71874689D01*
X105545435Y-71648918D01*
X105473994Y-71460677D01*
X105970123Y-71460677D01*
X105973370Y-71514976D01*
X105977636Y-71532766D01*
X106000506Y-71586206D01*
X106034131Y-71630424D01*
X106076366Y-71664410D01*
X106125064Y-71687154D01*
X106178081Y-71697648D01*
X106233273Y-71694882D01*
X106287176Y-71678433D01*
X106323663Y-71656094D01*
X106358900Y-71623780D01*
X106387975Y-71586469D01*
X106400502Y-71563572D01*
X106412975Y-71521237D01*
X106417033Y-71472686D01*
X106412665Y-71424405D01*
X106400836Y-71385003D01*
X106371104Y-71335970D01*
X106332200Y-71297488D01*
X106286433Y-71270005D01*
X106236112Y-71253972D01*
X106183546Y-71249838D01*
X106131044Y-71258053D01*
X106080915Y-71279068D01*
X106035468Y-71313330D01*
X106035036Y-71313750D01*
X106001963Y-71356223D01*
X105979990Y-71406479D01*
X105970123Y-71460677D01*
X105473994Y-71460677D01*
X105458482Y-71419807D01*
X105386236Y-71186804D01*
X105328550Y-70949358D01*
X105285274Y-70706917D01*
X105256262Y-70458930D01*
X105251813Y-70404030D01*
X105248527Y-70346993D01*
X105246140Y-70278285D01*
X105244651Y-70201600D01*
X105244060Y-70120636D01*
X105244367Y-70039088D01*
X105245573Y-69960652D01*
X105246321Y-69935170D01*
X105515271Y-69935170D01*
X105516579Y-70015987D01*
X105530188Y-70091179D01*
X105555311Y-70159474D01*
X105591161Y-70219602D01*
X105636950Y-70270290D01*
X105691891Y-70310267D01*
X105755196Y-70338262D01*
X105767117Y-70341846D01*
X105791839Y-70348338D01*
X105809782Y-70352211D01*
X105816771Y-70352668D01*
X105817874Y-70344497D01*
X105819463Y-70323761D01*
X105821354Y-70293271D01*
X105823363Y-70255842D01*
X105824104Y-70240709D01*
X105829320Y-70131267D01*
X105800235Y-70119115D01*
X105759522Y-70095394D01*
X105730581Y-70062765D01*
X105712942Y-70020426D01*
X105706136Y-69967572D01*
X105706022Y-69957606D01*
X105711138Y-69899288D01*
X105726642Y-69851528D01*
X105753374Y-69812809D01*
X105792169Y-69781616D01*
X105808422Y-69772369D01*
X105831316Y-69761559D01*
X105848675Y-69755534D01*
X105856071Y-69755385D01*
X105857198Y-69764283D01*
X105857416Y-69786242D01*
X105856776Y-69818961D01*
X105855334Y-69860137D01*
X105853142Y-69907468D01*
X105852092Y-69927153D01*
X105849596Y-69976221D01*
X105847780Y-70019992D01*
X105846707Y-70056174D01*
X105846438Y-70082475D01*
X105847033Y-70096605D01*
X105847517Y-70098325D01*
X105856626Y-70100527D01*
X105877843Y-70102992D01*
X105907892Y-70105403D01*
X105939504Y-70107251D01*
X106026860Y-70111545D01*
X106031578Y-70030727D01*
X106033974Y-69988688D01*
X106036751Y-69938386D01*
X106039520Y-69886937D01*
X106041364Y-69851773D01*
X106043767Y-69814946D01*
X106046712Y-69784421D01*
X106049853Y-69763080D01*
X106052837Y-69753808D01*
X106053251Y-69753636D01*
X106072548Y-69758510D01*
X106098353Y-69771395D01*
X106126023Y-69789691D01*
X106144595Y-69804843D01*
X106174575Y-69837157D01*
X106193597Y-69871907D01*
X106203361Y-69913247D01*
X106205649Y-69954170D01*
X106200134Y-70011323D01*
X106183185Y-70058186D01*
X106154743Y-70094842D01*
X106114748Y-70121375D01*
X106076435Y-70134860D01*
X106040333Y-70144018D01*
X106035239Y-70185509D01*
X106032583Y-70212864D01*
X106030012Y-70249010D01*
X106027977Y-70287346D01*
X106027542Y-70298201D01*
X106026260Y-70333088D01*
X106027299Y-70354866D01*
X106033362Y-70365805D01*
X106047150Y-70368176D01*
X106071366Y-70364248D01*
X106099069Y-70358308D01*
X106169878Y-70335942D01*
X106232423Y-70301208D01*
X106285993Y-70255154D01*
X106327721Y-70201597D01*
X106642048Y-70201597D01*
X106656331Y-70396338D01*
X106685047Y-70590756D01*
X106728332Y-70784112D01*
X106786322Y-70975664D01*
X106859155Y-71164671D01*
X106859887Y-71166380D01*
X106943605Y-71342158D01*
X107040888Y-71511592D01*
X107150916Y-71673814D01*
X107272869Y-71827957D01*
X107405924Y-71973151D01*
X107549261Y-72108530D01*
X107702059Y-72233226D01*
X107863496Y-72346370D01*
X108032753Y-72447095D01*
X108109387Y-72487203D01*
X108275628Y-72563339D01*
X108448552Y-72628573D01*
X108625317Y-72682070D01*
X108803083Y-72722994D01*
X108979008Y-72750509D01*
X109019060Y-72754868D01*
X109056610Y-72758644D01*
X109091203Y-72762187D01*
X109118300Y-72765028D01*
X109130667Y-72766382D01*
X109155713Y-72767964D01*
X109193328Y-72768683D01*
X109240713Y-72768622D01*
X109295072Y-72767864D01*
X109353607Y-72766490D01*
X109413522Y-72764584D01*
X109472019Y-72762227D01*
X109526301Y-72759502D01*
X109573571Y-72756492D01*
X109611032Y-72753278D01*
X109623273Y-72751874D01*
X109826920Y-72718311D01*
X110024691Y-72670582D01*
X110216287Y-72608834D01*
X110401408Y-72533214D01*
X110579752Y-72443869D01*
X110751019Y-72340947D01*
X110835597Y-72280901D01*
X111325207Y-72280901D01*
X111335175Y-72304587D01*
X111359037Y-72361234D01*
X111385410Y-72423757D01*
X111413695Y-72490739D01*
X111443292Y-72560766D01*
X111473601Y-72632422D01*
X111504022Y-72704292D01*
X111533955Y-72774961D01*
X111562801Y-72843014D01*
X111589960Y-72907036D01*
X111614831Y-72965610D01*
X111636814Y-73017323D01*
X111655311Y-73060759D01*
X111669720Y-73094503D01*
X111679442Y-73117139D01*
X111683877Y-73127253D01*
X111684063Y-73127627D01*
X111690629Y-73125253D01*
X111705357Y-73113847D01*
X111725912Y-73095642D01*
X111749964Y-73072868D01*
X111775179Y-73047757D01*
X111799225Y-73022540D01*
X111819769Y-72999449D01*
X111826228Y-72991627D01*
X111849798Y-72962253D01*
X111806171Y-72861727D01*
X111762545Y-72761200D01*
X111841016Y-72679433D01*
X111870844Y-72648339D01*
X111898651Y-72619325D01*
X111921834Y-72595110D01*
X111937791Y-72578410D01*
X111940947Y-72575097D01*
X111962405Y-72552527D01*
X112170129Y-72634483D01*
X112249443Y-72551612D01*
X112277408Y-72522182D01*
X112301352Y-72496583D01*
X112319345Y-72476909D01*
X112329462Y-72465251D01*
X112330941Y-72463153D01*
X112324452Y-72459342D01*
X112305014Y-72450748D01*
X112274104Y-72437961D01*
X112233198Y-72421570D01*
X112183775Y-72402162D01*
X112127312Y-72380325D01*
X112065286Y-72356649D01*
X112030759Y-72343593D01*
X111959993Y-72316906D01*
X111888533Y-72289934D01*
X111818826Y-72263602D01*
X111753321Y-72238836D01*
X111694467Y-72216562D01*
X111644711Y-72197706D01*
X111606503Y-72183192D01*
X111601394Y-72181247D01*
X111474394Y-72132873D01*
X111399801Y-72206887D01*
X111325207Y-72280901D01*
X110835597Y-72280901D01*
X110914910Y-72224594D01*
X111071124Y-72094958D01*
X111185980Y-71986188D01*
X111261661Y-71908194D01*
X111328329Y-71834347D01*
X111389543Y-71760295D01*
X111448864Y-71681690D01*
X111509852Y-71594182D01*
X111523425Y-71573936D01*
X111580099Y-71481358D01*
X112154357Y-71481358D01*
X112162357Y-71534805D01*
X112182825Y-71584276D01*
X112214861Y-71627644D01*
X112257567Y-71662777D01*
X112310045Y-71687547D01*
X112313364Y-71688619D01*
X112364472Y-71697174D01*
X112419287Y-71692901D01*
X112472277Y-71676660D01*
X112518049Y-71649015D01*
X112554871Y-71610724D01*
X112581667Y-71564366D01*
X112597362Y-71512522D01*
X112600880Y-71457774D01*
X112591145Y-71402702D01*
X112589101Y-71396386D01*
X112569801Y-71358591D01*
X112539733Y-71321490D01*
X112503134Y-71289211D01*
X112464242Y-71265880D01*
X112449101Y-71260013D01*
X112391115Y-71248877D01*
X112335037Y-71252064D01*
X112282894Y-71268740D01*
X112236710Y-71298071D01*
X112198512Y-71339224D01*
X112179353Y-71371058D01*
X112159723Y-71426066D01*
X112154357Y-71481358D01*
X111580099Y-71481358D01*
X111627164Y-71404477D01*
X111717734Y-71227453D01*
X111794815Y-71043782D01*
X111858086Y-70854381D01*
X111907225Y-70660167D01*
X111941911Y-70462057D01*
X111955850Y-70339528D01*
X111959853Y-70278587D01*
X111962057Y-70206885D01*
X111962556Y-70127996D01*
X111961440Y-70045489D01*
X111958801Y-69962938D01*
X111954730Y-69883912D01*
X111954610Y-69882304D01*
X112226713Y-69882304D01*
X112226984Y-69937158D01*
X112227539Y-69999486D01*
X112228376Y-70067707D01*
X112229215Y-70123588D01*
X112234824Y-70469910D01*
X112327972Y-70467758D01*
X112421121Y-70465606D01*
X112415007Y-69992242D01*
X112571212Y-69992242D01*
X112571212Y-70183704D01*
X112571402Y-70237827D01*
X112571936Y-70287994D01*
X112572759Y-70331778D01*
X112573817Y-70366753D01*
X112575057Y-70390492D01*
X112576023Y-70399220D01*
X112580833Y-70423273D01*
X112761550Y-70423273D01*
X112760669Y-70205833D01*
X112759788Y-69988394D01*
X112823288Y-69986158D01*
X112886788Y-69983923D01*
X112886788Y-70148536D01*
X112887033Y-70202809D01*
X112887717Y-70256885D01*
X112888760Y-70307070D01*
X112890083Y-70349665D01*
X112891610Y-70380976D01*
X112891789Y-70383605D01*
X112896790Y-70454060D01*
X113079212Y-70454060D01*
X113079212Y-69761333D01*
X112656333Y-69761333D01*
X112549773Y-69761476D01*
X112458550Y-69761906D01*
X112382607Y-69762623D01*
X112321889Y-69763629D01*
X112276341Y-69764925D01*
X112245907Y-69766512D01*
X112230533Y-69768390D01*
X112228530Y-69769300D01*
X112227634Y-69778423D01*
X112227035Y-69801353D01*
X112226729Y-69836508D01*
X112226713Y-69882304D01*
X111954610Y-69882304D01*
X111949319Y-69811984D01*
X111942659Y-69750725D01*
X111940345Y-69734394D01*
X111901895Y-69530243D01*
X111865777Y-69393701D01*
X112158885Y-69393701D01*
X112159804Y-69402046D01*
X112165131Y-69422183D01*
X112174069Y-69451416D01*
X112185820Y-69487051D01*
X112190920Y-69501893D01*
X112227078Y-69605963D01*
X112343342Y-69565225D01*
X112378048Y-69553072D01*
X112424730Y-69536737D01*
X112480832Y-69517113D01*
X112543798Y-69495095D01*
X112611070Y-69471577D01*
X112680093Y-69447452D01*
X112740545Y-69426328D01*
X112802987Y-69404474D01*
X112860756Y-69384183D01*
X112912265Y-69366019D01*
X112955927Y-69350544D01*
X112990155Y-69338321D01*
X113013360Y-69329914D01*
X113023956Y-69325885D01*
X113024434Y-69325645D01*
X113023058Y-69318044D01*
X113017569Y-69299166D01*
X113009052Y-69272222D01*
X112998590Y-69240425D01*
X112987267Y-69206987D01*
X112976169Y-69175121D01*
X112966378Y-69148039D01*
X112958978Y-69128953D01*
X112955666Y-69121846D01*
X112947978Y-69123183D01*
X112927382Y-69129076D01*
X112895491Y-69138975D01*
X112853917Y-69152330D01*
X112804275Y-69168590D01*
X112748177Y-69187205D01*
X112687237Y-69207624D01*
X112623069Y-69229296D01*
X112557286Y-69251672D01*
X112491501Y-69274201D01*
X112427327Y-69296331D01*
X112366378Y-69317514D01*
X112310267Y-69337198D01*
X112260608Y-69354833D01*
X112219014Y-69369868D01*
X112187098Y-69381754D01*
X112166474Y-69389938D01*
X112158885Y-69393701D01*
X111865777Y-69393701D01*
X111849563Y-69332409D01*
X111783519Y-69141225D01*
X111703934Y-68957026D01*
X111610980Y-68780146D01*
X111550592Y-68683878D01*
X111913929Y-68683878D01*
X111914531Y-68692644D01*
X111919761Y-68713673D01*
X111928877Y-68744799D01*
X111941138Y-68783858D01*
X111955803Y-68828685D01*
X111972131Y-68877114D01*
X111989380Y-68926982D01*
X112006809Y-68976122D01*
X112023677Y-69022370D01*
X112039243Y-69063561D01*
X112052765Y-69097531D01*
X112063503Y-69122113D01*
X112065087Y-69125383D01*
X112100438Y-69181968D01*
X112145026Y-69229511D01*
X112196436Y-69265807D01*
X112240242Y-69285066D01*
X112257019Y-69287821D01*
X112283873Y-69289353D01*
X112315520Y-69289392D01*
X112321410Y-69289216D01*
X112359633Y-69286546D01*
X112390073Y-69280510D01*
X112420250Y-69269379D01*
X112433016Y-69263546D01*
X112488700Y-69229878D01*
X112532173Y-69187116D01*
X112562567Y-69137879D01*
X112572433Y-69114812D01*
X112578443Y-69093275D01*
X112581485Y-69068118D01*
X112582447Y-69034187D01*
X112582465Y-69022424D01*
X112582058Y-68993268D01*
X112580440Y-68968816D01*
X112576836Y-68945384D01*
X112570470Y-68919290D01*
X112560567Y-68886854D01*
X112546352Y-68844392D01*
X112542789Y-68833980D01*
X112529510Y-68794453D01*
X112518506Y-68760152D01*
X112510563Y-68733653D01*
X112506466Y-68717532D01*
X112506189Y-68713895D01*
X112514078Y-68709969D01*
X112534160Y-68702004D01*
X112564045Y-68690893D01*
X112601343Y-68677526D01*
X112638309Y-68664636D01*
X112680355Y-68649995D01*
X112717302Y-68636829D01*
X112746698Y-68626038D01*
X112766095Y-68618517D01*
X112772926Y-68615335D01*
X112772607Y-68606694D01*
X112767800Y-68586954D01*
X112759607Y-68559315D01*
X112749133Y-68526975D01*
X112737482Y-68493132D01*
X112725756Y-68460986D01*
X112715061Y-68433735D01*
X112706498Y-68414577D01*
X112701173Y-68406712D01*
X112700924Y-68406667D01*
X112691874Y-68409156D01*
X112670018Y-68416239D01*
X112636994Y-68427340D01*
X112594437Y-68441883D01*
X112543984Y-68459290D01*
X112487272Y-68478986D01*
X112425937Y-68500394D01*
X112361616Y-68522937D01*
X112295945Y-68546039D01*
X112230560Y-68569124D01*
X112167100Y-68591615D01*
X112107198Y-68612935D01*
X112052494Y-68632509D01*
X112004622Y-68649760D01*
X111965220Y-68664110D01*
X111935924Y-68674985D01*
X111918370Y-68681807D01*
X111913929Y-68683878D01*
X111550592Y-68683878D01*
X111504826Y-68610921D01*
X111385644Y-68449682D01*
X111253604Y-68296767D01*
X111154761Y-68195963D01*
X111003340Y-68059764D01*
X110869485Y-67956394D01*
X111333290Y-67956394D01*
X111337222Y-67964297D01*
X111348836Y-67981364D01*
X111366024Y-68004884D01*
X111386676Y-68032142D01*
X111408682Y-68060426D01*
X111429932Y-68087023D01*
X111448318Y-68109220D01*
X111461730Y-68124304D01*
X111467956Y-68129576D01*
X111474681Y-68124941D01*
X111491512Y-68111989D01*
X111516642Y-68092152D01*
X111548263Y-68066860D01*
X111584565Y-68037544D01*
X111596042Y-68028225D01*
X111633849Y-67997509D01*
X111667898Y-67969887D01*
X111696274Y-67946913D01*
X111717058Y-67930137D01*
X111728334Y-67921111D01*
X111729493Y-67920210D01*
X111738312Y-67922954D01*
X111755430Y-67938345D01*
X111780917Y-67966453D01*
X111806078Y-67996545D01*
X111834326Y-68031040D01*
X111862411Y-68065177D01*
X111887249Y-68095216D01*
X111905754Y-68117418D01*
X111907097Y-68119016D01*
X111940326Y-68158486D01*
X111805670Y-68268527D01*
X111759750Y-68306629D01*
X111723208Y-68338172D01*
X111696771Y-68362487D01*
X111681165Y-68378905D01*
X111677115Y-68386757D01*
X111677173Y-68386844D01*
X111703123Y-68420660D01*
X111730282Y-68454266D01*
X111756817Y-68485597D01*
X111780897Y-68512587D01*
X111800690Y-68533171D01*
X111814364Y-68545283D01*
X111819657Y-68547491D01*
X111827151Y-68541737D01*
X111845431Y-68527168D01*
X111873358Y-68504704D01*
X111909794Y-68475269D01*
X111953601Y-68439782D01*
X112003641Y-68399166D01*
X112058774Y-68354341D01*
X112117864Y-68306230D01*
X112144030Y-68284903D01*
X112204365Y-68235705D01*
X112261129Y-68189401D01*
X112313196Y-68146911D01*
X112359442Y-68109154D01*
X112398742Y-68077047D01*
X112429970Y-68051511D01*
X112452003Y-68033464D01*
X112463714Y-68023825D01*
X112465299Y-68022491D01*
X112462523Y-68015376D01*
X112451942Y-67999000D01*
X112435546Y-67975977D01*
X112415325Y-67948924D01*
X112393268Y-67920454D01*
X112371365Y-67893185D01*
X112351605Y-67869730D01*
X112336666Y-67853399D01*
X112330419Y-67852157D01*
X112318742Y-67856649D01*
X112300732Y-67867541D01*
X112275486Y-67885496D01*
X112242104Y-67911179D01*
X112199682Y-67945255D01*
X112147319Y-67988388D01*
X112101352Y-68026769D01*
X112096084Y-68028887D01*
X112088848Y-68026381D01*
X112078273Y-68017889D01*
X112062987Y-68002050D01*
X112041617Y-67977504D01*
X112012793Y-67942888D01*
X111995282Y-67921533D01*
X111965761Y-67885137D01*
X111939595Y-67852337D01*
X111918369Y-67825166D01*
X111903673Y-67805657D01*
X111897091Y-67795844D01*
X111896979Y-67795583D01*
X111901396Y-67786461D01*
X111918062Y-67768743D01*
X111946661Y-67742728D01*
X111986875Y-67708712D01*
X112008752Y-67690813D01*
X112049144Y-67657391D01*
X112081451Y-67629313D01*
X112104557Y-67607616D01*
X112117348Y-67593335D01*
X112119449Y-67588014D01*
X112107611Y-67570715D01*
X112089658Y-67547629D01*
X112067792Y-67521237D01*
X112044215Y-67494022D01*
X112021130Y-67468467D01*
X112000740Y-67447053D01*
X111985246Y-67432264D01*
X111976851Y-67426581D01*
X111976310Y-67426684D01*
X111966520Y-67433920D01*
X111946585Y-67449613D01*
X111917836Y-67472667D01*
X111881604Y-67501984D01*
X111839222Y-67536469D01*
X111792019Y-67575025D01*
X111741328Y-67616554D01*
X111688479Y-67659961D01*
X111634805Y-67704148D01*
X111581636Y-67748019D01*
X111530303Y-67790477D01*
X111482138Y-67830425D01*
X111438473Y-67866767D01*
X111400638Y-67898405D01*
X111369965Y-67924244D01*
X111347786Y-67943187D01*
X111335430Y-67954136D01*
X111333290Y-67956394D01*
X110869485Y-67956394D01*
X110843796Y-67936556D01*
X110676565Y-67826537D01*
X110502085Y-67729904D01*
X110320793Y-67646853D01*
X110133124Y-67577581D01*
X109939517Y-67522286D01*
X109740407Y-67481164D01*
X109536232Y-67454412D01*
X109503970Y-67451549D01*
X109441336Y-67447898D01*
X109367721Y-67446143D01*
X109287405Y-67446186D01*
X109204673Y-67447931D01*
X109123805Y-67451282D01*
X109049086Y-67456143D01*
X108984796Y-67462416D01*
X108976727Y-67463420D01*
X108774274Y-67497018D01*
X108577213Y-67544967D01*
X108385962Y-67607060D01*
X108200935Y-67683091D01*
X108022549Y-67772852D01*
X107851220Y-67876136D01*
X107687363Y-67992735D01*
X107531395Y-68122442D01*
X107398342Y-68249980D01*
X107262897Y-68399387D01*
X107140380Y-68556619D01*
X107030927Y-68720935D01*
X106934676Y-68891593D01*
X106851764Y-69067854D01*
X106782326Y-69248977D01*
X106726500Y-69434221D01*
X106684422Y-69622845D01*
X106656230Y-69814110D01*
X106642060Y-70007274D01*
X106642048Y-70201597D01*
X106327721Y-70201597D01*
X106329880Y-70198826D01*
X106363373Y-70133269D01*
X106385762Y-70059531D01*
X106396337Y-69978657D01*
X106396419Y-69920160D01*
X106389226Y-69849703D01*
X106374084Y-69788611D01*
X106349552Y-69732302D01*
X106324346Y-69690780D01*
X106276249Y-69632953D01*
X106217714Y-69585881D01*
X106149774Y-69550050D01*
X106073462Y-69525951D01*
X105989812Y-69514070D01*
X105947970Y-69512848D01*
X105863176Y-69520127D01*
X105785755Y-69540565D01*
X105716468Y-69573417D01*
X105656077Y-69617940D01*
X105605345Y-69673390D01*
X105565034Y-69739022D01*
X105535907Y-69814093D01*
X105518725Y-69897859D01*
X105515271Y-69935170D01*
X105246321Y-69935170D01*
X105247676Y-69889024D01*
X105250678Y-69827899D01*
X105251813Y-69811364D01*
X105278119Y-69560117D01*
X105319103Y-69313454D01*
X105374695Y-69071549D01*
X105385819Y-69033958D01*
X105676730Y-69033958D01*
X105684009Y-69037062D01*
X105703903Y-69045397D01*
X105734806Y-69058295D01*
X105775114Y-69075088D01*
X105823223Y-69095107D01*
X105877528Y-69117685D01*
X105933612Y-69140983D01*
X105994437Y-69166529D01*
X106052336Y-69191385D01*
X106105364Y-69214678D01*
X106151573Y-69235530D01*
X106189020Y-69253067D01*
X106215757Y-69266413D01*
X106228393Y-69273659D01*
X106260085Y-69298485D01*
X106277477Y-69322115D01*
X106280941Y-69346998D01*
X106270845Y-69375583D01*
X106248784Y-69408724D01*
X106222086Y-69443690D01*
X106304391Y-69474924D01*
X106337480Y-69487372D01*
X106365141Y-69497573D01*
X106384293Y-69504404D01*
X106391721Y-69506746D01*
X106398239Y-69501147D01*
X106410253Y-69485966D01*
X106423515Y-69466924D01*
X106455119Y-69407432D01*
X106472348Y-69347097D01*
X106475250Y-69287396D01*
X106463869Y-69229803D01*
X106438254Y-69175795D01*
X106413297Y-69142517D01*
X106392112Y-69121000D01*
X106366355Y-69100149D01*
X106334329Y-69079007D01*
X106294337Y-69056615D01*
X106244680Y-69032015D01*
X106183662Y-69004249D01*
X106118535Y-68976145D01*
X106069726Y-68955095D01*
X106025868Y-68935487D01*
X105988892Y-68918239D01*
X105960726Y-68904272D01*
X105943303Y-68894506D01*
X105938392Y-68890311D01*
X105939907Y-68877275D01*
X105946213Y-68855102D01*
X105955928Y-68827194D01*
X105967672Y-68796956D01*
X105980064Y-68767791D01*
X105991720Y-68743102D01*
X106001261Y-68726293D01*
X106007218Y-68720742D01*
X106016425Y-68723857D01*
X106038462Y-68731753D01*
X106071730Y-68743846D01*
X106114630Y-68759548D01*
X106165565Y-68778276D01*
X106222937Y-68799442D01*
X106285146Y-68822462D01*
X106305879Y-68830149D01*
X106369305Y-68853637D01*
X106428411Y-68875452D01*
X106481597Y-68895010D01*
X106527265Y-68911726D01*
X106563816Y-68925016D01*
X106589650Y-68934293D01*
X106603170Y-68938975D01*
X106604636Y-68939407D01*
X106611866Y-68933206D01*
X106623098Y-68912682D01*
X106638100Y-68878312D01*
X106653459Y-68839055D01*
X106667101Y-68802280D01*
X106678258Y-68770994D01*
X106686028Y-68747826D01*
X106689508Y-68735401D01*
X106689520Y-68734044D01*
X106681839Y-68730804D01*
X106661330Y-68722843D01*
X106629608Y-68710759D01*
X106588289Y-68695155D01*
X106538989Y-68676631D01*
X106483324Y-68655786D01*
X106422910Y-68633222D01*
X106359363Y-68609539D01*
X106294298Y-68585339D01*
X106229332Y-68561220D01*
X106166080Y-68537785D01*
X106106158Y-68515633D01*
X106051182Y-68495366D01*
X106002768Y-68477583D01*
X105962532Y-68462885D01*
X105932089Y-68451873D01*
X105913056Y-68445148D01*
X105907160Y-68443263D01*
X105902532Y-68447081D01*
X105894978Y-68460212D01*
X105884167Y-68483454D01*
X105869768Y-68517607D01*
X105851448Y-68563468D01*
X105828878Y-68621837D01*
X105801726Y-68693514D01*
X105785402Y-68737073D01*
X105761630Y-68800833D01*
X105739700Y-68859929D01*
X105720166Y-68912847D01*
X105703582Y-68958074D01*
X105690501Y-68994096D01*
X105681478Y-69019400D01*
X105677067Y-69032472D01*
X105676730Y-69033958D01*
X105385819Y-69033958D01*
X105444825Y-68834572D01*
X105529424Y-68602696D01*
X105628421Y-68376094D01*
X105741747Y-68154936D01*
X105787223Y-68078107D01*
X106109606Y-68078107D01*
X106115514Y-68083934D01*
X106132333Y-68098012D01*
X106158702Y-68119294D01*
X106193264Y-68146733D01*
X106234658Y-68179282D01*
X106281526Y-68215896D01*
X106332508Y-68255526D01*
X106386246Y-68297127D01*
X106441380Y-68339652D01*
X106496551Y-68382055D01*
X106550400Y-68423288D01*
X106601567Y-68462305D01*
X106648694Y-68498059D01*
X106690422Y-68529504D01*
X106725390Y-68555594D01*
X106752241Y-68575281D01*
X106769615Y-68587519D01*
X106776036Y-68591299D01*
X106781480Y-68585388D01*
X106795254Y-68568438D01*
X106816395Y-68541685D01*
X106843945Y-68506366D01*
X106876940Y-68463716D01*
X106914421Y-68414971D01*
X106955427Y-68361368D01*
X106986629Y-68320412D01*
X107029630Y-68263785D01*
X107069733Y-68210801D01*
X107105976Y-68162744D01*
X107137399Y-68120893D01*
X107163043Y-68086531D01*
X107181947Y-68060938D01*
X107193150Y-68045397D01*
X107195900Y-68041175D01*
X107191554Y-68033429D01*
X107177433Y-68019438D01*
X107156403Y-68001380D01*
X107131329Y-67981434D01*
X107105074Y-67961777D01*
X107080503Y-67944589D01*
X107060481Y-67932046D01*
X107047872Y-67926327D01*
X107045289Y-67926651D01*
X107039305Y-67934273D01*
X107025248Y-67952585D01*
X107004327Y-67979997D01*
X106977755Y-68014920D01*
X106946740Y-68055763D01*
X106912494Y-68100939D01*
X106902465Y-68114182D01*
X106867743Y-68160034D01*
X106836118Y-68201783D01*
X106808757Y-68237887D01*
X106786831Y-68266803D01*
X106771508Y-68286988D01*
X106763959Y-68296901D01*
X106763386Y-68297640D01*
X106756620Y-68294799D01*
X106741210Y-68284573D01*
X106720346Y-68269421D01*
X106697221Y-68251801D01*
X106675026Y-68234172D01*
X106656953Y-68218992D01*
X106646192Y-68208719D01*
X106644545Y-68206099D01*
X106649032Y-68198555D01*
X106661687Y-68180444D01*
X106681307Y-68153410D01*
X106706684Y-68119094D01*
X106736613Y-68079141D01*
X106769889Y-68035193D01*
X106771545Y-68033017D01*
X106804940Y-67988964D01*
X106835048Y-67948878D01*
X106860666Y-67914393D01*
X106880589Y-67887141D01*
X106893613Y-67868756D01*
X106898534Y-67860871D01*
X106898545Y-67860782D01*
X106892725Y-67853404D01*
X106877301Y-67839905D01*
X106855328Y-67822515D01*
X106829860Y-67803462D01*
X106803952Y-67784973D01*
X106780660Y-67769279D01*
X106763037Y-67758605D01*
X106754139Y-67755183D01*
X106753915Y-67755276D01*
X106747602Y-67762316D01*
X106733298Y-67780007D01*
X106712282Y-67806709D01*
X106685834Y-67840785D01*
X106655232Y-67880597D01*
X106621756Y-67924505D01*
X106621142Y-67925314D01*
X106587780Y-67969024D01*
X106557385Y-68008415D01*
X106531208Y-68041902D01*
X106510498Y-68067900D01*
X106496505Y-68084822D01*
X106490479Y-68091084D01*
X106490431Y-68091091D01*
X106482186Y-68086639D01*
X106465866Y-68075218D01*
X106445212Y-68059728D01*
X106423963Y-68043067D01*
X106405859Y-68028137D01*
X106394640Y-68017837D01*
X106392794Y-68015377D01*
X106396884Y-68008205D01*
X106409229Y-67990395D01*
X106428686Y-67963502D01*
X106454114Y-67929083D01*
X106484370Y-67888692D01*
X106518312Y-67843885D01*
X106529364Y-67829394D01*
X106564291Y-67783489D01*
X106595978Y-67741496D01*
X106623265Y-67704976D01*
X106644996Y-67675494D01*
X106660010Y-67654612D01*
X106667151Y-67643894D01*
X106667585Y-67642887D01*
X106661855Y-67635144D01*
X106646535Y-67621588D01*
X106624547Y-67604292D01*
X106598809Y-67585327D01*
X106572244Y-67566766D01*
X106547770Y-67550681D01*
X106528309Y-67539144D01*
X106516781Y-67534227D01*
X106515013Y-67534625D01*
X106509392Y-67542315D01*
X106495431Y-67560949D01*
X106474117Y-67589225D01*
X106446434Y-67625839D01*
X106413370Y-67669487D01*
X106375911Y-67718868D01*
X106335041Y-67772676D01*
X106309727Y-67805974D01*
X106267460Y-67861756D01*
X106228232Y-67913918D01*
X106193002Y-67961158D01*
X106162729Y-68002171D01*
X106138371Y-68035654D01*
X106120888Y-68060303D01*
X106111238Y-68074815D01*
X106109606Y-68078107D01*
X105787223Y-68078107D01*
X105869331Y-67939395D01*
X106011104Y-67729642D01*
X106166995Y-67525851D01*
X106193821Y-67493111D01*
X106226855Y-67454891D01*
X106269235Y-67408502D01*
X106318848Y-67356053D01*
X106373578Y-67299651D01*
X106408625Y-67264293D01*
X106791950Y-67264293D01*
X106795885Y-67270636D01*
X106807895Y-67288048D01*
X106826988Y-67315156D01*
X106852173Y-67350589D01*
X106882458Y-67392975D01*
X106916852Y-67440941D01*
X106954363Y-67493115D01*
X106993999Y-67548126D01*
X107034770Y-67604601D01*
X107075682Y-67661168D01*
X107115745Y-67716455D01*
X107153968Y-67769090D01*
X107189357Y-67817702D01*
X107220923Y-67860917D01*
X107247673Y-67897364D01*
X107268616Y-67925671D01*
X107282760Y-67944466D01*
X107289114Y-67952377D01*
X107289343Y-67952541D01*
X107295979Y-67948277D01*
X107312743Y-67936573D01*
X107337331Y-67919061D01*
X107367437Y-67897376D01*
X107377858Y-67889823D01*
X107409365Y-67866934D01*
X107436165Y-67847425D01*
X107455916Y-67833005D01*
X107466274Y-67825382D01*
X107467212Y-67824666D01*
X107463919Y-67817959D01*
X107452949Y-67800910D01*
X107435714Y-67775598D01*
X107413624Y-67744107D01*
X107394091Y-67716813D01*
X107368445Y-67681165D01*
X107345724Y-67649385D01*
X107327566Y-67623783D01*
X107315611Y-67606667D01*
X107311754Y-67600875D01*
X107310205Y-67588524D01*
X107311923Y-67566802D01*
X107315975Y-67541150D01*
X107321431Y-67517006D01*
X107327362Y-67499811D01*
X107329678Y-67496076D01*
X107338151Y-67496603D01*
X107359410Y-67501171D01*
X107391536Y-67509272D01*
X107432609Y-67520401D01*
X107480707Y-67534051D01*
X107533912Y-67549713D01*
X107542051Y-67552155D01*
X107609536Y-67572099D01*
X107665635Y-67587925D01*
X107709625Y-67599448D01*
X107740786Y-67606482D01*
X107758396Y-67608844D01*
X107761612Y-67608381D01*
X107772702Y-67601581D01*
X107792693Y-67587988D01*
X107819103Y-67569414D01*
X107849450Y-67547669D01*
X107881253Y-67524564D01*
X107912028Y-67501910D01*
X107939294Y-67481518D01*
X107960569Y-67465200D01*
X107973370Y-67454765D01*
X107975970Y-67451991D01*
X107968849Y-67449089D01*
X107948456Y-67442521D01*
X107924209Y-67435139D01*
X110562433Y-67435139D01*
X110568600Y-67441139D01*
X110585061Y-67453223D01*
X110608922Y-67469533D01*
X110637290Y-67488214D01*
X110667272Y-67507409D01*
X110695972Y-67525261D01*
X110720499Y-67539913D01*
X110737957Y-67549508D01*
X110745037Y-67552303D01*
X110751231Y-67546086D01*
X110764288Y-67528683D01*
X110782918Y-67501963D01*
X110805830Y-67467796D01*
X110831733Y-67428052D01*
X110843488Y-67409685D01*
X110870136Y-67368287D01*
X110894191Y-67331805D01*
X110914398Y-67302072D01*
X110929502Y-67280917D01*
X110938248Y-67270173D01*
X110939761Y-67269216D01*
X110950246Y-67274889D01*
X110970485Y-67287117D01*
X110998102Y-67304362D01*
X111030725Y-67325084D01*
X111065978Y-67347745D01*
X111101487Y-67370807D01*
X111134879Y-67392730D01*
X111163780Y-67411976D01*
X111185814Y-67427007D01*
X111198609Y-67436283D01*
X111200863Y-67438438D01*
X111196968Y-67446244D01*
X111185910Y-67465004D01*
X111168899Y-67492756D01*
X111147144Y-67527536D01*
X111121854Y-67567381D01*
X111111999Y-67582770D01*
X111085814Y-67624118D01*
X111062923Y-67661326D01*
X111044505Y-67692391D01*
X111031737Y-67715308D01*
X111025798Y-67728074D01*
X111025560Y-67729801D01*
X111032887Y-67737372D01*
X111050167Y-67750483D01*
X111074548Y-67767334D01*
X111103180Y-67786125D01*
X111133210Y-67805057D01*
X111161788Y-67822329D01*
X111186062Y-67836142D01*
X111203181Y-67844696D01*
X111210192Y-67846344D01*
X111215218Y-67839012D01*
X111227754Y-67819914D01*
X111247020Y-67790258D01*
X111272237Y-67751251D01*
X111302628Y-67704101D01*
X111337413Y-67650014D01*
X111375814Y-67590197D01*
X111417052Y-67525859D01*
X111439194Y-67491275D01*
X111481450Y-67425159D01*
X111521091Y-67362967D01*
X111557358Y-67305899D01*
X111589494Y-67255154D01*
X111616742Y-67211934D01*
X111638344Y-67177437D01*
X111653543Y-67152865D01*
X111661581Y-67139417D01*
X111662679Y-67137214D01*
X111656449Y-67131705D01*
X111639945Y-67120094D01*
X111616077Y-67104224D01*
X111587754Y-67085939D01*
X111557888Y-67067081D01*
X111529388Y-67049495D01*
X111505165Y-67035023D01*
X111488129Y-67025508D01*
X111481982Y-67022770D01*
X111477795Y-67023944D01*
X111471266Y-67029896D01*
X111461538Y-67041852D01*
X111447754Y-67061037D01*
X111429058Y-67088678D01*
X111404593Y-67126000D01*
X111373504Y-67174230D01*
X111344784Y-67219142D01*
X111309351Y-67274679D01*
X111176357Y-67189398D01*
X111136314Y-67163708D01*
X111100962Y-67141004D01*
X111072243Y-67122534D01*
X111052099Y-67109548D01*
X111042475Y-67103297D01*
X111041936Y-67102930D01*
X111045447Y-67096415D01*
X111056072Y-67078967D01*
X111072564Y-67052580D01*
X111093677Y-67019245D01*
X111118163Y-66980957D01*
X111120830Y-66976807D01*
X111145759Y-66937700D01*
X111167537Y-66902902D01*
X111184881Y-66874518D01*
X111196504Y-66854653D01*
X111201123Y-66845412D01*
X111201151Y-66845189D01*
X111194991Y-66838888D01*
X111178073Y-66826157D01*
X111152737Y-66808647D01*
X111121325Y-66788012D01*
X111109271Y-66780321D01*
X111069470Y-66755731D01*
X111040840Y-66739563D01*
X111022106Y-66731186D01*
X111011991Y-66729966D01*
X111010175Y-66731204D01*
X111003503Y-66740851D01*
X110989769Y-66761700D01*
X110969897Y-66792301D01*
X110944811Y-66831202D01*
X110915433Y-66876952D01*
X110882685Y-66928100D01*
X110847493Y-66983194D01*
X110810777Y-67040783D01*
X110773462Y-67099417D01*
X110736471Y-67157643D01*
X110700726Y-67214010D01*
X110667151Y-67267067D01*
X110636669Y-67315364D01*
X110610203Y-67357448D01*
X110588675Y-67391868D01*
X110573010Y-67417173D01*
X110564130Y-67431913D01*
X110562433Y-67435139D01*
X107924209Y-67435139D01*
X107916352Y-67432747D01*
X107874096Y-67420227D01*
X107823248Y-67405422D01*
X107765367Y-67388792D01*
X107702013Y-67370796D01*
X107676046Y-67363476D01*
X107596410Y-67340921D01*
X107530718Y-67321962D01*
X107478022Y-67306295D01*
X107437374Y-67293617D01*
X107407828Y-67283624D01*
X107388435Y-67276014D01*
X107378247Y-67270483D01*
X107376076Y-67267515D01*
X107377680Y-67257407D01*
X107382181Y-67234148D01*
X107389187Y-67199623D01*
X107398308Y-67155722D01*
X107409154Y-67104330D01*
X107421334Y-67047335D01*
X107428626Y-67013515D01*
X107441272Y-66954705D01*
X107452702Y-66900884D01*
X107462544Y-66853850D01*
X107470428Y-66815402D01*
X107475984Y-66787336D01*
X107478841Y-66771450D01*
X107479110Y-66768519D01*
X107472807Y-66772157D01*
X107456395Y-66783163D01*
X107432226Y-66799864D01*
X107402652Y-66820590D01*
X107370026Y-66843669D01*
X107336701Y-66867430D01*
X107305028Y-66890202D01*
X107277359Y-66910315D01*
X107256048Y-66926096D01*
X107243447Y-66935875D01*
X107242988Y-66936262D01*
X107240031Y-66944805D01*
X107234559Y-66966485D01*
X107227012Y-66999328D01*
X107217829Y-67041365D01*
X107207449Y-67090622D01*
X107196310Y-67145128D01*
X107194840Y-67152442D01*
X107183747Y-67207596D01*
X107173575Y-67257881D01*
X107164731Y-67301302D01*
X107157624Y-67335863D01*
X107152663Y-67359568D01*
X107150256Y-67370421D01*
X107150155Y-67370774D01*
X107145152Y-67367217D01*
X107132707Y-67352976D01*
X107114310Y-67329909D01*
X107091447Y-67299872D01*
X107069954Y-67270713D01*
X107043549Y-67234428D01*
X107019661Y-67201646D01*
X107000034Y-67174757D01*
X106986411Y-67156149D01*
X106981199Y-67149087D01*
X106976231Y-67143852D01*
X106969931Y-67142276D01*
X106960158Y-67145425D01*
X106944771Y-67154368D01*
X106921629Y-67170175D01*
X106888589Y-67193913D01*
X106882487Y-67198340D01*
X106850737Y-67221403D01*
X106823705Y-67241069D01*
X106803702Y-67255653D01*
X106793043Y-67263469D01*
X106791950Y-67264293D01*
X106408625Y-67264293D01*
X106431311Y-67241406D01*
X106489933Y-67183423D01*
X106547328Y-67127813D01*
X106601383Y-67076682D01*
X106649982Y-67032139D01*
X106691010Y-66996291D01*
X106698424Y-66990100D01*
X106900128Y-66832904D01*
X107107758Y-66689910D01*
X107114437Y-66685882D01*
X107662831Y-66685882D01*
X107664810Y-66692855D01*
X107670814Y-66710927D01*
X107679655Y-66736716D01*
X107690144Y-66766836D01*
X107701093Y-66797904D01*
X107711313Y-66826535D01*
X107719616Y-66849345D01*
X107724813Y-66862950D01*
X107725750Y-66865048D01*
X107732895Y-66863089D01*
X107752158Y-66856649D01*
X107781204Y-66846540D01*
X107817696Y-66833573D01*
X107852987Y-66820851D01*
X107894310Y-66806279D01*
X107930576Y-66794278D01*
X107959350Y-66785590D01*
X107978200Y-66780955D01*
X107984590Y-66780743D01*
X107988269Y-66789027D01*
X107996520Y-66810223D01*
X108008756Y-66842740D01*
X108024389Y-66884988D01*
X108042832Y-66935375D01*
X108063497Y-66992312D01*
X108085796Y-67054206D01*
X108091906Y-67071242D01*
X108114673Y-67134767D01*
X108136009Y-67194278D01*
X108155311Y-67248094D01*
X108171975Y-67294534D01*
X108185398Y-67331916D01*
X108194977Y-67358559D01*
X108200108Y-67372783D01*
X108200599Y-67374131D01*
X108208831Y-67386545D01*
X108216758Y-67388795D01*
X108227279Y-67385006D01*
X108249223Y-67377109D01*
X108279531Y-67366205D01*
X108315139Y-67353396D01*
X108320545Y-67351452D01*
X108355686Y-67338255D01*
X108384878Y-67326229D01*
X108405411Y-67316570D01*
X108414575Y-67310475D01*
X108414808Y-67309848D01*
X108412270Y-67301169D01*
X108405027Y-67279578D01*
X108393627Y-67246632D01*
X108378618Y-67203890D01*
X108360549Y-67152909D01*
X108339967Y-67095246D01*
X108317421Y-67032459D01*
X108306699Y-67002722D01*
X108283616Y-66938249D01*
X108262511Y-66878257D01*
X108243899Y-66824289D01*
X108228293Y-66777886D01*
X108216210Y-66740591D01*
X108208164Y-66713947D01*
X108204671Y-66699497D01*
X108204739Y-66697364D01*
X108213741Y-66692875D01*
X108234685Y-66684272D01*
X108264991Y-66672558D01*
X108302084Y-66658739D01*
X108329130Y-66648916D01*
X108368974Y-66634481D01*
X108403453Y-66621782D01*
X108430085Y-66611751D01*
X108446385Y-66605319D01*
X108450299Y-66603478D01*
X108449004Y-66595539D01*
X108443340Y-66576025D01*
X108434205Y-66547826D01*
X108422499Y-66513833D01*
X108421852Y-66512003D01*
X108390486Y-66423446D01*
X108027440Y-66554129D01*
X107956394Y-66579712D01*
X107889886Y-66603681D01*
X107829292Y-66625537D01*
X107775991Y-66644783D01*
X107731359Y-66660920D01*
X107696774Y-66673452D01*
X107673614Y-66681880D01*
X107663256Y-66685707D01*
X107662831Y-66685882D01*
X107114437Y-66685882D01*
X107321347Y-66561106D01*
X107540923Y-66446480D01*
X107707843Y-66372148D01*
X108715378Y-66372148D01*
X108716136Y-66393775D01*
X108717705Y-66427304D01*
X108719979Y-66471007D01*
X108722852Y-66523157D01*
X108726217Y-66582024D01*
X108729968Y-66645880D01*
X108733998Y-66712997D01*
X108738203Y-66781646D01*
X108742475Y-66850098D01*
X108746709Y-66916625D01*
X108750797Y-66979499D01*
X108754635Y-67036991D01*
X108758115Y-67087373D01*
X108761131Y-67128916D01*
X108763578Y-67159892D01*
X108765348Y-67178572D01*
X108765788Y-67181883D01*
X108769966Y-67207858D01*
X108879120Y-67202292D01*
X108918285Y-67200187D01*
X108951488Y-67198195D01*
X108975935Y-67196502D01*
X108988831Y-67195290D01*
X108990116Y-67195000D01*
X108990233Y-67187154D01*
X108989454Y-67166365D01*
X108987898Y-67135048D01*
X108985685Y-67095620D01*
X108982936Y-67050497D01*
X108982885Y-67049691D01*
X108980242Y-67004290D01*
X108978350Y-66964343D01*
X108977288Y-66932321D01*
X108977139Y-66910695D01*
X108977985Y-66901934D01*
X108977996Y-66901923D01*
X108986776Y-66899919D01*
X109008073Y-66897249D01*
X109039042Y-66894210D01*
X109076836Y-66891099D01*
X109092985Y-66889918D01*
X109136532Y-66886498D01*
X109178102Y-66882615D01*
X109213559Y-66878695D01*
X109238764Y-66875166D01*
X109239840Y-66874970D01*
X109673845Y-66874970D01*
X109674519Y-66916327D01*
X109677107Y-66947913D01*
X109682429Y-66975310D01*
X109691305Y-67004103D01*
X109693870Y-67011329D01*
X109727792Y-67083523D01*
X109773972Y-67146691D01*
X109831929Y-67200454D01*
X109901183Y-67244427D01*
X109981253Y-67278231D01*
X110054882Y-67298143D01*
X110090764Y-67302473D01*
X110135641Y-67303223D01*
X110183904Y-67300740D01*
X110229944Y-67295369D01*
X110268152Y-67287455D01*
X110277885Y-67284414D01*
X110327949Y-67264683D01*
X110368507Y-67242912D01*
X110405359Y-67215428D01*
X110443000Y-67179889D01*
X110494414Y-67117141D01*
X110533614Y-67047029D01*
X110560252Y-66971668D01*
X110573985Y-66893174D01*
X110574465Y-66813662D01*
X110561348Y-66735245D01*
X110534286Y-66660039D01*
X110529596Y-66650348D01*
X110490890Y-66589524D01*
X110440697Y-66536677D01*
X110381061Y-66492442D01*
X110314027Y-66457455D01*
X110241638Y-66432352D01*
X110165939Y-66417769D01*
X110088973Y-66414343D01*
X110012786Y-66422708D01*
X109939421Y-66443502D01*
X109908060Y-66456992D01*
X109870647Y-66480015D01*
X109830385Y-66513121D01*
X109791015Y-66552475D01*
X109756277Y-66594248D01*
X109729910Y-66634608D01*
X109724635Y-66644927D01*
X109699064Y-66706440D01*
X109683056Y-66765394D01*
X109675218Y-66828091D01*
X109673845Y-66874970D01*
X109239840Y-66874970D01*
X109242773Y-66874436D01*
X109303676Y-66855853D01*
X109359069Y-66826097D01*
X109406284Y-66787143D01*
X109442653Y-66740965D01*
X109455307Y-66717182D01*
X109464249Y-66694273D01*
X109469636Y-66670509D01*
X109472261Y-66640875D01*
X109472914Y-66605576D01*
X109472347Y-66568117D01*
X109469926Y-66540854D01*
X109464765Y-66518617D01*
X109455982Y-66496238D01*
X109453166Y-66490121D01*
X109429112Y-66446249D01*
X109402127Y-66413517D01*
X109368423Y-66387696D01*
X109353744Y-66379185D01*
X109301147Y-66355659D01*
X109245629Y-66341762D01*
X109182289Y-66336353D01*
X109169151Y-66336191D01*
X109145326Y-66336604D01*
X109111205Y-66337843D01*
X109069115Y-66339765D01*
X109021382Y-66342226D01*
X108970334Y-66345083D01*
X108918297Y-66348192D01*
X108867597Y-66351409D01*
X108820562Y-66354593D01*
X108779517Y-66357598D01*
X108746789Y-66360282D01*
X108724705Y-66362501D01*
X108715591Y-66364111D01*
X108715538Y-66364153D01*
X108715378Y-66372148D01*
X107707843Y-66372148D01*
X107766519Y-66346019D01*
X107998163Y-66259710D01*
X108235887Y-66187541D01*
X108479722Y-66129499D01*
X108729697Y-66085572D01*
X108961333Y-66057965D01*
X109051540Y-66051583D01*
X109153499Y-66047893D01*
X109263823Y-66046816D01*
X109379122Y-66048268D01*
G36*
X108031911Y-73011066D02*
X108067092Y-73016667D01*
X108069849Y-73017402D01*
X108117065Y-73037534D01*
X108159119Y-73068788D01*
X108193331Y-73108197D01*
X108217019Y-73152794D01*
X108226679Y-73190923D01*
X108226895Y-73245826D01*
X108215631Y-73304757D01*
X108194294Y-73363321D01*
X108164294Y-73417129D01*
X108146594Y-73440743D01*
X108111664Y-73472500D01*
X108068205Y-73496488D01*
X108020588Y-73511222D01*
X107973181Y-73515213D01*
X107941485Y-73510561D01*
X107882534Y-73488070D01*
X107834490Y-73455837D01*
X107798154Y-73415055D01*
X107774325Y-73366917D01*
X107763804Y-73312618D01*
X107767392Y-73253350D01*
X107767731Y-73251477D01*
X107783494Y-73194422D01*
X107808159Y-73140376D01*
X107839735Y-73092248D01*
X107876229Y-73052945D01*
X107915648Y-73025375D01*
X107926006Y-73020539D01*
X107954978Y-73013142D01*
X107992410Y-73009938D01*
X108031911Y-73011066D01*
X108031911Y-73011066D01*
G37*
X108031911Y-73011066D02*
X108067092Y-73016667D01*
X108069849Y-73017402D01*
X108117065Y-73037534D01*
X108159119Y-73068788D01*
X108193331Y-73108197D01*
X108217019Y-73152794D01*
X108226679Y-73190923D01*
X108226895Y-73245826D01*
X108215631Y-73304757D01*
X108194294Y-73363321D01*
X108164294Y-73417129D01*
X108146594Y-73440743D01*
X108111664Y-73472500D01*
X108068205Y-73496488D01*
X108020588Y-73511222D01*
X107973181Y-73515213D01*
X107941485Y-73510561D01*
X107882534Y-73488070D01*
X107834490Y-73455837D01*
X107798154Y-73415055D01*
X107774325Y-73366917D01*
X107763804Y-73312618D01*
X107767392Y-73253350D01*
X107767731Y-73251477D01*
X107783494Y-73194422D01*
X107808159Y-73140376D01*
X107839735Y-73092248D01*
X107876229Y-73052945D01*
X107915648Y-73025375D01*
X107926006Y-73020539D01*
X107954978Y-73013142D01*
X107992410Y-73009938D01*
X108031911Y-73011066D01*
G36*
X106957507Y-72699103D02*
X106975993Y-72712459D01*
X107000806Y-72732452D01*
X107029618Y-72757008D01*
X107060102Y-72784052D01*
X107089930Y-72811510D01*
X107116773Y-72837307D01*
X107138304Y-72859369D01*
X107152196Y-72875620D01*
X107154178Y-72878494D01*
X107169074Y-72907931D01*
X107171219Y-72932422D01*
X107160090Y-72955817D01*
X107140843Y-72976742D01*
X107120007Y-72993741D01*
X107101589Y-73000280D01*
X107080211Y-72997036D01*
X107056333Y-72987385D01*
X107041706Y-72978611D01*
X107019042Y-72962555D01*
X106990852Y-72941253D01*
X106959645Y-72916742D01*
X106927933Y-72891059D01*
X106898226Y-72866240D01*
X106873034Y-72844322D01*
X106854869Y-72827340D01*
X106846241Y-72817333D01*
X106845984Y-72816753D01*
X106849617Y-72808330D01*
X106861089Y-72791733D01*
X106877793Y-72770099D01*
X106897123Y-72746561D01*
X106916471Y-72724256D01*
X106933232Y-72706317D01*
X106944797Y-72695880D01*
X106947676Y-72694459D01*
X106957507Y-72699103D01*
X106957507Y-72699103D01*
G37*
X106957507Y-72699103D02*
X106975993Y-72712459D01*
X107000806Y-72732452D01*
X107029618Y-72757008D01*
X107060102Y-72784052D01*
X107089930Y-72811510D01*
X107116773Y-72837307D01*
X107138304Y-72859369D01*
X107152196Y-72875620D01*
X107154178Y-72878494D01*
X107169074Y-72907931D01*
X107171219Y-72932422D01*
X107160090Y-72955817D01*
X107140843Y-72976742D01*
X107120007Y-72993741D01*
X107101589Y-73000280D01*
X107080211Y-72997036D01*
X107056333Y-72987385D01*
X107041706Y-72978611D01*
X107019042Y-72962555D01*
X106990852Y-72941253D01*
X106959645Y-72916742D01*
X106927933Y-72891059D01*
X106898226Y-72866240D01*
X106873034Y-72844322D01*
X106854869Y-72827340D01*
X106846241Y-72817333D01*
X106845984Y-72816753D01*
X106849617Y-72808330D01*
X106861089Y-72791733D01*
X106877793Y-72770099D01*
X106897123Y-72746561D01*
X106916471Y-72724256D01*
X106933232Y-72706317D01*
X106944797Y-72695880D01*
X106947676Y-72694459D01*
X106957507Y-72699103D01*
G36*
X107236466Y-72524264D02*
X107281693Y-72563442D01*
X107314987Y-72595463D01*
X107337146Y-72621828D01*
X107348967Y-72644036D01*
X107351249Y-72663586D01*
X107344788Y-72681978D01*
X107330383Y-72700711D01*
X107330336Y-72700762D01*
X107311634Y-72717360D01*
X107293809Y-72723264D01*
X107272565Y-72718708D01*
X107246089Y-72705355D01*
X107226701Y-72692650D01*
X107201477Y-72673845D01*
X107172931Y-72651097D01*
X107143577Y-72626561D01*
X107115927Y-72602395D01*
X107092496Y-72580753D01*
X107075798Y-72563792D01*
X107068345Y-72553668D01*
X107068179Y-72552745D01*
X107073174Y-72543138D01*
X107086155Y-72525669D01*
X107104575Y-72503701D01*
X107109630Y-72498013D01*
X107150782Y-72452238D01*
X107236466Y-72524264D01*
X107236466Y-72524264D01*
G37*
X107236466Y-72524264D02*
X107281693Y-72563442D01*
X107314987Y-72595463D01*
X107337146Y-72621828D01*
X107348967Y-72644036D01*
X107351249Y-72663586D01*
X107344788Y-72681978D01*
X107330383Y-72700711D01*
X107330336Y-72700762D01*
X107311634Y-72717360D01*
X107293809Y-72723264D01*
X107272565Y-72718708D01*
X107246089Y-72705355D01*
X107226701Y-72692650D01*
X107201477Y-72673845D01*
X107172931Y-72651097D01*
X107143577Y-72626561D01*
X107115927Y-72602395D01*
X107092496Y-72580753D01*
X107075798Y-72563792D01*
X107068345Y-72553668D01*
X107068179Y-72552745D01*
X107073174Y-72543138D01*
X107086155Y-72525669D01*
X107104575Y-72503701D01*
X107109630Y-72498013D01*
X107150782Y-72452238D01*
X107236466Y-72524264D01*
G36*
X111620355Y-72411887D02*
X111640903Y-72419294D01*
X111668305Y-72429841D01*
X111698915Y-72442056D01*
X111729090Y-72454466D01*
X111755186Y-72465599D01*
X111773558Y-72473985D01*
X111780259Y-72477737D01*
X111777633Y-72484929D01*
X111765937Y-72500139D01*
X111747277Y-72520794D01*
X111733768Y-72534577D01*
X111681594Y-72586351D01*
X111642218Y-72497721D01*
X111627956Y-72464377D01*
X111617194Y-72436763D01*
X111610878Y-72417504D01*
X111609952Y-72409224D01*
X111610303Y-72409091D01*
X111620355Y-72411887D01*
X111620355Y-72411887D01*
G37*
X111620355Y-72411887D02*
X111640903Y-72419294D01*
X111668305Y-72429841D01*
X111698915Y-72442056D01*
X111729090Y-72454466D01*
X111755186Y-72465599D01*
X111773558Y-72473985D01*
X111780259Y-72477737D01*
X111777633Y-72484929D01*
X111765937Y-72500139D01*
X111747277Y-72520794D01*
X111733768Y-72534577D01*
X111681594Y-72586351D01*
X111642218Y-72497721D01*
X111627956Y-72464377D01*
X111617194Y-72436763D01*
X111610878Y-72417504D01*
X111609952Y-72409224D01*
X111610303Y-72409091D01*
X111620355Y-72411887D01*
G36*
X109367770Y-67600749D02*
X109471701Y-67604498D01*
X109564976Y-67610884D01*
X109652191Y-67620438D01*
X109737939Y-67633691D01*
X109826815Y-67651173D01*
X109852064Y-67656714D01*
X110038705Y-67706196D01*
X110219298Y-67769435D01*
X110393261Y-67845801D01*
X110560015Y-67934664D01*
X110718980Y-68035394D01*
X110869576Y-68147362D01*
X111011222Y-68269938D01*
X111143339Y-68402492D01*
X111265347Y-68544394D01*
X111376665Y-68695015D01*
X111476714Y-68853725D01*
X111564913Y-69019893D01*
X111640682Y-69192891D01*
X111703441Y-69372088D01*
X111752611Y-69556855D01*
X111787611Y-69746562D01*
X111789549Y-69760254D01*
X111808832Y-69954450D01*
X111813006Y-70148454D01*
X111802284Y-70341396D01*
X111776880Y-70532405D01*
X111737008Y-70720609D01*
X111682882Y-70905138D01*
X111614715Y-71085121D01*
X111532722Y-71259687D01*
X111437115Y-71427964D01*
X111347237Y-71562709D01*
X111296174Y-71632173D01*
X111246938Y-71694711D01*
X111196093Y-71754341D01*
X111140203Y-71815081D01*
X111075831Y-71880951D01*
X111070825Y-71885952D01*
X110926454Y-72019238D01*
X110773327Y-72140069D01*
X110612148Y-72248118D01*
X110443616Y-72343057D01*
X110268436Y-72424558D01*
X110087308Y-72492293D01*
X109900935Y-72545934D01*
X109710018Y-72585154D01*
X109523212Y-72608923D01*
X109486278Y-72611343D01*
X109437788Y-72613227D01*
X109381484Y-72614551D01*
X109321109Y-72615292D01*
X109260402Y-72615427D01*
X109203108Y-72614931D01*
X109152968Y-72613783D01*
X109113723Y-72611958D01*
X109107576Y-72611515D01*
X108915477Y-72588946D01*
X108727338Y-72551854D01*
X108543837Y-72500756D01*
X108365652Y-72436170D01*
X108193461Y-72358613D01*
X108027940Y-72268601D01*
X107942381Y-72213454D01*
X108862316Y-72213454D01*
X108888220Y-72210429D01*
X108939927Y-72210985D01*
X108997827Y-72223003D01*
X109059361Y-72245280D01*
X109121969Y-72276616D01*
X109183090Y-72315809D01*
X109240166Y-72361657D01*
X109268614Y-72388975D01*
X109302653Y-72423922D01*
X109357447Y-72371873D01*
X109389687Y-72343449D01*
X109426609Y-72314222D01*
X109461474Y-72289456D01*
X109469651Y-72284223D01*
X109541190Y-72246427D01*
X109612635Y-72222445D01*
X109680083Y-72211668D01*
X109736765Y-72206877D01*
X109703031Y-72140575D01*
X109682941Y-72099052D01*
X109667833Y-72061879D01*
X109656929Y-72025458D01*
X109649446Y-71986195D01*
X109644606Y-71940493D01*
X109641627Y-71884756D01*
X109640618Y-71852985D01*
X109637114Y-71724060D01*
X109492424Y-71724060D01*
X109492381Y-71829894D01*
X109491808Y-71882698D01*
X109489702Y-71923066D01*
X109485408Y-71953933D01*
X109478273Y-71978232D01*
X109467641Y-71998895D01*
X109452860Y-72018858D01*
X109449294Y-72023087D01*
X109409474Y-72059029D01*
X109364499Y-72081608D01*
X109316723Y-72090737D01*
X109268498Y-72086329D01*
X109222176Y-72068299D01*
X109180109Y-72036558D01*
X109176703Y-72033120D01*
X109157260Y-72011000D01*
X109143046Y-71988772D01*
X109133286Y-71963497D01*
X109127206Y-71932233D01*
X109124033Y-71892041D01*
X109122990Y-71839978D01*
X109122970Y-71829001D01*
X109122970Y-71724060D01*
X108970999Y-71724060D01*
X108966819Y-71852985D01*
X108963031Y-71925832D01*
X108956247Y-71986901D01*
X108945566Y-72039664D01*
X108930090Y-72087596D01*
X108908917Y-72134168D01*
X108881460Y-72182348D01*
X108862316Y-72213454D01*
X107942381Y-72213454D01*
X107869769Y-72166653D01*
X107719625Y-72053285D01*
X107578186Y-71929014D01*
X107446129Y-71794359D01*
X107324133Y-71649835D01*
X107212875Y-71495959D01*
X107113033Y-71333251D01*
X107025284Y-71162225D01*
X106950308Y-70983400D01*
X106941138Y-70958514D01*
X106892563Y-70812255D01*
X106854556Y-70669397D01*
X106826513Y-70526400D01*
X106807829Y-70379726D01*
X106797901Y-70225834D01*
X106795834Y-70107697D01*
X106796505Y-70019688D01*
X106798624Y-69948222D01*
X107817886Y-69948222D01*
X107831083Y-70093651D01*
X107858107Y-70237420D01*
X107898783Y-70377839D01*
X107952939Y-70513216D01*
X107968934Y-70546830D01*
X108043421Y-70681470D01*
X108129124Y-70805577D01*
X108225907Y-70919013D01*
X108333634Y-71021642D01*
X108452169Y-71113325D01*
X108581376Y-71193927D01*
X108644602Y-71227367D01*
X108697239Y-71251757D01*
X108756910Y-71276076D01*
X108820672Y-71299411D01*
X108885583Y-71320847D01*
X108948700Y-71339469D01*
X109007080Y-71354362D01*
X109057781Y-71364613D01*
X109097860Y-71369307D01*
X109101803Y-71369453D01*
X109122970Y-71370000D01*
X109122970Y-71116697D01*
X109094106Y-71111721D01*
X108979733Y-71085677D01*
X108865933Y-71046785D01*
X108750118Y-70994155D01*
X108745818Y-70991962D01*
X108625943Y-70922163D01*
X108516102Y-70840749D01*
X108416650Y-70748074D01*
X108327940Y-70644493D01*
X108283284Y-70578825D01*
X108424699Y-70578825D01*
X108427228Y-70617218D01*
X108441706Y-70653781D01*
X108465771Y-70683220D01*
X108474056Y-70689567D01*
X108479983Y-70693057D01*
X108487488Y-70695976D01*
X108497978Y-70698396D01*
X108512860Y-70700386D01*
X108533539Y-70702018D01*
X108561422Y-70703362D01*
X108597916Y-70704489D01*
X108644425Y-70705470D01*
X108702358Y-70706374D01*
X108773119Y-70707274D01*
X108842030Y-70708060D01*
X109188394Y-70711909D01*
X109192242Y-71332878D01*
X109192946Y-71445158D01*
X109193593Y-71543067D01*
X109194215Y-71627629D01*
X109194841Y-71699867D01*
X109195505Y-71760805D01*
X109196235Y-71811465D01*
X109197065Y-71852872D01*
X109198024Y-71886047D01*
X109199144Y-71912016D01*
X109200456Y-71931800D01*
X109201990Y-71946423D01*
X109203779Y-71956908D01*
X109205852Y-71964280D01*
X109208242Y-71969560D01*
X109210979Y-71973773D01*
X109211732Y-71974794D01*
X109239868Y-72001125D01*
X109275035Y-72017373D01*
X109313122Y-72022822D01*
X109350017Y-72016754D01*
X109375619Y-72003346D01*
X109393742Y-71985907D01*
X109410333Y-71963963D01*
X109411606Y-71961862D01*
X109414407Y-71956733D01*
X109416851Y-71950803D01*
X109418967Y-71943031D01*
X109420783Y-71932381D01*
X109422328Y-71917815D01*
X109423631Y-71898292D01*
X109424719Y-71872777D01*
X109425621Y-71840229D01*
X109426366Y-71799612D01*
X109426981Y-71749886D01*
X109427497Y-71690014D01*
X109427940Y-71618957D01*
X109428340Y-71535676D01*
X109428725Y-71439135D01*
X109429123Y-71328293D01*
X109429145Y-71321894D01*
X109429862Y-71116697D01*
X109492424Y-71116697D01*
X109492424Y-71371774D01*
X109536682Y-71366281D01*
X109562255Y-71362120D01*
X109597706Y-71355041D01*
X109638041Y-71346094D01*
X109672426Y-71337803D01*
X109810491Y-71296433D01*
X109940377Y-71243385D01*
X110064502Y-71177498D01*
X110185286Y-71097611D01*
X110208501Y-71080419D01*
X110323998Y-70983950D01*
X110428088Y-70877349D01*
X110520426Y-70761191D01*
X110600668Y-70636051D01*
X110668468Y-70502503D01*
X110723482Y-70361122D01*
X110765363Y-70212481D01*
X110783515Y-70123091D01*
X110790173Y-70071631D01*
X110794565Y-70008918D01*
X110796725Y-69938918D01*
X110796688Y-69865599D01*
X110794486Y-69792928D01*
X110790155Y-69724873D01*
X110783726Y-69665401D01*
X110779383Y-69638182D01*
X110771593Y-69598230D01*
X110763300Y-69559406D01*
X110755628Y-69526795D01*
X110750893Y-69509257D01*
X110738737Y-69468848D01*
X110637050Y-69468856D01*
X110535364Y-69468864D01*
X110515052Y-69505417D01*
X110502659Y-69531309D01*
X110499271Y-69549645D01*
X110501272Y-69559120D01*
X110509028Y-69585442D01*
X110517242Y-69623410D01*
X110525339Y-69669311D01*
X110532746Y-69719431D01*
X110538888Y-69770057D01*
X110543190Y-69817476D01*
X110544447Y-69838303D01*
X110543250Y-69973038D01*
X110527013Y-70106696D01*
X110496089Y-70238007D01*
X110450831Y-70365702D01*
X110391592Y-70488509D01*
X110340129Y-70573726D01*
X110262472Y-70678203D01*
X110172919Y-70774945D01*
X110073404Y-70862360D01*
X109965864Y-70938854D01*
X109852236Y-71002835D01*
X109778191Y-71036083D01*
X109722545Y-71056879D01*
X109661349Y-71076793D01*
X109600181Y-71094181D01*
X109544620Y-71107398D01*
X109521288Y-71111827D01*
X109492424Y-71116697D01*
X109429862Y-71116697D01*
X109431290Y-70708060D01*
X109766648Y-70708060D01*
X109851636Y-70708033D01*
X109922633Y-70707839D01*
X109981040Y-70707307D01*
X110028261Y-70706268D01*
X110065697Y-70704552D01*
X110094752Y-70701989D01*
X110116828Y-70698410D01*
X110133327Y-70693645D01*
X110145652Y-70687524D01*
X110155205Y-70679877D01*
X110163388Y-70670534D01*
X110171605Y-70659326D01*
X110171833Y-70659005D01*
X110183306Y-70637237D01*
X110188368Y-70610369D01*
X110189000Y-70591246D01*
X110184966Y-70553430D01*
X110171260Y-70523418D01*
X110145473Y-70496570D01*
X110136008Y-70489172D01*
X110132384Y-70486616D01*
X110128162Y-70484348D01*
X110122442Y-70482348D01*
X110114328Y-70480595D01*
X110102920Y-70479071D01*
X110087319Y-70477756D01*
X110066627Y-70476629D01*
X110039945Y-70475672D01*
X110006376Y-70474863D01*
X109965019Y-70474184D01*
X109914977Y-70473615D01*
X109855351Y-70473136D01*
X109785242Y-70472728D01*
X109703753Y-70472369D01*
X109609983Y-70472042D01*
X109503035Y-70471725D01*
X109382011Y-70471400D01*
X109320594Y-70471239D01*
X108526432Y-70469176D01*
X108492258Y-70486633D01*
X108457214Y-70510164D01*
X108435409Y-70539248D01*
X108424988Y-70576416D01*
X108424699Y-70578825D01*
X108283284Y-70578825D01*
X108250325Y-70530360D01*
X108206984Y-70452612D01*
X108150307Y-70326165D01*
X108108731Y-70196784D01*
X108082271Y-70064593D01*
X108070941Y-69929714D01*
X108074755Y-69792272D01*
X108093728Y-69652390D01*
X108107504Y-69587448D01*
X108112327Y-69563595D01*
X108111994Y-69546709D01*
X108105360Y-69529537D01*
X108095605Y-69512185D01*
X108074464Y-69476110D01*
X107973830Y-69478252D01*
X107873197Y-69480394D01*
X107863000Y-69518879D01*
X107833670Y-69659145D01*
X107818690Y-69802823D01*
X107817886Y-69948222D01*
X106798624Y-69948222D01*
X106798783Y-69942873D01*
X106803065Y-69873100D01*
X106809751Y-69806215D01*
X106819238Y-69738067D01*
X106831924Y-69664504D01*
X106844567Y-69599346D01*
X106889538Y-69414086D01*
X106939008Y-69263242D01*
X107051093Y-69263242D01*
X107052123Y-69304049D01*
X107064539Y-69343598D01*
X107087043Y-69378042D01*
X107118334Y-69403537D01*
X107124079Y-69406533D01*
X107131276Y-69409855D01*
X107138890Y-69412686D01*
X107148143Y-69415066D01*
X107160254Y-69417035D01*
X107176443Y-69418630D01*
X107197930Y-69419892D01*
X107225935Y-69420859D01*
X107261679Y-69421571D01*
X107306382Y-69422066D01*
X107361262Y-69422384D01*
X107427542Y-69422564D01*
X107506440Y-69422645D01*
X107599176Y-69422666D01*
X107627235Y-69422667D01*
X108097065Y-69422667D01*
X108353759Y-69871015D01*
X108398156Y-69948549D01*
X108440887Y-70023156D01*
X108481242Y-70093596D01*
X108518510Y-70158629D01*
X108551980Y-70217014D01*
X108580941Y-70267512D01*
X108604682Y-70308883D01*
X108622492Y-70339886D01*
X108633660Y-70359282D01*
X108636171Y-70363621D01*
X108661889Y-70407879D01*
X108839374Y-70407879D01*
X108898274Y-70407706D01*
X108943247Y-70407135D01*
X108975757Y-70406083D01*
X108997267Y-70404470D01*
X109009240Y-70402215D01*
X109009382Y-70402106D01*
X109713511Y-70402106D01*
X109722213Y-70405170D01*
X109741722Y-70407263D01*
X109762735Y-70407879D01*
X109808924Y-70407879D01*
X110084071Y-70128864D01*
X110153620Y-70058336D01*
X110213118Y-69997954D01*
X110263311Y-69946895D01*
X110304948Y-69904334D01*
X110338775Y-69869446D01*
X110365539Y-69841408D01*
X110385988Y-69819394D01*
X110400869Y-69802580D01*
X110410930Y-69790142D01*
X110416917Y-69781256D01*
X110419577Y-69775097D01*
X110419659Y-69770841D01*
X110417909Y-69767664D01*
X110415074Y-69764740D01*
X110414576Y-69764247D01*
X110405286Y-69757877D01*
X110391921Y-69756100D01*
X110369957Y-69758633D01*
X110358093Y-69760726D01*
X110333673Y-69764603D01*
X110316060Y-69766208D01*
X110309941Y-69765537D01*
X110312726Y-69758243D01*
X110322354Y-69739487D01*
X110337834Y-69711058D01*
X110358178Y-69674747D01*
X110382397Y-69632344D01*
X110406689Y-69590451D01*
X110506889Y-69418818D01*
X110963702Y-69414970D01*
X111059349Y-69414141D01*
X111140831Y-69413362D01*
X111209376Y-69412587D01*
X111266211Y-69411767D01*
X111312566Y-69410857D01*
X111349668Y-69409809D01*
X111378746Y-69408577D01*
X111401027Y-69407115D01*
X111417740Y-69405374D01*
X111430114Y-69403310D01*
X111439375Y-69400874D01*
X111446753Y-69398020D01*
X111450066Y-69396448D01*
X111484246Y-69371684D01*
X111507571Y-69338614D01*
X111519547Y-69300316D01*
X111519679Y-69259870D01*
X111507473Y-69220357D01*
X111483819Y-69186297D01*
X111475148Y-69177209D01*
X111466803Y-69169336D01*
X111457675Y-69162590D01*
X111446651Y-69156885D01*
X111432619Y-69152133D01*
X111414468Y-69148247D01*
X111391087Y-69145140D01*
X111361364Y-69142725D01*
X111324187Y-69140915D01*
X111278445Y-69139623D01*
X111223026Y-69138761D01*
X111156819Y-69138243D01*
X111078713Y-69137981D01*
X110987595Y-69137889D01*
X110882354Y-69137879D01*
X110341221Y-69137879D01*
X110196068Y-69384027D01*
X110163128Y-69439490D01*
X110132507Y-69490285D01*
X110105096Y-69534992D01*
X110081787Y-69572193D01*
X110063469Y-69600466D01*
X110051032Y-69618393D01*
X110045369Y-69624553D01*
X110045228Y-69624489D01*
X110040421Y-69614077D01*
X110033744Y-69592565D01*
X110026239Y-69563966D01*
X110018950Y-69532295D01*
X110012922Y-69501567D01*
X110012262Y-69497712D01*
X110007342Y-69478376D01*
X109999104Y-69470201D01*
X109988677Y-69468848D01*
X109972835Y-69473502D01*
X109964824Y-69489191D01*
X109961861Y-69500127D01*
X109955109Y-69524519D01*
X109944949Y-69561007D01*
X109931764Y-69608227D01*
X109915932Y-69664818D01*
X109897836Y-69729418D01*
X109877857Y-69800665D01*
X109856374Y-69877198D01*
X109835097Y-69952933D01*
X109812767Y-70032655D01*
X109791819Y-70107965D01*
X109772605Y-70177561D01*
X109755480Y-70240138D01*
X109740796Y-70294394D01*
X109728905Y-70339024D01*
X109720161Y-70372725D01*
X109714916Y-70394194D01*
X109713511Y-70402106D01*
X109009382Y-70402106D01*
X109013141Y-70399237D01*
X109012984Y-70398257D01*
X109008591Y-70390370D01*
X108996921Y-70370165D01*
X108978523Y-70338578D01*
X108953947Y-70296546D01*
X108923743Y-70245006D01*
X108888461Y-70184895D01*
X108848650Y-70117149D01*
X108804861Y-70042706D01*
X108757644Y-69962502D01*
X108707549Y-69877473D01*
X108655125Y-69788557D01*
X108643606Y-69769030D01*
X108278105Y-69149424D01*
X107728795Y-69147230D01*
X107637570Y-69146929D01*
X107550384Y-69146764D01*
X107468531Y-69146730D01*
X107393309Y-69146821D01*
X107326011Y-69147033D01*
X107267933Y-69147359D01*
X107220371Y-69147796D01*
X107184620Y-69148338D01*
X107161976Y-69148979D01*
X107154305Y-69149534D01*
X107127965Y-69160013D01*
X107099963Y-69180151D01*
X107075374Y-69205765D01*
X107062749Y-69225023D01*
X107051093Y-69263242D01*
X106939008Y-69263242D01*
X106948582Y-69234049D01*
X107010295Y-69085776D01*
X108053091Y-69085776D01*
X108060363Y-69087753D01*
X108080483Y-69089450D01*
X108110905Y-69090747D01*
X108149083Y-69091525D01*
X108179206Y-69091697D01*
X108305320Y-69091697D01*
X108318468Y-69111762D01*
X108328989Y-69123714D01*
X108336759Y-69125598D01*
X108337121Y-69125232D01*
X108344377Y-69116617D01*
X108358867Y-69099467D01*
X108377875Y-69076994D01*
X108384510Y-69069155D01*
X108456501Y-68993672D01*
X108540808Y-68921728D01*
X108634434Y-68855302D01*
X108734381Y-68796372D01*
X108837652Y-68746916D01*
X108920328Y-68715607D01*
X108995750Y-68692787D01*
X109067447Y-68676254D01*
X109140089Y-68665305D01*
X109218347Y-68659240D01*
X109306892Y-68657355D01*
X109307697Y-68657354D01*
X109394682Y-68659108D01*
X109471458Y-68664851D01*
X109542857Y-68675303D01*
X109613712Y-68691186D01*
X109688857Y-68713219D01*
X109694511Y-68715046D01*
X109786808Y-68750384D01*
X109880587Y-68796233D01*
X109972850Y-68850573D01*
X110060592Y-68911387D01*
X110140814Y-68976657D01*
X110210513Y-69044366D01*
X110246895Y-69086396D01*
X110264382Y-69107565D01*
X110278200Y-69123045D01*
X110285579Y-69129750D01*
X110285836Y-69129818D01*
X110292271Y-69124098D01*
X110300606Y-69110939D01*
X110310904Y-69091697D01*
X110436604Y-69091697D01*
X110478639Y-69091436D01*
X110514704Y-69090713D01*
X110542249Y-69089621D01*
X110558723Y-69088251D01*
X110562303Y-69087182D01*
X110557705Y-69076976D01*
X110545132Y-69057369D01*
X110526416Y-69030823D01*
X110503390Y-68999804D01*
X110477884Y-68966775D01*
X110451732Y-68934200D01*
X110426764Y-68904544D01*
X110425060Y-68902586D01*
X110325283Y-68799701D01*
X110214338Y-68706395D01*
X110093879Y-68623731D01*
X109965559Y-68552769D01*
X109831033Y-68494569D01*
X109741908Y-68464347D01*
X109596226Y-68427993D01*
X109449720Y-68406603D01*
X109303378Y-68399853D01*
X109158186Y-68407420D01*
X109015132Y-68428981D01*
X108875203Y-68464211D01*
X108739386Y-68512788D01*
X108608669Y-68574388D01*
X108484038Y-68648688D01*
X108366481Y-68735365D01*
X108256986Y-68834094D01*
X108156538Y-68944553D01*
X108115080Y-68997296D01*
X108092244Y-69028128D01*
X108073199Y-69054640D01*
X108059660Y-69074383D01*
X108053342Y-69084908D01*
X108053091Y-69085776D01*
X107010295Y-69085776D01*
X107021069Y-69059891D01*
X107106370Y-68892268D01*
X107203858Y-68731839D01*
X107312902Y-68579258D01*
X107432875Y-68435183D01*
X107563147Y-68300271D01*
X107703090Y-68175178D01*
X107852074Y-68060560D01*
X108009471Y-67957075D01*
X108174652Y-67865379D01*
X108346988Y-67786129D01*
X108525850Y-67719981D01*
X108689547Y-67672779D01*
X108809621Y-67645233D01*
X108924428Y-67624603D01*
X109038242Y-67610434D01*
X109155335Y-67602272D01*
X109279981Y-67599664D01*
X109367770Y-67600749D01*
X109367770Y-67600749D01*
G37*
X109367770Y-67600749D02*
X109471701Y-67604498D01*
X109564976Y-67610884D01*
X109652191Y-67620438D01*
X109737939Y-67633691D01*
X109826815Y-67651173D01*
X109852064Y-67656714D01*
X110038705Y-67706196D01*
X110219298Y-67769435D01*
X110393261Y-67845801D01*
X110560015Y-67934664D01*
X110718980Y-68035394D01*
X110869576Y-68147362D01*
X111011222Y-68269938D01*
X111143339Y-68402492D01*
X111265347Y-68544394D01*
X111376665Y-68695015D01*
X111476714Y-68853725D01*
X111564913Y-69019893D01*
X111640682Y-69192891D01*
X111703441Y-69372088D01*
X111752611Y-69556855D01*
X111787611Y-69746562D01*
X111789549Y-69760254D01*
X111808832Y-69954450D01*
X111813006Y-70148454D01*
X111802284Y-70341396D01*
X111776880Y-70532405D01*
X111737008Y-70720609D01*
X111682882Y-70905138D01*
X111614715Y-71085121D01*
X111532722Y-71259687D01*
X111437115Y-71427964D01*
X111347237Y-71562709D01*
X111296174Y-71632173D01*
X111246938Y-71694711D01*
X111196093Y-71754341D01*
X111140203Y-71815081D01*
X111075831Y-71880951D01*
X111070825Y-71885952D01*
X110926454Y-72019238D01*
X110773327Y-72140069D01*
X110612148Y-72248118D01*
X110443616Y-72343057D01*
X110268436Y-72424558D01*
X110087308Y-72492293D01*
X109900935Y-72545934D01*
X109710018Y-72585154D01*
X109523212Y-72608923D01*
X109486278Y-72611343D01*
X109437788Y-72613227D01*
X109381484Y-72614551D01*
X109321109Y-72615292D01*
X109260402Y-72615427D01*
X109203108Y-72614931D01*
X109152968Y-72613783D01*
X109113723Y-72611958D01*
X109107576Y-72611515D01*
X108915477Y-72588946D01*
X108727338Y-72551854D01*
X108543837Y-72500756D01*
X108365652Y-72436170D01*
X108193461Y-72358613D01*
X108027940Y-72268601D01*
X107942381Y-72213454D01*
X108862316Y-72213454D01*
X108888220Y-72210429D01*
X108939927Y-72210985D01*
X108997827Y-72223003D01*
X109059361Y-72245280D01*
X109121969Y-72276616D01*
X109183090Y-72315809D01*
X109240166Y-72361657D01*
X109268614Y-72388975D01*
X109302653Y-72423922D01*
X109357447Y-72371873D01*
X109389687Y-72343449D01*
X109426609Y-72314222D01*
X109461474Y-72289456D01*
X109469651Y-72284223D01*
X109541190Y-72246427D01*
X109612635Y-72222445D01*
X109680083Y-72211668D01*
X109736765Y-72206877D01*
X109703031Y-72140575D01*
X109682941Y-72099052D01*
X109667833Y-72061879D01*
X109656929Y-72025458D01*
X109649446Y-71986195D01*
X109644606Y-71940493D01*
X109641627Y-71884756D01*
X109640618Y-71852985D01*
X109637114Y-71724060D01*
X109492424Y-71724060D01*
X109492381Y-71829894D01*
X109491808Y-71882698D01*
X109489702Y-71923066D01*
X109485408Y-71953933D01*
X109478273Y-71978232D01*
X109467641Y-71998895D01*
X109452860Y-72018858D01*
X109449294Y-72023087D01*
X109409474Y-72059029D01*
X109364499Y-72081608D01*
X109316723Y-72090737D01*
X109268498Y-72086329D01*
X109222176Y-72068299D01*
X109180109Y-72036558D01*
X109176703Y-72033120D01*
X109157260Y-72011000D01*
X109143046Y-71988772D01*
X109133286Y-71963497D01*
X109127206Y-71932233D01*
X109124033Y-71892041D01*
X109122990Y-71839978D01*
X109122970Y-71829001D01*
X109122970Y-71724060D01*
X108970999Y-71724060D01*
X108966819Y-71852985D01*
X108963031Y-71925832D01*
X108956247Y-71986901D01*
X108945566Y-72039664D01*
X108930090Y-72087596D01*
X108908917Y-72134168D01*
X108881460Y-72182348D01*
X108862316Y-72213454D01*
X107942381Y-72213454D01*
X107869769Y-72166653D01*
X107719625Y-72053285D01*
X107578186Y-71929014D01*
X107446129Y-71794359D01*
X107324133Y-71649835D01*
X107212875Y-71495959D01*
X107113033Y-71333251D01*
X107025284Y-71162225D01*
X106950308Y-70983400D01*
X106941138Y-70958514D01*
X106892563Y-70812255D01*
X106854556Y-70669397D01*
X106826513Y-70526400D01*
X106807829Y-70379726D01*
X106797901Y-70225834D01*
X106795834Y-70107697D01*
X106796505Y-70019688D01*
X106798624Y-69948222D01*
X107817886Y-69948222D01*
X107831083Y-70093651D01*
X107858107Y-70237420D01*
X107898783Y-70377839D01*
X107952939Y-70513216D01*
X107968934Y-70546830D01*
X108043421Y-70681470D01*
X108129124Y-70805577D01*
X108225907Y-70919013D01*
X108333634Y-71021642D01*
X108452169Y-71113325D01*
X108581376Y-71193927D01*
X108644602Y-71227367D01*
X108697239Y-71251757D01*
X108756910Y-71276076D01*
X108820672Y-71299411D01*
X108885583Y-71320847D01*
X108948700Y-71339469D01*
X109007080Y-71354362D01*
X109057781Y-71364613D01*
X109097860Y-71369307D01*
X109101803Y-71369453D01*
X109122970Y-71370000D01*
X109122970Y-71116697D01*
X109094106Y-71111721D01*
X108979733Y-71085677D01*
X108865933Y-71046785D01*
X108750118Y-70994155D01*
X108745818Y-70991962D01*
X108625943Y-70922163D01*
X108516102Y-70840749D01*
X108416650Y-70748074D01*
X108327940Y-70644493D01*
X108283284Y-70578825D01*
X108424699Y-70578825D01*
X108427228Y-70617218D01*
X108441706Y-70653781D01*
X108465771Y-70683220D01*
X108474056Y-70689567D01*
X108479983Y-70693057D01*
X108487488Y-70695976D01*
X108497978Y-70698396D01*
X108512860Y-70700386D01*
X108533539Y-70702018D01*
X108561422Y-70703362D01*
X108597916Y-70704489D01*
X108644425Y-70705470D01*
X108702358Y-70706374D01*
X108773119Y-70707274D01*
X108842030Y-70708060D01*
X109188394Y-70711909D01*
X109192242Y-71332878D01*
X109192946Y-71445158D01*
X109193593Y-71543067D01*
X109194215Y-71627629D01*
X109194841Y-71699867D01*
X109195505Y-71760805D01*
X109196235Y-71811465D01*
X109197065Y-71852872D01*
X109198024Y-71886047D01*
X109199144Y-71912016D01*
X109200456Y-71931800D01*
X109201990Y-71946423D01*
X109203779Y-71956908D01*
X109205852Y-71964280D01*
X109208242Y-71969560D01*
X109210979Y-71973773D01*
X109211732Y-71974794D01*
X109239868Y-72001125D01*
X109275035Y-72017373D01*
X109313122Y-72022822D01*
X109350017Y-72016754D01*
X109375619Y-72003346D01*
X109393742Y-71985907D01*
X109410333Y-71963963D01*
X109411606Y-71961862D01*
X109414407Y-71956733D01*
X109416851Y-71950803D01*
X109418967Y-71943031D01*
X109420783Y-71932381D01*
X109422328Y-71917815D01*
X109423631Y-71898292D01*
X109424719Y-71872777D01*
X109425621Y-71840229D01*
X109426366Y-71799612D01*
X109426981Y-71749886D01*
X109427497Y-71690014D01*
X109427940Y-71618957D01*
X109428340Y-71535676D01*
X109428725Y-71439135D01*
X109429123Y-71328293D01*
X109429145Y-71321894D01*
X109429862Y-71116697D01*
X109492424Y-71116697D01*
X109492424Y-71371774D01*
X109536682Y-71366281D01*
X109562255Y-71362120D01*
X109597706Y-71355041D01*
X109638041Y-71346094D01*
X109672426Y-71337803D01*
X109810491Y-71296433D01*
X109940377Y-71243385D01*
X110064502Y-71177498D01*
X110185286Y-71097611D01*
X110208501Y-71080419D01*
X110323998Y-70983950D01*
X110428088Y-70877349D01*
X110520426Y-70761191D01*
X110600668Y-70636051D01*
X110668468Y-70502503D01*
X110723482Y-70361122D01*
X110765363Y-70212481D01*
X110783515Y-70123091D01*
X110790173Y-70071631D01*
X110794565Y-70008918D01*
X110796725Y-69938918D01*
X110796688Y-69865599D01*
X110794486Y-69792928D01*
X110790155Y-69724873D01*
X110783726Y-69665401D01*
X110779383Y-69638182D01*
X110771593Y-69598230D01*
X110763300Y-69559406D01*
X110755628Y-69526795D01*
X110750893Y-69509257D01*
X110738737Y-69468848D01*
X110637050Y-69468856D01*
X110535364Y-69468864D01*
X110515052Y-69505417D01*
X110502659Y-69531309D01*
X110499271Y-69549645D01*
X110501272Y-69559120D01*
X110509028Y-69585442D01*
X110517242Y-69623410D01*
X110525339Y-69669311D01*
X110532746Y-69719431D01*
X110538888Y-69770057D01*
X110543190Y-69817476D01*
X110544447Y-69838303D01*
X110543250Y-69973038D01*
X110527013Y-70106696D01*
X110496089Y-70238007D01*
X110450831Y-70365702D01*
X110391592Y-70488509D01*
X110340129Y-70573726D01*
X110262472Y-70678203D01*
X110172919Y-70774945D01*
X110073404Y-70862360D01*
X109965864Y-70938854D01*
X109852236Y-71002835D01*
X109778191Y-71036083D01*
X109722545Y-71056879D01*
X109661349Y-71076793D01*
X109600181Y-71094181D01*
X109544620Y-71107398D01*
X109521288Y-71111827D01*
X109492424Y-71116697D01*
X109429862Y-71116697D01*
X109431290Y-70708060D01*
X109766648Y-70708060D01*
X109851636Y-70708033D01*
X109922633Y-70707839D01*
X109981040Y-70707307D01*
X110028261Y-70706268D01*
X110065697Y-70704552D01*
X110094752Y-70701989D01*
X110116828Y-70698410D01*
X110133327Y-70693645D01*
X110145652Y-70687524D01*
X110155205Y-70679877D01*
X110163388Y-70670534D01*
X110171605Y-70659326D01*
X110171833Y-70659005D01*
X110183306Y-70637237D01*
X110188368Y-70610369D01*
X110189000Y-70591246D01*
X110184966Y-70553430D01*
X110171260Y-70523418D01*
X110145473Y-70496570D01*
X110136008Y-70489172D01*
X110132384Y-70486616D01*
X110128162Y-70484348D01*
X110122442Y-70482348D01*
X110114328Y-70480595D01*
X110102920Y-70479071D01*
X110087319Y-70477756D01*
X110066627Y-70476629D01*
X110039945Y-70475672D01*
X110006376Y-70474863D01*
X109965019Y-70474184D01*
X109914977Y-70473615D01*
X109855351Y-70473136D01*
X109785242Y-70472728D01*
X109703753Y-70472369D01*
X109609983Y-70472042D01*
X109503035Y-70471725D01*
X109382011Y-70471400D01*
X109320594Y-70471239D01*
X108526432Y-70469176D01*
X108492258Y-70486633D01*
X108457214Y-70510164D01*
X108435409Y-70539248D01*
X108424988Y-70576416D01*
X108424699Y-70578825D01*
X108283284Y-70578825D01*
X108250325Y-70530360D01*
X108206984Y-70452612D01*
X108150307Y-70326165D01*
X108108731Y-70196784D01*
X108082271Y-70064593D01*
X108070941Y-69929714D01*
X108074755Y-69792272D01*
X108093728Y-69652390D01*
X108107504Y-69587448D01*
X108112327Y-69563595D01*
X108111994Y-69546709D01*
X108105360Y-69529537D01*
X108095605Y-69512185D01*
X108074464Y-69476110D01*
X107973830Y-69478252D01*
X107873197Y-69480394D01*
X107863000Y-69518879D01*
X107833670Y-69659145D01*
X107818690Y-69802823D01*
X107817886Y-69948222D01*
X106798624Y-69948222D01*
X106798783Y-69942873D01*
X106803065Y-69873100D01*
X106809751Y-69806215D01*
X106819238Y-69738067D01*
X106831924Y-69664504D01*
X106844567Y-69599346D01*
X106889538Y-69414086D01*
X106939008Y-69263242D01*
X107051093Y-69263242D01*
X107052123Y-69304049D01*
X107064539Y-69343598D01*
X107087043Y-69378042D01*
X107118334Y-69403537D01*
X107124079Y-69406533D01*
X107131276Y-69409855D01*
X107138890Y-69412686D01*
X107148143Y-69415066D01*
X107160254Y-69417035D01*
X107176443Y-69418630D01*
X107197930Y-69419892D01*
X107225935Y-69420859D01*
X107261679Y-69421571D01*
X107306382Y-69422066D01*
X107361262Y-69422384D01*
X107427542Y-69422564D01*
X107506440Y-69422645D01*
X107599176Y-69422666D01*
X107627235Y-69422667D01*
X108097065Y-69422667D01*
X108353759Y-69871015D01*
X108398156Y-69948549D01*
X108440887Y-70023156D01*
X108481242Y-70093596D01*
X108518510Y-70158629D01*
X108551980Y-70217014D01*
X108580941Y-70267512D01*
X108604682Y-70308883D01*
X108622492Y-70339886D01*
X108633660Y-70359282D01*
X108636171Y-70363621D01*
X108661889Y-70407879D01*
X108839374Y-70407879D01*
X108898274Y-70407706D01*
X108943247Y-70407135D01*
X108975757Y-70406083D01*
X108997267Y-70404470D01*
X109009240Y-70402215D01*
X109009382Y-70402106D01*
X109713511Y-70402106D01*
X109722213Y-70405170D01*
X109741722Y-70407263D01*
X109762735Y-70407879D01*
X109808924Y-70407879D01*
X110084071Y-70128864D01*
X110153620Y-70058336D01*
X110213118Y-69997954D01*
X110263311Y-69946895D01*
X110304948Y-69904334D01*
X110338775Y-69869446D01*
X110365539Y-69841408D01*
X110385988Y-69819394D01*
X110400869Y-69802580D01*
X110410930Y-69790142D01*
X110416917Y-69781256D01*
X110419577Y-69775097D01*
X110419659Y-69770841D01*
X110417909Y-69767664D01*
X110415074Y-69764740D01*
X110414576Y-69764247D01*
X110405286Y-69757877D01*
X110391921Y-69756100D01*
X110369957Y-69758633D01*
X110358093Y-69760726D01*
X110333673Y-69764603D01*
X110316060Y-69766208D01*
X110309941Y-69765537D01*
X110312726Y-69758243D01*
X110322354Y-69739487D01*
X110337834Y-69711058D01*
X110358178Y-69674747D01*
X110382397Y-69632344D01*
X110406689Y-69590451D01*
X110506889Y-69418818D01*
X110963702Y-69414970D01*
X111059349Y-69414141D01*
X111140831Y-69413362D01*
X111209376Y-69412587D01*
X111266211Y-69411767D01*
X111312566Y-69410857D01*
X111349668Y-69409809D01*
X111378746Y-69408577D01*
X111401027Y-69407115D01*
X111417740Y-69405374D01*
X111430114Y-69403310D01*
X111439375Y-69400874D01*
X111446753Y-69398020D01*
X111450066Y-69396448D01*
X111484246Y-69371684D01*
X111507571Y-69338614D01*
X111519547Y-69300316D01*
X111519679Y-69259870D01*
X111507473Y-69220357D01*
X111483819Y-69186297D01*
X111475148Y-69177209D01*
X111466803Y-69169336D01*
X111457675Y-69162590D01*
X111446651Y-69156885D01*
X111432619Y-69152133D01*
X111414468Y-69148247D01*
X111391087Y-69145140D01*
X111361364Y-69142725D01*
X111324187Y-69140915D01*
X111278445Y-69139623D01*
X111223026Y-69138761D01*
X111156819Y-69138243D01*
X111078713Y-69137981D01*
X110987595Y-69137889D01*
X110882354Y-69137879D01*
X110341221Y-69137879D01*
X110196068Y-69384027D01*
X110163128Y-69439490D01*
X110132507Y-69490285D01*
X110105096Y-69534992D01*
X110081787Y-69572193D01*
X110063469Y-69600466D01*
X110051032Y-69618393D01*
X110045369Y-69624553D01*
X110045228Y-69624489D01*
X110040421Y-69614077D01*
X110033744Y-69592565D01*
X110026239Y-69563966D01*
X110018950Y-69532295D01*
X110012922Y-69501567D01*
X110012262Y-69497712D01*
X110007342Y-69478376D01*
X109999104Y-69470201D01*
X109988677Y-69468848D01*
X109972835Y-69473502D01*
X109964824Y-69489191D01*
X109961861Y-69500127D01*
X109955109Y-69524519D01*
X109944949Y-69561007D01*
X109931764Y-69608227D01*
X109915932Y-69664818D01*
X109897836Y-69729418D01*
X109877857Y-69800665D01*
X109856374Y-69877198D01*
X109835097Y-69952933D01*
X109812767Y-70032655D01*
X109791819Y-70107965D01*
X109772605Y-70177561D01*
X109755480Y-70240138D01*
X109740796Y-70294394D01*
X109728905Y-70339024D01*
X109720161Y-70372725D01*
X109714916Y-70394194D01*
X109713511Y-70402106D01*
X109009382Y-70402106D01*
X109013141Y-70399237D01*
X109012984Y-70398257D01*
X109008591Y-70390370D01*
X108996921Y-70370165D01*
X108978523Y-70338578D01*
X108953947Y-70296546D01*
X108923743Y-70245006D01*
X108888461Y-70184895D01*
X108848650Y-70117149D01*
X108804861Y-70042706D01*
X108757644Y-69962502D01*
X108707549Y-69877473D01*
X108655125Y-69788557D01*
X108643606Y-69769030D01*
X108278105Y-69149424D01*
X107728795Y-69147230D01*
X107637570Y-69146929D01*
X107550384Y-69146764D01*
X107468531Y-69146730D01*
X107393309Y-69146821D01*
X107326011Y-69147033D01*
X107267933Y-69147359D01*
X107220371Y-69147796D01*
X107184620Y-69148338D01*
X107161976Y-69148979D01*
X107154305Y-69149534D01*
X107127965Y-69160013D01*
X107099963Y-69180151D01*
X107075374Y-69205765D01*
X107062749Y-69225023D01*
X107051093Y-69263242D01*
X106939008Y-69263242D01*
X106948582Y-69234049D01*
X107010295Y-69085776D01*
X108053091Y-69085776D01*
X108060363Y-69087753D01*
X108080483Y-69089450D01*
X108110905Y-69090747D01*
X108149083Y-69091525D01*
X108179206Y-69091697D01*
X108305320Y-69091697D01*
X108318468Y-69111762D01*
X108328989Y-69123714D01*
X108336759Y-69125598D01*
X108337121Y-69125232D01*
X108344377Y-69116617D01*
X108358867Y-69099467D01*
X108377875Y-69076994D01*
X108384510Y-69069155D01*
X108456501Y-68993672D01*
X108540808Y-68921728D01*
X108634434Y-68855302D01*
X108734381Y-68796372D01*
X108837652Y-68746916D01*
X108920328Y-68715607D01*
X108995750Y-68692787D01*
X109067447Y-68676254D01*
X109140089Y-68665305D01*
X109218347Y-68659240D01*
X109306892Y-68657355D01*
X109307697Y-68657354D01*
X109394682Y-68659108D01*
X109471458Y-68664851D01*
X109542857Y-68675303D01*
X109613712Y-68691186D01*
X109688857Y-68713219D01*
X109694511Y-68715046D01*
X109786808Y-68750384D01*
X109880587Y-68796233D01*
X109972850Y-68850573D01*
X110060592Y-68911387D01*
X110140814Y-68976657D01*
X110210513Y-69044366D01*
X110246895Y-69086396D01*
X110264382Y-69107565D01*
X110278200Y-69123045D01*
X110285579Y-69129750D01*
X110285836Y-69129818D01*
X110292271Y-69124098D01*
X110300606Y-69110939D01*
X110310904Y-69091697D01*
X110436604Y-69091697D01*
X110478639Y-69091436D01*
X110514704Y-69090713D01*
X110542249Y-69089621D01*
X110558723Y-69088251D01*
X110562303Y-69087182D01*
X110557705Y-69076976D01*
X110545132Y-69057369D01*
X110526416Y-69030823D01*
X110503390Y-68999804D01*
X110477884Y-68966775D01*
X110451732Y-68934200D01*
X110426764Y-68904544D01*
X110425060Y-68902586D01*
X110325283Y-68799701D01*
X110214338Y-68706395D01*
X110093879Y-68623731D01*
X109965559Y-68552769D01*
X109831033Y-68494569D01*
X109741908Y-68464347D01*
X109596226Y-68427993D01*
X109449720Y-68406603D01*
X109303378Y-68399853D01*
X109158186Y-68407420D01*
X109015132Y-68428981D01*
X108875203Y-68464211D01*
X108739386Y-68512788D01*
X108608669Y-68574388D01*
X108484038Y-68648688D01*
X108366481Y-68735365D01*
X108256986Y-68834094D01*
X108156538Y-68944553D01*
X108115080Y-68997296D01*
X108092244Y-69028128D01*
X108073199Y-69054640D01*
X108059660Y-69074383D01*
X108053342Y-69084908D01*
X108053091Y-69085776D01*
X107010295Y-69085776D01*
X107021069Y-69059891D01*
X107106370Y-68892268D01*
X107203858Y-68731839D01*
X107312902Y-68579258D01*
X107432875Y-68435183D01*
X107563147Y-68300271D01*
X107703090Y-68175178D01*
X107852074Y-68060560D01*
X108009471Y-67957075D01*
X108174652Y-67865379D01*
X108346988Y-67786129D01*
X108525850Y-67719981D01*
X108689547Y-67672779D01*
X108809621Y-67645233D01*
X108924428Y-67624603D01*
X109038242Y-67610434D01*
X109155335Y-67602272D01*
X109279981Y-67599664D01*
X109367770Y-67600749D01*
G36*
X112330297Y-68791005D02*
X112338669Y-68811701D01*
X112349401Y-68840465D01*
X112358907Y-68867305D01*
X112375901Y-68922114D01*
X112384505Y-68965631D01*
X112384548Y-68999579D01*
X112375861Y-69025680D01*
X112358274Y-69045656D01*
X112340218Y-69057104D01*
X112305309Y-69068292D01*
X112272545Y-69065830D01*
X112244763Y-69050035D01*
X112240705Y-69046010D01*
X112232361Y-69033212D01*
X112220936Y-69010560D01*
X112207653Y-68981132D01*
X112193738Y-68948004D01*
X112180414Y-68914256D01*
X112168907Y-68882963D01*
X112160440Y-68857204D01*
X112156239Y-68840057D01*
X112156624Y-68834699D01*
X112167851Y-68829143D01*
X112189129Y-68821026D01*
X112216847Y-68811485D01*
X112247393Y-68801653D01*
X112277153Y-68792664D01*
X112302516Y-68785654D01*
X112319869Y-68781756D01*
X112325555Y-68781639D01*
X112330297Y-68791005D01*
X112330297Y-68791005D01*
G37*
X112330297Y-68791005D02*
X112338669Y-68811701D01*
X112349401Y-68840465D01*
X112358907Y-68867305D01*
X112375901Y-68922114D01*
X112384505Y-68965631D01*
X112384548Y-68999579D01*
X112375861Y-69025680D01*
X112358274Y-69045656D01*
X112340218Y-69057104D01*
X112305309Y-69068292D01*
X112272545Y-69065830D01*
X112244763Y-69050035D01*
X112240705Y-69046010D01*
X112232361Y-69033212D01*
X112220936Y-69010560D01*
X112207653Y-68981132D01*
X112193738Y-68948004D01*
X112180414Y-68914256D01*
X112168907Y-68882963D01*
X112160440Y-68857204D01*
X112156239Y-68840057D01*
X112156624Y-68834699D01*
X112167851Y-68829143D01*
X112189129Y-68821026D01*
X112216847Y-68811485D01*
X112247393Y-68801653D01*
X112277153Y-68792664D01*
X112302516Y-68785654D01*
X112319869Y-68781756D01*
X112325555Y-68781639D01*
X112330297Y-68791005D01*
G36*
X110163236Y-66610162D02*
X110188873Y-66612684D01*
X110209527Y-66618078D01*
X110230392Y-66627332D01*
X110235875Y-66630167D01*
X110283889Y-66663252D01*
X110319453Y-66705069D01*
X110342228Y-66754850D01*
X110351877Y-66811828D01*
X110348062Y-66875234D01*
X110346838Y-66882390D01*
X110328965Y-66948765D01*
X110301911Y-67005023D01*
X110266808Y-67050367D01*
X110224787Y-67084003D01*
X110176980Y-67105134D01*
X110124518Y-67112964D01*
X110068532Y-67106698D01*
X110040005Y-67098186D01*
X109987398Y-67072604D01*
X109947020Y-67037802D01*
X109918312Y-66993119D01*
X109900713Y-66937896D01*
X109899769Y-66933005D01*
X109896269Y-66879016D01*
X109903553Y-66821088D01*
X109920275Y-66763702D01*
X109945087Y-66711336D01*
X109976645Y-66668471D01*
X109980453Y-66664544D01*
X110007865Y-66639553D01*
X110033311Y-66623319D01*
X110061469Y-66614091D01*
X110097020Y-66610118D01*
X110127424Y-66609524D01*
X110163236Y-66610162D01*
X110163236Y-66610162D01*
G37*
X110163236Y-66610162D02*
X110188873Y-66612684D01*
X110209527Y-66618078D01*
X110230392Y-66627332D01*
X110235875Y-66630167D01*
X110283889Y-66663252D01*
X110319453Y-66705069D01*
X110342228Y-66754850D01*
X110351877Y-66811828D01*
X110348062Y-66875234D01*
X110346838Y-66882390D01*
X110328965Y-66948765D01*
X110301911Y-67005023D01*
X110266808Y-67050367D01*
X110224787Y-67084003D01*
X110176980Y-67105134D01*
X110124518Y-67112964D01*
X110068532Y-67106698D01*
X110040005Y-67098186D01*
X109987398Y-67072604D01*
X109947020Y-67037802D01*
X109918312Y-66993119D01*
X109900713Y-66937896D01*
X109899769Y-66933005D01*
X109896269Y-66879016D01*
X109903553Y-66821088D01*
X109920275Y-66763702D01*
X109945087Y-66711336D01*
X109976645Y-66668471D01*
X109980453Y-66664544D01*
X110007865Y-66639553D01*
X110033311Y-66623319D01*
X110061469Y-66614091D01*
X110097020Y-66610118D01*
X110127424Y-66609524D01*
X110163236Y-66610162D01*
G36*
X109180658Y-66526647D02*
X109188394Y-66528116D01*
X109219692Y-66542101D01*
X109241231Y-66564570D01*
X109252827Y-66592267D01*
X109254296Y-66621937D01*
X109245451Y-66650325D01*
X109226108Y-66674175D01*
X109197573Y-66689753D01*
X109182357Y-66692919D01*
X109155502Y-66696778D01*
X109120729Y-66700944D01*
X109081755Y-66705034D01*
X109042298Y-66708663D01*
X109006078Y-66711448D01*
X108976813Y-66713005D01*
X108970954Y-66713159D01*
X108963175Y-66706776D01*
X108960610Y-66696015D01*
X108959753Y-66680779D01*
X108958075Y-66654765D01*
X108955877Y-66622551D01*
X108954837Y-66607810D01*
X108949788Y-66536924D01*
X108988273Y-66532981D01*
X109050834Y-66527487D01*
X109105119Y-66524567D01*
X109149078Y-66524270D01*
X109180658Y-66526647D01*
X109180658Y-66526647D01*
G37*
X109180658Y-66526647D02*
X109188394Y-66528116D01*
X109219692Y-66542101D01*
X109241231Y-66564570D01*
X109252827Y-66592267D01*
X109254296Y-66621937D01*
X109245451Y-66650325D01*
X109226108Y-66674175D01*
X109197573Y-66689753D01*
X109182357Y-66692919D01*
X109155502Y-66696778D01*
X109120729Y-66700944D01*
X109081755Y-66705034D01*
X109042298Y-66708663D01*
X109006078Y-66711448D01*
X108976813Y-66713005D01*
X108970954Y-66713159D01*
X108963175Y-66706776D01*
X108960610Y-66696015D01*
X108959753Y-66680779D01*
X108958075Y-66654765D01*
X108955877Y-66622551D01*
X108954837Y-66607810D01*
X108949788Y-66536924D01*
X108988273Y-66532981D01*
X109050834Y-66527487D01*
X109105119Y-66524567D01*
X109149078Y-66524270D01*
X109180658Y-66526647D01*
M02*
