M48
;DRILL file {KiCad 4.0.2-stable} date 24.08.2018 1:20:19
;FORMAT={-:-/ absolute / metric / decimal}
FMAT,2
METRIC,TZ
T1C0.300
T2C0.500
T3C0.700
T4C0.900
T5C1.200
T6C1.300
T7C1.500
%
G90
G05
M71
T1
X101.85Y-84.65
X102.Y-53.
X102.1Y-55.05
X102.45Y-63.4
X103.3Y-70.2
X103.4Y-60.45
X104.Y-98.5
X104.5Y-50.5
X104.6Y-65.35
X105.15Y-94.1
X105.25Y-73.6
X105.5Y-53.
X106.Y-96.
X106.1Y-78.05
X107.05Y-82.85
X107.05Y-86.3
X107.15Y-62.5
X107.15Y-65.35
X107.15Y-78.9
X108.Y-98.5
X108.4Y-59.15
X108.4Y-65.35
X108.45Y-68.55
X108.45Y-76.55
X108.5Y-50.5
X108.5Y-55.
X109.05Y-78.35
X109.7Y-62.5
X109.7Y-65.35
X110.3Y-76.55
X110.35Y-59.15
X111.Y-86.
X111.05Y-72.35
X111.5Y-55.
X112.Y-98.45
X112.1Y-68.55
X112.9Y-74.9
X113.15Y-50.6
X113.15Y-55.6
X113.15Y-58.15
X113.5Y-85.3
X113.7Y-89.8
X114.3Y-77.45
X114.5Y-87.9
X114.6Y-59.1
X114.65Y-63.5
X115.Y-72.1
X115.8Y-83.
X116.Y-66.55
X116.05Y-53.9
X116.05Y-57.3
X116.7Y-65.4
X116.75Y-88.35
X116.8Y-69.3
X117.45Y-63.4
X117.5Y-54.75
X117.5Y-56.45
X117.8Y-83.
X117.8Y-85.2
X118.9Y-55.6
X119.Y-75.7
X119.Y-77.3
X119.9Y-72.2
X120.35Y-50.6
X120.35Y-58.15
X120.7Y-90.75
X121.3Y-72.2
X121.55Y-77.3
X121.8Y-59.1
X122.7Y-72.
X123.25Y-53.9
X123.25Y-57.3
X123.4Y-89.65
X123.7Y-66.25
X123.7Y-73.3
X123.7Y-74.5
X123.7Y-75.7
X124.Y-83.6
X124.Y-85.9
X124.65Y-63.4
X124.7Y-54.75
X124.7Y-56.45
X126.1Y-55.6
X126.15Y-87.95
X126.7Y-83.6
X127.55Y-50.6
X127.55Y-58.15
X127.65Y-78.35
X127.95Y-68.95
X128.1Y-85.
X128.1Y-88.
X128.85Y-77.45
X129.Y-59.1
X129.45Y-66.35
X130.45Y-53.9
X130.45Y-57.3
X130.75Y-66.35
X131.15Y-80.45
X131.35Y-77.55
X131.85Y-65.8
X131.9Y-54.75
X131.9Y-56.45
X133.05Y-65.8
X133.05Y-78.35
X133.35Y-55.6
X134.75Y-50.6
X134.75Y-58.15
X135.2Y-66.35
X135.25Y-63.3
X135.3Y-76.7
X135.3Y-78.35
X136.2Y-59.1
X136.55Y-81.3
X136.95Y-66.35
X137.Y-74.6
X137.Y-80.1
X137.65Y-53.9
X137.65Y-57.3
X139.Y-83.75
X139.1Y-54.75
X139.1Y-56.45
X140.Y-74.
X140.Y-78.
X140.Y-82.5
X140.5Y-59.95
X141.4Y-52.75
X142.3Y-50.7
X142.95Y-80.95
X143.3Y-54.35
X143.8Y-50.2
X144.9Y-55.95
X145.45Y-84.6
X145.9Y-71.6
X146.2Y-53.05
X146.75Y-50.2
X148.5Y-63.
X148.5Y-66.5
X148.5Y-74.
X148.5Y-79.
X148.5Y-84.
X149.6Y-55.95
T3
X118.45Y-91.85
X119.95Y-91.85
X121.45Y-91.85
X122.95Y-91.85
T4
X101.8Y-80.
X101.8Y-82.54
X101.8Y-86.78
X101.8Y-89.32
X101.8Y-91.86
X101.8Y-94.4
X110.16Y-96.05
X112.7Y-96.05
X128.1Y-92.
X128.1Y-94.54
X148.1Y-89.5
X148.1Y-92.04
X148.1Y-94.58
T5
X143.35Y-75.15
X148.653Y-69.847
T6
X148.25Y-53.65
X148.25Y-60.15
T7
X133.1Y-95.5
X138.1Y-95.5
X143.1Y-95.5
T2
X116.825Y-95.36G85X116.825Y-94.66
G05
X116.825Y-98.83G85X116.825Y-98.13
G05
X123.975Y-95.36G85X123.975Y-94.66
G05
X123.975Y-98.83G85X123.975Y-98.13
G05
T0
M30
