G04 #@! TF.FileFunction,Soldermask,Top*
%FSLAX46Y46*%
G04 Gerber Fmt 4.6, Leading zero omitted, Abs format (unit mm)*
G04 Created by KiCad (PCBNEW 4.0.2-stable) date 24.08.2018 1:20:05*
%MOMM*%
G01*
G04 APERTURE LIST*
%ADD10C,0.100000*%
%ADD11R,1.400000X2.400000*%
%ADD12C,3.600000*%
%ADD13R,1.300000X1.600000*%
%ADD14C,2.300000*%
%ADD15C,2.900000*%
%ADD16R,2.900000X2.900000*%
%ADD17R,1.900000X1.900000*%
%ADD18O,1.900000X1.900000*%
%ADD19C,1.900000*%
%ADD20O,1.500000X2.200000*%
%ADD21C,0.950000*%
%ADD22R,3.400000X6.400000*%
%ADD23C,1.700000*%
%ADD24C,1.500000*%
G04 APERTURE END LIST*
D10*
D11*
X133320000Y-61450000D03*
X134760000Y-61450000D03*
X136200000Y-61450000D03*
X137640000Y-61450000D03*
X139080000Y-61450000D03*
X139080000Y-52250000D03*
X137640000Y-52250000D03*
X136200000Y-52250000D03*
X134760000Y-52250000D03*
X133320000Y-52250000D03*
D12*
X100000000Y-74600000D03*
X150800000Y-100000000D03*
X150800000Y-49200000D03*
X100000000Y-49200000D03*
D11*
X111720000Y-61450000D03*
X113160000Y-61450000D03*
X114600000Y-61450000D03*
X116040000Y-61450000D03*
X117480000Y-61450000D03*
X117480000Y-52250000D03*
X116040000Y-52250000D03*
X114600000Y-52250000D03*
X113160000Y-52250000D03*
X111720000Y-52250000D03*
D13*
X106000000Y-55750000D03*
X106000000Y-57950000D03*
D11*
X118920000Y-61450000D03*
X120360000Y-61450000D03*
X121800000Y-61450000D03*
X123240000Y-61450000D03*
X124680000Y-61450000D03*
X124680000Y-52250000D03*
X123240000Y-52250000D03*
X121800000Y-52250000D03*
X120360000Y-52250000D03*
X118920000Y-52250000D03*
X126120000Y-61450000D03*
X127560000Y-61450000D03*
X129000000Y-61450000D03*
X130440000Y-61450000D03*
X131880000Y-61450000D03*
X131880000Y-52250000D03*
X130440000Y-52250000D03*
X129000000Y-52250000D03*
X127560000Y-52250000D03*
X126120000Y-52250000D03*
D14*
X148250000Y-53650000D03*
X148250000Y-60150000D03*
X148653301Y-69846699D03*
X143350000Y-75150000D03*
D15*
X133100000Y-95500000D03*
X138100000Y-95500000D03*
D16*
X143100000Y-95500000D03*
D17*
X128100000Y-92000000D03*
D18*
X128100000Y-94540000D03*
D17*
X148100000Y-89500000D03*
D19*
X148100000Y-92040000D03*
X148100000Y-94580000D03*
D17*
X112700000Y-96050000D03*
D18*
X110160000Y-96050000D03*
D17*
X101800000Y-80000000D03*
D18*
X101800000Y-82540000D03*
D17*
X101800000Y-94400000D03*
D18*
X101800000Y-91860000D03*
X101800000Y-89320000D03*
X101800000Y-86780000D03*
D20*
X116825000Y-95010000D03*
X123975000Y-95010000D03*
X116825000Y-98480000D03*
D21*
X118400000Y-96330000D03*
X122400000Y-96330000D03*
D20*
X123975000Y-98480000D03*
D12*
X100000000Y-100000000D03*
D22*
X142950000Y-66860000D03*
D23*
X142950000Y-71750000D03*
X142950000Y-79250000D03*
D22*
X142950000Y-84630000D03*
D24*
X122950000Y-91850000D03*
X121450000Y-91850000D03*
X119950000Y-91850000D03*
X118450000Y-91850000D03*
M02*
